<svg width="80" height="80" viewBox="0 0 80 80" fill="none" xmlns="http://www.w3.org/2000/svg">
<path d="M40 77.1426C49.8509 77.1426 59.2983 73.2294 66.264 66.2638C73.2296 59.2981 77.1429 49.8507 77.1429 39.9998C77.1429 30.1489 73.2296 20.7015 66.264 13.7358C59.2983 6.77019 49.8509 2.85693 40 2.85693C30.1491 2.85693 20.7017 6.77019 13.736 13.7358C6.7704 20.7015 2.85715 30.1489 2.85715 39.9998C2.85715 49.8507 6.7704 59.2981 13.736 66.2638C20.7017 73.2294 30.1491 77.1426 40 77.1426Z" fill="#FFC000"/>
<path d="M52.8572 31.4284C52.4783 31.4284 52.1149 31.2779 51.847 31.01C51.5791 30.7421 51.4286 30.3787 51.4286 29.9999C51.4286 29.621 51.5791 29.2576 51.847 28.9897C52.1149 28.7218 52.4783 28.5713 52.8572 28.5713" stroke="#111111" stroke-width="3" stroke-linecap="round" stroke-linejoin="round"/>
<path d="M52.8571 31.4284C53.236 31.4284 53.5994 31.2779 53.8673 31.01C54.1352 30.7421 54.2857 30.3787 54.2857 29.9999C54.2857 29.621 54.1352 29.2576 53.8673 28.9897C53.5994 28.7218 53.236 28.5713 52.8571 28.5713" stroke="#111111" stroke-width="3" stroke-linecap="round" stroke-linejoin="round"/>
<path d="M27.1429 31.4284C26.764 31.4284 26.4006 31.2779 26.1327 31.01C25.8648 30.7421 25.7143 30.3787 25.7143 29.9999C25.7143 29.621 25.8648 29.2576 26.1327 28.9897C26.4006 28.7218 26.764 28.5713 27.1429 28.5713" stroke="#111111" stroke-width="3" stroke-linecap="round" stroke-linejoin="round"/>
<path d="M27.1429 31.4284C27.5217 31.4284 27.8851 31.2779 28.153 31.01C28.4209 30.7421 28.5714 30.3787 28.5714 29.9999C28.5714 29.621 28.4209 29.2576 28.153 28.9897C27.8851 28.7218 27.5217 28.5713 27.1429 28.5713" stroke="#111111" stroke-width="3" stroke-linecap="round" stroke-linejoin="round"/>
<path d="M40 77.1426C49.8509 77.1426 59.2983 73.2294 66.264 66.2638C73.2296 59.2981 77.1429 49.8507 77.1429 39.9998C77.1429 30.1489 73.2296 20.7015 66.264 13.7358C59.2983 6.77019 49.8509 2.85693 40 2.85693C30.1491 2.85693 20.7017 6.77019 13.736 13.7358C6.7704 20.7015 2.85715 30.1489 2.85715 39.9998C2.85715 49.8507 6.7704 59.2981 13.736 66.2638C20.7017 73.2294 30.1491 77.1426 40 77.1426Z" stroke="#111111" stroke-width="3" stroke-linecap="round" stroke-linejoin="round"/>
<path d="M44.1829 57.8111C46.1771 58.0854 49.2114 56.914 51.6114 55.0797C54.0114 53.2397 55.9314 50.6226 56.1829 48.6226" stroke="#111111" stroke-width="3" stroke-linecap="round" stroke-linejoin="round"/>
</svg>
