<svg width="225" height="95" viewBox="0 0 225 95" fill="none" xmlns="http://www.w3.org/2000/svg">
<path d="M103.866 56.5838L104.453 57.3936L103.866 56.5838ZM215.704 0.916385C216.063 0.496951 216.694 0.448201 217.114 0.807495L223.949 6.66256C224.368 7.02186 224.417 7.65314 224.058 8.07258C223.699 8.49201 223.067 8.54076 222.648 8.18147L216.572 2.97696L211.368 9.05258C211.008 9.47201 210.377 9.52076 209.958 9.16147C209.538 8.80217 209.49 8.17089 209.849 7.75145L215.704 0.916385ZM1.88656 67.5519C20.8528 87.1892 40.8227 93.1807 59.0571 91.9765C77.3383 90.7691 93.9757 82.3196 106.173 72.9C112.267 68.1936 117.228 63.2639 120.712 58.9125C122.454 56.7364 123.815 54.7181 124.764 52.9566C125.722 51.1777 126.221 49.7304 126.316 48.6807C126.409 47.6517 126.115 47.2325 125.751 47.0333C125.257 46.7633 124.235 46.6507 122.402 47.1517C118.796 48.1368 112.946 51.2423 104.453 57.3936L103.28 55.7739C111.802 49.6015 117.899 46.3088 121.875 45.2224C123.832 44.6877 125.509 44.621 126.711 45.2788C128.042 46.0074 128.44 47.3977 128.308 48.8602C128.178 50.3021 127.536 52.0283 126.525 53.905C125.505 55.7991 124.069 57.9186 122.273 60.1624C118.68 64.651 113.602 69.6902 107.396 74.4829C94.9923 84.0615 77.9844 92.7308 59.1889 93.9721C40.3465 95.2165 19.8083 88.9866 0.447988 68.9413L1.88656 67.5519ZM104.453 57.3936C101.138 59.7943 98.7369 61.9655 97.1212 63.8995C95.4988 65.8416 94.7215 67.481 94.5403 68.823C94.3656 70.1167 94.7317 71.2163 95.6029 72.1848C96.5039 73.1864 97.9736 74.0732 100.02 74.7848C104.111 76.2077 110.182 76.8192 117.507 76.526C124.811 76.2335 133.285 75.0448 142.14 72.9249C159.862 68.6818 179.007 60.7329 193.312 48.8843C207.597 37.051 216.991 21.3926 215.466 1.64394L217.46 1.48995C219.049 22.0663 209.217 38.3069 194.587 50.4245C179.977 62.5268 160.52 70.5807 142.605 74.8699C133.641 77.0162 125.037 78.2261 117.587 78.5244C110.158 78.8218 103.798 78.2162 99.3628 76.6739C97.1458 75.9029 95.3283 74.87 94.116 73.5224C92.874 72.1417 92.3007 70.4625 92.5582 68.5554C92.8092 66.6965 93.8356 64.7129 95.5863 62.6173C97.3437 60.5137 99.8848 58.2326 103.28 55.7739L104.453 57.3936Z" fill="#FFC000"/>
</svg>
