<svg width="191" height="105" viewBox="0 0 191 105" fill="none" xmlns="http://www.w3.org/2000/svg">
<path d="M114.5 13.5004L113.746 14.1567L114.5 13.5004ZM190.64 98.2692C191.064 97.9159 191.122 97.2854 190.769 96.8609L185.013 89.9421C184.66 89.5175 184.029 89.4597 183.605 89.8129C183.18 90.1661 183.122 90.7966 183.475 91.2212L188.592 97.3712L182.442 102.488C182.017 102.841 181.959 103.471 182.312 103.896C182.666 104.32 183.296 104.378 183.721 104.025L190.64 98.2692ZM1.33633 14.4421C4.67918 13.2482 9.2851 12.7027 14.8161 12.6537C20.3307 12.6047 26.6884 13.0489 33.4946 13.7881C47.1133 15.2672 62.4243 17.9147 76.2421 20.1042C90.0014 22.2845 102.36 24.0259 109.923 23.6297C111.822 23.5302 113.476 23.294 114.799 22.8705C116.106 22.4519 117.224 21.8069 117.859 20.7907C118.521 19.7288 118.526 18.4793 118.055 17.1686C117.593 15.8817 116.648 14.4455 115.254 12.844L113.746 14.1567C115.068 15.6773 115.832 16.8947 116.173 17.8444C116.505 18.7702 116.406 19.3401 116.162 19.7317C115.889 20.169 115.296 20.6115 114.189 20.9658C113.098 21.3152 111.635 21.5372 109.818 21.6324C102.511 22.0153 90.387 20.3207 76.5551 18.1289C62.7817 15.9464 47.3933 13.2858 33.7106 11.7998C26.8661 11.0565 20.4225 10.6038 14.7984 10.6537C9.19082 10.7035 4.32082 11.2525 0.663666 12.5586L1.33633 14.4421ZM115.254 12.844C109.779 6.55033 105.044 2.86964 101.134 1.40743C99.1658 0.671218 97.3525 0.477716 95.7453 0.854895C94.1231 1.2356 92.8044 2.17641 91.8102 3.5347C89.8608 6.19819 89.1509 10.4617 89.5351 15.5444C89.9226 20.6709 91.435 26.8058 94.1376 33.3805C104.948 59.6807 134.992 93.458 189.909 98.4962L190.091 96.5046C136.008 91.5428 106.552 58.3201 95.9874 32.6202C93.3463 26.1949 91.8978 20.2672 91.5294 15.3937C91.1577 10.4764 91.897 6.80244 93.4241 4.71593C94.1683 3.69922 95.0947 3.06191 96.2022 2.80199C97.3248 2.53855 98.7258 2.64193 100.434 3.28072C103.877 4.56852 108.346 7.95035 113.746 14.1567L115.254 12.844Z" fill="#FFC000"/>
</svg>
