<svg width="218" height="124" viewBox="0 0 218 124" fill="none" xmlns="http://www.w3.org/2000/svg">
<path d="M109 51.4997L108.061 51.1551L109 51.4997ZM217.835 115.05C218.139 114.588 218.011 113.968 217.55 113.665L210.031 108.717C209.57 108.414 208.95 108.542 208.646 109.003C208.343 109.465 208.471 110.085 208.932 110.388L215.615 114.786L211.218 121.469C210.914 121.93 211.042 122.55 211.503 122.854C211.965 123.157 212.585 123.029 212.888 122.568L217.835 115.05ZM2.23576 22.6769C22.1458 1.04621 52.1919 -1.46489 75.5565 6.38511C87.2319 10.3078 97.14 16.7893 103.225 24.6509C109.29 32.4871 111.546 41.6623 108.061 51.1551L109.939 51.8443C113.704 41.5872 111.21 31.6998 104.806 23.4267C98.4225 15.1788 88.1431 8.50409 76.1935 4.48926C52.3081 -3.53575 21.3542 -1.04685 0.764235 21.3225L2.23576 22.6769ZM108.061 51.1551C99.9144 73.3484 98.8401 95.4351 114.442 108.971C122.203 115.705 133.974 120.195 150.72 121.577C167.469 122.96 189.274 121.24 217.202 115.479L216.798 113.521C188.976 119.259 167.376 120.945 150.884 119.584C134.39 118.223 123.083 113.821 115.752 107.461C101.169 94.8077 101.844 73.8944 109.939 51.8443L108.061 51.1551Z" fill="#FFC000"/>
</svg>
