<svg width="36" height="36" viewBox="0 0 36 36" fill="none" xmlns="http://www.w3.org/2000/svg">
<path d="M16.2875 4.8562H9.85149C9.80725 4.85621 9.76345 4.84745 9.72258 4.83043C9.68171 4.81341 9.64457 4.78845 9.61329 4.75699C9.58201 4.72553 9.5572 4.68818 9.54027 4.64707C9.52335 4.60596 9.51464 4.5619 9.51465 4.51741V2.22995C9.51465 1.61973 10.0065 1.12503 10.6132 1.12503H15.5258C16.1325 1.12503 16.6244 1.61973 16.6244 2.22995V4.51741C16.6244 4.56191 16.6157 4.60597 16.5987 4.64708C16.5818 4.68818 16.557 4.72554 16.5257 4.757C16.4944 4.78846 16.4573 4.81341 16.4164 4.83043C16.3755 4.84745 16.3317 4.85621 16.2875 4.8562Z" stroke="#111111" stroke-width="1.5" stroke-miterlimit="10" stroke-linecap="round" stroke-linejoin="round"/>
<path d="M6.68606 8.97763C6.26502 9.61087 6.01953 10.3723 6.01953 11.1915V11.9264C6.01953 12.6785 6.62543 13.2883 7.37277 13.2883H18.7655C19.5129 13.2883 20.1188 12.6785 20.1188 11.9264V11.1915C20.1188 8.99006 18.3455 7.20545 16.1581 7.20545H15.4243V4.85613H10.714V7.20545H9.98021C9.43309 7.2047 8.89179 7.31843 8.39073 7.53942" stroke="#111111" stroke-width="1.5" stroke-miterlimit="10" stroke-linecap="round" stroke-linejoin="round"/>
<path d="M18.7586 20.5406H7.37973C6.62853 20.5406 6.01953 19.9281 6.01953 19.1726V14.65C6.01953 13.8981 6.62563 13.2885 7.37325 13.2885H18.7651C19.5127 13.2885 20.1188 13.8981 20.1188 14.65V19.1726C20.1188 19.9281 19.5098 20.5406 18.7586 20.5406Z" stroke="#111111" stroke-width="1.5" stroke-miterlimit="10" stroke-linecap="round" stroke-linejoin="round"/>
<path d="M20.1684 24.685C20.1684 23.9253 19.5744 23.3096 18.8418 23.3096C19.5744 23.3096 20.1684 22.6938 20.1684 21.9341C20.1684 21.1745 19.5744 20.5586 18.8418 20.5586H7.32671C6.59395 20.5586 6 21.1745 6 21.9341C6 22.6938 6.59395 23.3096 7.32671 23.3096C6.59395 23.3096 6 23.9253 6 24.685C6 25.4447 6.59395 26.0606 7.32671 26.0606C7.32671 26.0606 6.01985 26.079 6.01985 27.7807V30.8888C6.01985 33.0903 7.79312 34.8749 9.98046 34.8749H16.1584C18.3459 34.8749 20.1191 33.0903 20.1191 30.8888V27.7807C20.1191 26.1016 18.8418 26.0606 18.8418 26.0606C19.5744 26.0606 20.1684 25.4447 20.1684 24.685Z" stroke="#111111" stroke-width="1.5" stroke-miterlimit="10" stroke-linecap="round" stroke-linejoin="round"/>
<path d="M7.32617 26.0607H15.687" stroke="#111111" stroke-width="1.5" stroke-miterlimit="10" stroke-linecap="round" stroke-linejoin="round"/>
<path d="M18.8415 23.3097H10.1016" stroke="#111111" stroke-width="1.5" stroke-miterlimit="10" stroke-linecap="round" stroke-linejoin="round"/>
<path d="M30.1009 31.6927L29.9428 33.401C29.8656 34.2363 29.1681 34.875 28.3333 34.875H21.97C21.1353 34.875 20.4378 34.2363 20.3605 33.401L20.1279 30.8882" stroke="#111111" stroke-width="1.5" stroke-miterlimit="10" stroke-linecap="round" stroke-linejoin="round"/>
<path d="M19.9814 12.5253H31.875L30.3395 29.1135" stroke="#111111" stroke-width="1.5" stroke-miterlimit="10" stroke-linecap="round" stroke-linejoin="round"/>
<path d="M20.1191 18.4507H31.3265" stroke="#111111" stroke-width="1.5" stroke-miterlimit="10" stroke-linecap="round" stroke-linejoin="round"/>
</svg>
