<svg width="36" height="37" viewBox="0 0 36 37" fill="none" xmlns="http://www.w3.org/2000/svg">
<g clip-path="url(#clip0_388_6818)">
<mask id="mask0_388_6818" style="mask-type:luminance" maskUnits="userSpaceOnUse" x="1" y="0" width="36" height="37">
<path d="M36.2686 35.7689V1.23148H1.73125V35.7689H36.2686Z" fill="white" stroke="white" stroke-width="1.4625"/>
</mask>
<g mask="url(#mask0_388_6818)">
<path d="M8.32749 14.1837C8.10179 12.748 7.84867 11.3783 7.60117 10.1217C6.43891 4.21267 10.3651 0.976197 18.9151 1.02823C27.4645 0.976197 31.3914 4.21267 30.2284 10.1217C29.4592 14.0304 28.6352 19.0374 28.7518 23.7153" stroke="#111111" stroke-width="1.5" stroke-miterlimit="10" stroke-linecap="round" stroke-linejoin="round"/>
<path d="M8.67188 16.6201C8.95664 18.9136 9.13319 21.3014 9.0818 23.6112" stroke="#111111" stroke-width="1.5" stroke-miterlimit="10" stroke-linecap="round" stroke-linejoin="round"/>
<path d="M12.0994 27.1289C11.7851 25.8984 11.3625 24.1301 11.3119 23.3166C11.198 21.4955 11.6205 17.5221 11.9827 14.5978C12.202 12.8231 12.8412 11.1483 13.8277 9.72936" stroke="#111111" stroke-width="1.5" stroke-miterlimit="10" stroke-linecap="round" stroke-linejoin="round"/>
<path d="M24.002 9.72935C24.9884 11.1483 25.6276 12.8231 25.8477 14.5978C26.2091 17.5221 26.6316 21.4955 26.5184 23.3166C26.4664 24.147 26.0269 25.9723 25.7105 27.2048" stroke="#111111" stroke-width="1.5" stroke-miterlimit="10" stroke-linecap="round" stroke-linejoin="round"/>
<path d="M8.84766 30.8098C8.99039 32.4249 9.95156 34.2411 11.2953 35.7388C11.3614 35.8124 11.4423 35.8713 11.5326 35.9117C11.623 35.952 11.7209 35.9729 11.8198 35.9729H20.5364" stroke="#111111" stroke-width="1.5" stroke-miterlimit="10" stroke-linecap="round" stroke-linejoin="round"/>
<path d="M22.9961 35.9729H26.0111C26.2114 35.9729 26.402 35.8878 26.5356 35.7388C27.8399 34.2861 28.7828 32.5332 28.9683 30.9547" stroke="#111111" stroke-width="1.5" stroke-miterlimit="10" stroke-linecap="round" stroke-linejoin="round"/>
<path d="M17.7139 27.2843V23.5985" stroke="#111111" stroke-width="1.5" stroke-miterlimit="10" stroke-linecap="round" stroke-linejoin="round"/>
<path d="M20.1162 27.2843V23.5985" stroke="#111111" stroke-width="1.5" stroke-miterlimit="10" stroke-linecap="round" stroke-linejoin="round"/>
<path d="M13.8712 6.35585C13.571 7.35393 13.4131 8.36151 13.4619 9.33182C13.473 9.5552 13.6541 9.73218 13.8778 9.73218H23.9541C24.1778 9.73218 24.3588 9.5552 24.3701 9.33182C24.4188 8.36151 24.2609 7.35393 23.9607 6.35585C23.5744 5.07125 22.394 4.18995 21.0527 4.18995H16.7793C15.4379 4.18995 14.2574 5.07125 13.8712 6.35585Z" stroke="#111111" stroke-width="1.5" stroke-miterlimit="10" stroke-linecap="round" stroke-linejoin="round"/>
<path d="M14.209 9.73216L15.8578 19.3579" stroke="#111111" stroke-width="1.5" stroke-miterlimit="10" stroke-linecap="round" stroke-linejoin="round"/>
<path d="M18.2857 19.2799L16.6494 9.73213" stroke="#111111" stroke-width="1.5" stroke-miterlimit="10" stroke-linecap="round" stroke-linejoin="round"/>
<path d="M21.1805 9.73213L19.5449 19.2799" stroke="#111111" stroke-width="1.5" stroke-miterlimit="10" stroke-linecap="round" stroke-linejoin="round"/>
<path d="M21.9736 19.3579L23.6225 9.73216" stroke="#111111" stroke-width="1.5" stroke-miterlimit="10" stroke-linecap="round" stroke-linejoin="round"/>
<path d="M31.781 23.9826L31.1496 23.6179C30.1513 23.0412 28.8783 23.3152 28.2055 24.2516L26.5011 26.6239C26.3544 26.8282 26.1611 26.9946 25.9373 27.1094C25.7135 27.2242 25.4656 27.284 25.2141 27.284H12.7839C12.5324 27.284 12.2845 27.2242 12.0607 27.1094C11.8369 26.9946 11.6437 26.8282 11.4969 26.6239L9.79248 24.2516C9.11974 23.3152 7.8468 23.0412 6.84837 23.6179L6.21711 23.9826C5.55083 24.3675 5.32266 25.2195 5.70755 25.8858L7.9013 29.6836C8.27316 30.3275 8.80791 30.8621 9.45183 31.2337C10.0957 31.6054 10.8261 31.8011 11.5696 31.801H26.4284C27.1719 31.801 27.9023 31.6054 28.5462 31.2337C29.1901 30.862 29.7249 30.3274 30.0968 29.6836L32.2905 25.8858C32.6754 25.2195 32.4473 24.3675 31.781 23.9826Z" stroke="#111111" stroke-width="1.5" stroke-miterlimit="10" stroke-linecap="round" stroke-linejoin="round"/>
<path d="M19.6639 23.6326H18.167C16.5123 23.6326 15.1709 22.2912 15.1709 20.6364V20.3723C15.1709 19.769 15.6599 19.28 16.2632 19.28H21.5677C22.171 19.28 22.6601 19.769 22.6601 20.3723V20.6364C22.6601 22.2912 21.3186 23.6326 19.6639 23.6326Z" stroke="#111111" stroke-width="1.5" stroke-miterlimit="10" stroke-linecap="round" stroke-linejoin="round"/>
</g>
</g>
<defs>
<clipPath id="clip0_388_6818">
<rect width="36" height="36" fill="white" transform="translate(0 0.5)"/>
</clipPath>
</defs>
</svg>
