<svg width="36" height="36" viewBox="0 0 36 36" fill="none" xmlns="http://www.w3.org/2000/svg">
<path d="M28.9565 5.19568C25.0724 5.19568 21.913 8.35585 21.913 12.2392C21.913 12.6712 22.2629 13.0218 22.6957 13.0218C23.1284 13.0218 23.4783 12.6712 23.4783 12.2392C23.4783 9.21829 25.9364 6.7609 28.9565 6.7609C31.9766 6.7609 34.4348 9.21829 34.4348 12.2392C34.4348 15.26 31.9766 17.7174 28.9565 17.7174H0.782609C0.350609 17.7174 0 18.068 0 18.5C0 18.932 0.350609 19.2826 0.782609 19.2826H28.9565C32.8406 19.2826 36 16.1225 36 12.2392C36 8.35585 32.8406 5.19568 28.9565 5.19568Z" fill="#111111"/>
<path d="M16.087 3.5C13.0661 3.5 10.6087 5.95739 10.6087 8.97826C10.6087 9.41026 10.9593 9.76087 11.3913 9.76087C11.8233 9.76087 12.1739 9.41026 12.1739 8.97826C12.1739 6.82061 13.9293 5.06522 16.087 5.06522C18.2446 5.06522 20 6.82061 20 8.97826C20 11.1359 18.2446 12.8913 16.087 12.8913H2.78261C2.35061 12.8913 2 13.2419 2 13.6739C2 14.1059 2.35061 14.4565 2.78261 14.4565H16.087C19.1078 14.4565 21.5652 11.9991 21.5652 8.97826C21.5652 5.95739 19.1078 3.5 16.087 3.5ZM29.3913 22.2826H2.78261C2.35061 22.2826 2 22.6332 2 23.0652C2 23.4972 2.35061 23.8478 2.78261 23.8478H29.3913C31.549 23.8478 33.3043 25.6032 33.3043 27.7609C33.3043 29.9185 31.549 31.6739 29.3913 31.6739C27.2337 31.6739 25.4783 29.9185 25.4783 27.7609C25.4783 27.3289 25.1284 26.9783 24.6957 26.9783C24.2629 26.9783 23.913 27.3289 23.913 27.7609C23.913 30.7817 26.3712 33.2391 29.3913 33.2391C32.4114 33.2391 34.8696 30.7817 34.8696 27.7609C34.8696 24.74 32.4114 22.2826 29.3913 22.2826Z" fill="#111111"/>
</svg>
