<svg width="319" height="116" viewBox="0 0 319 116" fill="none" xmlns="http://www.w3.org/2000/svg">
<path d="M218.491 0.663388C217.033 1.15449 215.572 2.04518 213.915 2.49358C212.018 3.00909 210.566 4.49764 208.943 5.45239C207.321 6.40409 206.207 7.70048 204.841 8.97551C203.474 10.2475 202.602 12.2333 201.339 13.4046C200.076 14.5759 200.299 17.8825 198.664 18.3553C197.34 18.7365 195.696 17.2266 194.698 16.8301C192.463 16.5678 189.897 16.1651 187.683 16.8301C183.47 8.35325 172.007 7.74623 165.11 12.8647C162.801 6.4285 156.115 1.03553 149.249 0.663388C147.367 0.559677 145.335 0.535275 143.453 0.663388C136.889 1.10874 131.337 5.92214 128.506 11.6445C128.015 13.2673 126.753 17.1687 124.541 14.0848C124.541 14.0848 124.389 14.0695 124.236 14.0848C121.948 14.3014 119.609 13.6181 117.22 13.7798C105.897 15.311 100.071 28.7904 102.884 39.0974C97.5579 37.0537 91.6006 41.4675 93.1228 47.3333C82.3734 40.5555 68.4853 44.3013 58.9592 51.2987C58.8737 50.8351 58.3552 50.6521 58.0441 50.3836C56.6531 49.5905 54.6155 48.6968 53.1635 48.2484C48.9663 47.2784 43.2897 48.9896 41.8774 53.4339C28.4895 47.4797 13.4728 51.3048 1.30809 58.0094C1.13117 58.2931 0.960355 58.5676 1.00306 58.9245C8.53735 61.441 18.6553 61.5569 26.9308 61.6698C35.2063 61.7827 43.4452 61.7339 48.283 68.9906C48.9572 64.9733 50.3725 60.8462 54.1701 58.711C57.9708 56.5758 63.919 57.0181 67.8295 58.9001C71.737 60.7852 73.738 64.2229 74.5158 68.0755C81.3851 63.5946 92.5737 69.4908 91.5976 78.1415C100.547 73.8223 111.589 73.1878 120.576 77.8365C115.137 71.7206 106.288 68.3073 98.3083 71.1258C99.5406 67.8223 100.776 64.8421 103.875 62.6612C106.974 60.4771 112.111 62.4049 115.39 63.5C114.258 59.6108 116.061 55.7369 119.67 54.0532C123.275 52.3663 127.732 53.3516 130.947 55.5692C131.179 50.3104 134.674 45.0547 140.006 43.2764C145.335 41.495 152.982 42.4162 156.569 46.7232C151.567 51.5916 147.977 58.4975 147.418 65.0252C150.045 57.8386 156.865 51.0486 165.11 51.9088C164.784 43.1788 169.369 35.1076 177.693 31.8529C186.014 28.5952 195.739 37.3588 195.003 46.1132C200.009 44.7649 207.257 44.8442 211.805 47.0039C216.353 49.1665 220.715 51.2926 222.151 56.1792C216.279 55.7949 210.417 57.7959 206.595 62.2799C221.563 63.2895 238.724 66.6205 247.164 80.2768C248.238 70.6835 240.539 60.9408 231.302 58.3145C236.39 51.4024 247.112 49.5356 255.116 51.5824C263.12 53.6261 268.98 58.6988 274.312 64.7201C276.853 57.2133 287.257 60.2728 289.563 66.5503C291.006 64.4273 291.79 62.35 293.758 60.3734C295.728 58.3968 297.198 56.9083 299.7 55.6393C302.201 54.3704 305.251 53.9922 308.17 53.739C311.09 53.4858 314.909 55.1909 317.016 54.349C313.771 42.8768 303.833 33.7594 291.699 32.6918C288.862 32.4416 285.912 32.7131 283.158 32.9968C281.148 33.2439 279.244 33.8844 277.362 34.522C273.385 27.9577 266.314 22.7904 258.755 21.7106C257.19 21.4879 254.518 21.5703 253.265 20.7955C251.434 19.6608 251.569 15.433 249.885 13.8042C248.204 12.1723 247.618 9.53372 245.563 8.06042C243.51 6.58406 242.192 4.80573 239.913 3.64355C237.635 2.48138 235.091 1.35886 232.522 0.96842C229.137 0.452916 225.723 -0.190702 222.151 0.0533242C220.925 0.135683 219.674 0.39191 218.491 0.663388Z" fill="#F5F5F7"/>
<path d="M1.30781 58.0093C-2.10855 59.8853 1.97888 62.0327 4.35203 62.8959C6.72213 63.7622 9.60773 64.9397 12.2676 65.6565C14.9244 66.3764 18.2981 67.0779 21.0678 67.8375C23.8375 68.597 27.1837 68.8685 29.9778 69.6036C32.7719 70.3387 37.0667 70.2747 39.7388 70.8237C42.4109 71.3728 41.0962 75.9788 43.9422 77.2965C46.7881 78.6142 48.7311 79.9045 51.9431 79.9716C52.3 84.3671 53.8648 88.54 56.8237 91.8679C62.1495 96.602 69.1408 96.7179 76.3457 96.4434C79.4021 96.3275 82.3487 95.2812 85.0971 94.2136C87.8485 93.149 89.7549 91.7215 92.1311 89.9614C94.5104 88.2045 96.4107 91.9197 99.2323 92.4719C102.051 93.0209 105.958 93.936 108.984 92.783C109.689 102.172 117.333 111.134 127.048 111.933C136.763 112.732 148.361 109.728 152.909 100.409C162.774 112.311 182.357 115.325 194.393 104.984C195.787 116.829 214.211 119.812 218.796 108.645C232.824 115.898 252.91 107.141 255.4 91.2578C257.556 93.3442 261.47 94.1587 264.551 93.6981C267.631 93.2375 271.273 93.4571 273.625 90.8765C275.974 88.296 278.6 90.4678 281.632 91.2578C303.558 96.1963 323.062 75.7164 317.016 54.3489C314.908 55.1908 311.089 53.4857 308.17 53.7389C305.251 53.9921 302.201 54.3703 299.699 55.6392C297.198 56.9082 295.728 58.3967 293.757 60.3733C291.79 62.3499 291.006 64.4272 289.563 66.5502C287.257 60.2727 276.852 57.2132 274.312 64.72C268.98 58.6987 263.12 53.626 255.116 51.5823C247.112 49.5355 236.39 51.4023 231.302 58.3144C240.538 60.9407 248.237 70.6834 247.164 80.2767C238.723 66.6204 221.562 63.2894 206.594 62.2798C210.416 57.7958 216.279 55.7948 222.151 56.1791C220.714 51.2925 216.352 49.1664 211.804 47.0038C207.256 44.8441 200.009 44.7648 195.003 46.1131C195.738 37.3586 186.014 28.5951 177.693 31.8528C169.368 35.1075 164.784 43.1787 165.11 51.9087C156.865 51.0485 150.045 57.8385 147.418 65.0251C147.976 58.4974 151.567 51.5914 156.569 46.7231C152.982 42.4161 145.335 41.4949 140.006 43.2763C134.674 45.0546 131.178 50.3103 130.946 55.5691C127.731 53.3515 123.275 52.3662 119.669 54.0531C116.061 55.7368 114.258 59.6107 115.39 63.4999C112.111 62.4048 106.974 60.477 103.875 62.6611C100.776 64.842 99.5403 67.8222 98.308 71.1257C106.288 68.3072 115.137 71.7205 120.575 77.8364C111.589 73.1877 100.547 73.8222 91.5973 78.1414C92.5734 69.4907 81.3848 63.5945 74.5155 68.0754C73.7377 64.2228 71.7367 60.7851 67.8292 58.9C63.9187 57.018 57.9706 56.5757 54.1699 58.7109C50.3722 60.8461 48.9569 64.9732 48.2828 68.9905C43.4449 61.7338 35.206 61.7826 26.9305 61.6697C18.655 61.5568 8.53707 61.4409 1.00278 58.9244C0.960072 58.5675 1.13089 58.293 1.30781 58.0093Z" fill="#E8ECF0"/>
</svg>
