<svg width="188" height="81" viewBox="0 0 188 81" fill="none" xmlns="http://www.w3.org/2000/svg">
<g filter="url(#filter0_f_2035_3515)">
<path d="M59.7648 8.70236C55.9641 11.4446 53.2829 15.2239 51.529 18.4634C50.9982 19.589 50.4949 21.0226 50.6139 22.4288C50.1685 21.9469 49.6622 21.9621 49.0887 21.8187C47.6612 21.6418 46.072 21.9133 44.8183 22.4288C42.9118 23.0724 41.9266 25.226 41.4629 27.0043C33.5412 19.0948 20.5469 22.7094 13.0949 29.1395C11.6735 30.7867 10.6699 32.8518 9.12951 34.3251C9.12951 34.3251 9.16307 34.4867 9.12951 34.6301C8.94954 35.3896 8.5713 36.0607 8.21442 36.7653C13.9063 37.839 17.9663 42.9941 20.7207 47.7465C21.0898 42.6829 23.0817 35.5818 28.6516 34.02C30.0242 31.0887 34.9749 31.0368 38.1076 31.2747C41.2402 31.5127 44.7268 33.0256 47.2829 34.6057C49.836 36.1888 51.9164 38.7389 53.289 41.1059C54.6617 43.473 57.3551 48.4419 53.9692 48.9666C50.5834 49.4913 47.0816 50.2294 44.1838 51.6875C41.289 53.1486 38.8701 54.8385 37.8025 57.8125C43.9764 52.9259 53.652 50.2538 60.3749 55.6773C61.3358 46.4165 64.7064 35.7282 74.1257 31.6042C83.5421 27.4771 95.2401 31.2015 102.164 38.2905C107.167 29.2036 122.22 30.3505 129.617 35.5452C124.92 37.3174 119.838 39.4893 117.111 44.0861C120.655 41.0754 125.579 42.3291 129.312 44.0861C131.347 36.9575 140.089 36.8446 145.479 39.8156C155.679 31.0582 170.037 37.8238 181.473 39.5106C182.211 36.7135 178.45 34.7185 176.592 33.715C174.054 32.8579 171.37 31.9367 168.966 30.9697C167.408 30.6403 166.053 30.3596 164.391 30.3596C161.85 30.3596 159.306 30.3078 156.765 30.3596C153.251 30.4725 150.057 31.9092 147.004 33.41C145.165 28.2427 141.953 22.2275 136.633 19.6835C134.781 18.7989 133.134 17.7862 131.447 16.9382C131.078 16.8254 130.752 16.6942 130.227 16.6332C128.864 16.4746 127.455 15.9103 126.262 15.7181C124.715 15.468 122.641 15.5808 121.076 15.7181C114.89 16.3434 109.333 19.5707 105.215 24.259C107.875 14.1502 93.7729 8.66271 88.4379 17.2433C87.0896 12.1279 82.2823 8.33632 77.4567 6.87217C76.3464 6.73185 74.7206 6.37192 74.4064 6.26211C69.3459 5.53918 64.2671 6.29871 59.7648 8.70236Z" fill="#F5F5F7"/>
<path d="M9.12956 34.63C0.222626 45.7271 11.942 60.814 24.0761 61.4728C25.8606 61.5705 27.7853 61.5949 29.5667 61.4728C30.3445 61.421 30.9363 61.2593 31.7019 61.1678C34.0964 69.1627 44.8793 71.8866 51.224 66.9634C62.0648 79.3538 88.9656 77.3559 93.0134 59.6427C102.204 69.0895 117.788 62.455 122.602 51.7118C123.822 52.0504 124.721 53.1394 125.957 53.542C128.135 54.1063 131.03 54.4632 133.04 53.3041C135.053 52.145 135.782 49.3936 134.193 48.3565C134.751 48.4266 135.251 48.3351 135.718 48.0514C135.718 47.4414 135.718 46.8313 135.718 46.2212C139.171 46.1938 142.688 46.4012 146.089 46.5263C149.49 46.6513 153.224 46.1846 156.46 46.2212C159.696 46.2578 163.384 45.7972 166.221 45.3061C169.058 44.815 172.843 44.6198 175.046 43.4546C177.245 42.2863 180.796 42.0728 181.473 39.5105C170.037 37.8237 155.679 31.0581 145.479 39.8156C140.089 36.8446 131.347 36.9574 129.312 44.086C125.579 42.329 120.655 41.0753 117.111 44.086C119.838 39.4892 124.92 37.3174 129.617 35.5451C122.22 30.3504 107.167 29.2035 102.164 38.2904C95.2401 31.2015 83.5421 27.477 74.1258 31.6041C64.7064 35.7281 61.3358 46.4165 60.375 55.6772C53.652 50.2538 43.9764 52.9258 37.8026 57.8125C38.8702 54.8384 41.2891 53.1485 44.1839 51.6874C47.0817 50.2294 50.5834 49.4912 53.9693 48.9665C57.3551 48.4419 54.6617 43.4729 53.2891 41.1059C51.9164 38.7388 49.8361 36.1887 47.283 34.6056C44.7268 33.0256 41.2403 31.5126 38.1076 31.2747C34.9749 31.0367 30.0243 31.0886 28.6516 34.02C23.0817 35.5817 21.0899 42.6829 20.7208 47.7464C17.9663 42.994 13.9064 37.839 8.21447 36.7652C8.57135 36.0606 8.94959 35.3896 9.12956 34.63Z" fill="#F5F5F7"/>
</g>
<defs>
<filter id="filter0_f_2035_3515" x="0" y="0" width="187.567" height="80.8628" filterUnits="userSpaceOnUse" color-interpolation-filters="sRGB">
<feFlood flood-opacity="0" result="BackgroundImageFix"/>
<feBlend mode="normal" in="SourceGraphic" in2="BackgroundImageFix" result="shape"/>
<feGaussianBlur stdDeviation="3" result="effect1_foregroundBlur_2035_3515"/>
</filter>
</defs>
</svg>
