<svg width="235" height="106" viewBox="0 0 235 106" fill="none" xmlns="http://www.w3.org/2000/svg">
<path d="M106.198 2.95981C102.406 4.54016 98.6065 6.85424 94.9097 8.60391C84.7961 15.0523 76.6369 25 71.275 35.4134C63.9341 29.5224 53.6583 30.2173 45.1781 32.2456C36.6978 34.2775 31.9603 39.389 26.1222 45.6433C23.7693 49.1074 21.6386 53.6086 20.8308 57.9898C17.8218 57.2419 15.0668 55.5558 11.6592 56.226C1.89488 56.8892 -5.21316 71.1335 4.9568 76.6859C5.61293 77.0457 6.07856 77.1198 6.72058 77.3914C11.8497 77.656 16.7283 73.7227 21.7762 72.3399C26.8206 70.9536 31.8404 68.4067 37.4139 67.8705C42.9839 67.3343 49.0654 68.8582 53.2844 72.4528C52.6988 63.969 44.0351 57.2384 35.6466 57.637C38.8496 51.3368 48.1271 49.9293 54.3709 52.6702C60.6147 55.4076 64.6749 62.3005 64.2199 68.9252C68.4953 66.8898 71.9734 65.4188 76.9191 65.0449C81.8647 64.671 87.5723 65.6869 92.0876 66.1032C96.0349 69.98 102.067 73.3876 104.081 79.1552C103.866 68.0963 92.6097 57.8275 80.7994 59.4008C78.9827 47.3718 84.8702 36.7292 95.6258 31.8929C106.378 27.0601 121.102 35.6497 118.192 48.4654C122.728 46.1725 128.686 48.3772 128.774 53.7567C134.362 41.7877 152.73 43.2516 157.348 55.1677C157.947 49.1427 154.674 44.8108 150.733 40.6165C146.793 36.4258 141.188 34.9054 135.829 34.3551C149.746 25.8114 173.962 30.9016 176.396 49.1709C179.43 42.9588 184.168 37.0255 191.572 35.7732C198.98 34.5244 209.171 34.2916 214.494 40.352C211.845 34.4186 204.366 30.5983 198.267 30.4748C194.666 30.4042 189.808 32.2562 187.946 29.1555C186.087 26.0512 183.914 24.3298 180.982 22.7142C176.841 20.7352 171.729 20.9751 167.577 22.7142C161.182 14.4456 152.691 8.3217 143.59 4.01808C142.108 3.57008 140.715 3.17852 139.357 2.60705C129.342 -1.61544 116.368 -0.126809 106.198 2.95981Z" fill="#F5F5F7"/>
<path d="M6.72058 77.3915C8.59372 78.1817 10.8831 79.5292 12.7174 80.2136C15.8323 80.6898 19.1305 80.6898 22.2419 80.2136C26.99 94.0734 41.587 99.4211 55.0482 96.0876C58.2583 95.2939 61.6518 93.4419 64.6008 92.2355C67.5463 91.0256 71.1797 87.8578 73.8325 89.6498C76.4852 91.4418 78.7287 93.5795 81.5861 95.301C84.4434 97.0224 87.343 98.7685 90.5637 100.081C93.7844 101.393 96.7264 102.864 100.279 103.771C103.834 104.674 108.314 105.612 112.195 105.612C114.544 105.612 116.9 105.658 119.25 105.612C124.051 105.517 129.653 104.197 134.073 102.797C138.493 101.4 142.673 99.7774 146.493 97.227C150.314 94.6766 153.502 93.6324 156.025 89.1207C158.543 84.6054 162.713 88.7714 167.302 90.0131C171.895 91.2513 177.737 92.56 182.746 92.56C185.921 92.56 189.096 92.56 192.27 92.56C196.003 92.56 199.576 91.9745 203.206 91.5018C210.06 89.9426 217.457 88.0236 223.775 84.556C230.089 81.0849 235.582 76.4885 234.95 68.5761C234.319 60.6638 226.188 56.145 218.727 59.0482C220.396 52.1518 217.069 46.1197 214.494 40.3521C209.171 34.2918 198.98 34.5246 191.572 35.7733C184.168 37.0256 179.43 42.959 176.396 49.171C173.962 30.9018 149.746 25.8115 135.829 34.3552C141.188 34.9055 146.793 36.4259 150.733 40.6167C154.674 44.8109 157.947 49.1428 157.348 55.1679C152.73 43.2518 134.362 41.7878 128.774 53.7568C128.686 48.3773 122.728 46.1726 118.192 48.4655C121.102 35.6499 106.378 27.0603 95.6258 31.893C84.8702 36.7293 78.9827 47.372 80.7994 59.4009C92.6097 57.8277 103.866 68.0964 104.081 79.1553C102.067 73.3877 96.035 69.9801 92.0876 66.1033C87.5723 65.6871 81.8647 64.6711 76.9191 65.045C71.9734 65.419 68.4953 66.89 64.2199 68.9254C64.6749 62.3006 60.6147 55.4077 54.3709 52.6703C48.1271 49.9294 38.8496 51.3369 35.6466 57.6372C44.0351 57.2385 52.6988 63.9691 53.2844 72.4529C49.0654 68.8583 42.9839 67.3344 37.4139 67.8706C31.8404 68.4068 26.8206 70.9537 21.7762 72.34C16.7283 73.7228 11.8497 77.6561 6.72058 77.3915Z" fill="#E8ECF0"/>
</svg>
