<svg width="166" height="89" viewBox="0 0 166 89" fill="none" xmlns="http://www.w3.org/2000/svg">
<g filter="url(#filter0_f_2035_3509)">
<path d="M84.7679 4.86755C82.1912 5.81764 79.7064 7.16655 77.5264 8.90176C75.3485 10.637 73.9223 13.3035 73.0746 15.5169C73.0516 15.9428 73.1623 16.421 72.8658 16.7697C70.7296 14.3601 67.6121 13.5895 64.5134 14.264C63.9538 14.525 63.7429 14.6921 63.0517 14.8904C59.3203 16.5171 58.2846 21.3072 59.5019 24.9133C54.6554 20.5638 48.1176 19.0979 41.7531 20.1107C41.0285 20.3362 40.281 20.4427 39.665 20.5283C38.5019 20.9104 37.1739 21.3677 36.1319 22.0067C35.0879 22.6456 33.9519 23.1301 33.0353 23.9215C32.1165 24.7128 31.3502 25.5272 30.5296 26.4272C29.7068 27.3271 29.0637 27.9807 28.3725 29.0728C27.6814 30.1649 27.1239 31.0106 26.6708 32.3824C26.2176 33.7543 25.5035 34.41 25.4638 36.1869C25.4262 37.9639 25.0713 38.3502 23.169 38.2771C21.8514 38.227 20.5213 38.2771 19.2016 38.2771C16.9339 38.2771 15.1653 39.1541 13.1461 39.9476C10.5026 41.6181 8.18898 43.8732 6.2554 46.4207C6.10088 46.7319 5.80229 47.0973 5.62897 47.4648C5.03595 49.4213 4.98584 51.4029 5.00254 53.3115C6.02571 52.2883 8.11381 52.6224 9.52745 51.9897C10.9411 51.3591 13.2756 51.595 14.8312 51.8352C16.3869 52.0732 17.8527 52.779 19.1494 53.5725C20.444 54.368 21.2667 55.22 22.1772 56.3914C23.0897 57.5628 23.691 58.9201 24.4219 60.2022C25.4805 55.1365 22.196 49.6865 17.7399 47.6736C22.0143 46.807 27.3598 48.2917 29.2245 52.4762C29.544 48.5339 33.3631 45.1449 37.5769 46.2119C36.6978 40.1669 41.1684 33.9944 47.1821 33.2657C53.1959 32.537 59.5061 37.5609 59.5019 43.7062C51.3834 40.8664 40.3833 44.2115 37.7857 53.1026C43.6971 50.4027 51.3458 50.8287 56.3698 55.1907C56.161 51.7057 59.1699 48.1747 62.6341 47.8824C64.482 42.2362 72.2602 44.2199 75.3715 47.6736C76.0021 45.9968 76.5408 42.658 79.2721 42.5953C82.0033 42.5306 81.1451 38.3753 82.2142 36.3498C83.2833 34.3265 84.0747 32.3052 86.1669 31.115C88.2571 29.9247 90.0926 28.8222 92.4981 28.2584C94.9056 27.6967 98.4658 28.3315 100.575 29.363C102.682 30.3946 104.072 31.9043 105.283 33.8399C106.497 35.7756 107.601 38.3523 107.528 40.7829C102.619 40.5469 96.8935 43.5078 96.0437 48.7176C103.463 43.4034 113.736 45.0718 121.31 48.9264C121.088 46.9281 119.848 45.7003 118.543 44.176C117.24 42.6517 115.073 42.3343 113.584 41.4093C119.132 38.9224 124.962 42.2591 129.036 46.0031C127.071 39.6866 134.256 35.7777 139.48 37.0201C144.707 38.2604 148.511 41.7956 150.125 46.8383C151.03 45.573 150.1 43.7145 149.85 42.3113C149.599 40.9102 148.701 39.7305 147.985 38.5382C147.269 37.3458 146.081 36.6965 145.097 35.7881C144.114 34.8798 141.531 34.8109 144.423 33.6186C147.317 32.4284 150.952 33.1571 153.466 34.9362C153.331 34.4413 153.502 33.7815 153.466 33.2657C153.395 32.2217 153.214 31.2966 152.84 30.3424C152.358 29.4674 151.729 28.4526 151.169 27.6278C148.298 24.7567 145.291 23.2762 141.147 23.8693C140.558 24.0467 139.984 24.4602 139.476 24.9133C139.234 24.5291 139.079 23.744 139.476 23.4516C140.752 16.7885 134.189 9.8414 127.365 12.1759C126.463 12.7063 125.496 13.3703 124.651 13.8464C123.778 14.6461 122.585 15.3352 121.936 16.3521C121.832 16.5776 121.794 16.7488 121.727 16.9785C121.408 18.0769 120.836 19.3047 120.474 20.1107C120.472 20.3195 120.468 20.5283 120.474 20.7371C120.504 21.7122 120.197 21.4554 120.057 22.1988C119.886 20.9626 119.47 19.1209 117.76 19.2754C119.455 19.217 117.633 17.7386 116.862 17.0412C116.091 16.3417 114.07 15.7946 113.793 14.8904C111.065 13.8171 108.28 14.9865 105.858 16.1433C105.849 14.3747 104.845 12.9485 103.978 11.5495C102.63 10.1045 101.473 8.6846 100.011 7.37327C98.422 6.49836 96.6784 5.58586 94.9996 5.07636C91.951 4.15133 87.8834 4.17848 84.7679 4.86755Z" fill="#F5F5F7"/>
<path d="M5.00244 53.3114C5.03167 56.5229 6.67292 58.7258 9.23084 60.5675C11.7888 62.4093 14.3655 63.4366 17.1134 64.796C20.6548 65.9757 24.3612 66.9467 28.1803 67.0929C33.1312 67.2808 37.9401 66.291 41.9618 63.5431C42.9432 70.8744 50.3706 72.5052 56.3739 74.8146C62.3792 77.122 71.4854 78.3394 77.2507 74.1924C78.2926 73.4469 79.1425 72.0897 80.174 71.4779C80.8819 73.2632 82.6317 74.5098 83.9326 75.8629C89.0359 79.7739 96.8412 79.8449 102.308 76.6981C105.091 81.0226 110.092 83.5053 115.045 84.0065C116.474 84.0608 118.006 84.1192 119.43 84.0065C128.035 83.3237 134.673 74.065 134.465 65.84C138.125 67.2808 142.827 64.9254 143.652 61.0374C143.519 60.4924 143.922 60.0956 143.861 59.5757C150.756 65.2365 160.745 59.2291 161.192 51.0145C161.255 49.8598 161.272 48.6174 161.192 47.4647C160.963 44.0778 159.2 40.835 157.016 38.2771C155.884 37.1453 154.523 35.8758 153.466 34.9361C150.952 33.1571 147.317 32.4283 144.423 33.6185C141.531 34.8108 144.114 34.8798 145.097 35.7881C146.081 36.6964 147.269 37.3458 147.985 38.5381C148.701 39.7304 149.599 40.9102 149.85 42.3113C150.1 43.7145 151.029 45.5729 150.125 46.8383C148.511 41.7955 144.707 38.2604 139.48 37.0201C134.256 35.7776 127.071 39.6866 129.036 46.0031C124.962 42.2591 119.132 38.9223 113.584 41.4092C115.072 42.3343 117.24 42.6517 118.543 44.176C119.848 45.7003 121.088 46.9281 121.31 48.9264C113.736 45.0718 103.463 43.4034 96.0436 48.7176C96.8934 43.5078 102.619 40.5469 107.528 40.7828C107.601 38.3523 106.497 35.7755 105.283 33.8399C104.072 31.9042 102.682 30.3945 100.575 29.363C98.4657 28.3315 94.9056 27.6967 92.498 28.2584C90.0925 28.8222 88.257 29.9247 86.1668 31.1149C84.0746 32.3051 83.2832 34.3264 82.2141 36.3498C81.145 38.3752 82.0032 42.5305 79.272 42.5953C76.5407 42.6579 76.002 45.9968 75.3714 47.6735C72.2601 44.2198 64.4819 42.2361 62.634 47.8823C59.1698 48.1747 56.1609 51.7057 56.3697 55.1907C51.3457 50.8287 43.697 50.4027 37.7856 53.1026C40.3832 44.2115 51.3833 40.8663 59.5018 43.7061C59.506 37.5609 53.1958 32.5369 47.182 33.2657C41.1683 33.9944 36.6977 40.1668 37.5768 46.2119C33.363 45.1448 29.5439 48.5338 29.2244 52.4762C27.3597 48.2916 22.0142 46.807 17.7398 47.6735C22.1958 49.6865 25.4804 55.1364 24.4218 60.2021C23.6909 58.92 23.0896 57.5628 22.1771 56.3914C21.2666 55.2199 20.4439 54.368 19.1493 53.5724C17.8526 52.7789 16.3868 52.0732 14.8311 51.8351C13.2755 51.595 10.941 51.359 9.52735 51.9896C8.11371 52.6223 6.02561 52.2882 5.00244 53.3114Z" fill="#E8ECF0"/>
</g>
<defs>
<filter id="filter0_f_2035_3509" x="0.892696" y="0.257442" width="164.46" height="87.9207" filterUnits="userSpaceOnUse" color-interpolation-filters="sRGB">
<feFlood flood-opacity="0" result="BackgroundImageFix"/>
<feBlend mode="normal" in="SourceGraphic" in2="BackgroundImageFix" result="shape"/>
<feGaussianBlur stdDeviation="2.05365" result="effect1_foregroundBlur_2035_3509"/>
</filter>
</defs>
</svg>
