<svg width="447" height="138" viewBox="0 0 447 138" fill="none" xmlns="http://www.w3.org/2000/svg">
<g filter="url(#filter0_f_2035_3506)">
<path d="M329.944 27.9425C329.212 28.6318 325.97 26.1306 325.064 25.8072C323.648 25.5083 322.004 25.3009 320.488 25.5022C318.716 26.0025 315.751 28.1316 314.693 29.7727C314.626 30.3675 314.363 31.0385 313.778 31.2978C311.587 14.3289 290.189 9.21045 277.174 17.2663C275.084 19.0874 273.336 21.2531 271.683 23.367C270.866 24.2424 270.576 25.6029 270.158 26.7223C267.144 21.1006 261.26 18.8098 254.906 19.7066C254.492 19.7646 254.064 19.8774 253.686 20.0116C251.658 21.0487 250.444 22.3573 248.882 24.3583C247.317 26.3563 245.838 27.1677 245.46 30.3919C245.078 33.613 243.172 31.8499 240.875 30.3827C238.471 29.2602 236.168 28.0889 233.554 27.6374C230.601 27.128 227.734 26.7071 224.708 26.4173C221.682 26.1275 218.748 27.5642 215.862 27.6374C215.71 27.6405 215.393 27.5978 215.252 27.6374C213.87 29.1077 209.786 32.0146 207.626 32.823C207.52 32.8626 207.361 33.0213 207.321 33.128C206.336 35.8764 204.305 38.0726 203.356 40.7538C203.24 41.3059 203.097 41.6659 203.051 42.279C202.877 44.6369 202.889 47.2419 203.051 49.5997C203.222 51.3964 203.707 53.1137 204.271 54.7853C200.254 54.3003 196.136 55.2794 194.205 59.0557C193.927 59.8458 194.022 60.7456 193.616 61.5173C193.211 62.2891 194.056 63.8295 193.595 64.5463C193.086 65.3364 190.407 63.4574 189.346 63.3049C188.287 63.1523 186.006 62.1915 184.749 62.1061C182.333 61.9413 179.85 62.1061 177.428 62.1061C177.023 62.1061 176.614 62.0878 176.208 62.1061C174.701 62.4508 173.423 62.8991 171.633 63.0212C165.309 63.9729 160.078 67.6576 155.466 72.1721C150.375 64.04 140.827 61.5235 131.978 63.0212C132.213 63.07 132.878 63.921 133.199 63.9363C129.09 62.8168 125.661 65.5255 122.217 67.2916C119.353 68.7924 116.901 71.7298 114.897 74.3073C111.065 70.5646 105.706 69.7044 100.56 70.3419C98.9465 70.6988 96.7991 71.9495 95.0695 71.8671C94.917 71.861 94.6059 71.8366 94.4595 71.8671C93.3705 72.709 92.0314 74.289 90.8754 74.9937C89.7193 75.6983 89.4722 79.0292 88.0538 78.2728C86.3029 77.3363 85.5861 74.7191 83.5546 73.621C81.52 72.526 80.1748 70.8849 77.6888 70.3358C75.2058 69.7837 72.2104 69.192 69.4468 69.4268C66.6833 69.6617 63.7885 69.7014 61.214 70.345C58.6365 70.9856 56.6446 71.5834 54.1952 72.4772C52.3101 73.5844 50.2146 74.4873 48.0946 75.2224C44.7484 76.3816 41.2222 77.6475 37.7235 78.2728C32.7271 80.0481 25.086 79.5631 20.0316 78.2728C14.2269 77.623 9.48058 78.0226 6.91526 83.7633C5.49076 88.4578 13.4155 87.0455 17.0484 87.9667C20.6814 88.8879 26.5044 88.8604 30.7108 89.5559C34.9172 90.2514 40.7799 90.0073 45.3493 90.169C49.9187 90.3307 54.2196 89.6322 58.2308 87.7989C62.242 85.9657 67.1286 85.9779 71.5821 85.8986C76.0355 85.8193 79.6319 87.1309 83.1733 89.559C89.7467 83.7084 99.157 82.1802 107.881 83.1533C105.218 85.624 102.833 88.833 104.221 92.6093C114.988 80.4812 136.215 79.865 148.145 90.7791C156.619 88.5584 165.309 90.7699 173.158 93.5244C170.309 88.7415 164.873 85.5325 159.431 84.9835C167.271 81.9057 177.013 83.5712 183.529 88.9489C181.348 82.9001 184.154 75.4634 190.249 73.4014C196.34 71.3363 202.801 74.9937 205.186 80.713C210.954 77.0618 220.49 81.0638 220.133 88.3388C227.231 83.8243 236.65 82.0857 244.84 85.2885C239.383 79.8528 231.913 77.0892 224.403 76.1375C230.336 67.3587 244.181 66.2698 252.771 71.8671C251.719 66.709 251.883 59.6475 255.44 55.6241C258.997 51.6038 266.4 50.7406 269.548 55.0903C262.065 57.1462 259.616 67.7797 264.057 73.6973C264.914 65.7115 272.629 59.01 280.834 59.3608C281.801 51.7472 285.742 38.8474 296.086 40.4488C306.429 42.0502 307.052 56.0512 305.847 64.2413C315.223 66.2362 313.286 78.5107 307.982 83.7633C315.181 79.8193 326.488 83.4614 328.114 91.9992C335.484 82.3022 349.997 79.2763 360.447 85.2885C353.014 76.4365 338.458 74.2677 329.029 81.3231C328.01 66.1752 336.74 54.4009 349.982 48.285C363.226 42.1722 381.293 52.0065 380.885 67.5966C382.764 62.8717 390.46 58.3542 393.696 64.2413C396.261 53.5896 407.575 47.5408 417.998 48.4803C428.421 49.4198 437.996 56.3532 439.756 66.9866C440.406 66.2454 439.899 64.9063 440.061 63.9363C439.966 61.435 439.625 58.1315 437.926 56.3105C434.567 52.7141 432.145 48.2759 427.25 45.6343C426.148 45.1585 424.992 44.8504 423.894 44.4142C422.778 44.2129 418.77 44.8077 418.718 43.1849C418.669 41.5591 419.203 38.9206 419.014 37.0934C417.324 29.4707 409.347 24.9593 401.932 27.0274C400.886 27.4727 399.193 29.0101 398.271 28.8576C397.866 28.8576 397.457 28.8576 397.051 28.8576C396.664 26.7986 395.435 24.4956 394.398 22.6654C393.364 20.8352 392.256 19.1941 390.874 17.6476C389.493 16.1011 388.16 14.7773 386.589 13.3925C385.015 12.0076 383.297 11.0925 381.397 10.0432C379.497 8.99386 377.273 8.2679 375.089 7.50532C372.905 6.74274 370.208 6.63904 367.79 6.26385C365.374 5.88561 362.204 5.96492 359.737 6.18454C357.269 6.40417 354.701 6.82816 352.416 7.40467C350.134 7.98423 347.886 8.74984 345.83 9.66493C343.771 10.577 342.191 11.5744 340.392 12.7671C338.589 13.9567 337.64 15.5307 335.969 16.8851C334.297 18.2424 333.794 20.3594 332.314 21.7717C330.835 23.184 331.216 26.7467 329.944 27.9425Z" fill="#F5F5F7"/>
<path d="M6.9151 83.7632C6.45755 84.6021 6.14642 85.7825 6 86.8136C10.3162 87.9879 14.1169 89.4063 18.5033 90.477C22.8896 91.5446 27.3309 92.3621 31.8606 93.2863C36.3873 94.2106 40.9628 94.9457 45.6511 95.6625C50.3395 96.3794 55.7324 96.721 60.6007 96.8796C65.4691 97.0382 71.2311 96.4221 75.8524 95.9645C80.4736 95.507 82.9474 98.7738 87.2331 100.14C91.5157 101.51 95.9113 103.041 100.56 102.98C105.209 102.919 109.144 101.626 113.066 99.6249C114.402 102.456 115.778 104.798 118.176 107.022C120.573 109.246 123.01 110.402 126.177 111.222C129.34 112.046 133.815 111.78 136.834 110.582C139.854 109.386 142.032 107.791 144.719 106.265C147.407 104.743 149.99 107.797 152.644 109.157C155.298 110.518 157.631 112.201 160.63 113.373C163.625 114.547 167.612 115.243 171.022 114.571C179.774 112.851 188.876 106.628 191.154 97.4897C200.845 102.526 214.029 101.345 222.573 94.4394C221.313 107.824 234.161 115.398 246.06 115.792C257.96 116.185 271.015 113.092 279.614 104.505C286.639 109.947 296.522 110.094 304.626 106.946C305.502 113.461 310.453 118.811 315.608 122.807C325.79 130.549 342.115 133.581 354.039 129.82C365.962 126.062 376.885 118.631 379.359 106.031C391.109 113.223 409.222 103.157 405.897 88.6437C412.959 94.6773 423.995 92.5299 431.495 88.0093C438.996 83.4887 441.211 71.9829 440.061 63.9361C439.899 64.9061 440.405 66.2452 439.756 66.9865C437.996 56.353 428.421 49.4197 417.998 48.4802C407.575 47.5407 396.261 53.5895 393.696 64.2412C390.459 58.3541 382.763 62.8716 380.884 67.5965C381.293 52.0063 363.226 42.1721 349.982 48.2849C336.74 54.4008 328.01 66.1751 329.029 81.323C338.458 74.2676 353.014 76.4364 360.447 85.2884C349.997 79.2762 335.483 82.3021 328.114 91.9991C326.488 83.4613 315.181 79.8192 307.982 83.7632C313.286 78.5106 315.223 66.2361 305.847 64.2412C307.051 56.0511 306.429 42.0501 296.086 40.4487C285.742 38.8473 281.801 51.7471 280.834 59.3607C272.629 59.0099 264.914 65.7114 264.057 73.6972C259.616 67.7795 262.065 57.1461 269.548 55.0902C266.4 50.7405 258.997 51.6037 255.44 55.624C251.883 59.6474 251.719 66.7089 252.771 71.867C244.181 66.2696 230.336 67.3586 224.403 76.1374C231.913 77.0891 239.383 79.8527 244.84 85.2884C236.65 82.0856 227.231 83.8242 220.133 88.3387C220.489 81.0637 210.954 77.0617 205.186 80.7129C202.801 74.9936 196.34 71.3362 190.249 73.4013C184.154 75.4633 181.348 82.9 183.529 88.9488C177.013 83.5711 167.27 81.9056 159.431 84.9834C164.873 85.5324 170.309 88.7414 173.158 93.5243C165.309 90.7698 156.619 88.5583 148.145 90.779C136.215 79.8649 114.988 80.4811 104.22 92.6092C102.832 88.8329 105.218 85.6239 107.881 83.1532C99.1568 82.1801 89.7466 83.7083 83.1731 89.5588C79.6317 87.1308 76.0354 85.8191 71.5819 85.8985C67.1284 85.9778 62.2418 85.9656 58.2307 87.7988C54.2195 89.632 49.9185 90.3306 45.3491 90.1689C40.7798 90.0072 34.917 90.2513 30.7106 89.5558C26.5043 88.8603 20.6812 88.8878 17.0483 87.9666C13.4153 87.0454 5.4906 88.4577 6.9151 83.7632Z" fill="#E8ECF0"/>
</g>
<defs>
<filter id="filter0_f_2035_3506" x="0" y="0" width="446.346" height="137.429" filterUnits="userSpaceOnUse" color-interpolation-filters="sRGB">
<feFlood flood-opacity="0" result="BackgroundImageFix"/>
<feBlend mode="normal" in="SourceGraphic" in2="BackgroundImageFix" result="shape"/>
<feGaussianBlur stdDeviation="3" result="effect1_foregroundBlur_2035_3506"/>
</filter>
</defs>
</svg>
