<svg width="335" height="116" viewBox="0 0 335 116" fill="none" xmlns="http://www.w3.org/2000/svg">
<path d="M93.3956 1.29423C86.0077 4.78685 79.1476 11.4915 76.0088 18.6811C75.1059 21.7436 74.5904 25.0532 74.1786 28.1371C67.3306 17.1925 49.3551 15.9114 42.4553 27.527C40.7532 27.0694 39.0572 26.7095 37.2697 26.6119C35.1497 26.496 32.9871 26.6119 30.864 26.6119C30.5651 26.6119 30.2479 26.5875 29.9489 26.6119C28.3933 27.1518 26.8407 27.2891 25.0684 27.527C15.7558 28.7685 8.1727 38.2824 7.6816 47.3541C7.56874 49.4222 8.20015 51.4842 7.98663 53.4547C7.98663 53.4547 8.02933 53.6194 7.98663 53.7598C9.33487 55.6845 14.4869 53.7293 16.5275 54.6749C18.5682 55.6174 21.8656 55.6082 23.7568 57.2066C25.6449 58.808 27.3348 60.0068 28.6587 62.0658C29.9825 64.1247 31.651 66.0922 32.0842 68.4013C29.226 68.3586 26.3526 68.3708 23.8483 69.6214C30.0008 70.988 36.6413 72.87 40.9301 78.1623C40.6708 74.6758 38.3861 71.7994 36.3546 69.3164C40.9362 67.9437 45.6886 67.0073 50.6911 67.1812C44.7582 58.7989 45.9204 47.0399 55.9468 42.2387C65.9732 37.4375 78.0128 47.9397 72.6534 58.9453C83.1801 54.2112 96.5374 55.7852 105.597 62.9107C98.6971 63.5177 89.8603 65.3235 87.295 72.9768C96.9736 64.9026 112.353 64.5091 122.984 70.8416C121.425 64.0027 132.464 62.5386 133.66 68.7063C136.341 61.7272 144.8 58.0699 151.962 60.4705C150.232 52.7501 140.27 53.3968 134.27 54.9799C144.739 43.9804 165.972 48.7694 170.569 63.2158C179.137 52.0302 196.051 54.1014 203.512 65.351C207.526 56.197 220.387 54.9311 228.22 59.5554C222.565 59.2351 215.171 62.1359 213.578 68.4013C217.718 67.3489 222.799 66.2081 227.003 68.0932C231.203 69.9783 234.61 68.203 236.691 64.3657C238.771 60.5284 244.335 60.077 248.068 60.7541C251.802 61.4313 254.913 64.1095 258.113 65.961C262.301 60.8548 266.053 59.8817 272.144 57.7252C278.239 55.5686 285.566 58.6738 291.871 57.9295C298.176 57.1853 303.999 54.5864 310.295 53.7811C316.591 52.9758 325.058 52.4756 331.626 53.1497C330.796 51.8136 327.956 52.9545 327.66 51.0145C320.672 49.0074 312.814 48.1624 305.393 48.8792C304.051 49.1324 302.669 49.4069 301.122 49.4893C300.406 49.5259 299.939 49.6632 299.292 49.7943C297.587 50.383 295.72 50.7338 293.802 51.0145C288.326 51.8136 283.354 54.3485 278.62 51.2493C273.886 48.1502 268.115 47.65 262.688 47.3541C260.48 47.4486 257.793 47.6591 255.368 47.6591C248.864 47.6408 243.221 50.7521 237.676 53.4547C236.504 49.3642 232.902 46.4237 229.44 44.3038C228.394 43.9987 227.076 43.3094 226.085 42.7786C220.28 40.2956 213.423 41.7506 208.393 44.9138C209.146 40.4451 208.768 35.6836 207.478 31.4924C206.849 30.2601 205.406 28.8417 205.647 27.222C205.647 27.222 205.663 27.0694 205.647 26.9169C204.077 25.9347 204.052 23.7049 202.628 22.616C201.203 21.527 200.834 19.9774 199.471 18.7573C198.107 17.5372 197.012 16.1676 195.368 15.2342C193.727 14.2978 192.281 13.0288 191.006 11.9704C189.889 11.3999 188.858 11.0187 187.651 10.7502C186.214 10.433 184.591 9.84123 183.38 9.5301C182.984 9.49044 182.56 9.5301 182.16 9.5301C180.345 9.5301 178.481 9.40808 176.669 9.5301C163.254 10.4421 151.513 22.677 149.216 35.4578C148.375 34.497 148.616 33.0054 148.301 31.7974C146.584 28.1676 144.11 26.3313 140.676 24.4767C139.52 24.2082 137.644 23.4335 136.405 23.2565C135.402 23.2565 134.352 23.1681 133.355 23.2565C132 23.5006 131.29 24.6963 129.975 25.0623C128.66 25.4284 128.422 21.8869 128.474 21.1213C128.474 21.1213 128.48 20.9688 128.474 20.8163C127.272 20.2215 127.096 17.2718 126.644 15.9358C124.222 11.2474 120.571 7.50773 116.273 4.34455C114.348 3.18848 111.856 2.22458 109.867 1.29423C104.627 -0.49936 98.6391 -0.362095 93.3956 1.29423Z" fill="#F5F5F7"/>
<path d="M7.98682 53.7601C5.32084 54.8612 1.34322 56.6457 0.461679 60.2664C-0.422915 63.8841 -0.0416241 68.8134 1.6513 71.9918C3.34423 75.1703 4.87244 77.2658 7.7733 79.5963C10.6742 81.9267 13.941 82.9089 17.7478 83.3482C21.5547 83.7874 26.1942 82.8144 29.6441 81.518C34.061 89.1438 42.7605 93.9572 51.3014 94.6344C59.5739 95.2902 67.1539 92.8164 74.1788 89.1438C71.3969 101.47 81.5026 111.969 93.2952 114.257C105.091 116.545 119.671 114.071 128.78 105.616C131.314 103.45 133.352 100.961 135.185 98.2948C141.408 106.643 156.583 106.033 160.198 95.8545C165.682 100.525 172.1 104.38 179.415 105.005C190.603 105.893 203.012 101.97 208.393 91.584C217.867 96.7147 233.717 88.7777 230.05 76.9425C232.93 77.278 236.59 77.9003 238.82 75.3411C241.047 72.7788 243.426 73.0686 246.522 74.1972C249.621 75.3258 252.824 75.7468 256.283 75.7224C259.742 75.698 263.36 75.5851 266.654 74.8073C272.026 73.6177 276.662 71.4397 281.53 68.3315C286.399 65.2232 293.762 66.0773 299.591 65.3452C305.418 64.6131 312.009 63.8048 317.588 62.2949C323.164 60.7849 328.261 59.5435 333.456 57.1154C338.547 54.7331 329.482 51.5364 327.661 51.0148C327.956 52.9548 330.796 51.814 331.626 53.15C325.059 52.4759 316.591 52.9761 310.295 53.7814C303.999 54.5867 298.176 57.1856 291.871 57.9298C285.566 58.6741 278.239 55.5689 272.145 57.7255C266.053 59.8821 262.301 60.8551 258.113 65.9613C254.913 64.1098 251.802 61.4316 248.068 60.7544C244.335 60.0773 238.771 60.5287 236.691 64.366C234.61 68.2033 231.203 69.9786 227.003 68.0935C222.8 66.2084 217.718 67.3492 213.578 68.4016C215.171 62.1362 222.565 59.2354 228.22 59.5557C220.387 54.9314 207.527 56.1973 203.512 65.3513C196.051 54.1017 179.137 52.0305 170.569 63.2161C165.972 48.7697 144.739 43.9807 134.27 54.9802C140.27 53.3971 150.232 52.7504 151.962 60.4708C144.8 58.0702 136.341 61.7275 133.66 68.7066C132.464 62.5389 121.425 64.003 122.984 70.8419C112.354 64.5094 96.9738 64.9029 87.2952 72.9771C89.8605 65.3238 98.6973 63.518 105.597 62.911C96.5376 55.7855 83.1803 54.2115 72.6536 58.9456C78.013 47.94 65.9734 37.4378 55.947 42.239C45.9206 47.0402 44.7584 58.7992 50.6913 67.1815C45.6888 67.0076 40.9364 67.9441 36.3548 69.3167C38.3863 71.7997 40.671 74.6761 40.9303 78.1626C36.6415 72.8703 30.001 70.9883 23.8485 69.6217C26.3528 68.3711 29.2262 68.3589 32.0844 68.4016C31.6512 66.0925 29.9827 64.125 28.6589 62.0661C27.335 60.0071 25.6451 58.8083 23.757 57.2069C21.8658 55.6086 18.5684 55.6177 16.5277 54.6752C14.4871 53.7296 9.33506 55.6848 7.98682 53.7601Z" fill="#E8ECF0"/>
</svg>
