<svg width="2069" height="538" viewBox="0 0 2069 538" fill="none" xmlns="http://www.w3.org/2000/svg">
<path d="M1249.58 335.05H2068.11V377H1249.58V335.05Z" fill="#E8ECF0"/>
<path d="M1249.58 335.05H1387.38V317.938H1249.58V335.05Z" fill="#E8ECF0"/>
<path d="M1387.38 335.05H1542.27V166.697H1387.38L1387.38 335.05Z" fill="#E8ECF0"/>
<path d="M1382.42 157.865H1551.64V166.697H1382.42V157.865Z" fill="#E8ECF0"/>
<path d="M1408.32 157.865H1422.1V136.338H1408.32V157.865Z" fill="#E8ECF0"/>
<path d="M1432.58 157.865H1445.25V136.338H1432.58V157.865Z" fill="#E8ECF0"/>
<path d="M1466.75 157.865H1535.65V136.338H1466.75V157.865Z" fill="#E8ECF0"/>
<path d="M1598.49 335.05H1649.2V188.224H1598.49V335.05Z" fill="#E8ECF0"/>
<path d="M1810.7 335.05H1772.12V249.493H1810.7V335.05Z" fill="#E8ECF0"/>
<path d="M1877.95 335.05H1810.7L1810.7 321.25H1877.95V335.05Z" fill="#E8ECF0"/>
<path d="M1959.53 154.002H1873.54V161.177H1959.53V154.002Z" fill="#E8ECF0"/>
<path d="M1934.17 154.002H1931.97V128.611H1934.17V154.002Z" fill="#E8ECF0"/>
<path d="M1945.75 154.002H1943.54V123.091H1945.75V154.002Z" fill="#E8ECF0"/>
<path d="M1645.34 64.5812H1775.98V72.8609H1645.34V64.5812Z" fill="#E8ECF0"/>
<path d="M1652.51 52.9897H1768.26V64.5812H1652.51V52.9897Z" fill="#E8ECF0"/>
<path d="M1713.69 36.4304H1759.99V52.9897H1713.69V36.4304Z" fill="#E8ECF0"/>
<path d="M1740.15 25.3908H1759.99L1759.99 36.4304H1736.84L1740.15 25.3908Z" fill="#E8ECF0"/>
<path d="M1542.27 335.05H1598.49L1598.49 300.827L1542.27 275.436L1542.27 335.05Z" fill="#E8ECF0"/>
<path d="M1956.22 335.05H1999.21L1985.43 239.558H1956.22V335.05Z" fill="#E8ECF0"/>
<path d="M1242.41 38.0863H1364.23V24.8389H1242.41V38.0863Z" fill="#E8ECF0"/>
<path d="M1256.19 14.9033H1293.12V24.8389H1256.19V14.9033Z" fill="#E8ECF0"/>
<path d="M1253.44 14.9033H1295.88V11.0394H1253.44V14.9033Z" fill="#E8ECF0"/>
<path d="M1237.45 34.7745H1242.41L1242.41 24.8389L1237.45 24.839V34.7745Z" fill="#E8ECF0"/>
<path d="M1364.23 34.7745H1369.19V24.839L1364.23 24.8389L1364.23 34.7745Z" fill="#E8ECF0"/>
<path d="M1249.58 355.473H1224.22V377L1249.58 377V355.473Z" fill="#E8ECF0"/>
<path d="M949.172 317.938H1224.22L1224.22 377L949.172 377V317.938Z" fill="#E8ECF0"/>
<path d="M1120.04 317.938H1224.22V218.583H1120.04V317.938Z" fill="#E8ECF0"/>
<path d="M949.172 347.745H607.426V377L949.172 377V347.745Z" fill="#E8ECF0"/>
<path d="M932.084 347.745H800.898V285.372H932.084V347.745Z" fill="#E8ECF0"/>
<path d="M932.084 185.464H866.491V285.372L932.084 285.372V185.464Z" fill="#E8ECF0"/>
<path d="M800.898 265.501H717.115V200.367H800.898V265.501Z" fill="#E8ECF0"/>
<path d="M792.63 172.769H760.66V200.368H792.63V172.769Z" fill="#E8ECF0"/>
<path d="M797.591 172.769H755.7V169.457H797.591V172.769Z" fill="#E8ECF0"/>
<path d="M776.094 161.177H773.338V169.457H776.094V161.177Z" fill="#E8ECF0"/>
<path d="M766.724 124.747H764.519V169.457H766.724V124.747Z" fill="#E8ECF0"/>
<path d="M800.898 347.745H652.073L674.121 265.501L800.898 265.501L800.898 347.745Z" fill="#E8ECF0"/>
<path d="M106.382 333.394H0V377H106.382V333.394Z" fill="#E8ECF0"/>
<path d="M147.723 343.33H106.382L106.382 377L147.723 377V343.33Z" fill="#E8ECF0"/>
<path d="M206.15 287.028H147.722L147.723 377L206.15 377V287.028Z" fill="#E8ECF0"/>
<path d="M353.872 310.211H274.499V377H353.872V310.211Z" fill="#E8ECF0"/>
<path d="M274.499 198.711H206.15L206.15 377H274.499V198.711Z" fill="#E8ECF0"/>
<path d="M408.993 160.073H378.125V151.242H408.993V160.073Z" fill="#E8ECF0"/>
<path d="M482.854 209.199H422.222V377H482.854V209.199Z" fill="#E8ECF0"/>
<path d="M509.863 278.196H482.854L482.854 377L509.863 377V278.196Z" fill="#E8ECF0"/>
<path d="M607.426 78.3807H509.863V377L607.426 377V78.3807Z" fill="#E8ECF0"/>
<path d="M548.447 78.3807H509.863L509.863 68.9971H548.447V78.3807Z" fill="#E8ECF0"/>
<path d="M551.755 65.1332H506.556V68.9971H551.755V65.1332Z" fill="#E8ECF0"/>
<path d="M492.224 209.199H422.222L422.221 202.023H492.224V209.199Z" fill="#E8ECF0"/>
<path d="M106.382 272.677H50.1595V333.394L106.382 333.394V272.677Z" fill="#E8ECF0"/>
<path d="M1745.66 5.51957H1748.97V25.3907H1745.66V5.51957Z" fill="#E8ECF0"/>
<path d="M1750.62 3.31186C1750.62 5.14095 1749.14 6.62372 1747.31 6.62372C1745.49 6.62372 1744.01 5.14095 1744.01 3.31186C1744.01 1.48277 1745.49 0 1747.31 0C1749.14 0 1750.62 1.48277 1750.62 3.31186Z" fill="#E8ECF0"/>
<path fill-rule="evenodd" clip-rule="evenodd" d="M949.172 317.938L1104.06 317.939V8.83173H1091.38V16.6458L1068.23 21.8434V17.1114H1055.55V24.6898L1032.95 29.7636V24.8391H1020.28V32.6099L997.678 37.6838V34.7746H984.449V40.6539L961.85 45.7277V43.6063H949.172V317.938ZM1074.85 104.876H1084.22V126.955H1074.85V104.876ZM1049.49 104.876H1040.12V126.955H1049.49V104.876ZM1004.29 104.876H1013.66V126.955H1004.29V104.876ZM978.386 104.876H969.015V126.955H978.386V104.876ZM1074.85 145.17H1084.22V167.249H1074.85V145.17ZM1049.49 145.17H1040.12V167.249H1049.49V145.17ZM1004.29 145.17H1013.66V167.249H1004.29V145.17ZM978.386 145.17H969.015V167.249H978.386V145.17ZM1074.85 185.464H1084.22V207.543H1074.85V185.464ZM1049.49 185.464H1040.12V207.543H1049.49V185.464ZM1004.29 185.464H1013.66V207.543H1004.29V185.464ZM978.386 185.464H969.015V207.543H978.386V185.464ZM1074.85 223.551H1084.22V245.63H1074.85V223.551ZM1049.49 223.551H1040.12V245.63H1049.49V223.551ZM1004.29 223.551H1013.66V245.63H1004.29V223.551ZM978.386 223.551H969.015V245.63H978.386V223.551ZM1074.85 263.293H1084.22V285.372H1074.85V263.293ZM1049.49 263.293H1040.12V285.372H1049.49V263.293ZM1004.29 263.293H1013.66V285.372H1004.29V263.293ZM978.386 263.293H969.015V285.372H978.386V263.293ZM1074.85 64.5813H1084.22V86.6604H1074.85V64.5813ZM1049.49 64.5813H1040.12V86.6604H1049.49V64.5813ZM1004.29 64.5813H1013.66V86.6604H1004.29V64.5813ZM978.386 64.5814H969.015V86.6604H978.386V64.5814Z" fill="#E8ECF0"/>
<path fill-rule="evenodd" clip-rule="evenodd" d="M1356.51 38.0863H1249.58V317.938H1356.51V38.0863ZM1265.56 285.924H1259.5V309.659H1265.56V285.924ZM1259.5 236.798H1265.56V260.533H1259.5V236.798ZM1265.56 193.192H1259.5V216.927H1265.56V193.192ZM1259.5 144.066H1265.56V167.801H1259.5V144.066ZM1265.56 96.0436H1259.5V119.779H1265.56V96.0436ZM1259.5 49.1257H1265.56V72.8607H1259.5V49.1257ZM1293.12 285.924H1287.06V309.659H1293.12V285.924ZM1286.51 236.798H1292.57V260.533H1286.51V236.798ZM1292.57 193.192H1286.51V216.927H1292.57V193.192ZM1286.51 144.066H1292.57V167.801H1286.51V144.066ZM1292.57 96.0436H1286.51V119.779H1292.57V96.0436ZM1286.51 49.1257H1292.57V72.8607H1286.51V49.1257ZM1320.13 285.924H1314.07V309.659H1320.13V285.924ZM1314.07 236.798H1320.13V260.533H1314.07V236.798ZM1320.13 193.192H1314.07V216.927H1320.13V193.192ZM1314.07 144.066H1320.13V167.801H1314.07V144.066ZM1320.13 96.0436H1314.07V119.779H1320.13V96.0436ZM1314.07 49.1257H1320.13V72.8607H1314.07V49.1257ZM1347.69 236.798H1341.63V260.533H1347.69V236.798ZM1341.63 193.192H1347.69V216.927H1341.63V193.192ZM1347.69 144.066H1341.63V167.801H1347.69V144.066ZM1341.63 96.0436H1347.69V119.779H1341.63V96.0436ZM1347.69 49.1257H1341.63V72.8607H1347.69V49.1257Z" fill="#E8ECF0"/>
<path fill-rule="evenodd" clip-rule="evenodd" d="M422.222 160.073H353.872V377L422.222 377V160.073ZM360.487 171.113H366.55V177.185H360.487V171.113ZM366.55 182.704H360.487V188.776H366.55V182.704ZM360.487 194.296H366.55V200.367H360.487V194.296ZM377.023 171.113H370.96V177.185H377.023V171.113ZM370.96 182.704H377.023V188.776H370.96V182.704ZM388.047 171.113H381.984V177.185H388.047V171.113Z" fill="#E8ECF0"/>
<path fill-rule="evenodd" clip-rule="evenodd" d="M1877.95 335.05H1956.22V161.177H1877.95V335.05ZM1890.63 170.009H1884.01V184.361H1890.63V170.009ZM1884.01 191.536H1890.63V205.887H1884.01V191.536ZM1905.51 170.009H1898.89V184.361H1905.51V170.009Z" fill="#E8ECF0"/>
<path fill-rule="evenodd" clip-rule="evenodd" d="M1772.12 335.05H1649.2L1649.2 72.8607H1772.12L1772.12 335.05ZM1666.84 92.732H1660.77V108.187H1666.84V92.732ZM1660.77 119.227H1666.84V134.682H1660.77V119.227ZM1666.84 146.826H1660.77V162.281H1666.84V146.826ZM1677.31 146.826H1683.37V162.281H1677.31V146.826ZM1698.26 146.826H1692.19V162.281H1698.26V146.826ZM1708.18 146.826H1714.24V162.281H1708.18V146.826ZM1683.37 119.227H1677.31V134.682H1683.37V119.227ZM1692.19 119.227H1698.26V134.682H1692.19V119.227ZM1714.24 119.227H1708.18V134.682H1714.24V119.227ZM1725.82 119.227H1731.88V134.682H1725.82V119.227ZM1683.37 92.732H1677.31V108.187H1683.37V92.732ZM1692.19 92.732H1698.26V108.187H1692.19V92.732ZM1714.24 92.732H1708.18V108.187H1714.24V92.732ZM1725.82 92.732H1731.88V108.187H1725.82V92.732ZM1748.42 92.732H1742.35V108.187H1748.42V92.732Z" fill="#E8ECF0"/>
<path d="M0 377L2068.11 377V538L0 538V377Z" fill="#E8ECF0"/>
</svg>
