<svg width="206" height="205" viewBox="0 0 206 205" fill="none" xmlns="http://www.w3.org/2000/svg">
<path fill-rule="evenodd" clip-rule="evenodd" d="M205.322 102.5C205.322 159.109 159.487 205 102.948 205C46.4089 205 0.574707 159.109 0.574707 102.5C0.574707 45.8908 46.4089 0 102.948 0C159.487 0 205.322 45.8908 205.322 102.5Z" fill="white"/>
<path d="M102.97 130.251L105.079 136.749H111.903L106.382 140.765L108.491 147.262L102.97 143.247L97.4497 147.262L99.5583 140.765L94.0378 136.749H100.862L102.97 130.251Z" fill="#111111"/>
<path fill-rule="evenodd" clip-rule="evenodd" d="M179.025 102.5C179.025 144.567 144.965 178.669 102.95 178.669C60.9342 178.669 26.8739 144.567 26.8739 102.5C26.8739 60.4322 60.9342 26.3298 102.95 26.3298C144.965 26.3298 179.025 60.4322 179.025 102.5ZM174.211 86.8268C167.047 54.0224 137.863 29.4644 102.95 29.4644C68.0365 29.4644 38.8521 54.0224 31.6881 86.8268H174.211ZM174.211 118.172C167.047 150.977 137.863 175.535 102.95 175.535C68.0365 175.535 38.8521 150.977 31.6881 118.172H174.211ZM80.0518 94.5762V90.2563H100.379V94.5762H92.8019V115.038H87.6294V94.5762H80.0518ZM114.181 109.084L108.199 90.2563H102.386L110.93 115.038H117.674L126.206 90.2563H120.405L114.411 109.084H114.181ZM47.4596 93.5749L49.5682 100.073H56.3919L50.8714 104.088L52.9801 110.586L47.4596 106.57L41.9391 110.586L44.0477 104.088L38.5272 100.073H45.3509L47.4596 93.5749ZM160.794 100.073L158.686 93.5749L156.577 100.073H149.753L155.274 104.088L153.165 110.586L158.686 106.57L164.206 110.586L162.098 104.088L167.618 100.073H160.794Z" fill="#111111"/>
<path d="M88.3648 148.432H95.4565V146.864H83.5599V146.936C85.1308 147.503 86.7336 148.002 88.3648 148.432Z" fill="#111111"/>
<path d="M76.2976 143.73H97.335V142.162H73.5182C74.4285 142.71 75.3553 143.233 76.2976 143.73Z" fill="#111111"/>
<path d="M68.8411 139.028H93.5781V137.461H67.2804V137.825C67.7935 138.235 68.3138 138.636 68.8411 139.028Z" fill="#111111"/>
<path d="M63.6178 134.639H100.153V133.072H62.0251C62.5458 133.605 63.0768 134.127 63.6178 134.639Z" fill="#111111"/>
<path d="M59.4443 130.251H101.405V128.684H58.1504C58.5726 129.214 59.004 129.737 59.4443 130.251Z" fill="#111111"/>
<path d="M122.38 146.936C120.81 147.503 119.207 148.002 117.576 148.432H110.484V146.864H122.38V146.936Z" fill="#111111"/>
<path d="M129.643 143.73H108.605V142.162H132.422C131.512 142.71 130.585 143.233 129.643 143.73Z" fill="#111111"/>
<path d="M137.099 139.028H112.362V137.461H138.66V137.825C138.147 138.235 137.627 138.636 137.099 139.028Z" fill="#111111"/>
<path d="M142.322 134.639H105.788V133.072H143.915C143.394 133.605 142.863 134.127 142.322 134.639Z" fill="#111111"/>
<path d="M146.496 130.251H104.536V128.684H147.79C147.368 129.214 146.936 129.737 146.496 130.251Z" fill="#111111"/>
<path d="M54.622 145.65C54.8612 145.899 55.0757 146.092 55.2653 146.229L54.1804 147.274C53.8886 147.061 53.5724 146.777 53.2316 146.422C53.0359 146.219 52.8806 146.027 52.7657 145.847C52.6508 145.667 52.5482 145.424 52.458 145.119C52.3752 144.806 52.4151 144.463 52.5776 144.088C52.7401 143.714 53.0285 143.327 53.4429 142.928L55.8954 140.566L55.0362 139.671L56.0647 138.681L56.9238 139.575L58.5174 138.04L59.7028 139.274L58.1093 140.809L59.273 142.02L58.2445 143.01L57.0808 141.799L54.9109 143.889C54.489 144.296 54.2682 144.625 54.2486 144.876C54.2365 145.12 54.361 145.378 54.622 145.65Z" fill="#111111"/>
<path d="M59.3213 151.581C58.439 150.858 57.9833 150.018 57.9544 149.062C57.9254 148.105 58.2651 147.193 58.9734 146.326C59.6751 145.467 60.5093 144.967 61.476 144.826C62.4494 144.677 63.3651 144.954 64.2232 145.657C64.6036 145.968 64.8855 146.335 65.0688 146.755C65.2521 147.176 65.3129 147.598 65.2513 148.02L65.8768 147.255L67.2003 148.339L62.5732 154.002L61.2497 152.917L61.8753 152.152C61.4883 152.295 61.0513 152.308 60.5642 152.193C60.0918 152.077 59.6775 151.873 59.3213 151.581ZM60.4788 150.562C61.0211 151.006 61.573 151.174 62.1343 151.066C62.7038 150.964 63.2003 150.654 63.624 150.136C64.0476 149.617 64.2528 149.069 64.2394 148.49C64.2341 147.917 63.9602 147.409 63.4179 146.965C62.9079 146.547 62.3641 146.386 61.7866 146.48C61.2238 146.574 60.7272 146.884 60.2969 147.41C59.8667 147.937 59.6582 148.49 59.6716 149.069C59.6997 149.646 59.9688 150.144 60.4788 150.562Z" fill="#111111"/>
<path d="M64.9409 155.779L69.1272 153.951L68.6583 149.482L70.4888 150.549L70.6126 153.364L73.1193 152.083L74.9497 153.15L70.8357 154.948L71.3137 159.495L69.4832 158.428L69.3581 155.521L66.7714 156.847L64.9409 155.779Z" fill="#111111"/>
<path d="M79.3589 153.788C79.0525 153.935 78.7265 153.949 78.3808 153.828C78.0351 153.707 77.7882 153.493 77.6403 153.187C77.4958 152.87 77.4821 152.544 77.5992 152.208C77.7164 151.872 77.9281 151.63 78.2345 151.483C78.5444 151.325 78.8722 151.307 79.2179 151.428C79.5636 151.548 79.8087 151.767 79.9532 152.084C80.1011 152.39 80.1165 152.712 79.9994 153.047C79.8823 153.383 79.6688 153.63 79.3589 153.788ZM74.8118 161.441L77.2197 154.536L78.8346 155.101L76.4267 162.006L74.8118 161.441Z" fill="#111111"/>
<path d="M92.4937 166.513C91.5821 166.384 90.8743 166.046 90.3705 165.499C89.8666 164.952 89.6623 164.342 89.7575 163.668L91.4513 163.909C91.4073 164.219 91.5061 164.492 91.7476 164.727C91.9995 164.964 92.343 165.113 92.7781 165.175C93.0992 165.22 93.364 165.179 93.5725 165.05C93.7809 164.921 93.9034 164.727 93.9401 164.468C93.9987 164.053 93.8533 163.774 93.5039 163.629L91.7117 162.852C90.7064 162.413 90.2777 161.671 90.4257 160.625C90.5106 160.024 90.8407 159.558 91.4158 159.228C91.9923 158.887 92.6898 158.774 93.5082 158.89C94.4302 159.021 95.1053 159.328 95.5336 159.812C95.9723 160.297 96.144 160.876 96.0488 161.549L94.3861 161.313C94.4286 161.013 94.3476 160.764 94.1431 160.565C93.9505 160.359 93.6573 160.227 93.2637 160.171C92.9632 160.129 92.7044 160.166 92.487 160.283C92.2712 160.39 92.1478 160.552 92.1171 160.769C92.0614 161.163 92.232 161.452 92.6288 161.635L94.2833 162.377C94.7601 162.592 95.1289 162.898 95.3899 163.294C95.6523 163.68 95.7513 164.101 95.6869 164.557C95.5873 165.262 95.2529 165.795 94.6838 166.158C94.125 166.523 93.395 166.641 92.4937 166.513Z" fill="#111111"/>
<path d="M107.463 163.105C107.466 163.293 107.456 163.608 107.432 164.048L102.003 164.142C102.034 164.717 102.23 165.158 102.591 165.466C102.952 165.763 103.446 165.906 104.074 165.895C104.879 165.881 105.419 165.595 105.691 165.035L107.417 165.005C107.314 165.687 106.953 166.253 106.333 166.704C105.723 167.143 104.979 167.371 104.1 167.386C102.949 167.406 102.033 167.077 101.352 166.398C100.67 165.719 100.319 164.789 100.298 163.607C100.278 162.435 100.591 161.498 101.238 160.796C101.895 160.084 102.784 159.718 103.903 159.698C104.949 159.68 105.797 159.989 106.446 160.627C107.106 161.254 107.445 162.08 107.463 163.105ZM101.98 162.84L105.777 162.773C105.757 162.209 105.582 161.777 105.252 161.48C104.933 161.182 104.481 161.038 103.895 161.048C103.299 161.059 102.831 161.229 102.491 161.559C102.152 161.89 101.981 162.316 101.98 162.84Z" fill="#111111"/>
<path d="M114.846 166.155L113.145 159.042L114.809 158.643L115.137 160.017C115.145 159.509 115.298 159.091 115.595 158.761C115.891 158.422 116.252 158.2 116.679 158.098C116.954 158.032 117.178 158 117.35 158.002L117.715 159.528C117.537 159.55 117.316 159.592 117.052 159.655C116.461 159.797 116.051 160.126 115.82 160.644C115.586 161.152 115.566 161.808 115.758 162.612L116.51 165.757L114.846 166.155Z" fill="#111111"/>
<path d="M126.231 162.914L120.551 157.323L122.253 156.634L126.012 160.53L126.005 155.113L127.707 154.424L127.511 162.395L126.231 162.914Z" fill="#111111"/>
<path d="M133.015 149.858C132.931 150.188 132.732 150.446 132.417 150.633C132.102 150.82 131.78 150.871 131.45 150.787C131.116 150.694 130.857 150.495 130.676 150.188C130.495 149.882 130.446 149.564 130.53 149.234C130.609 148.895 130.806 148.633 131.121 148.446C131.435 148.259 131.76 148.212 132.095 148.305C132.425 148.389 132.68 148.584 132.862 148.89C133.043 149.196 133.094 149.519 133.015 149.858ZM135.94 158.271L132.211 151.979L133.682 151.105L137.411 157.397L135.94 158.271Z" fill="#111111"/>
<path d="M145.015 152.321C144.154 153.036 143.246 153.334 142.292 153.215C141.339 153.081 140.495 152.571 139.761 151.684C139.027 150.797 138.686 149.877 138.738 148.923C138.792 147.954 139.249 147.112 140.11 146.397C140.883 145.755 141.667 145.438 142.46 145.446C143.256 145.439 143.956 145.735 144.561 146.334L143.245 147.427C142.559 146.894 141.838 146.942 141.081 147.57C140.614 147.957 140.378 148.418 140.373 148.953C140.369 149.473 140.604 150.019 141.078 150.592C141.551 151.164 142.047 151.5 142.565 151.601C143.084 151.687 143.577 151.536 144.044 151.148C144.793 150.527 144.99 149.847 144.636 149.107L145.952 148.015C146.415 148.705 146.566 149.437 146.404 150.21C146.251 150.976 145.788 151.68 145.015 152.321Z" fill="#111111"/>
<path d="M152.718 138.747C152.859 138.871 153.085 139.089 153.395 139.402L149.823 143.492C150.27 143.855 150.729 144.006 151.199 143.945C151.661 143.877 152.099 143.607 152.512 143.134C153.042 142.527 153.191 141.935 152.959 141.357L154.095 140.057C154.531 140.592 154.708 141.24 154.626 142.002C154.542 142.75 154.212 143.455 153.633 144.116C152.876 144.983 152.018 145.441 151.058 145.49C150.098 145.54 149.173 145.175 148.283 144.396C147.402 143.624 146.918 142.762 146.832 141.81C146.745 140.844 147.069 139.94 147.806 139.097C148.494 138.309 149.292 137.888 150.2 137.835C151.107 137.767 151.946 138.071 152.718 138.747ZM148.843 142.633L151.342 139.773C150.91 139.409 150.473 139.249 150.031 139.293C149.596 139.33 149.186 139.568 148.801 140.01C148.408 140.459 148.221 140.92 148.238 141.394C148.255 141.868 148.456 142.281 148.843 142.633Z" fill="#111111"/>
<path d="M92.6063 48.771C92.9545 48.771 93.2429 48.7547 93.4714 48.7221V50.7134C92.9926 50.8004 92.4376 50.844 91.8065 50.844C91.5236 50.844 91.2733 50.8276 91.0557 50.795C90.8381 50.7623 90.5932 50.6916 90.3212 50.5828C90.0492 50.4631 89.8261 50.3053 89.652 50.1095C89.4779 49.9136 89.3255 49.6307 89.195 49.2607C89.0753 48.8907 89.0154 48.4555 89.0154 47.9549V44.8211H87.7749V42.8461H89.0154V40.512H91.5127V42.8461H93.2918V44.8211H91.5127V47.4326C91.5127 47.9658 91.6052 48.3249 91.7902 48.5099C91.9752 48.684 92.2472 48.771 92.6063 48.771ZM97.9865 50.9256C96.8439 50.9256 95.9408 50.5393 95.277 49.7667C94.6132 48.9941 94.2814 47.9985 94.2814 46.7797C94.2814 45.5828 94.6241 44.5926 95.3097 43.8091C95.9952 43.0256 96.8983 42.6339 98.0191 42.6339C98.5741 42.6339 99.0692 42.7536 99.5045 42.993C99.9397 43.2324 100.266 43.5588 100.484 43.9723V42.8461H102.965V50.7134H100.484V49.6035C100.266 49.9952 99.9288 50.3162 99.4718 50.5665C99.0257 50.8059 98.5306 50.9256 97.9865 50.9256ZM98.7047 48.8527C99.3031 48.8527 99.7656 48.6568 100.092 48.2651C100.418 47.8733 100.582 47.3782 100.582 46.7797C100.582 46.1921 100.418 45.7025 100.092 45.3107C99.7656 44.919 99.3031 44.7231 98.7047 44.7231C98.1388 44.7231 97.6818 44.9136 97.3336 45.2944C96.9963 45.6753 96.8276 46.1704 96.8276 46.7797C96.8276 47.3891 96.9963 47.8896 97.3336 48.2814C97.6818 48.6622 98.1388 48.8527 98.7047 48.8527ZM104.14 50.7134L107.013 46.7471L104.189 42.8461H107.176L108.531 45.1312L109.902 42.8461H112.889L110.065 46.7471L112.938 50.7134H109.951L108.531 48.363L107.127 50.7134H104.14ZM116.458 41.7035C116.165 41.9973 115.795 42.1442 115.349 42.1442C114.902 42.1442 114.532 41.9973 114.239 41.7035C113.956 41.4097 113.814 41.0507 113.814 40.6263C113.814 40.191 113.956 39.8265 114.239 39.5327C114.532 39.2389 114.902 39.092 115.349 39.092C115.795 39.092 116.165 39.2443 116.458 39.549C116.752 39.8428 116.899 40.2019 116.899 40.6263C116.899 41.0507 116.752 41.4097 116.458 41.7035ZM114.092 50.7134V42.8461H116.589V50.7134H114.092Z" fill="#111111"/>
<path d="M65.5025 73.4355L58.8637 53.6606H63.7792L67.8755 67.6161L71.9717 53.6606H76.8872L70.2485 73.4355H65.5025ZM88.0108 73.4355L87.3328 71.0343H80.3268L79.6488 73.4355H74.8181L81.5133 53.6606H86.1181L92.8415 73.4355H88.0108ZM81.3438 67.4466H86.3158L83.8298 58.6608L81.3438 67.4466ZM95.0508 73.4355V53.6606H99.7403L106.605 66.4578V53.6606H110.984V73.4355H106.294L99.4295 60.6383V73.4355H95.0508ZM125.707 53.6606H130.764L120.961 73.4355H115.876L119.549 65.9776L112.543 53.6606H117.854L122.063 61.4576L125.707 53.6606ZM141.145 73.4355L140.467 71.0343H133.461L132.783 73.4355H127.952L134.647 53.6606H139.252L145.976 73.4355H141.145ZM134.478 67.4466H139.45L136.964 58.6608L134.478 67.4466Z" fill="#111111"/>
</svg>
