<svg width="102" height="55" viewBox="0 0 102 55" fill="none" xmlns="http://www.w3.org/2000/svg">
<path d="M100.191 50.6241C100.526 52.0807 100.893 53.5255 101.289 54.9576H83.5412C79.0311 53.7706 74.5995 52.3895 70.256 50.8237V50.6241H100.191Z" fill="#111111"/>
<path d="M98.5851 41.9573H50.1762C47.5707 40.5825 45.0082 39.1372 42.4911 37.6238L29.5591 28.9569C28.1013 27.8726 26.6626 26.7639 25.2439 25.6312V24.6235H97.6142C97.5879 25.5791 97.5747 26.538 97.5747 27.5C97.5747 32.4073 97.9191 37.234 98.5851 41.9573Z" fill="#111111"/>
<path d="M101.203 0.356201C99.7451 5.68449 98.7061 11.1861 98.1234 16.8233H15.1171C13.6214 15.4074 12.1531 13.9626 10.7133 12.4898L3.57766 4.68964C2.36015 3.26678 1.16738 1.82208 0 0.356201H101.203Z" fill="#111111"/>
</svg>
