<svg width="102" height="55" viewBox="0 0 102 55" fill="none" xmlns="http://www.w3.org/2000/svg">
<path d="M3.31134 41.9573C3.97729 37.234 4.32172 32.4073 4.32172 27.5C4.32172 26.538 4.30847 25.5791 4.28217 24.6235H76.7564V25.6311C75.3375 26.7638 73.8988 27.8726 72.4409 28.9569L59.509 37.6238C56.9919 39.1372 54.4294 40.5825 51.8239 41.9573H3.31134Z" fill="#111111"/>
<path d="M0.607178 54.9576C1.00391 53.5255 1.37036 52.0807 1.70581 50.6241H31.7442V50.8236C27.4006 52.3894 22.9691 53.7705 18.4589 54.9576H0.607178Z" fill="#111111"/>
<path d="M3.77304 16.8233C3.19031 11.1861 2.15131 5.68449 0.693573 0.356201H102C100.833 1.82208 99.6399 3.26678 98.4224 4.68964L91.2867 12.4898C89.8469 13.9626 88.3788 15.4074 86.883 16.8233H3.77304Z" fill="#111111"/>
</svg>
