<svg width="206" height="205" viewBox="0 0 206 205" fill="none" xmlns="http://www.w3.org/2000/svg">
<path fill-rule="evenodd" clip-rule="evenodd" d="M204 102.5C204 158.557 158.781 204 103 204C47.2192 204 2 158.557 2 102.5C2 46.4431 47.2192 1 103 1C158.781 1 204 46.4431 204 102.5ZM103.309 183.203C147.66 183.203 183.615 147.07 183.615 102.499C183.615 57.928 147.66 21.7958 103.309 21.7958C58.9571 21.7958 23.003 57.928 23.003 102.499C23.003 147.07 58.9571 183.203 103.309 183.203Z" fill="#FFC000"/>
<path d="M183.403 102.499C183.403 146.818 147.521 182.742 103.261 182.742C59.0012 182.742 23.1188 146.818 23.1188 102.499C23.1188 58.1808 59.0012 22.2563 103.261 22.2563C147.521 22.2563 183.403 58.1808 183.403 102.499Z" stroke="#111111" stroke-width="2.5111"/>
<path d="M204.066 102.5C204.066 158.417 158.793 203.744 102.948 203.744C47.1038 203.744 1.83026 158.417 1.83026 102.5C1.83026 46.5828 47.1038 1.25555 102.948 1.25555C158.793 1.25555 204.066 46.5828 204.066 102.5Z" stroke="#111111" stroke-width="2.5111"/>
<path d="M12.8779 106.167C13.0381 109.735 13.4044 113.249 13.9652 116.698L4.03282 118.044C3.44572 114.368 3.05743 110.626 2.87935 106.829L12.8779 106.167Z" fill="#111111"/>
<path fill-rule="evenodd" clip-rule="evenodd" d="M12.7852 102.03H22.4904C22.4904 103.201 22.5152 104.366 22.5644 105.525L12.8779 106.167C12.8164 104.795 12.7852 103.416 12.7852 102.03Z" fill="#111111"/>
<path d="M24.9949 122.091L15.6986 124.92C14.998 122.226 14.4182 119.483 13.9652 116.698L23.588 115.394C23.9643 117.659 24.4347 119.893 24.9949 122.091Z" fill="#111111"/>
<path d="M18.8834 134.792L9.35023 137.925C8.09803 134.642 7.01255 131.278 6.10415 127.841L15.6986 124.92C16.5752 128.291 17.6408 131.586 18.8834 134.792Z" fill="#111111"/>
<path d="M30.9728 138.146L22.3339 142.58C21.0665 140.049 19.9141 137.451 18.8834 134.792L28.1215 131.756C28.9817 133.934 29.9338 136.066 30.9728 138.146Z" fill="#111111"/>
<path d="M27.4791 151.537L18.8818 156.701C16.8934 153.631 15.0675 150.446 13.4165 147.157L22.3339 142.58C23.8817 145.671 25.601 148.66 27.4791 151.537Z" fill="#111111"/>
<path d="M39.9925 152.307L32.681 158.712C30.8344 156.41 29.0977 154.015 27.4791 151.537L35.8091 146.532C37.12 148.52 38.5162 150.447 39.9925 152.307Z" fill="#111111"/>
<path d="M39.5641 166.364L32.2942 173.271C29.771 170.751 27.3809 168.098 25.1353 165.323L32.681 158.712C34.8305 161.392 37.1291 163.946 39.5641 166.364Z" fill="#111111"/>
<path d="M51.9511 164.49L45.9223 172.107C43.7132 170.293 41.5914 168.376 39.5641 166.364L46.6076 159.671C48.3161 161.355 50.099 162.963 51.9511 164.49Z" fill="#111111"/>
<path d="M54.3894 178.278L48.5595 186.45C45.4859 184.45 42.5284 182.285 39.6992 179.97L45.9223 172.107C48.619 174.321 51.4457 176.383 54.3894 178.278Z" fill="#111111"/>
<path d="M66.3104 173.961L61.8275 182.582C59.275 181.263 56.7932 179.826 54.3894 178.278L60.0386 170.36C62.0696 171.65 64.162 172.853 66.3104 173.961Z" fill="#111111"/>
<path d="M71.1309 186.74L66.9369 195.875C63.6014 194.58 60.352 193.111 57.2 191.481L61.8275 182.582C64.8344 184.136 67.9394 185.525 71.1309 186.74Z" fill="#111111"/>
<path d="M81.5127 179.936L79.3228 189.414C76.5362 188.65 73.8032 187.756 71.1309 186.74L75.196 177.886C77.263 178.652 79.3699 179.337 81.5127 179.936Z" fill="#111111"/>
<path d="M89.4751 191.573L87.2163 201.373C83.7701 200.82 80.3823 200.091 77.0626 199.195L79.3228 189.414C82.6349 190.321 86.0229 191.045 89.4751 191.573Z" fill="#111111"/>
<path d="M98.0965 182.739V192.473C95.1837 192.309 92.3078 192.007 89.4751 191.573L91.6646 182.074C93.7831 182.379 95.9282 182.602 98.0965 182.739Z" fill="#111111"/>
<path d="M102.949 192.775V202.648C101.322 202.644 99.7043 202.6 98.0965 202.518V192.775H102.949Z" fill="#111111"/>
<path d="M192.864 98.3631C192.704 94.795 192.337 91.2808 191.777 87.8319L201.709 86.486C202.296 90.1615 202.684 93.9035 202.862 97.7006L192.864 98.3631Z" fill="#111111"/>
<path fill-rule="evenodd" clip-rule="evenodd" d="M192.957 102.5H183.251C183.251 101.329 183.227 100.164 183.177 99.0049L192.864 98.3631C192.925 99.7343 192.957 101.113 192.957 102.5Z" fill="#111111"/>
<path d="M180.747 82.4387L190.043 79.6091C190.744 82.3033 191.324 85.0462 191.777 87.8319L182.154 89.1358C181.777 86.8702 181.307 84.6364 180.747 82.4387Z" fill="#111111"/>
<path d="M186.858 69.7379L196.392 66.6049C197.644 69.8871 198.729 73.2519 199.638 76.6888L190.043 79.6091C189.167 76.2383 188.101 72.9439 186.858 69.7379Z" fill="#111111"/>
<path d="M174.769 66.3833L183.408 61.9495C184.675 64.4803 185.828 67.0787 186.858 69.7379L177.62 72.774C176.76 70.5958 175.808 68.464 174.769 66.3833Z" fill="#111111"/>
<path d="M178.263 52.993L186.86 47.8282C188.848 50.8984 190.674 54.084 192.325 57.3728L183.408 61.9495C181.86 58.8589 180.141 55.8692 178.263 52.993Z" fill="#111111"/>
<path d="M165.749 52.2229L173.061 45.8175C174.907 48.1197 176.644 50.5142 178.263 52.993L169.933 57.9971C168.622 56.0093 167.226 54.0828 165.749 52.2229Z" fill="#111111"/>
<path d="M166.178 38.166L173.448 31.2585C175.971 33.7782 178.361 36.4315 180.607 39.2068L173.061 45.8175C170.911 43.1378 168.613 40.5831 166.178 38.166Z" fill="#111111"/>
<path d="M153.791 40.0398L159.82 32.4227C162.029 34.2369 164.15 36.1537 166.178 38.166L159.134 44.8584C157.426 43.1748 155.643 41.5668 153.791 40.0398Z" fill="#111111"/>
<path d="M151.352 26.2511L157.182 18.0792C160.256 20.0799 163.213 22.2443 166.043 24.56L159.82 32.4227C157.123 30.2081 154.296 28.1465 151.352 26.2511Z" fill="#111111"/>
<path d="M139.431 30.5683L143.914 21.9476C146.467 23.2664 148.949 24.7034 151.352 26.2511L145.703 34.1698C143.672 32.8793 141.58 31.6769 139.431 30.5683Z" fill="#111111"/>
<path d="M134.611 17.7899L138.805 8.65477C142.14 9.94998 145.39 11.4183 148.542 13.0488L143.914 21.9476C140.907 20.3939 137.802 19.0041 134.611 17.7899Z" fill="#111111"/>
<path d="M124.229 24.5939L126.419 15.116C129.206 15.8796 131.939 16.7732 134.611 17.7899L130.546 26.644C128.479 25.8771 126.372 25.1924 124.229 24.5939Z" fill="#111111"/>
<path d="M116.267 12.9562L118.525 3.1562C121.972 3.70989 125.36 4.43903 128.679 5.33417L126.419 15.116C123.107 14.2085 119.719 13.4847 116.267 12.9562Z" fill="#111111"/>
<path d="M107.645 21.791V12.0563C110.558 12.2205 113.434 12.5226 116.267 12.9562L114.077 22.4557C111.959 22.1507 109.814 21.928 107.645 21.791Z" fill="#111111"/>
<path d="M102.793 11.7544V1.88106C104.42 1.88603 106.038 1.9297 107.645 2.01121V11.7544H102.793Z" fill="#111111"/>
<path d="M192.864 106.167C192.704 109.735 192.337 113.249 191.777 116.698L201.709 118.044C202.296 114.368 202.684 110.626 202.862 106.829L192.864 106.167Z" fill="#111111"/>
<path fill-rule="evenodd" clip-rule="evenodd" d="M192.957 102.03H183.251C183.251 103.201 183.227 104.366 183.177 105.525L192.864 106.167C192.925 104.795 192.957 103.416 192.957 102.03Z" fill="#111111"/>
<path d="M180.747 122.091L190.043 124.921C190.744 122.226 191.324 119.483 191.777 116.698L182.154 115.394C181.777 117.66 181.307 119.893 180.747 122.091Z" fill="#111111"/>
<path d="M186.858 134.792L196.392 137.925C197.644 134.643 198.729 131.278 199.638 127.841L190.043 124.921C189.167 128.291 188.101 131.586 186.858 134.792Z" fill="#111111"/>
<path d="M174.769 138.146L183.408 142.58C184.675 140.049 185.828 137.451 186.858 134.792L177.62 131.756C176.76 133.934 175.808 136.066 174.769 138.146Z" fill="#111111"/>
<path d="M178.263 151.537L186.86 156.702C188.848 153.631 190.674 150.446 192.325 147.157L183.408 142.58C181.86 145.671 180.141 148.661 178.263 151.537Z" fill="#111111"/>
<path d="M165.749 152.307L173.061 158.712C174.907 156.41 176.644 154.015 178.263 151.537L169.933 146.533C168.622 148.52 167.226 150.447 165.749 152.307Z" fill="#111111"/>
<path d="M166.178 166.364L173.448 173.271C175.971 170.751 178.361 168.098 180.607 165.323L173.061 158.712C170.911 161.392 168.613 163.947 166.178 166.364Z" fill="#111111"/>
<path d="M153.791 164.49L159.82 172.107C162.029 170.293 164.15 168.376 166.178 166.364L159.134 159.671C157.426 161.355 155.643 162.963 153.791 164.49Z" fill="#111111"/>
<path d="M151.352 178.279L157.182 186.45C160.256 184.45 163.213 182.285 166.043 179.97L159.82 172.107C157.123 174.322 154.296 176.383 151.352 178.279Z" fill="#111111"/>
<path d="M139.431 173.961L143.914 182.582C146.467 181.263 148.949 179.826 151.352 178.279L145.703 170.36C143.672 171.65 141.58 172.853 139.431 173.961Z" fill="#111111"/>
<path d="M134.611 186.74L138.805 195.875C142.14 194.58 145.39 193.111 148.542 191.481L143.914 182.582C140.907 184.136 137.802 185.526 134.611 186.74Z" fill="#111111"/>
<path d="M124.229 179.936L126.419 189.414C129.206 188.65 131.939 187.757 134.611 186.74L130.546 177.886C128.479 178.653 126.372 179.337 124.229 179.936Z" fill="#111111"/>
<path d="M116.267 191.573L118.525 201.374C121.972 200.82 125.36 200.091 128.679 199.196L126.419 189.414C123.107 190.321 119.719 191.045 116.267 191.573Z" fill="#111111"/>
<path d="M107.645 182.739V192.473C110.558 192.309 113.434 192.007 116.267 191.573L114.077 182.074C111.959 182.379 109.814 182.602 107.645 182.739Z" fill="#111111"/>
<path d="M102.793 192.775V202.649C104.42 202.644 106.038 202.6 107.645 202.519V192.775H102.793Z" fill="#111111"/>
<path d="M12.8779 98.3631C13.0381 94.7951 13.4044 91.2808 13.9652 87.8319L4.03282 86.486C3.44572 90.1616 3.05743 93.9036 2.87935 97.7006L12.8779 98.3631Z" fill="#111111"/>
<path fill-rule="evenodd" clip-rule="evenodd" d="M12.7852 102.5H22.4904C22.4904 101.329 22.5152 100.164 22.5644 99.005L12.8779 98.3631C12.8164 99.7343 12.7852 101.113 12.7852 102.5Z" fill="#111111"/>
<path d="M24.9949 82.4388L15.6986 79.6092C14.998 82.3034 14.4182 85.0463 13.9652 87.8319L23.588 89.1359C23.9643 86.8703 24.4347 84.6365 24.9949 82.4388Z" fill="#111111"/>
<path d="M18.8834 69.738L9.35023 66.6049C8.09803 69.8872 7.01255 73.252 6.10415 76.6889L15.6986 79.6092C16.5752 76.2384 17.6408 72.944 18.8834 69.738Z" fill="#111111"/>
<path d="M30.9728 66.3834L22.3339 61.9496C21.0665 64.4803 19.9141 67.0788 18.8834 69.738L28.1215 72.7741C28.9817 70.5959 29.9338 68.4641 30.9728 66.3834Z" fill="#111111"/>
<path d="M27.4791 52.993L18.8818 47.8283C16.8934 50.8985 15.0675 54.0841 13.4165 57.3729L22.3339 61.9496C23.8817 58.859 25.601 55.8693 27.4791 52.993Z" fill="#111111"/>
<path d="M39.9925 52.223L32.681 45.8176C30.8344 48.1198 29.0977 50.5143 27.4791 52.993L35.8091 57.9972C37.12 56.0093 38.5162 54.0829 39.9925 52.223Z" fill="#111111"/>
<path d="M39.5641 38.1661L32.2942 31.2585C29.771 33.7783 27.3809 36.4316 25.1353 39.2069L32.681 45.8176C34.8305 43.1379 37.1291 40.5832 39.5641 38.1661Z" fill="#111111"/>
<path d="M51.9511 40.0399L45.9223 32.4227C43.7132 34.2369 41.5914 36.1538 39.5641 38.1661L46.6076 44.8585C48.3161 43.1749 50.099 41.5669 51.9511 40.0399Z" fill="#111111"/>
<path d="M54.3894 26.2512L48.5595 18.0793C45.4859 20.08 42.5284 22.2443 39.6992 24.5601L45.9223 32.4227C48.619 30.2082 51.4457 28.1466 54.3894 26.2512Z" fill="#111111"/>
<path d="M66.3104 30.5684L61.8275 21.9476C59.275 23.2665 56.7932 24.7035 54.3894 26.2512L60.0386 34.1699C62.0696 32.8793 64.162 31.677 66.3104 30.5684Z" fill="#111111"/>
<path d="M71.1309 17.7899L66.9369 8.65485C63.6014 9.95005 60.352 11.4184 57.2 13.0488L61.8275 21.9476C64.8344 20.394 67.9394 19.0042 71.1309 17.7899Z" fill="#111111"/>
<path d="M81.5127 24.594L79.3228 15.1161C76.5362 15.8797 73.8032 16.7732 71.1309 17.7899L75.196 26.6441C77.263 25.8771 79.3699 25.1925 81.5127 24.594Z" fill="#111111"/>
<path d="M89.4751 12.9563L87.2163 3.15628C83.7701 3.70997 80.3823 4.43911 77.0626 5.33425L79.3228 15.1161C82.6349 14.2086 86.0229 13.4848 89.4751 12.9563Z" fill="#111111"/>
<path d="M98.0965 21.7911V12.0564C95.1837 12.2206 92.3078 12.5227 89.4751 12.9563L91.6646 22.4558C93.7831 22.1508 95.9282 21.9281 98.0965 21.7911Z" fill="#111111"/>
<path d="M102.949 11.7545V1.88114C101.322 1.88611 99.7043 1.92978 98.0965 2.01129V11.7545H102.949Z" fill="#111111"/>
<path d="M12.7852 102.03H23.273M12.7852 102.03C12.7852 103.416 12.8164 104.795 12.8779 106.167M12.7852 102.03H22.4904C22.4904 103.201 22.5152 104.366 22.5644 105.525M103.262 192.618C101.528 192.618 99.8061 192.57 98.0965 192.473M2.76705 102.03C2.76705 103.639 2.80476 105.239 2.87935 106.829M103.262 202.649C103.158 202.649 103.053 202.649 102.949 202.648M103.262 182.901C101.527 182.901 99.8045 182.846 98.0965 182.739M102.949 203.119V202.648M98.0965 192.775H102.949V202.648M98.0965 192.775V192.473M98.0965 192.775V202.518M98.0965 181.804V182.739M98.0965 203.119V202.518M91.8351 181.334L91.6646 182.074M87.1391 201.709L87.2163 201.373M81.6604 179.297L81.5127 179.936M76.8078 200.298L77.0626 199.195M75.5555 177.102L75.196 177.886M66.6331 196.537L66.9369 195.875M66.6331 173.341L66.3104 173.961M56.7714 192.305L57.2 191.481M60.3717 169.893L60.0386 170.36M47.8489 187.446L48.5595 186.45M52.3884 163.937L51.9511 164.49M39.2395 180.55L39.6992 179.97M47.0663 159.235L46.6076 159.671M31.7259 173.811L32.2942 173.271M40.4918 151.869L39.9925 152.307M24.2123 166.131L25.1353 165.323M36.5785 146.07L35.8091 146.532M17.7943 157.355L18.8818 156.701M31.4128 137.92L30.9728 138.146M12.7852 147.481L13.4165 147.157M28.4387 131.651L28.1215 131.756M7.93268 138.391L9.35023 137.925M5.42813 128.047L6.10415 127.841M23.8992 115.352L23.588 115.394M3.08012 118.173L4.03282 118.044M23.273 105.478L22.5644 105.525M1.98438 106.888L2.87935 106.829M12.8779 106.167C13.0381 109.735 13.4044 113.249 13.9652 116.698M12.8779 106.167L2.87935 106.829M12.8779 106.167L22.5644 105.525M13.9652 116.698L4.03282 118.044M13.9652 116.698C14.4182 119.483 14.998 122.226 15.6986 124.92M13.9652 116.698L23.588 115.394M4.03282 118.044C3.44572 114.368 3.05743 110.626 2.87935 106.829M4.03282 118.044C4.56358 121.366 5.25683 124.635 6.10415 127.841M98.0965 192.473V182.739M98.0965 192.473C95.1837 192.309 92.3078 192.007 89.4751 191.573M98.0965 182.739C95.9282 182.602 93.7831 182.379 91.6646 182.074M22.5644 105.525C22.7066 108.871 23.0518 112.165 23.588 115.394M15.6986 124.92L24.9949 122.091C24.4347 119.893 23.9643 117.659 23.588 115.394M15.6986 124.92L6.10415 127.841M15.6986 124.92C16.5752 128.291 17.6408 131.586 18.8834 134.792M23.588 115.394C24.5307 121.069 26.0636 126.545 28.1215 131.756M18.8834 134.792L9.35023 137.925M18.8834 134.792C19.9141 137.451 21.0665 140.049 22.3339 142.58M18.8834 134.792L28.1215 131.756M9.35023 137.925C8.09803 134.642 7.01255 131.278 6.10415 127.841M9.35023 137.925C10.5545 141.081 11.913 144.162 13.4165 147.157M30.9728 138.146L22.3339 142.58M30.9728 138.146C29.9338 136.066 28.9817 133.934 28.1215 131.756M30.9728 138.146C32.4203 141.045 34.0367 143.845 35.8091 146.532M22.3339 142.58L13.4165 147.157M22.3339 142.58C23.8817 145.671 25.601 148.66 27.4791 151.537M27.4791 151.537L18.8818 156.701M27.4791 151.537C29.0977 154.015 30.8344 156.41 32.681 158.712M27.4791 151.537L35.8091 146.532M18.8818 156.701C16.8934 153.631 15.0675 150.446 13.4165 147.157M18.8818 156.701C20.8161 159.688 22.9044 162.566 25.1353 165.323M39.9925 152.307L32.681 158.712M39.9925 152.307C38.5162 150.447 37.12 148.52 35.8091 146.532M39.9925 152.307C42.0471 154.895 44.2568 157.355 46.6076 159.671M32.681 158.712L25.1353 165.323M32.681 158.712C34.8305 161.392 37.1291 163.946 39.5641 166.364M39.5641 166.364L32.2942 173.271M39.5641 166.364L46.6076 159.671M39.5641 166.364C41.5914 168.376 43.7132 170.293 45.9223 172.107M32.2942 173.271C29.771 170.751 27.3809 168.098 25.1353 165.323M32.2942 173.271C34.6497 175.623 37.1211 177.859 39.6992 179.97M46.6076 159.671C48.3161 161.355 50.099 162.963 51.9511 164.49M51.9511 164.49L45.9223 172.107M51.9511 164.49C54.5189 166.607 57.2196 168.568 60.0386 170.36M45.9223 172.107L39.6992 179.97M45.9223 172.107C48.619 174.321 51.4457 176.383 54.3894 178.278M54.3894 178.278L48.5595 186.45M54.3894 178.278C56.7932 179.826 59.275 181.263 61.8275 182.582M54.3894 178.278L60.0386 170.36M48.5595 186.45C45.4859 184.45 42.5284 182.285 39.6992 179.97M48.5595 186.45C51.3472 188.265 54.2305 189.945 57.2 191.481M66.3104 173.961L61.8275 182.582M66.3104 173.961C64.162 172.853 62.0696 171.65 60.0386 170.36M66.3104 173.961C69.1767 175.44 72.1428 176.753 75.196 177.886M61.8275 182.582L57.2 191.481M61.8275 182.582C64.8344 184.136 67.9394 185.525 71.1309 186.74M71.1309 186.74L66.9369 195.875M71.1309 186.74C73.8032 187.756 76.5362 188.65 79.3228 189.414M71.1309 186.74L75.196 177.886M66.9369 195.875C63.6014 194.58 60.352 193.111 57.2 191.481M66.9369 195.875C70.2315 197.154 73.6103 198.265 77.0626 199.195M81.5127 179.936L79.3228 189.414M81.5127 179.936C79.3699 179.337 77.263 178.652 75.196 177.886M81.5127 179.936C84.8161 180.858 88.2049 181.576 91.6646 182.074M79.3228 189.414L77.0626 199.195M79.3228 189.414C82.6349 190.321 86.0229 191.045 89.4751 191.573M89.4751 191.573L87.2163 201.373M89.4751 191.573L91.6646 182.074M87.2163 201.373C83.77 200.82 80.3823 200.091 77.0626 199.195M87.2163 201.373C90.7838 201.947 94.414 202.332 98.0965 202.518M102.949 202.648C101.322 202.644 99.7043 202.6 98.0965 202.518M192.957 102.5H182.469M192.957 102.5C192.957 101.113 192.925 99.7343 192.864 98.3631M192.957 102.5H183.251C183.251 101.329 183.227 100.164 183.177 99.0049M102.48 11.9112C104.213 11.9112 105.936 11.96 107.645 12.0563M202.975 102.5C202.975 100.891 202.937 99.2909 202.862 97.7006M102.48 1.88058C102.584 1.88058 102.688 1.88074 102.793 1.88106M102.48 21.6283C104.215 21.6283 105.937 21.6831 107.645 21.791M102.793 1.4104V1.88106M107.645 11.7544H102.793V1.88106M107.645 11.7544V12.0563M107.645 11.7544V2.01121M107.645 22.7254V21.791M107.645 1.4104V2.01121M113.907 23.1956L114.077 22.4557M118.603 2.82095L118.525 3.1562M124.081 25.233L124.229 24.5939M128.934 4.2315L128.679 5.33417M130.186 27.4272L130.546 26.644M139.109 7.99297L138.805 8.65477M139.109 31.1887L139.431 30.5683M148.97 12.2246L148.542 13.0488M145.37 34.6367L145.703 34.1698M157.893 17.0832L157.182 18.0792M153.353 40.5924L153.791 40.0398M166.502 23.9792L166.043 24.56M158.676 45.2942L159.134 44.8584M174.016 30.7185L173.448 31.2585M165.25 52.6604L165.749 52.2229M181.53 38.3982L180.607 39.2068M169.163 58.4593L169.933 57.9971M187.947 47.1749L186.86 47.8282M174.329 66.6092L174.769 66.3833M192.957 57.0488L192.325 57.3728M177.303 72.8783L177.62 72.774M197.809 66.139L196.392 66.6049M200.314 76.483L199.638 76.6888M181.843 89.178L182.154 89.1358M202.662 86.3569L201.709 86.486M182.469 99.0518L183.177 99.0049M203.757 97.6413L202.862 97.7006M192.864 98.3631C192.704 94.795 192.337 91.2808 191.777 87.8319M192.864 98.3631L202.862 97.7006M192.864 98.3631L183.177 99.0049M191.777 87.8319L201.709 86.486M191.777 87.8319C191.324 85.0462 190.744 82.3033 190.043 79.6091M191.777 87.8319L182.154 89.1358M201.709 86.486C202.296 90.1615 202.684 93.9035 202.862 97.7006M201.709 86.486C201.178 83.1631 200.485 79.8946 199.638 76.6888M107.645 12.0563V21.791M107.645 12.0563C110.558 12.2205 113.434 12.5226 116.267 12.9562M107.645 21.791C109.814 21.928 111.959 22.1507 114.077 22.4557M183.177 99.0049C183.035 95.6585 182.69 92.3648 182.154 89.1358M190.043 79.6091L180.747 82.4387C181.307 84.6364 181.777 86.8702 182.154 89.1358M190.043 79.6091L199.638 76.6888M190.043 79.6091C189.167 76.2383 188.101 72.9439 186.858 69.7379M182.154 89.1358C181.211 83.4603 179.678 77.9845 177.62 72.774M186.858 69.7379L196.392 66.6049M186.858 69.7379C185.828 67.0787 184.675 64.4803 183.408 61.9495M186.858 69.7379L177.62 72.774M196.392 66.6049C197.644 69.8871 198.729 73.2519 199.638 76.6888M196.392 66.6049C195.187 63.4481 193.829 60.3677 192.325 57.3728M174.769 66.3833L183.408 61.9495M174.769 66.3833C175.808 68.464 176.76 70.5958 177.62 72.774M174.769 66.3833C173.321 63.4844 171.705 60.6847 169.933 57.9971M183.408 61.9495L192.325 57.3728M183.408 61.9495C181.86 58.8589 180.141 55.8692 178.263 52.993M178.263 52.993L186.86 47.8282M178.263 52.993C176.644 50.5142 174.907 48.1197 173.061 45.8175M178.263 52.993L169.933 57.9971M186.86 47.8282C188.848 50.8984 190.674 54.084 192.325 57.3728M186.86 47.8282C184.926 44.8415 182.837 41.9639 180.607 39.2068M165.749 52.2229L173.061 45.8175M165.749 52.2229C167.226 54.0828 168.622 56.0093 169.933 57.9971M165.749 52.2229C163.695 49.6344 161.485 47.1748 159.134 44.8584M173.061 45.8175L180.607 39.2068M173.061 45.8175C170.911 43.1378 168.613 40.5831 166.178 38.166M166.178 38.166L173.448 31.2585M166.178 38.166L159.134 44.8584M166.178 38.166C164.15 36.1537 162.029 34.2369 159.819 32.4227M173.448 31.2585C175.971 33.7782 178.361 36.4315 180.607 39.2068M173.448 31.2585C171.092 28.9062 168.621 26.6702 166.043 24.56M159.134 44.8584C157.426 43.1748 155.643 41.5668 153.791 40.0398M153.791 40.0398L159.819 32.4227M153.791 40.0398C151.223 37.9227 148.522 35.9612 145.703 34.1698M159.819 32.4227L166.043 24.56M159.819 32.4227C157.123 30.2081 154.296 28.1465 151.352 26.2511M151.352 26.2511L157.182 18.0792M151.352 26.2511C148.949 24.7034 146.467 23.2664 143.914 21.9476M151.352 26.2511L145.703 34.1698M157.182 18.0792C160.256 20.0799 163.213 22.2443 166.043 24.56M157.182 18.0792C154.395 16.2647 151.511 14.5848 148.542 13.0488M139.431 30.5683L143.914 21.9476M139.431 30.5683C141.58 31.6769 143.672 32.8793 145.703 34.1698M139.431 30.5683C136.565 29.0892 133.599 27.7769 130.546 26.644M143.914 21.9476L148.542 13.0488M143.914 21.9476C140.907 20.3939 137.802 19.0041 134.611 17.7899M134.611 17.7899L138.805 8.65477M134.611 17.7899C131.939 16.7732 129.206 15.8796 126.419 15.116M134.611 17.7899L130.546 26.644M138.805 8.65477C142.14 9.94998 145.39 11.4183 148.542 13.0488M138.805 8.65477C135.51 7.37545 132.132 6.26505 128.679 5.33417M124.229 24.5939L126.419 15.116M124.229 24.5939C126.372 25.1924 128.479 25.8771 130.546 26.644M124.229 24.5939C120.926 23.6714 117.537 22.9538 114.077 22.4557M126.419 15.116L128.679 5.33417M126.419 15.116C123.107 14.2085 119.719 13.4847 116.267 12.9562M116.267 12.9562L118.525 3.1562M116.267 12.9562L114.077 22.4557M118.525 3.1562C121.972 3.70989 125.36 4.43903 128.679 5.33417M118.525 3.1562C114.958 2.58305 111.328 2.1979 107.645 2.01121M102.793 1.88106C104.42 1.88603 106.038 1.9297 107.645 2.01121M192.957 102.03H182.469M192.957 102.03C192.957 103.416 192.925 104.795 192.864 106.167M192.957 102.03H183.251C183.251 103.201 183.227 104.366 183.177 105.525M102.48 192.619C104.213 192.619 105.936 192.57 107.645 192.473M202.975 102.03C202.975 103.639 202.937 105.239 202.862 106.829M102.48 202.649C102.584 202.649 102.688 202.649 102.793 202.649M102.48 182.901C104.215 182.901 105.937 182.847 107.645 182.739M102.793 203.119V202.649M107.645 192.775H102.793V202.649M107.645 192.775V192.473M107.645 192.775V202.519M107.645 181.804V182.739M107.645 203.119V202.519M113.907 181.334L114.077 182.074M118.603 201.709L118.525 201.374M124.081 179.297L124.229 179.936M128.934 200.298L128.679 199.196M130.186 177.102L130.546 177.886M139.109 196.537L138.805 195.875M139.109 173.341L139.431 173.961M148.97 192.305L148.542 191.481M145.37 169.893L145.703 170.36M157.893 187.447L157.182 186.45M153.353 163.937L153.791 164.49M166.502 180.551L166.043 179.97M158.676 159.236L159.134 159.671M174.016 173.811L173.448 173.271M165.25 151.869L165.749 152.307M181.53 166.132L180.607 165.323M169.163 146.07L169.933 146.533M187.947 157.355L186.86 156.702M174.329 137.921L174.769 138.146M192.957 147.481L192.325 147.157M177.303 131.651L177.62 131.756M197.809 138.391L196.392 137.925M200.314 128.047L199.638 127.841M181.843 115.352L182.154 115.394M202.662 118.173L201.709 118.044M182.469 105.478L183.177 105.525M203.757 106.888L202.862 106.829M192.864 106.167C192.704 109.735 192.337 113.249 191.777 116.698M192.864 106.167L202.862 106.829M192.864 106.167L183.177 105.525M191.777 116.698L201.709 118.044M191.777 116.698C191.324 119.483 190.744 122.226 190.043 124.921M191.777 116.698L182.154 115.394M201.709 118.044C202.296 114.368 202.684 110.626 202.862 106.829M201.709 118.044C201.178 121.367 200.485 124.635 199.638 127.841M107.645 192.473V182.739M107.645 192.473C110.558 192.309 113.434 192.007 116.267 191.573M107.645 182.739C109.814 182.602 111.959 182.379 114.077 182.074M183.177 105.525C183.035 108.871 182.69 112.165 182.154 115.394M190.043 124.921L180.747 122.091C181.307 119.893 181.777 117.66 182.154 115.394M190.043 124.921L199.638 127.841M190.043 124.921C189.167 128.291 188.101 131.586 186.858 134.792M182.154 115.394C181.211 121.069 179.678 126.545 177.62 131.756M186.858 134.792L196.392 137.925M186.858 134.792C185.828 137.451 184.675 140.049 183.408 142.58M186.858 134.792L177.62 131.756M196.392 137.925C197.644 134.643 198.729 131.278 199.638 127.841M196.392 137.925C195.187 141.082 193.829 144.162 192.325 147.157M174.769 138.146L183.408 142.58M174.769 138.146C175.808 136.066 176.76 133.934 177.62 131.756M174.769 138.146C173.321 141.045 171.705 143.845 169.933 146.533M183.408 142.58L192.325 147.157M183.408 142.58C181.86 145.671 180.141 148.661 178.263 151.537M178.263 151.537L186.86 156.702M178.263 151.537C176.644 154.015 174.907 156.41 173.061 158.712M178.263 151.537L169.933 146.533M186.86 156.702C188.848 153.631 190.674 150.446 192.325 147.157M186.86 156.702C184.926 159.688 182.837 162.566 180.607 165.323M165.749 152.307L173.061 158.712M165.749 152.307C167.226 150.447 168.622 148.52 169.933 146.533M165.749 152.307C163.695 154.895 161.485 157.355 159.134 159.671M173.061 158.712L180.607 165.323M173.061 158.712C170.911 161.392 168.613 163.947 166.178 166.364M166.178 166.364L173.448 173.271M166.178 166.364L159.134 159.671M166.178 166.364C164.15 168.376 162.029 170.293 159.819 172.107M173.448 173.271C175.971 170.751 178.361 168.098 180.607 165.323M173.448 173.271C171.092 175.624 168.621 177.859 166.043 179.97M159.134 159.671C157.426 161.355 155.643 162.963 153.791 164.49M153.791 164.49L159.819 172.107M153.791 164.49C151.223 166.607 148.522 168.568 145.703 170.36M159.819 172.107L166.043 179.97M159.819 172.107C157.123 174.322 154.296 176.383 151.352 178.279M151.352 178.279L157.182 186.45M151.352 178.279C148.949 179.826 146.467 181.263 143.914 182.582M151.352 178.279L145.703 170.36M157.182 186.45C160.256 184.45 163.213 182.285 166.043 179.97M157.182 186.45C154.395 188.265 151.511 189.945 148.542 191.481M139.431 173.961L143.914 182.582M139.431 173.961C141.58 172.853 143.672 171.65 145.703 170.36M139.431 173.961C136.565 175.44 133.599 176.753 130.546 177.886M143.914 182.582L148.542 191.481M143.914 182.582C140.907 184.136 137.802 185.526 134.611 186.74M134.611 186.74L138.805 195.875M134.611 186.74C131.939 187.757 129.206 188.65 126.419 189.414M134.611 186.74L130.546 177.886M138.805 195.875C142.14 194.58 145.39 193.111 148.542 191.481M138.805 195.875C135.51 197.154 132.132 198.265 128.679 199.196M124.229 179.936L126.419 189.414M124.229 179.936C126.372 179.337 128.479 178.653 130.546 177.886M124.229 179.936C120.926 180.858 117.537 181.576 114.077 182.074M126.419 189.414L128.679 199.196M126.419 189.414C123.107 190.321 119.719 191.045 116.267 191.573M116.267 191.573L118.525 201.374M116.267 191.573L114.077 182.074M118.525 201.374C121.972 200.82 125.36 200.091 128.679 199.196M118.525 201.374C114.958 201.947 111.328 202.332 107.645 202.519M102.793 202.649C104.42 202.644 106.038 202.6 107.645 202.519M12.7852 102.5H23.273M12.7852 102.5C12.7852 101.113 12.8164 99.7343 12.8779 98.3631M12.7852 102.5H22.4904C22.4904 101.329 22.5152 100.164 22.5644 99.005M103.262 11.9112C101.528 11.9112 99.8061 11.9601 98.0965 12.0564M2.76705 102.5C2.76705 100.891 2.80476 99.291 2.87935 97.7006M103.262 1.88066C103.158 1.88066 103.053 1.88082 102.949 1.88114M103.262 21.6284C101.527 21.6284 99.8045 21.6832 98.0965 21.7911M102.949 1.41048V1.88114M98.0965 11.7545H102.949V1.88114M98.0965 11.7545V12.0564M98.0965 11.7545V2.01129M98.0965 22.7255V21.7911M98.0965 1.41048V2.01129M91.8351 23.1956L91.6646 22.4558M87.1391 2.82103L87.2163 3.15628M81.6604 25.2331L81.5127 24.594M76.8078 4.23158L77.0626 5.33425M75.5555 27.4273L75.196 26.6441M66.6331 7.99305L66.9369 8.65485M66.6331 31.1888L66.3104 30.5684M56.7714 12.2247L57.2 13.0488M60.3717 34.6368L60.0386 34.1699M47.8489 17.0833L48.5595 18.0793M52.3884 40.5924L51.9511 40.0399M39.2395 23.9793L39.6992 24.5601M47.0663 45.2943L46.6076 44.8585M31.7259 30.7186L32.2942 31.2585M40.4918 52.6605L39.9925 52.223M24.2123 38.3982L25.1353 39.2069M36.5785 58.4594L35.8091 57.9972M17.7943 47.175L18.8818 47.8283M31.4128 66.6092L30.9728 66.3834M12.7852 57.0488L13.4165 57.3729M28.4387 72.8784L28.1215 72.7741M7.93268 66.1391L9.35023 66.6049M5.42813 76.4831L6.10415 76.6889M23.8992 89.178L23.588 89.1359M3.08012 86.3569L4.03282 86.486M23.273 99.0519L22.5644 99.005M1.98438 97.6414L2.87935 97.7006M12.8779 98.3631C13.0381 94.7951 13.4044 91.2808 13.9652 87.8319M12.8779 98.3631L2.87935 97.7006M12.8779 98.3631L22.5644 99.005M13.9652 87.8319L4.03282 86.486M13.9652 87.8319C14.4182 85.0463 14.998 82.3034 15.6986 79.6092M13.9652 87.8319L23.588 89.1359M4.03282 86.486C3.44572 90.1616 3.05743 93.9036 2.87935 97.7006M4.03282 86.486C4.56358 83.1632 5.25683 79.8947 6.10415 76.6889M98.0965 12.0564V21.7911M98.0965 12.0564C95.1837 12.2206 92.3078 12.5227 89.4751 12.9563M98.0965 21.7911C95.9282 21.9281 93.7831 22.1508 91.6646 22.4558M22.5644 99.005C22.7066 95.6586 23.0518 92.3649 23.588 89.1359M15.6986 79.6092L24.9949 82.4388C24.4347 84.6365 23.9643 86.8703 23.588 89.1359M15.6986 79.6092L6.10415 76.6889M15.6986 79.6092C16.5752 76.2384 17.6408 72.944 18.8834 69.738M23.588 89.1359C24.5307 83.4603 26.0636 77.9846 28.1215 72.7741M18.8834 69.738L9.35023 66.6049M18.8834 69.738C19.9141 67.0788 21.0665 64.4803 22.3339 61.9496M18.8834 69.738L28.1215 72.7741M9.35023 66.6049C8.09803 69.8872 7.01255 73.252 6.10415 76.6889M9.35023 66.6049C10.5545 63.4482 11.913 60.3678 13.4165 57.3729M30.9728 66.3834L22.3339 61.9496M30.9728 66.3834C29.9338 68.4641 28.9817 70.5959 28.1215 72.7741M30.9728 66.3834C32.4203 63.4844 34.0367 60.6847 35.8091 57.9972M22.3339 61.9496L13.4165 57.3729M22.3339 61.9496C23.8817 58.859 25.601 55.8693 27.4791 52.993M27.4791 52.993L18.8818 47.8283M27.4791 52.993C29.0977 50.5143 30.8344 48.1198 32.681 45.8176M27.4791 52.993L35.8091 57.9972M18.8818 47.8283C16.8934 50.8985 15.0675 54.0841 13.4165 57.3729M18.8818 47.8283C20.8161 44.8415 22.9044 41.964 25.1353 39.2069M39.9925 52.223L32.681 45.8176M39.9925 52.223C38.5162 54.0829 37.12 56.0094 35.8091 57.9972M39.9925 52.223C42.0471 49.6345 44.2568 47.1749 46.6076 44.8585M32.681 45.8176L25.1353 39.2069M32.681 45.8176C34.8305 43.1379 37.1291 40.5832 39.5641 38.1661M39.5641 38.1661L32.2942 31.2585M39.5641 38.1661L46.6076 44.8585M39.5641 38.1661C41.5914 36.1538 43.7132 34.2369 45.9223 32.4227M32.2942 31.2585C29.771 33.7783 27.3809 36.4316 25.1353 39.2069M32.2942 31.2585C34.6497 28.9062 37.1211 26.6703 39.6992 24.5601M46.6076 44.8585C48.3161 43.1749 50.099 41.5669 51.9511 40.0399M51.9511 40.0399L45.9223 32.4227M51.9511 40.0399C54.5189 37.9228 57.2196 35.9613 60.0386 34.1699M45.9223 32.4227L39.6992 24.5601M45.9223 32.4227C48.619 30.2082 51.4457 28.1466 54.3894 26.2512M54.3894 26.2512L48.5595 18.0793M54.3894 26.2512C56.7932 24.7035 59.275 23.2665 61.8275 21.9476M54.3894 26.2512L60.0386 34.1699M48.5595 18.0793C45.4859 20.08 42.5284 22.2443 39.6992 24.5601M48.5595 18.0793C51.3472 16.2647 54.2305 14.5849 57.2 13.0488M66.3104 30.5684L61.8275 21.9476M66.3104 30.5684C64.162 31.677 62.0696 32.8793 60.0386 34.1699M66.3104 30.5684C69.1767 29.0893 72.1428 27.777 75.196 26.6441M61.8275 21.9476L57.2 13.0488M61.8275 21.9476C64.8344 20.394 67.9394 19.0042 71.1309 17.7899M71.1309 17.7899L66.9369 8.65485M71.1309 17.7899C73.8032 16.7732 76.5362 15.8797 79.3228 15.1161M71.1309 17.7899L75.196 26.6441M66.9369 8.65485C63.6014 9.95005 60.352 11.4184 57.2 13.0488M66.9369 8.65485C70.2315 7.37553 73.6103 6.26513 77.0626 5.33425M81.5127 24.594L79.3228 15.1161M81.5127 24.594C79.3699 25.1925 77.263 25.8771 75.196 26.6441M81.5127 24.594C84.8161 23.6715 88.2049 22.9539 91.6646 22.4558M79.3228 15.1161L77.0626 5.33425M79.3228 15.1161C82.6349 14.2086 86.0229 13.4848 89.4751 12.9563M89.4751 12.9563L87.2163 3.15628M89.4751 12.9563L91.6646 22.4558M87.2163 3.15628C83.77 3.70997 80.3823 4.43911 77.0626 5.33425M87.2163 3.15628C90.7838 2.58313 94.414 2.19798 98.0965 2.01129M102.949 1.88114C101.322 1.88611 99.7043 1.92978 98.0965 2.01129" stroke="#111111" stroke-width="0.313888"/>
</svg>
