<svg width="400" height="205" viewBox="0 0 400 205" fill="none" xmlns="http://www.w3.org/2000/svg">
<path d="M281.311 116.957C281.977 112.234 282.322 107.408 282.322 102.5C282.322 101.538 282.308 100.579 282.282 99.6237H354.756V100.631C353.337 101.764 351.899 102.873 350.441 103.957L337.509 112.624C334.992 114.137 332.429 115.583 329.824 116.957H281.311Z" fill="#111111"/>
<path d="M278.607 129.958C279.004 128.526 279.37 127.081 279.706 125.624H309.744V125.824C305.401 127.39 300.969 128.771 296.459 129.958H278.607Z" fill="#111111"/>
<path d="M281.773 91.8235C281.19 86.1863 280.151 80.6847 278.694 75.3564H380C378.833 76.8223 377.64 78.267 376.422 79.6899L369.287 87.4901C367.847 88.9628 366.379 90.4076 364.883 91.8235H281.773Z" fill="#111111"/>
<path d="M120.191 125.624C120.526 127.081 120.893 128.526 121.289 129.958H103.541C99.0311 128.771 94.5995 127.39 90.256 125.824V125.624H120.191Z" fill="#111111"/>
<path d="M118.585 116.957H70.1762C67.5707 115.583 65.0082 114.137 62.4911 112.624L49.5591 103.957C48.1013 102.873 46.6626 101.764 45.2439 100.631V99.6237H117.614C117.588 100.579 117.575 101.538 117.575 102.5C117.575 107.408 117.919 112.234 118.585 116.957Z" fill="#111111"/>
<path d="M121.203 75.3564C119.745 80.6847 118.706 86.1863 118.123 91.8235H35.1171C33.6214 90.4076 32.1531 88.9628 30.7133 87.4901L23.5777 79.6899C22.3602 78.267 21.1674 76.8223 20 75.3564H121.203Z" fill="#111111"/>
<path fill-rule="evenodd" clip-rule="evenodd" d="M302.322 102.5C302.322 159.109 256.487 205 199.948 205C143.409 205 97.5747 159.109 97.5747 102.5C97.5747 45.8908 143.409 0 199.948 0C256.487 0 302.322 45.8908 302.322 102.5Z" fill="white"/>
<path fill-rule="evenodd" clip-rule="evenodd" d="M301 102.5C301 158.557 255.781 204 200 204C144.219 204 99.0001 158.557 99.0001 102.5C99.0001 46.4431 144.219 1 200 1C255.781 1 301 46.4431 301 102.5ZM200.309 183.203C244.661 183.203 280.615 147.07 280.615 102.499C280.615 57.928 244.661 21.7958 200.309 21.7958C155.957 21.7958 120.003 57.928 120.003 102.499C120.003 147.07 155.957 183.203 200.309 183.203Z" fill="#FFC000"/>
<path d="M280.404 102.499C280.404 146.818 244.521 182.742 200.261 182.742C156.001 182.742 120.119 146.818 120.119 102.499C120.119 58.181 156.001 22.2565 200.261 22.2565C244.521 22.2565 280.404 58.181 280.404 102.499Z" stroke="#111111" stroke-width="2.5111"/>
<path d="M301.066 102.5C301.066 158.417 255.793 203.744 199.948 203.744C144.104 203.744 98.8303 158.417 98.8303 102.5C98.8303 46.5828 144.104 1.25555 199.948 1.25555C255.793 1.25555 301.066 46.5828 301.066 102.5Z" stroke="#111111" stroke-width="2.5111"/>
<path d="M109.878 106.166C110.038 109.734 110.404 113.249 110.965 116.697L101.033 118.043C100.446 114.368 100.057 110.626 99.8794 106.829L109.878 106.166Z" fill="#111111"/>
<path fill-rule="evenodd" clip-rule="evenodd" d="M109.785 102.029H119.49C119.49 103.2 119.515 104.366 119.565 105.524L109.878 106.166C109.816 104.795 109.785 103.416 109.785 102.029Z" fill="#111111"/>
<path d="M121.995 122.091L112.699 124.92C111.998 122.226 111.418 119.483 110.965 116.697L120.588 115.394C120.964 117.659 121.435 119.893 121.995 122.091Z" fill="#111111"/>
<path d="M115.883 134.791L106.35 137.924C105.098 134.642 104.013 131.277 103.104 127.841L112.699 124.92C113.575 128.291 114.641 131.585 115.883 134.791Z" fill="#111111"/>
<path d="M127.973 138.146L119.334 142.58C118.067 140.049 116.914 137.451 115.883 134.791L125.122 131.755C125.982 133.933 126.934 136.065 127.973 138.146Z" fill="#111111"/>
<path d="M124.479 151.536L115.882 156.701C113.893 153.631 112.068 150.445 110.417 147.157L119.334 142.58C120.882 145.67 122.601 148.66 124.479 151.536Z" fill="#111111"/>
<path d="M136.993 152.306L129.681 158.712C127.834 156.41 126.098 154.015 124.479 151.536L132.809 146.532C134.12 148.52 135.516 150.447 136.993 152.306Z" fill="#111111"/>
<path d="M136.564 166.363L129.294 173.271C126.771 170.751 124.381 168.098 122.135 165.323L129.681 158.712C131.831 161.392 134.129 163.946 136.564 166.363Z" fill="#111111"/>
<path d="M148.951 164.49L142.922 172.107C140.713 170.292 138.591 168.376 136.564 166.363L143.608 159.671C145.316 161.355 147.099 162.962 148.951 164.49Z" fill="#111111"/>
<path d="M151.389 178.278L145.56 186.45C142.486 184.449 139.528 182.285 136.699 179.969L142.922 172.107C145.619 174.321 148.446 176.383 151.389 178.278Z" fill="#111111"/>
<path d="M163.311 173.961L158.828 182.582C156.275 181.263 153.793 179.826 151.389 178.278L157.039 170.359C159.07 171.65 161.162 172.852 163.311 173.961Z" fill="#111111"/>
<path d="M168.131 186.739L163.937 195.875C160.601 194.579 157.352 193.111 154.2 191.481L158.828 182.582C161.834 184.135 164.94 185.525 168.131 186.739Z" fill="#111111"/>
<path d="M178.513 179.935L176.323 189.413C173.536 188.65 170.803 187.756 168.131 186.739L172.196 177.885C174.263 178.652 176.37 179.337 178.513 179.935Z" fill="#111111"/>
<path d="M186.475 191.573L184.216 201.373C180.77 200.819 177.382 200.09 174.063 199.195L176.323 189.413C179.635 190.321 183.023 191.045 186.475 191.573Z" fill="#111111"/>
<path d="M195.097 182.738V192.473C192.184 192.309 189.308 192.007 186.475 191.573L188.665 182.074C190.783 182.379 192.928 182.601 195.097 182.738Z" fill="#111111"/>
<path d="M199.949 192.775V202.648C198.322 202.643 196.704 202.6 195.097 202.518V192.775H199.949Z" fill="#111111"/>
<path d="M289.864 98.3628C289.704 94.7948 289.337 91.2805 288.777 87.8316L298.709 86.4857C299.296 90.1613 299.684 93.9033 299.863 97.7003L289.864 98.3628Z" fill="#111111"/>
<path fill-rule="evenodd" clip-rule="evenodd" d="M289.957 102.5H280.252C280.252 101.329 280.227 100.163 280.177 99.0046L289.864 98.3628C289.926 99.734 289.957 101.113 289.957 102.5Z" fill="#111111"/>
<path d="M277.747 82.4384L287.043 79.6089C287.744 82.303 288.324 85.046 288.777 87.8316L279.154 89.1356C278.778 86.87 278.307 84.6362 277.747 82.4384Z" fill="#111111"/>
<path d="M283.859 69.7377L293.392 66.6046C294.644 69.8869 295.729 73.2517 296.638 76.6885L287.043 79.6089C286.167 76.2381 285.101 72.9437 283.859 69.7377Z" fill="#111111"/>
<path d="M271.769 66.3831L280.408 61.9493C281.675 64.48 282.828 67.0784 283.859 69.7377L274.62 72.7738C273.76 70.5956 272.808 68.4638 271.769 66.3831Z" fill="#111111"/>
<path d="M275.263 52.9927L283.86 47.8279C285.849 50.8982 287.674 54.0838 289.325 57.3725L280.408 61.9493C278.86 58.8586 277.141 55.869 275.263 52.9927Z" fill="#111111"/>
<path d="M262.749 52.2227L270.061 45.8173C271.908 48.1195 273.644 50.514 275.263 52.9927L266.933 57.9969C265.622 56.009 264.226 54.0826 262.749 52.2227Z" fill="#111111"/>
<path d="M263.178 38.1658L270.448 31.2582C272.971 33.778 275.361 36.4313 277.607 39.2066L270.061 45.8173C267.911 43.1376 265.613 40.5828 263.178 38.1658Z" fill="#111111"/>
<path d="M250.791 40.0396L256.82 32.4224C259.029 34.2366 261.151 36.1535 263.178 38.1658L256.134 44.8581C254.426 43.1746 252.643 41.5666 250.791 40.0396Z" fill="#111111"/>
<path d="M248.352 26.2509L254.182 18.079C257.256 20.0796 260.214 22.244 263.043 24.5597L256.82 32.4224C254.123 30.2079 251.296 28.1463 248.352 26.2509Z" fill="#111111"/>
<path d="M236.431 30.568L240.914 21.9473C243.467 23.2662 245.949 24.7031 248.352 26.2509L242.703 34.1696C240.672 32.879 238.58 31.6767 236.431 30.568Z" fill="#111111"/>
<path d="M231.611 17.7896L235.805 8.65453C239.141 9.94973 242.39 11.4181 245.542 13.0485L240.914 21.9473C237.908 20.3937 234.802 19.0038 231.611 17.7896Z" fill="#111111"/>
<path d="M221.229 24.5937L223.419 15.1158C226.206 15.8793 228.939 16.7729 231.611 17.7896L227.546 26.6438C225.479 25.8768 223.372 25.1921 221.229 24.5937Z" fill="#111111"/>
<path d="M213.267 12.956L215.526 3.15596C218.972 3.70965 222.36 4.43878 225.679 5.33392L223.419 15.1158C220.107 14.2083 216.719 13.4844 213.267 12.956Z" fill="#111111"/>
<path d="M204.645 21.7908V12.0561C207.558 12.2202 210.434 12.5223 213.267 12.956L211.077 22.4555C208.959 22.1505 206.814 21.9278 204.645 21.7908Z" fill="#111111"/>
<path d="M199.793 11.7542V1.88082C201.42 1.88578 203.038 1.92946 204.645 2.01097V11.7542H199.793Z" fill="#111111"/>
<path d="M289.864 106.166C289.704 109.734 289.337 113.249 288.777 116.698L298.709 118.043C299.296 114.368 299.684 110.626 299.863 106.829L289.864 106.166Z" fill="#111111"/>
<path fill-rule="evenodd" clip-rule="evenodd" d="M289.957 102.03H280.252C280.252 103.201 280.227 104.366 280.177 105.525L289.864 106.166C289.926 104.795 289.957 103.416 289.957 102.03Z" fill="#111111"/>
<path d="M277.747 122.091L287.043 124.92C287.744 122.226 288.324 119.483 288.777 116.698L279.154 115.394C278.778 117.659 278.307 119.893 277.747 122.091Z" fill="#111111"/>
<path d="M283.859 134.792L293.392 137.925C294.644 134.642 295.729 131.278 296.638 127.841L287.043 124.92C286.167 128.291 285.101 131.586 283.859 134.792Z" fill="#111111"/>
<path d="M271.769 138.146L280.408 142.58C281.675 140.049 282.828 137.451 283.859 134.792L274.62 131.755C273.76 133.934 272.808 136.065 271.769 138.146Z" fill="#111111"/>
<path d="M275.263 151.536L283.86 156.701C285.849 153.631 287.674 150.445 289.325 147.157L280.408 142.58C278.86 145.671 277.141 148.66 275.263 151.536Z" fill="#111111"/>
<path d="M262.749 152.307L270.061 158.712C271.908 156.41 273.644 154.015 275.263 151.536L266.933 146.532C265.622 148.52 264.226 150.447 262.749 152.307Z" fill="#111111"/>
<path d="M263.178 166.363L270.448 173.271C272.971 170.751 275.361 168.098 277.607 165.323L270.061 158.712C267.911 161.392 265.613 163.946 263.178 166.363Z" fill="#111111"/>
<path d="M250.791 164.49L256.82 172.107C259.029 170.293 261.151 168.376 263.178 166.363L256.134 159.671C254.426 161.355 252.643 162.963 250.791 164.49Z" fill="#111111"/>
<path d="M248.352 178.278L254.182 186.45C257.256 184.45 260.214 182.285 263.043 179.969L256.82 172.107C254.123 174.321 251.296 176.383 248.352 178.278Z" fill="#111111"/>
<path d="M236.431 173.961L240.914 182.582C243.467 181.263 245.949 179.826 248.352 178.278L242.703 170.36C240.672 171.65 238.58 172.853 236.431 173.961Z" fill="#111111"/>
<path d="M231.611 186.74L235.805 195.875C239.141 194.579 242.39 193.111 245.542 191.481L240.914 182.582C237.908 184.136 234.802 185.525 231.611 186.74Z" fill="#111111"/>
<path d="M221.229 179.936L223.419 189.413C226.206 188.65 228.939 187.756 231.611 186.74L227.546 177.885C225.479 178.652 223.372 179.337 221.229 179.936Z" fill="#111111"/>
<path d="M213.267 191.573L215.526 201.373C218.972 200.82 222.36 200.09 225.679 199.195L223.419 189.413C220.107 190.321 216.719 191.045 213.267 191.573Z" fill="#111111"/>
<path d="M204.645 182.738V192.473C207.558 192.309 210.434 192.007 213.267 191.573L211.077 182.074C208.959 182.379 206.814 182.601 204.645 182.738Z" fill="#111111"/>
<path d="M199.793 192.775V202.648C201.42 202.643 203.038 202.6 204.645 202.518V192.775H199.793Z" fill="#111111"/>
<path d="M109.878 98.3629C110.038 94.7949 110.404 91.2806 110.965 87.8317L101.033 86.4858C100.446 90.1614 100.057 93.9034 99.8794 97.7004L109.878 98.3629Z" fill="#111111"/>
<path fill-rule="evenodd" clip-rule="evenodd" d="M109.785 102.5H119.49C119.49 101.329 119.515 100.164 119.565 99.0047L109.878 98.3629C109.816 99.7341 109.785 101.113 109.785 102.5Z" fill="#111111"/>
<path d="M121.995 82.4385L112.699 79.6089C111.998 82.3031 111.418 85.0461 110.965 87.8317L120.588 89.1356C120.964 86.87 121.435 84.6363 121.995 82.4385Z" fill="#111111"/>
<path d="M115.883 69.7378L106.35 66.6047C105.098 69.887 104.013 73.2517 103.104 76.6886L112.699 79.6089C113.575 76.2382 114.641 72.9438 115.883 69.7378Z" fill="#111111"/>
<path d="M127.973 66.3831L119.334 61.9494C118.067 64.4801 116.914 67.0785 115.883 69.7378L125.122 72.7739C125.982 70.5957 126.934 68.4639 127.973 66.3831Z" fill="#111111"/>
<path d="M124.479 52.9928L115.882 47.828C113.893 50.8983 112.068 54.0839 110.417 57.3726L119.334 61.9494C120.882 58.8587 122.601 55.869 124.479 52.9928Z" fill="#111111"/>
<path d="M136.993 52.2227L129.681 45.8173C127.834 48.1196 126.098 50.5141 124.479 52.9928L132.809 57.9969C134.12 56.0091 135.516 54.0826 136.993 52.2227Z" fill="#111111"/>
<path d="M136.564 38.1658L129.294 31.2583C126.771 33.7781 124.381 36.4313 122.135 39.2066L129.681 45.8173C131.831 43.1376 134.129 40.5829 136.564 38.1658Z" fill="#111111"/>
<path d="M148.951 40.0397L142.922 32.4225C140.713 34.2367 138.591 36.1536 136.564 38.1658L143.608 44.8582C145.316 43.1747 147.099 41.5667 148.951 40.0397Z" fill="#111111"/>
<path d="M151.389 26.251L145.56 18.0791C142.486 20.0797 139.528 22.2441 136.699 24.5598L142.922 32.4225C145.619 30.2079 148.446 28.1463 151.389 26.251Z" fill="#111111"/>
<path d="M163.311 30.5681L158.828 21.9474C156.275 23.2663 153.793 24.7032 151.389 26.251L157.039 34.1697C159.07 32.8791 161.162 31.6768 163.311 30.5681Z" fill="#111111"/>
<path d="M168.131 17.7897L163.937 8.65461C160.601 9.94981 157.352 11.4181 154.2 13.0486L158.828 21.9474C161.834 20.3937 164.94 19.0039 168.131 17.7897Z" fill="#111111"/>
<path d="M178.513 24.5938L176.323 15.1159C173.536 15.8794 170.803 16.773 168.131 17.7897L172.196 26.6439C174.263 25.8769 176.37 25.1922 178.513 24.5938Z" fill="#111111"/>
<path d="M186.475 12.9561L184.216 3.15604C180.77 3.70973 177.382 4.43886 174.063 5.334L176.323 15.1159C179.635 14.2083 183.023 13.4845 186.475 12.9561Z" fill="#111111"/>
<path d="M195.097 21.7908V12.0562C192.184 12.2203 189.308 12.5224 186.475 12.9561L188.665 22.4555C190.783 22.1505 192.928 21.9279 195.097 21.7908Z" fill="#111111"/>
<path d="M199.949 11.7543V1.8809C198.322 1.88586 196.704 1.92954 195.097 2.01105V11.7543H199.949Z" fill="#111111"/>
<path d="M109.785 102.029H120.273M109.785 102.029C109.785 103.416 109.816 104.795 109.878 106.166M109.785 102.029H119.49C119.49 103.2 119.515 104.366 119.565 105.524M200.262 192.618C198.528 192.618 196.806 192.569 195.097 192.473M99.7671 102.029C99.7671 103.638 99.8048 105.238 99.8794 106.829M200.262 202.649C200.158 202.649 200.053 202.649 199.949 202.648M200.262 182.901C198.527 182.901 196.805 182.846 195.097 182.738M199.949 203.119V202.648M195.097 192.775H199.949V202.648M195.097 192.775V192.473M195.097 192.775V202.518M195.097 181.804V182.738M195.097 203.119V202.518M188.835 181.334L188.665 182.074M184.139 201.708L184.216 201.373M178.66 179.296L178.513 179.935M173.808 200.298L174.063 199.195M172.556 177.102L172.196 177.885M163.633 196.536L163.937 195.875M163.633 173.341L163.311 173.961M153.771 192.305L154.2 191.481M157.372 169.893L157.039 170.359M144.849 187.446L145.56 186.45M149.388 163.937L148.951 164.49M136.24 180.55L136.699 179.969M144.066 159.235L143.608 159.671M128.726 173.811L129.294 173.271M137.492 151.869L136.993 152.306M121.212 166.131L122.135 165.323M133.579 146.07L132.809 146.532M114.794 157.354L115.882 156.701M128.413 137.92L127.973 138.146M109.785 147.481L110.417 147.157M125.439 131.651L125.122 131.755M104.933 138.39L106.35 137.924M102.428 128.046L103.104 127.841M120.899 115.351L120.588 115.394M100.08 118.172L101.033 118.043M120.273 105.477L119.565 105.524M98.9844 106.888L99.8794 106.829M109.878 106.166C110.038 109.734 110.404 113.249 110.965 116.697M109.878 106.166L99.8794 106.829M109.878 106.166L119.565 105.524M110.965 116.697L101.033 118.043M110.965 116.697C111.418 119.483 111.998 122.226 112.699 124.92M110.965 116.697L120.588 115.394M101.033 118.043C100.446 114.368 100.057 110.626 99.8794 106.829M101.033 118.043C101.564 121.366 102.257 124.635 103.104 127.841M195.097 192.473V182.738M195.097 192.473C192.184 192.309 189.308 192.007 186.475 191.573M195.097 182.738C192.928 182.601 190.783 182.379 188.665 182.074M119.565 105.524C119.707 108.871 120.052 112.164 120.588 115.394M112.699 124.92L121.995 122.091C121.435 119.893 120.964 117.659 120.588 115.394M112.699 124.92L103.104 127.841M112.699 124.92C113.575 128.291 114.641 131.585 115.883 134.791M120.588 115.394C121.531 121.069 123.064 126.545 125.122 131.755M115.883 134.791L106.35 137.924M115.883 134.791C116.914 137.451 118.067 140.049 119.334 142.58M115.883 134.791L125.122 131.755M106.35 137.924C105.098 134.642 104.013 131.277 103.104 127.841M106.35 137.924C107.555 141.081 108.913 144.162 110.417 147.157M127.973 138.146L119.334 142.58M127.973 138.146C126.934 136.065 125.982 133.933 125.122 131.755M127.973 138.146C129.42 141.045 131.037 143.845 132.809 146.532M119.334 142.58L110.417 147.157M119.334 142.58C120.882 145.67 122.601 148.66 124.479 151.536M124.479 151.536L115.882 156.701M124.479 151.536C126.098 154.015 127.834 156.41 129.681 158.712M124.479 151.536L132.809 146.532M115.882 156.701C113.893 153.631 112.068 150.445 110.417 147.157M115.882 156.701C117.816 159.688 119.904 162.565 122.135 165.323M136.993 152.306L129.681 158.712M136.993 152.306C135.516 150.447 134.12 148.52 132.809 146.532M136.993 152.306C139.047 154.895 141.257 157.354 143.608 159.671M129.681 158.712L122.135 165.323M129.681 158.712C131.831 161.392 134.129 163.946 136.564 166.363M136.564 166.363L129.294 173.271M136.564 166.363L143.608 159.671M136.564 166.363C138.591 168.376 140.713 170.292 142.922 172.107M129.294 173.271C126.771 170.751 124.381 168.098 122.135 165.323M129.294 173.271C131.65 175.623 134.121 177.859 136.699 179.969M143.608 159.671C145.316 161.355 147.099 162.962 148.951 164.49M148.951 164.49L142.922 172.107M148.951 164.49C151.519 166.607 154.22 168.568 157.039 170.359M142.922 172.107L136.699 179.969M142.922 172.107C145.619 174.321 148.446 176.383 151.389 178.278M151.389 178.278L145.56 186.45M151.389 178.278C153.793 179.826 156.275 181.263 158.828 182.582M151.389 178.278L157.039 170.359M145.56 186.45C142.486 184.449 139.528 182.285 136.699 179.969M145.56 186.45C148.347 188.265 151.231 189.945 154.2 191.481M163.311 173.961L158.828 182.582M163.311 173.961C161.162 172.852 159.07 171.65 157.039 170.359M163.311 173.961C166.177 175.44 169.143 176.752 172.196 177.885M158.828 182.582L154.2 191.481M158.828 182.582C161.834 184.135 164.94 185.525 168.131 186.739M168.131 186.739L163.937 195.875M168.131 186.739C170.803 187.756 173.536 188.65 176.323 189.413M168.131 186.739L172.196 177.885M163.937 195.875C160.601 194.579 157.352 193.111 154.2 191.481M163.937 195.875C167.232 197.154 170.61 198.264 174.063 199.195M178.513 179.935L176.323 189.413M178.513 179.935C176.37 179.337 174.263 178.652 172.196 177.885M178.513 179.935C181.816 180.858 185.205 181.576 188.665 182.074M176.323 189.413L174.063 199.195M176.323 189.413C179.635 190.321 183.023 191.045 186.475 191.573M186.475 191.573L184.216 201.373M186.475 191.573L188.665 182.074M184.216 201.373C180.77 200.819 177.382 200.09 174.063 199.195M184.216 201.373C187.784 201.946 191.414 202.331 195.097 202.518M199.949 202.648C198.322 202.643 196.704 202.6 195.097 202.518M289.957 102.5H279.469M289.957 102.5C289.957 101.113 289.926 99.734 289.864 98.3628M289.957 102.5H280.252C280.252 101.329 280.227 100.163 280.177 99.0046M199.48 11.9109C201.213 11.9109 202.936 11.9597 204.645 12.0561M299.975 102.5C299.975 100.891 299.937 99.2907 299.863 97.7003M199.48 1.88034C199.584 1.88034 199.689 1.8805 199.793 1.88082M199.48 21.628C201.215 21.628 202.937 21.6828 204.645 21.7908M199.793 1.41016V1.88082M204.645 11.7542H199.793V1.88082M204.645 11.7542V12.0561M204.645 11.7542V2.01097M204.645 22.7251V21.7908M204.645 1.41016V2.01097M210.907 23.1953L211.077 22.4555M215.603 2.82071L215.526 3.15596M221.082 25.2328L221.229 24.5937M225.934 4.23126L225.679 5.33392M227.186 27.427L227.546 26.6438M236.109 7.99272L235.805 8.65453M236.109 31.1884L236.431 30.568M245.97 12.2244L245.542 13.0485M242.37 34.6365L242.703 34.1696M254.893 17.0829L254.182 18.079M250.353 40.5921L250.791 40.0396M263.502 23.979L263.043 24.5597M255.676 45.2939L256.134 44.8581M271.016 30.7183L270.448 31.2582M262.25 52.6601L262.749 52.2227M278.53 38.3979L277.607 39.2066M266.163 58.4591L266.933 57.9969M284.948 47.1747L283.86 47.828M271.329 66.6089L271.769 66.3831M289.957 57.0485L289.325 57.3725M274.303 72.878L274.62 72.7738M294.809 66.1387L293.392 66.6046M297.314 76.4828L296.638 76.6885M278.843 89.1777L279.154 89.1356M299.662 86.3566L298.709 86.4857M279.469 99.0516L280.177 99.0046M300.758 97.641L299.863 97.7003M289.864 98.3628C289.704 94.7948 289.337 91.2805 288.777 87.8316M289.864 98.3628L299.863 97.7003M289.864 98.3628L280.177 99.0046M288.777 87.8316L298.709 86.4857M288.777 87.8316C288.324 85.046 287.744 82.303 287.043 79.6089M288.777 87.8316L279.154 89.1356M298.709 86.4857C299.296 90.1613 299.684 93.9033 299.863 97.7003M298.709 86.4857C298.178 83.1629 297.485 79.8943 296.638 76.6885M204.645 12.0561V21.7908M204.645 12.0561C207.558 12.2202 210.434 12.5223 213.267 12.956M204.645 21.7908C206.814 21.9278 208.959 22.1505 211.077 22.4555M280.177 99.0046C280.035 95.6583 279.69 92.3646 279.154 89.1356M287.043 79.6089L277.747 82.4384C278.307 84.6362 278.778 86.87 279.154 89.1356M287.043 79.6089L296.638 76.6885M287.043 79.6089C286.167 76.2381 285.101 72.9437 283.859 69.7377M279.154 89.1356C278.211 83.46 276.678 77.9843 274.62 72.7738M283.859 69.7377L293.392 66.6046M283.859 69.7377C282.828 67.0784 281.675 64.48 280.408 61.9493M283.859 69.7377L274.62 72.7738M293.392 66.6046C294.644 69.8869 295.729 73.2517 296.638 76.6885M293.392 66.6046C292.187 63.4479 290.829 60.3674 289.325 57.3725M271.769 66.3831L280.408 61.9493M271.769 66.3831C272.808 68.4638 273.76 70.5956 274.62 72.7738M271.769 66.3831C270.322 63.4841 268.705 60.6844 266.933 57.9969M280.408 61.9493L289.325 57.3725M280.408 61.9493C278.86 58.8586 277.141 55.869 275.263 52.9927M275.263 52.9927L283.86 47.828M275.263 52.9927C273.644 50.514 271.908 48.1195 270.061 45.8173M275.263 52.9927L266.933 57.9969M283.86 47.828C285.849 50.8982 287.674 54.0838 289.325 57.3725M283.86 47.828C281.926 44.8412 279.837 41.9637 277.607 39.2066M262.749 52.2227L270.061 45.8173M262.749 52.2227C264.226 54.0825 265.622 56.009 266.933 57.9969M262.749 52.2227C260.695 49.6341 258.485 47.1746 256.134 44.8581M270.061 45.8173L277.607 39.2066M270.061 45.8173C267.911 43.1376 265.613 40.5828 263.178 38.1658M263.178 38.1658L270.448 31.2582M263.178 38.1658L256.134 44.8581M263.178 38.1658C261.151 36.1535 259.029 34.2366 256.82 32.4224M270.448 31.2582C272.971 33.778 275.361 36.4313 277.607 39.2066M270.448 31.2582C268.092 28.9059 265.621 26.67 263.043 24.5597M256.134 44.8581C254.426 43.1746 252.643 41.5666 250.791 40.0396M250.791 40.0396L256.82 32.4224M250.791 40.0396C248.223 37.9225 245.522 35.961 242.703 34.1696M256.82 32.4224L263.043 24.5597M256.82 32.4224C254.123 30.2079 251.296 28.1463 248.352 26.2509M248.352 26.2509L254.182 18.079M248.352 26.2509C245.949 24.7031 243.467 23.2662 240.914 21.9473M248.352 26.2509L242.703 34.1696M254.182 18.079C257.256 20.0796 260.214 22.244 263.043 24.5597M254.182 18.079C251.395 16.2644 248.511 14.5845 245.542 13.0485M236.431 30.568L240.914 21.9473M236.431 30.568C238.58 31.6767 240.672 32.879 242.703 34.1696M236.431 30.568C233.565 29.089 230.599 27.7766 227.546 26.6438M240.914 21.9473L245.542 13.0485M240.914 21.9473C237.907 20.3937 234.802 19.0038 231.611 17.7896M231.611 17.7896L235.805 8.65453M231.611 17.7896C228.939 16.7729 226.206 15.8793 223.419 15.1158M231.611 17.7896L227.546 26.6438M235.805 8.65453C239.141 9.94973 242.39 11.4181 245.542 13.0485M235.805 8.65453C232.51 7.37521 229.132 6.2648 225.679 5.33392M221.229 24.5937L223.419 15.1158M221.229 24.5937C223.372 25.1921 225.479 25.8768 227.546 26.6438M221.229 24.5937C217.926 23.6711 214.537 22.9535 211.077 22.4555M223.419 15.1158L225.679 5.33392M223.419 15.1158C220.107 14.2083 216.719 13.4844 213.267 12.956M213.267 12.956L215.526 3.15596M213.267 12.956L211.077 22.4555M215.526 3.15596C218.972 3.70965 222.36 4.43878 225.679 5.33392M215.526 3.15596C211.958 2.58281 208.328 2.19765 204.645 2.01097M199.793 1.88082C201.42 1.88578 203.038 1.92946 204.645 2.01097M289.957 102.03H279.469M289.957 102.03C289.957 103.416 289.926 104.795 289.864 106.166M289.957 102.03H280.252C280.252 103.201 280.227 104.366 280.177 105.525M199.48 192.618C201.213 192.618 202.936 192.569 204.645 192.473M299.975 102.03C299.975 103.638 299.937 105.239 299.863 106.829M199.48 202.649C199.584 202.649 199.689 202.649 199.793 202.648M199.48 182.901C201.215 182.901 202.937 182.846 204.645 182.738M199.793 203.119V202.648M204.645 192.775H199.793V202.648M204.645 192.775V192.473M204.645 192.775V202.518M204.645 181.804V182.738M204.645 203.119V202.518M210.907 181.334L211.077 182.074M215.603 201.709L215.526 201.373M221.082 179.296L221.229 179.936M225.934 200.298L225.679 199.195M227.186 177.102L227.546 177.885M236.109 196.536L235.805 195.875M236.109 173.341L236.431 173.961M245.97 192.305L245.542 191.481M242.37 169.893L242.703 170.36M254.893 187.446L254.182 186.45M250.353 163.937L250.791 164.49M263.502 180.55L263.043 179.969M255.676 159.235L256.134 159.671M271.016 173.811L270.448 173.271M262.25 151.869L262.749 152.307M278.53 166.131L277.607 165.323M266.163 146.07L266.933 146.532M284.948 157.355L283.86 156.701M271.329 137.92L271.769 138.146M289.957 147.481L289.325 147.157M274.303 131.651L274.62 131.755M294.809 138.39L293.392 137.925M297.314 128.046L296.638 127.841M278.843 115.351L279.154 115.394M299.662 118.173L298.709 118.043M279.469 105.478L280.177 105.525M300.758 106.888L299.863 106.829M289.864 106.166C289.704 109.734 289.337 113.249 288.777 116.698M289.864 106.166L299.863 106.829M289.864 106.166L280.177 105.525M288.777 116.698L298.709 118.043M288.777 116.698C288.324 119.483 287.744 122.226 287.043 124.92M288.777 116.698L279.154 115.394M298.709 118.043C299.296 114.368 299.684 110.626 299.863 106.829M298.709 118.043C298.178 121.366 297.485 124.635 296.638 127.841M204.645 192.473V182.738M204.645 192.473C207.558 192.309 210.434 192.007 213.267 191.573M204.645 182.738C206.814 182.601 208.959 182.379 211.077 182.074M280.177 105.525C280.035 108.871 279.69 112.165 279.154 115.394M287.043 124.92L277.747 122.091C278.307 119.893 278.778 117.659 279.154 115.394M287.043 124.92L296.638 127.841M287.043 124.92C286.167 128.291 285.101 131.586 283.859 134.792M279.154 115.394C278.211 121.069 276.678 126.545 274.62 131.755M283.859 134.792L293.392 137.925M283.859 134.792C282.828 137.451 281.675 140.049 280.408 142.58M283.859 134.792L274.62 131.755M293.392 137.925C294.644 134.642 295.729 131.278 296.638 127.841M293.392 137.925C292.187 141.081 290.829 144.162 289.325 147.157M271.769 138.146L280.408 142.58M271.769 138.146C272.808 136.065 273.76 133.934 274.62 131.755M271.769 138.146C270.322 141.045 268.705 143.845 266.933 146.532M280.408 142.58L289.325 147.157M280.408 142.58C278.86 145.671 277.141 148.66 275.263 151.536M275.263 151.536L283.86 156.701M275.263 151.536C273.644 154.015 271.908 156.41 270.061 158.712M275.263 151.536L266.933 146.532M283.86 156.701C285.849 153.631 287.674 150.445 289.325 147.157M283.86 156.701C281.926 159.688 279.837 162.566 277.607 165.323M262.749 152.307L270.061 158.712M262.749 152.307C264.226 150.447 265.622 148.52 266.933 146.532M262.749 152.307C260.695 154.895 258.485 157.355 256.134 159.671M270.061 158.712L277.607 165.323M270.061 158.712C267.911 161.392 265.613 163.946 263.178 166.363M263.178 166.363L270.448 173.271M263.178 166.363L256.134 159.671M263.178 166.363C261.151 168.376 259.029 170.293 256.82 172.107M270.448 173.271C272.971 170.751 275.361 168.098 277.607 165.323M270.448 173.271C268.092 175.623 265.621 177.859 263.043 179.969M256.134 159.671C254.426 161.355 252.643 162.963 250.791 164.49M250.791 164.49L256.82 172.107M250.791 164.49C248.223 166.607 245.522 168.568 242.703 170.36M256.82 172.107L263.043 179.969M256.82 172.107C254.123 174.321 251.296 176.383 248.352 178.278M248.352 178.278L254.182 186.45M248.352 178.278C245.949 179.826 243.467 181.263 240.914 182.582M248.352 178.278L242.703 170.36M254.182 186.45C257.256 184.45 260.214 182.285 263.043 179.969M254.182 186.45C251.395 188.265 248.511 189.945 245.542 191.481M236.431 173.961L240.914 182.582M236.431 173.961C238.58 172.853 240.672 171.65 242.703 170.36M236.431 173.961C233.565 175.44 230.599 176.753 227.546 177.885M240.914 182.582L245.542 191.481M240.914 182.582C237.907 184.136 234.802 185.525 231.611 186.74M231.611 186.74L235.805 195.875M231.611 186.74C228.939 187.756 226.206 188.65 223.419 189.413M231.611 186.74L227.546 177.885M235.805 195.875C239.141 194.579 242.39 193.111 245.542 191.481M235.805 195.875C232.51 197.154 229.132 198.264 225.679 199.195M221.229 179.936L223.419 189.413M221.229 179.936C223.372 179.337 225.479 178.652 227.546 177.885M221.229 179.936C217.926 180.858 214.537 181.576 211.077 182.074M223.419 189.413L225.679 199.195M223.419 189.413C220.107 190.321 216.719 191.045 213.267 191.573M213.267 191.573L215.526 201.373M213.267 191.573L211.077 182.074M215.526 201.373C218.972 200.82 222.36 200.09 225.679 199.195M215.526 201.373C211.958 201.946 208.328 202.332 204.645 202.518M199.793 202.648C201.42 202.643 203.038 202.6 204.645 202.518M109.785 102.5H120.273M109.785 102.5C109.785 101.113 109.816 99.7341 109.878 98.3629M109.785 102.5H119.49C119.49 101.329 119.515 100.164 119.565 99.0047M200.262 11.911C198.528 11.911 196.806 11.9598 195.097 12.0562M99.7671 102.5C99.7671 100.891 99.8048 99.2908 99.8794 97.7004M200.262 1.88042C200.158 1.88042 200.053 1.88058 199.949 1.8809M200.262 21.6281C198.527 21.6281 196.805 21.6829 195.097 21.7908M199.949 1.41024V1.8809M195.097 11.7543H199.949V1.8809M195.097 11.7543V12.0562M195.097 11.7543V2.01105M195.097 22.7252V21.7908M195.097 1.41024V2.01105M188.835 23.1954L188.665 22.4555M184.139 2.82079L184.216 3.15604M178.66 25.2329L178.513 24.5938M173.808 4.23134L174.063 5.334M172.556 27.4271L172.196 26.6439M163.633 7.9928L163.937 8.65461M163.633 31.1885L163.311 30.5681M153.771 12.2245L154.2 13.0486M157.372 34.6365L157.039 34.1697M144.849 17.083L145.56 18.0791M149.388 40.5922L148.951 40.0397M136.24 23.979L136.699 24.5598M144.066 45.294L143.608 44.8582M128.726 30.7183L129.294 31.2583M137.492 52.6602L136.993 52.2227M121.212 38.398L122.135 39.2066M133.579 58.4592L132.809 57.9969M114.794 47.1748L115.882 47.828M128.413 66.609L127.973 66.3831M109.785 57.0486L110.417 57.3726M125.439 72.8781L125.122 72.7739M104.933 66.1388L106.35 66.6047M102.428 76.4829L103.104 76.6886M120.899 89.1778L120.588 89.1356M100.08 86.3567L101.033 86.4858M120.273 99.0517L119.565 99.0047M98.9844 97.6411L99.8794 97.7004M109.878 98.3629C110.038 94.7949 110.404 91.2806 110.965 87.8317M109.878 98.3629L99.8794 97.7004M109.878 98.3629L119.565 99.0047M110.965 87.8317L101.033 86.4858M110.965 87.8317C111.418 85.0461 111.998 82.3031 112.699 79.6089M110.965 87.8317L120.588 89.1356M101.033 86.4858C100.446 90.1614 100.057 93.9034 99.8794 97.7004M101.033 86.4858C101.564 83.163 102.257 79.8944 103.104 76.6886M195.097 12.0562V21.7908M195.097 12.0562C192.184 12.2203 189.308 12.5224 186.475 12.9561M195.097 21.7908C192.928 21.9279 190.783 22.1505 188.665 22.4555M119.565 99.0047C119.707 95.6584 120.052 92.3647 120.588 89.1356M112.699 79.6089L121.995 82.4385C121.435 84.6363 120.964 86.87 120.588 89.1356M112.699 79.6089L103.104 76.6886M112.699 79.6089C113.575 76.2382 114.641 72.9438 115.883 69.7378M120.588 89.1356C121.531 83.4601 123.064 77.9844 125.122 72.7739M115.883 69.7378L106.35 66.6047M115.883 69.7378C116.914 67.0785 118.067 64.4801 119.334 61.9494M115.883 69.7378L125.122 72.7739M106.35 66.6047C105.098 69.887 104.013 73.2517 103.104 76.6886M106.35 66.6047C107.555 63.448 108.913 60.3675 110.417 57.3726M127.973 66.3831L119.334 61.9494M127.973 66.3831C126.934 68.4638 125.982 70.5957 125.122 72.7739M127.973 66.3831C129.42 63.4842 131.037 60.6845 132.809 57.9969M119.334 61.9494L110.417 57.3726M119.334 61.9494C120.882 58.8587 122.601 55.869 124.479 52.9928M124.479 52.9928L115.882 47.828M124.479 52.9928C126.098 50.5141 127.834 48.1196 129.681 45.8173M124.479 52.9928L132.809 57.9969M115.882 47.828C113.893 50.8983 112.068 54.0839 110.417 57.3726M115.882 47.828C117.816 44.8413 119.904 41.9638 122.135 39.2066M136.993 52.2227L129.681 45.8173M136.993 52.2227C135.516 54.0826 134.12 56.0091 132.809 57.9969M136.993 52.2227C139.047 49.6342 141.257 47.1747 143.608 44.8582M129.681 45.8173L122.135 39.2066M129.681 45.8173C131.831 43.1376 134.129 40.5829 136.564 38.1658M136.564 38.1658L129.294 31.2583M136.564 38.1658L143.608 44.8582M136.564 38.1658C138.591 36.1536 140.713 34.2367 142.922 32.4225M129.294 31.2583C126.771 33.7781 124.381 36.4313 122.135 39.2066M129.294 31.2583C131.65 28.906 134.121 26.6701 136.699 24.5598M143.608 44.8582C145.316 43.1747 147.099 41.5667 148.951 40.0397M148.951 40.0397L142.922 32.4225M148.951 40.0397C151.519 37.9225 154.22 35.9611 157.039 34.1697M142.922 32.4225L136.699 24.5598M142.922 32.4225C145.619 30.2079 148.446 28.1463 151.389 26.251M151.389 26.251L145.56 18.0791M151.389 26.251C153.793 24.7032 156.275 23.2663 158.828 21.9474M151.389 26.251L157.039 34.1697M145.56 18.0791C142.486 20.0797 139.528 22.2441 136.699 24.5598M145.56 18.0791C148.347 16.2645 151.231 14.5846 154.2 13.0486M163.311 30.5681L158.828 21.9474M163.311 30.5681C161.162 31.6768 159.07 32.8791 157.039 34.1697M163.311 30.5681C166.177 29.0891 169.143 27.7767 172.196 26.6439M158.828 21.9474L154.2 13.0486M158.828 21.9474C161.834 20.3937 164.94 19.0039 168.131 17.7897M168.131 17.7897L163.937 8.65461M168.131 17.7897C170.803 16.773 173.536 15.8794 176.323 15.1159M168.131 17.7897L172.196 26.6439M163.937 8.65461C160.601 9.94981 157.352 11.4181 154.2 13.0486M163.937 8.65461C167.232 7.37529 170.61 6.26488 174.063 5.334M178.513 24.5938L176.323 15.1159M178.513 24.5938C176.37 25.1922 174.263 25.8769 172.196 26.6439M178.513 24.5938C181.816 23.6712 185.205 22.9536 188.665 22.4555M176.323 15.1159L174.063 5.334M176.323 15.1159C179.635 14.2083 183.023 13.4845 186.475 12.9561M186.475 12.9561L184.216 3.15604M186.475 12.9561L188.665 22.4555M184.216 3.15604C180.77 3.70973 177.382 4.43886 174.063 5.334M184.216 3.15604C187.784 2.58289 191.414 2.19773 195.097 2.01105M199.949 1.8809C198.322 1.88586 196.704 1.92954 195.097 2.01105" stroke="#111111" stroke-width="0.313888"/>
<path d="M189.606 48.771C189.955 48.771 190.243 48.7547 190.471 48.7221V50.7134C189.993 50.8004 189.438 50.844 188.807 50.844C188.524 50.844 188.273 50.8276 188.056 50.795C187.838 50.7623 187.593 50.6916 187.321 50.5828C187.049 50.4631 186.826 50.3053 186.652 50.1095C186.478 49.9136 186.326 49.6307 186.195 49.2607C186.075 48.8907 186.015 48.4555 186.015 47.9549V44.8211H184.775V42.8461H186.015V40.512H188.513V42.8461H190.292V44.8211H188.513V47.4326C188.513 47.9658 188.605 48.3249 188.79 48.5099C188.975 48.684 189.247 48.771 189.606 48.771ZM194.987 50.9256C193.844 50.9256 192.941 50.5393 192.277 49.7667C191.613 48.9941 191.281 47.9985 191.281 46.7797C191.281 45.5828 191.624 44.5926 192.31 43.8091C192.995 43.0256 193.898 42.6339 195.019 42.6339C195.574 42.6339 196.069 42.7536 196.505 42.993C196.94 43.2324 197.266 43.5588 197.484 43.9723V42.8461H199.965V50.7134H197.484V49.6035C197.266 49.9952 196.929 50.3162 196.472 50.5665C196.026 50.8059 195.531 50.9256 194.987 50.9256ZM195.705 48.8527C196.303 48.8527 196.766 48.6568 197.092 48.2651C197.419 47.8733 197.582 47.3782 197.582 46.7797C197.582 46.1921 197.419 45.7025 197.092 45.3107C196.766 44.919 196.303 44.7231 195.705 44.7231C195.139 44.7231 194.682 44.9136 194.334 45.2944C193.996 45.6753 193.828 46.1704 193.828 46.7797C193.828 47.3891 193.996 47.8896 194.334 48.2814C194.682 48.6622 195.139 48.8527 195.705 48.8527ZM201.14 50.7134L204.013 46.7471L201.189 42.8461H204.176L205.531 45.1312L206.902 42.8461H209.889L207.065 46.7471L209.938 50.7134H206.951L205.531 48.363L204.127 50.7134H201.14ZM213.459 41.7035C213.165 41.9973 212.795 42.1442 212.349 42.1442C211.902 42.1442 211.533 41.9973 211.239 41.7035C210.956 41.4097 210.814 41.0507 210.814 40.6263C210.814 40.191 210.956 39.8265 211.239 39.5327C211.533 39.2389 211.902 39.092 212.349 39.092C212.795 39.092 213.165 39.2443 213.459 39.549C213.752 39.8428 213.899 40.2019 213.899 40.6263C213.899 41.0507 213.752 41.4097 213.459 41.7035ZM211.092 50.7134V42.8461H213.589V50.7134H211.092Z" fill="#111111"/>
<path d="M162.503 73.4355L155.864 53.6606H160.779L164.876 67.6161L168.972 53.6606H173.887L167.249 73.4355H162.503ZM185.011 73.4355L184.333 71.0343H177.327L176.649 73.4355H171.818L178.513 53.6606H183.118L189.842 73.4355H185.011ZM178.344 67.4466H183.316L180.83 58.6608L178.344 67.4466ZM192.051 73.4355V53.6606H196.74L203.605 66.4578V53.6606H207.984V73.4355H203.294L196.43 60.6383V73.4355H192.051ZM222.708 53.6606H227.764L217.962 73.4355H212.877L216.549 65.9776L209.543 53.6606H214.854L219.063 61.4576L222.708 53.6606ZM238.145 73.4355L237.467 71.0343H230.461L229.783 73.4355H224.952L231.648 53.6606H236.252L242.976 73.4355H238.145ZM231.478 67.4466H236.45L233.964 58.6608L231.478 67.4466Z" fill="#111111"/>
<path d="M199.97 130.251L202.079 136.749H208.903L203.382 140.765L205.491 147.262L199.97 143.247L194.45 147.262L196.558 140.765L191.038 136.749H197.862L199.97 130.251Z" fill="#111111"/>
<path fill-rule="evenodd" clip-rule="evenodd" d="M276.025 102.5C276.025 144.567 241.965 178.67 199.95 178.67C157.934 178.67 123.874 144.567 123.874 102.5C123.874 60.4324 157.934 26.3301 199.95 26.3301C241.965 26.3301 276.025 60.4324 276.025 102.5ZM271.211 86.827C264.047 54.0227 234.863 29.4646 199.95 29.4646C165.036 29.4646 135.852 54.0227 128.688 86.827H271.211ZM271.211 118.173C264.047 150.977 234.863 175.535 199.95 175.535C165.036 175.535 135.852 150.977 128.688 118.173H271.211ZM177.052 94.5764V90.2566H197.379V94.5764H189.802V115.038H184.629V94.5764H177.052ZM211.181 109.085L205.199 90.2566H199.386L207.93 115.038H214.674L223.206 90.2566H217.405L211.411 109.085H211.181ZM144.46 93.5751L146.568 100.073H153.392L147.871 104.089L149.98 110.587L144.46 106.571L138.939 110.587L141.048 104.089L135.527 100.073H142.351L144.46 93.5751ZM257.794 100.073L255.686 93.5751L253.577 100.073H246.753L252.274 104.089L250.165 110.587L255.686 106.571L261.206 110.587L259.098 104.089L264.618 100.073H257.794Z" fill="#111111"/>
<path d="M185.365 148.432H192.457V146.865H180.56V146.937C182.131 147.503 183.734 148.002 185.365 148.432Z" fill="#111111"/>
<path d="M173.298 143.73H194.335V142.163H170.518C171.429 142.71 172.355 143.233 173.298 143.73Z" fill="#111111"/>
<path d="M165.841 139.028H190.578V137.461H164.28V137.825C164.793 138.235 165.314 138.636 165.841 139.028Z" fill="#111111"/>
<path d="M160.618 134.64H197.153V133.072H159.025C159.546 133.605 160.077 134.128 160.618 134.64Z" fill="#111111"/>
<path d="M156.444 130.251H198.405V128.684H155.15C155.573 129.214 156.004 129.737 156.444 130.251Z" fill="#111111"/>
<path d="M219.38 146.937C217.81 147.503 216.207 148.002 214.576 148.432H207.484V146.865H219.38V146.937Z" fill="#111111"/>
<path d="M226.643 143.73H205.605V142.163H229.422C228.512 142.71 227.585 143.233 226.643 143.73Z" fill="#111111"/>
<path d="M234.099 139.028H209.362V137.461H235.66V137.825C235.147 138.235 234.627 138.636 234.099 139.028Z" fill="#111111"/>
<path d="M239.322 134.64H202.788V133.072H240.915C240.394 133.605 239.863 134.128 239.322 134.64Z" fill="#111111"/>
<path d="M243.496 130.251H201.536V128.684H244.79C244.368 129.214 243.936 129.737 243.496 130.251Z" fill="#111111"/>
<path d="M151.622 145.65C151.861 145.899 152.076 146.092 152.265 146.229L151.18 147.274C150.889 147.061 150.572 146.777 150.232 146.423C150.036 146.219 149.881 146.027 149.766 145.847C149.651 145.667 149.548 145.425 149.458 145.119C149.375 144.807 149.415 144.463 149.578 144.089C149.74 143.714 150.029 143.327 150.443 142.928L152.895 140.566L152.036 139.672L153.065 138.681L153.924 139.575L155.517 138.04L156.703 139.274L155.109 140.809L156.273 142.02L155.245 143.011L154.081 141.8L151.911 143.89C151.489 144.296 151.268 144.625 151.249 144.876C151.237 145.12 151.361 145.378 151.622 145.65Z" fill="#111111"/>
<path d="M156.321 151.582C155.439 150.859 154.983 150.019 154.954 149.062C154.925 148.105 155.265 147.194 155.973 146.327C156.675 145.468 157.509 144.968 158.476 144.827C159.449 144.678 160.365 144.955 161.223 145.657C161.604 145.969 161.886 146.335 162.069 146.756C162.252 147.177 162.313 147.598 162.251 148.021L162.877 147.256L164.2 148.34L159.573 154.002L158.25 152.918L158.875 152.153C158.488 152.295 158.051 152.309 157.564 152.194C157.092 152.078 156.678 151.874 156.321 151.582ZM157.479 150.562C158.021 151.007 158.573 151.175 159.134 151.066C159.704 150.965 160.2 150.655 160.624 150.137C161.048 149.618 161.253 149.069 161.239 148.49C161.234 147.918 160.96 147.41 160.418 146.965C159.908 146.548 159.364 146.386 158.787 146.481C158.224 146.575 157.727 146.885 157.297 147.411C156.867 147.938 156.658 148.49 156.672 149.069C156.7 149.647 156.969 150.144 157.479 150.562Z" fill="#111111"/>
<path d="M161.941 155.78L166.127 153.952L165.658 149.482L167.489 150.55L167.613 153.365L170.119 152.084L171.95 153.151L167.836 154.948L168.314 159.496L166.483 158.428L166.358 155.522L163.771 156.847L161.941 155.78Z" fill="#111111"/>
<path d="M176.359 153.788C176.052 153.936 175.726 153.949 175.381 153.829C175.035 153.708 174.788 153.494 174.64 153.187C174.496 152.871 174.482 152.545 174.599 152.209C174.716 151.873 174.928 151.631 175.234 151.483C175.544 151.325 175.872 151.307 176.218 151.428C176.564 151.549 176.809 151.768 176.953 152.084C177.101 152.391 177.116 152.712 176.999 153.048C176.882 153.384 176.669 153.631 176.359 153.788ZM171.812 161.442L174.22 154.536L175.835 155.101L173.427 162.006L171.812 161.442Z" fill="#111111"/>
<path d="M189.494 166.514C188.582 166.385 187.874 166.046 187.37 165.499C186.867 164.952 186.662 164.342 186.758 163.669L188.451 163.909C188.407 164.22 188.506 164.493 188.748 164.728C189 164.964 189.343 165.114 189.778 165.175C190.099 165.221 190.364 165.179 190.572 165.05C190.781 164.921 190.903 164.727 190.94 164.468C190.999 164.054 190.853 163.774 190.504 163.63L188.712 162.852C187.706 162.414 187.278 161.671 187.426 160.625C187.511 160.024 187.841 159.559 188.416 159.228C188.992 158.887 189.69 158.775 190.508 158.891C191.43 159.022 192.105 159.329 192.534 159.812C192.972 160.297 193.144 160.876 193.049 161.55L191.386 161.314C191.429 161.013 191.348 160.764 191.143 160.566C190.95 160.359 190.657 160.228 190.264 160.172C189.963 160.129 189.704 160.166 189.487 160.283C189.271 160.39 189.148 160.552 189.117 160.77C189.061 161.164 189.232 161.452 189.629 161.635L191.283 162.377C191.76 162.593 192.129 162.899 192.39 163.295C192.652 163.681 192.751 164.102 192.687 164.558C192.587 165.262 192.253 165.796 191.684 166.159C191.125 166.523 190.395 166.642 189.494 166.514Z" fill="#111111"/>
<path d="M204.463 163.106C204.466 163.294 204.456 163.608 204.432 164.048L199.003 164.143C199.034 164.718 199.23 165.159 199.591 165.467C199.952 165.764 200.446 165.907 201.074 165.896C201.879 165.882 202.419 165.595 202.691 165.036L204.417 165.006C204.314 165.688 203.953 166.254 203.333 166.704C202.723 167.144 201.979 167.371 201.1 167.387C199.949 167.407 199.033 167.077 198.352 166.399C197.67 165.72 197.319 164.789 197.298 163.607C197.278 162.435 197.591 161.499 198.238 160.797C198.895 160.084 199.784 159.718 200.903 159.699C201.949 159.68 202.797 159.99 203.446 160.627C204.106 161.254 204.445 162.08 204.463 163.106ZM198.98 162.84L202.777 162.774C202.757 162.209 202.582 161.778 202.252 161.48C201.933 161.182 201.481 161.038 200.895 161.049C200.299 161.059 199.831 161.229 199.491 161.56C199.152 161.89 198.981 162.317 198.98 162.84Z" fill="#111111"/>
<path d="M211.846 166.156L210.145 159.042L211.809 158.644L212.137 160.017C212.145 159.51 212.298 159.091 212.595 158.762C212.891 158.422 213.252 158.201 213.679 158.099C213.954 158.033 214.177 158.001 214.35 158.002L214.715 159.529C214.537 159.55 214.316 159.592 214.051 159.656C213.461 159.797 213.051 160.127 212.82 160.645C212.586 161.153 212.565 161.809 212.758 162.613L213.51 165.757L211.846 166.156Z" fill="#111111"/>
<path d="M223.231 162.914L217.552 157.324L219.253 156.634L223.012 160.531L223.006 155.114L224.707 154.424L224.511 162.396L223.231 162.914Z" fill="#111111"/>
<path d="M230.015 149.858C229.931 150.188 229.732 150.447 229.417 150.634C229.102 150.821 228.78 150.872 228.45 150.788C228.115 150.695 227.857 150.495 227.676 150.189C227.495 149.883 227.446 149.565 227.53 149.235C227.609 148.896 227.806 148.633 228.121 148.446C228.435 148.259 228.76 148.212 229.095 148.305C229.425 148.389 229.68 148.585 229.862 148.891C230.043 149.197 230.094 149.519 230.015 149.858ZM232.94 158.272L229.211 151.979L230.682 151.105L234.411 157.398L232.94 158.272Z" fill="#111111"/>
<path d="M242.015 152.322C241.154 153.037 240.246 153.335 239.292 153.216C238.339 153.082 237.495 152.571 236.761 151.685C236.027 150.798 235.686 149.878 235.738 148.923C235.792 147.954 236.249 147.112 237.11 146.398C237.883 145.756 238.667 145.439 239.46 145.447C240.256 145.439 240.956 145.735 241.561 146.335L240.245 147.427C239.559 146.895 238.838 146.942 238.081 147.57C237.614 147.958 237.378 148.419 237.373 148.954C237.369 149.474 237.604 150.02 238.078 150.592C238.551 151.165 239.047 151.501 239.565 151.602C240.084 151.688 240.577 151.537 241.044 151.149C241.793 150.528 241.99 149.847 241.636 149.108L242.952 148.016C243.415 148.706 243.566 149.437 243.404 150.21C243.251 150.977 242.788 151.681 242.015 152.322Z" fill="#111111"/>
<path d="M249.718 138.747C249.859 138.871 250.085 139.09 250.395 139.403L246.823 143.492C247.27 143.856 247.729 144.007 248.199 143.946C248.661 143.878 249.099 143.607 249.512 143.135C250.042 142.528 250.191 141.936 249.959 141.357L251.095 140.057C251.531 140.592 251.708 141.241 251.626 142.003C251.542 142.75 251.212 143.455 250.634 144.117C249.876 144.984 249.018 145.442 248.058 145.491C247.098 145.54 246.173 145.175 245.283 144.396C244.402 143.624 243.918 142.762 243.832 141.811C243.745 140.845 244.069 139.94 244.806 139.097C245.494 138.309 246.292 137.889 247.2 137.836C248.107 137.768 248.946 138.071 249.718 138.747ZM245.843 142.634L248.342 139.774C247.91 139.409 247.473 139.249 247.031 139.294C246.596 139.33 246.186 139.569 245.801 140.01C245.409 140.459 245.221 140.921 245.238 141.394C245.255 141.868 245.457 142.281 245.843 142.634Z" fill="#111111"/>
</svg>
