<svg width="46" height="46" viewBox="0 0 46 46" fill="none" xmlns="http://www.w3.org/2000/svg">
<path fill-rule="evenodd" clip-rule="evenodd" d="M1.16187 7.45981L10.6422 29.2292L8.81357 30.4733C7.86823 31.1149 7.09811 31.9825 6.57311 32.9972C6.04812 34.0119 5.78488 35.1417 5.80728 36.284C5.82969 37.4263 6.13703 38.5449 6.70142 39.5382C7.2658 40.5316 8.06935 41.3683 9.03912 41.9723L13.9505 45.0303C14.4086 45.3159 14.9198 45.5058 15.4533 45.5885C15.9868 45.6713 16.5316 45.6452 17.0547 45.5118L42.1734 39.0844C42.7195 38.945 43.2299 38.6917 43.6712 38.3412C44.1125 37.9907 44.4747 37.5509 44.7342 37.0506C44.9937 36.5503 45.1445 36.0009 45.1769 35.4382C45.2092 34.8756 45.1222 34.3125 44.9217 33.7858L40.2908 21.6097C39.7513 20.3702 38.9729 19.249 38 18.3104C37.0271 17.3718 35.8788 16.634 34.6207 16.1392C33.3627 15.6445 32.0194 15.4024 30.6678 15.4268C29.3162 15.4513 27.9826 15.7418 26.7432 16.2817L17.7095 20.2201L10.3998 3.43209C9.84753 2.23504 8.84827 1.30201 7.61621 0.833035C6.38416 0.364065 5.0174 0.396493 3.80897 0.923367C2.60054 1.45024 1.64665 2.42961 1.15182 3.65151C0.656978 4.8734 0.660586 6.24054 1.16187 7.45981Z" fill="#82898B"/>
</svg>
