<svg width="98" height="32" viewBox="0 0 98 32" fill="none" xmlns="http://www.w3.org/2000/svg">
<path fill-rule="evenodd" clip-rule="evenodd" d="M12.78 20.3379L17.7676 20.4386L17.8055 20.8509L8.53198 22.7563L15.7772 6.11914L22.9879 22.6796H20.0963L15.803 12.612L12.78 20.3379Z" fill="#383838"/>
<path d="M5.46232 27.1025L5.4437 27.0846L5.42396 27.068C4.1558 26.0019 1.04056 22.7714 0.798081 16.9707L0.797982 0.947627L16.2591 0.952204L16.26 0.952204C22.2279 0.947621 25.3778 3.66895 26.7726 4.9409C32.7988 10.7176 32.9912 20.2707 27.201 26.2839C21.3835 32.3256 11.4721 32.8564 5.46232 27.1025Z" stroke="#383838" stroke-width="1.59595"/>
<path d="M38.2055 15.1499C37.4669 14.6351 37.0975 13.9076 37.0975 12.9675C37.0975 12.0274 37.4669 11.3056 38.2055 10.8019C38.9498 10.2983 39.9066 10.0465 41.0762 10.0465H43.8545C43.8545 9.39181 43.7174 8.93575 43.4432 8.67834C43.169 8.42094 42.6877 8.29223 41.9995 8.29223C41.3168 8.29223 40.8355 8.4629 40.5557 8.80425C40.2816 9.13999 39.943 9.30787 39.5401 9.30787H38.2895C38.1384 9.30787 38.0125 9.2603 37.9117 9.16518C37.8166 9.06445 37.769 8.94134 37.769 8.79585C37.769 7.18986 39.2939 6.38687 42.3436 6.38687C43.6754 6.38687 44.7442 6.68624 45.55 7.28499C46.3558 7.87815 46.7587 8.79865 46.7587 10.0465V15.2422C46.7587 15.3933 46.7111 15.5164 46.616 15.6115C46.5209 15.7066 46.3977 15.7542 46.2467 15.7542H44.6267C44.4756 15.7542 44.3525 15.7066 44.2574 15.6115C44.1622 15.5108 44.1147 15.3877 44.1147 15.2422V14.982C43.2305 15.6143 42.2093 15.9277 41.051 15.9221C39.8982 15.9221 38.9498 15.6647 38.2055 15.1499ZM41.2776 11.9519C40.8859 11.9519 40.5753 12.047 40.3459 12.2373C40.1221 12.4275 40.0102 12.6737 40.0102 12.9759C40.0102 13.2781 40.1277 13.5271 40.3627 13.7229C40.5977 13.9188 40.9307 14.0167 41.3615 14.0167C42.2233 14.0167 43.0543 13.7649 43.8545 13.2613V11.9519H41.2776Z" fill="#383838"/>
<path d="M56.0538 8.68674L54.7612 8.63637C54.0058 8.63637 53.2839 9.05046 52.5956 9.87864V15.2422C52.5956 15.3933 52.5453 15.5164 52.4446 15.6115C52.3494 15.7066 52.2291 15.7542 52.0836 15.7542H50.2034C50.0524 15.7542 49.9292 15.7066 49.8341 15.6115C49.739 15.5164 49.6914 15.3933 49.6914 15.2422V7.07515C49.6914 6.92406 49.739 6.80096 49.8341 6.70583C49.9348 6.6051 50.0579 6.55474 50.2034 6.55474H52.0836C52.2347 6.55474 52.3578 6.6051 52.4529 6.70583C52.5481 6.80096 52.5956 6.92406 52.5956 7.07515V7.60395C53.1664 7.18986 53.7148 6.88489 54.2408 6.68904C54.7724 6.48759 55.4663 6.38687 56.3224 6.38687C56.4735 6.38687 56.5966 6.43723 56.6918 6.53795C56.7925 6.63308 56.8428 6.75339 56.8428 6.89888V8.17472C56.8428 8.32581 56.7925 8.44892 56.6918 8.54404C56.5966 8.63917 56.4735 8.68674 56.3224 8.68674H56.0538Z" fill="#383838"/>
<path d="M58.911 4.23809C58.911 4.087 58.9586 3.96389 59.0537 3.86876C59.1545 3.76804 59.2776 3.71768 59.4231 3.71768H61.3032C61.4487 3.71768 61.569 3.76804 61.6642 3.86876C61.7649 3.96389 61.8153 4.087 61.8153 4.23809V6.81495C62.7218 6.52956 63.5304 6.38687 64.241 6.38687C65.6176 6.38687 66.7116 6.79816 67.523 7.62074C68.3343 8.43772 68.74 9.61843 68.74 11.1629C68.74 14.3357 66.9634 15.9221 63.4101 15.9221C62.5987 15.9221 61.7565 15.8326 60.8836 15.6535C60.0162 15.4688 59.3587 15.245 58.911 14.982V4.23809ZM61.8153 8.75389V13.7062C62.2965 13.8349 62.9092 13.8992 63.6535 13.8992C64.3977 13.8992 64.9321 13.6838 65.2567 13.2529C65.5868 12.822 65.7519 12.1253 65.7519 11.1629C65.7519 10.2004 65.5896 9.50372 65.2651 9.07284C64.9461 8.63637 64.4033 8.41814 63.6367 8.41814C63.1443 8.41814 62.5371 8.53005 61.8153 8.75389Z" fill="#383838"/>
<path d="M71.1524 4.80046V4.51508C71.1524 4.2185 71.2363 3.98348 71.4042 3.81001C71.5777 3.63654 71.8155 3.5498 72.1177 3.5498H73.1585C73.4551 3.5498 73.6901 3.63654 73.8635 3.81001C74.037 3.97788 74.1237 4.21291 74.1237 4.51508V4.80046C74.1237 5.09704 74.037 5.33206 73.8635 5.50553C73.6957 5.679 73.4606 5.76574 73.1585 5.76574H72.1177C71.8211 5.76574 71.5861 5.679 71.4126 5.50553C71.2391 5.33206 71.1524 5.09704 71.1524 4.80046ZM71.186 15.2422V7.2766C71.186 7.12551 71.2335 7.0024 71.3287 6.90728C71.4294 6.81215 71.5525 6.76458 71.698 6.76458H73.5782C73.7292 6.76458 73.8523 6.81495 73.9475 6.91567C74.0426 7.0108 74.0902 7.13111 74.0902 7.2766V15.2422C74.0902 15.3933 74.0398 15.5164 73.9391 15.6115C73.844 15.7066 73.7236 15.7542 73.5782 15.7542H71.698C71.5469 15.7542 71.4238 15.7066 71.3287 15.6115C71.2335 15.5164 71.186 15.3933 71.186 15.2422Z" fill="#383838"/>
<path d="M78.8695 13.0347C79.625 13.0347 80.0027 13.4152 80.0027 14.1762V14.705C80.0027 15.0575 79.9048 15.3345 79.7089 15.536C79.5186 15.7374 79.2389 15.8382 78.8695 15.8382H77.8371C77.4678 15.8382 77.1852 15.7374 76.9893 15.536C76.7991 15.3345 76.704 15.0575 76.704 14.705V14.1762C76.704 13.8069 76.8019 13.5243 76.9977 13.3284C77.1936 13.1326 77.4734 13.0347 77.8371 13.0347H78.8695ZM77.8371 9.19036C77.0817 9.19036 76.704 8.80984 76.704 8.04882V7.52002C76.704 7.16748 76.8019 6.89049 76.9977 6.68904C77.1936 6.48759 77.4734 6.38687 77.8371 6.38687H78.8695C79.2389 6.38687 79.5186 6.48759 79.7089 6.68904C79.9048 6.89049 80.0027 7.16748 80.0027 7.52002V8.04882C80.0027 8.80984 79.625 9.19036 78.8695 9.19036H77.8371Z" fill="#383838"/>
<path d="M82.5913 15.2422V7.07515C82.5913 6.92406 82.6389 6.80096 82.734 6.70583C82.8347 6.6051 82.9578 6.55474 83.1033 6.55474H84.9835C85.1346 6.55474 85.2577 6.6051 85.3528 6.70583C85.4479 6.80096 85.4955 6.92406 85.4955 7.07515V7.60395C85.8984 7.21225 86.2929 6.91287 86.679 6.70583C87.0707 6.49319 87.5408 6.38687 88.0891 6.38687C89.393 6.38687 90.3806 6.92406 91.0521 7.99845C92.0929 6.91847 93.1589 6.38127 94.2501 6.38687C95.3469 6.38687 96.2114 6.71702 96.8438 7.37732C97.4817 8.03203 97.8006 9.04766 97.8006 10.4242V15.2422C97.8006 15.3933 97.7531 15.5164 97.6579 15.6115C97.5628 15.7066 97.4397 15.7542 97.2886 15.7542H95.4168C95.2657 15.7542 95.1398 15.7066 95.0391 15.6115C94.944 15.5108 94.8964 15.3877 94.8964 15.2422V10.4242C94.8964 9.08124 94.4096 8.41254 93.4359 8.41814C92.8428 8.41814 92.23 8.84622 91.5977 9.70237C91.6313 9.94299 91.6481 10.1836 91.6481 10.4242V15.2422C91.6481 15.3933 91.5977 15.5164 91.497 15.6115C91.4019 15.7066 91.2815 15.7542 91.1361 15.7542H89.2643C89.1132 15.7542 88.9873 15.7066 88.8865 15.6115C88.7914 15.5108 88.7439 15.3877 88.7439 15.2422V10.4242C88.7439 9.08124 88.257 8.41254 87.2834 8.41814C86.6622 8.41814 86.0663 8.81824 85.4955 9.61843V15.2422C85.4955 15.3933 85.4451 15.5164 85.3444 15.6115C85.2493 15.7066 85.129 15.7542 84.9835 15.7542H83.1033C82.9522 15.7542 82.8291 15.7066 82.734 15.6115C82.6389 15.5164 82.5913 15.3933 82.5913 15.2422Z" fill="#383838"/>
<path d="M39.5288 26.8247C38.8264 26.8247 38.2382 26.5777 37.7644 26.0837C37.2939 25.5896 37.0586 24.8822 37.0586 23.9613C37.0586 23.0371 37.3023 22.3297 37.7896 21.839C38.2802 21.3449 38.939 21.0979 39.7657 21.0979C40.1925 21.0979 40.6782 21.1836 41.2226 21.355V19.8074C41.2226 19.7166 41.2512 19.6427 41.3083 19.5856C41.3688 19.5251 41.4428 19.4948 41.5301 19.4948H42.6543C42.7451 19.4948 42.819 19.5251 42.8762 19.5856C42.9366 19.6427 42.9669 19.7166 42.9669 19.8074V26.4164C42.9669 26.5038 42.9366 26.5777 42.8762 26.6382C42.819 26.6953 42.7451 26.7239 42.6543 26.7239H41.6864C41.5957 26.7239 41.5217 26.6953 41.4646 26.6382C41.4075 26.5777 41.3789 26.5038 41.3789 26.4164V26.2601C40.8479 26.6365 40.2312 26.8247 39.5288 26.8247ZM40.1287 22.3179C39.6649 22.3179 39.3372 22.449 39.1457 22.7111C38.9541 22.9699 38.8583 23.3866 38.8583 23.9613C38.8583 24.536 38.949 24.9544 39.1305 25.2166C39.312 25.4787 39.5842 25.6098 39.9472 25.6098C40.3135 25.6098 40.7387 25.4586 41.2226 25.1561V22.5195C40.7891 22.3851 40.4244 22.3179 40.1287 22.3179Z" fill="#383838"/>
<path d="M45.0136 20.1451V19.9737C45.0136 19.7956 45.064 19.6544 45.1649 19.5503C45.269 19.4461 45.4119 19.394 45.5934 19.394H46.2185C46.3966 19.394 46.5378 19.4461 46.6419 19.5503C46.7461 19.6511 46.7982 19.7922 46.7982 19.9737V20.1451C46.7982 20.3232 46.7461 20.4644 46.6419 20.5686C46.5411 20.6728 46.4 20.7249 46.2185 20.7249H45.5934C45.4152 20.7249 45.2741 20.6728 45.1699 20.5686C45.0657 20.4644 45.0136 20.3232 45.0136 20.1451ZM45.0338 26.4164V21.6323C45.0338 21.5415 45.0624 21.4676 45.1195 21.4105C45.18 21.3533 45.2539 21.3248 45.3413 21.3248H46.4705C46.5613 21.3248 46.6352 21.355 46.6924 21.4155C46.7495 21.4726 46.7781 21.5449 46.7781 21.6323V26.4164C46.7781 26.5071 46.7478 26.5811 46.6873 26.6382C46.6302 26.6953 46.5579 26.7239 46.4705 26.7239H45.3413C45.2506 26.7239 45.1766 26.6953 45.1195 26.6382C45.0624 26.5811 45.0338 26.5071 45.0338 26.4164Z" fill="#383838"/>
<path d="M51.0832 26.3004C50.3203 26.3004 49.7036 26.0702 49.2331 25.6098C48.766 25.1494 48.5324 24.5108 48.5324 23.6941C48.5324 22.8775 48.7996 22.2406 49.3339 21.7835C49.8683 21.3264 50.6346 21.0979 51.6327 21.0979C52.1201 21.0979 52.6259 21.1534 53.1501 21.2643C53.6744 21.3718 54.0693 21.5046 54.3348 21.6625V26.3307C54.3348 27.0802 54.0878 27.633 53.5938 27.9893C53.0997 28.3489 52.4057 28.5287 51.5118 28.5287C50.6211 28.5287 49.9339 28.4161 49.4499 28.1909C48.9693 27.9691 48.729 27.6011 48.729 27.0869C48.729 26.9961 48.7576 26.9205 48.8147 26.86C48.8752 26.8029 48.9508 26.7743 49.0416 26.7743H49.7927C50.0347 26.7743 50.2279 26.8634 50.3724 27.0415C50.5573 27.27 50.885 27.3843 51.3555 27.3843C51.8293 27.3843 52.1537 27.307 52.3284 27.1524C52.5032 26.9978 52.5906 26.7239 52.5906 26.3307V26.0938C52.0528 26.2315 51.5504 26.3004 51.0832 26.3004ZM51.5269 22.3179C50.7304 22.3145 50.3321 22.775 50.3321 23.6992C50.3321 24.62 50.7203 25.0805 51.4966 25.0805C51.8193 25.0805 52.1839 25.0301 52.5906 24.9292V22.4288C52.3015 22.3515 51.947 22.3145 51.5269 22.3179Z" fill="#383838"/>
<path d="M56.3866 20.1451V19.9737C56.3866 19.7956 56.437 19.6544 56.5378 19.5503C56.642 19.4461 56.7849 19.394 56.9663 19.394H57.5915C57.7696 19.394 57.9107 19.4461 58.0149 19.5503C58.1191 19.6511 58.1712 19.7922 58.1712 19.9737V20.1451C58.1712 20.3232 58.1191 20.4644 58.0149 20.5686C57.9141 20.6728 57.7729 20.7249 57.5915 20.7249H56.9663C56.7882 20.7249 56.6471 20.6728 56.5429 20.5686C56.4387 20.4644 56.3866 20.3232 56.3866 20.1451ZM56.4068 26.4164V21.6323C56.4068 21.5415 56.4353 21.4676 56.4925 21.4105C56.553 21.3533 56.6269 21.3248 56.7143 21.3248H57.8435C57.9343 21.3248 58.0082 21.355 58.0653 21.4155C58.1225 21.4726 58.151 21.5449 58.151 21.6323V26.4164C58.151 26.5071 58.1208 26.5811 58.0603 26.6382C58.0032 26.6953 57.9309 26.7239 57.8435 26.7239H56.7143C56.6235 26.7239 56.5496 26.6953 56.4925 26.6382C56.4353 26.5811 56.4068 26.5071 56.4068 26.4164Z" fill="#383838"/>
<path d="M62.8494 25.63L63.5401 25.5695H63.7266C63.8174 25.5695 63.8913 25.598 63.9484 25.6552C64.0089 25.7123 64.0392 25.7862 64.0392 25.877V26.4164C64.0392 26.4903 64.0089 26.5575 63.9484 26.618C63.8913 26.6752 63.8174 26.7105 63.7266 26.7239C63.3838 26.7911 62.9368 26.8247 62.3856 26.8247C60.9405 26.8247 60.2179 26.0686 60.2179 24.5562V19.8074C60.2179 19.7166 60.2465 19.6427 60.3036 19.5856C60.3641 19.5251 60.4381 19.4948 60.5254 19.4948H61.6547C61.7421 19.4948 61.8143 19.5251 61.8714 19.5856C61.9319 19.6427 61.9622 19.7166 61.9622 19.8074V21.4911H63.3687C63.4561 21.4911 63.5283 21.5197 63.5855 21.5768C63.646 21.634 63.6762 21.7079 63.6762 21.7986V22.3985C63.6762 22.4893 63.646 22.5632 63.5855 22.6204C63.5283 22.6775 63.4561 22.7061 63.3687 22.7061H61.9622V24.5562C61.9622 24.899 62.0428 25.1645 62.2042 25.3527C62.3655 25.5375 62.5806 25.63 62.8494 25.63Z" fill="#383838"/>
<path d="M65.975 26.3609C65.5314 26.0517 65.3096 25.6148 65.3096 25.0502C65.3096 24.4856 65.5314 24.0521 65.975 23.7496C66.422 23.4471 66.9967 23.2959 67.6991 23.2959H69.3677C69.3677 22.9027 69.2854 22.6288 69.1207 22.4742C68.956 22.3196 68.667 22.2423 68.2536 22.2423C67.8436 22.2423 67.5546 22.3448 67.3865 22.5498C67.2219 22.7514 67.0185 22.8523 66.7765 22.8523H66.0254C65.9347 22.8523 65.859 22.8237 65.7985 22.7666C65.7414 22.7061 65.7129 22.6321 65.7129 22.5447C65.7129 21.5802 66.6287 21.0979 68.4603 21.0979C69.2602 21.0979 69.9021 21.2777 70.3861 21.6373C70.87 21.9936 71.112 22.5464 71.112 23.2959V26.4164C71.112 26.5071 71.0834 26.5811 71.0263 26.6382C70.9692 26.6953 70.8952 26.7239 70.8045 26.7239H69.8315C69.7408 26.7239 69.6668 26.6953 69.6097 26.6382C69.5526 26.5777 69.524 26.5038 69.524 26.4164V26.2601C68.993 26.6399 68.3797 26.8281 67.684 26.8247C66.9916 26.8247 66.422 26.6701 65.975 26.3609ZM67.8201 24.4402C67.5848 24.4402 67.3983 24.4974 67.2605 24.6116C67.1261 24.7259 67.0589 24.8738 67.0589 25.0553C67.0589 25.2367 67.1294 25.3863 67.2706 25.5039C67.4117 25.6216 67.6117 25.6804 67.8705 25.6804C68.3881 25.6804 68.8871 25.5291 69.3677 25.2267V24.4402H67.8201Z" fill="#383838"/>
<path d="M73.1638 26.4164V19.8074C73.1638 19.7166 73.1923 19.6427 73.2495 19.5856C73.31 19.5251 73.3839 19.4948 73.4713 19.4948H74.6005C74.6879 19.4948 74.7601 19.5251 74.8173 19.5856C74.8778 19.6427 74.908 19.7166 74.908 19.8074V26.4164C74.908 26.5038 74.8778 26.5777 74.8173 26.6382C74.7601 26.6953 74.6879 26.7239 74.6005 26.7239H73.4713C73.3839 26.7239 73.31 26.6953 73.2495 26.6382C73.1923 26.5777 73.1638 26.5038 73.1638 26.4164Z" fill="#383838"/>
</svg>
