<svg width="156" height="81" viewBox="0 0 156 81" fill="none" xmlns="http://www.w3.org/2000/svg">
<path d="M117.416 40.9819C117.416 62.8037 99.759 80.4923 77.98 80.4923C56.2009 80.4923 38.544 62.8037 38.544 40.9819C38.544 19.1601 56.2009 1.47158 77.98 1.47158C99.759 1.47158 117.416 19.1601 117.416 40.9819Z" stroke="#FFC000" stroke-width="0.97933"/>
<path d="M109.357 40.9818C109.357 58.2772 95.3629 72.2964 78.1019 72.2964C60.8408 72.2964 46.8464 58.2772 46.8464 40.9818C46.8464 23.6863 60.8408 9.66714 78.1019 9.66714C95.3629 9.66714 109.357 23.6863 109.357 40.9818Z" stroke="#FFC000" stroke-width="0.97933"/>
<path d="M42.8527 42.4129C42.9151 43.8053 43.058 45.1767 43.2767 46.5226L39.4031 47.0479C39.1741 45.6135 39.0227 44.1532 38.9532 42.6714L42.8527 42.4129Z" fill="#FFC000"/>
<path fill-rule="evenodd" clip-rule="evenodd" d="M42.8165 40.7985H46.6015C46.6015 41.2555 46.6112 41.7102 46.6304 42.1624L42.8527 42.4129C42.8287 41.8778 42.8165 41.3396 42.8165 40.7985Z" fill="#FFC000"/>
<path d="M47.5783 48.6273L43.9527 49.7315C43.6795 48.6801 43.4534 47.6097 43.2767 46.5226L47.0296 46.0138C47.1764 46.8979 47.3598 47.7696 47.5783 48.6273Z" fill="#FFC000"/>
<path d="M45.1948 53.5837L41.4769 54.8063C40.9885 53.5254 40.5652 52.2124 40.2109 50.8711L43.9527 49.7315C44.2946 51.0469 44.7102 52.3326 45.1948 53.5837Z" fill="#FFC000"/>
<path d="M49.9097 54.8928L46.5405 56.6231C46.0462 55.6354 45.5968 54.6214 45.1948 53.5837L48.7977 52.3989C49.1332 53.2489 49.5044 54.0808 49.9097 54.8928Z" fill="#FFC000"/>
<path d="M48.5471 60.1183L45.1942 62.1338C44.4187 60.9357 43.7066 59.6925 43.0627 58.4091L46.5405 56.6231C47.1442 57.8292 47.8147 58.9959 48.5471 60.1183Z" fill="#FFC000"/>
<path d="M53.4273 60.4188L50.5759 62.9185C49.8557 62.0201 49.1784 61.0856 48.5471 60.1183L51.7958 58.1655C52.3071 58.9412 52.8516 59.693 53.4273 60.4188Z" fill="#FFC000"/>
<path d="M53.2603 65.9044L50.425 68.6001C49.441 67.6167 48.5088 66.5813 47.633 65.4983L50.5759 62.9185C51.4142 63.9642 52.3106 64.9612 53.2603 65.9044Z" fill="#FFC000"/>
<path d="M58.0912 65.1732L55.74 68.1457C54.8784 67.4378 54.0509 66.6897 53.2603 65.9044L56.0072 63.2928C56.6735 63.9498 57.3689 64.5773 58.0912 65.1732Z" fill="#FFC000"/>
<path d="M59.0421 70.5541L56.7685 73.7432C55.5698 72.9624 54.4163 72.1178 53.313 71.2141L55.74 68.1457C56.7917 69.01 57.8941 69.8145 59.0421 70.5541Z" fill="#FFC000"/>
<path d="M63.6914 68.8694L61.943 72.2336C60.9475 71.7189 59.9796 71.1581 59.0421 70.5541L61.2453 67.4639C62.0374 67.9676 62.8534 68.4367 63.6914 68.8694Z" fill="#FFC000"/>
<path d="M65.5713 73.8561L63.9357 77.421C62.6348 76.9156 61.3676 76.3426 60.1383 75.7063L61.943 72.2336C63.1157 72.8399 64.3267 73.3822 65.5713 73.8561Z" fill="#FFC000"/>
<path d="M69.6202 71.2008L68.7662 74.8995C67.6794 74.6016 66.6135 74.2529 65.5713 73.8561L67.1567 70.4008C67.9628 70.7001 68.7845 70.9673 69.6202 71.2008Z" fill="#FFC000"/>
<path d="M72.7256 75.7424L71.8447 79.5668C70.5006 79.3507 69.1794 79.0662 67.8847 78.7169L68.7662 74.8995C70.0579 75.2537 71.3792 75.5362 72.7256 75.7424Z" fill="#FFC000"/>
<path d="M76.0879 72.2947V76.0936C74.9519 76.0295 73.8303 75.9116 72.7256 75.7424L73.5795 72.0353C74.4057 72.1543 75.2423 72.2412 76.0879 72.2947Z" fill="#FFC000"/>
<path d="M77.9804 76.2114V80.0644C77.3459 80.0625 76.715 80.0454 76.0879 80.0136V76.2114H77.9804Z" fill="#FFC000"/>
<path d="M113.047 39.3676C112.985 37.9752 112.842 36.6038 112.623 35.2579L116.497 34.7327C116.726 36.167 116.877 37.6273 116.947 39.1091L113.047 39.3676Z" fill="#FFC000"/>
<path fill-rule="evenodd" clip-rule="evenodd" d="M113.083 40.982H109.298C109.298 40.525 109.289 40.0703 109.269 39.6181L113.047 39.3676C113.071 39.9027 113.083 40.441 113.083 40.982Z" fill="#FFC000"/>
<path d="M108.322 33.1532L111.947 32.049C112.22 33.1004 112.447 34.1708 112.623 35.2579L108.87 35.7668C108.724 34.8826 108.54 34.0109 108.322 33.1532Z" fill="#FFC000"/>
<path d="M110.705 28.1969L114.423 26.9742C114.911 28.2551 115.335 29.5682 115.689 30.9094L111.947 32.049C111.605 30.7336 111.19 29.448 110.705 28.1969Z" fill="#FFC000"/>
<path d="M105.99 26.8877L109.359 25.1575C109.854 26.1451 110.303 27.1591 110.705 28.1969L107.102 29.3817C106.767 28.5317 106.395 27.6997 105.99 26.8877Z" fill="#FFC000"/>
<path d="M107.353 21.6622L110.706 19.6467C111.481 20.8449 112.193 22.088 112.837 23.3714L109.359 25.1575C108.756 23.9514 108.085 22.7847 107.353 21.6622Z" fill="#FFC000"/>
<path d="M102.473 21.3617L105.324 18.8621C106.044 19.7605 106.721 20.6949 107.353 21.6622L104.104 23.6151C103.593 22.8393 103.048 22.0875 102.473 21.3617Z" fill="#FFC000"/>
<path d="M102.64 15.8761L105.475 13.1805C106.459 14.1638 107.391 15.1992 108.267 16.2823L105.324 18.8621C104.486 17.8163 103.589 16.8194 102.64 15.8761Z" fill="#FFC000"/>
<path d="M97.8087 16.6074L100.16 13.6348C101.021 14.3428 101.849 15.0908 102.64 15.8761L99.8926 18.4878C99.2263 17.8308 98.531 17.2033 97.8087 16.6074Z" fill="#FFC000"/>
<path d="M96.8577 11.2264L99.1314 8.03736C100.33 8.81811 101.484 9.66274 102.587 10.5664L100.16 13.6348C99.1082 12.7706 98.0058 11.9661 96.8577 11.2264Z" fill="#FFC000"/>
<path d="M92.2085 12.9111L93.9569 9.54696C94.9523 10.0616 95.9202 10.6224 96.8577 11.2264L94.6545 14.3166C93.8625 13.813 93.0464 13.3438 92.2085 12.9111Z" fill="#FFC000"/>
<path d="M90.3285 7.92444L91.9642 4.35953C93.2651 4.86497 94.5323 5.43798 95.7616 6.07426L93.9569 9.54696C92.7842 8.94066 91.5732 8.39828 90.3285 7.92444Z" fill="#FFC000"/>
<path d="M86.2796 10.5797L87.1337 6.881C88.2205 7.17896 89.2863 7.52768 90.3285 7.92444L88.7432 11.3797C87.937 11.0804 87.1153 10.8132 86.2796 10.5797Z" fill="#FFC000"/>
<path d="M83.1743 6.03814L84.0552 2.21374C85.3993 2.42982 86.7205 2.71436 88.0152 3.06368L87.1337 6.881C85.842 6.52684 84.5207 6.24437 83.1743 6.03814Z" fill="#FFC000"/>
<path d="M79.812 9.48586V5.68697C80.9479 5.75103 82.0696 5.86892 83.1743 6.03814L82.3204 9.74526C81.4942 9.62624 80.6576 9.53934 79.812 9.48586Z" fill="#FFC000"/>
<path d="M77.9195 5.56915V1.71613C78.554 1.71807 79.1849 1.73511 79.812 1.76692V5.56915H77.9195Z" fill="#FFC000"/>
<path d="M113.047 42.4129C112.985 43.8053 112.842 45.1768 112.623 46.5227L116.497 47.0479C116.726 45.6135 116.877 44.1533 116.947 42.6715L113.047 42.4129Z" fill="#FFC000"/>
<path fill-rule="evenodd" clip-rule="evenodd" d="M113.083 40.7986H109.298C109.298 41.2556 109.289 41.7103 109.269 42.1625L113.047 42.4129C113.071 41.8778 113.083 41.3396 113.083 40.7986Z" fill="#FFC000"/>
<path d="M108.322 48.6273L111.947 49.7316C112.22 48.6802 112.447 47.6098 112.623 46.5227L108.87 46.0138C108.724 46.898 108.54 47.7697 108.322 48.6273Z" fill="#FFC000"/>
<path d="M110.705 53.5837L114.423 54.8064C114.911 53.5255 115.335 52.2124 115.689 50.8712L111.947 49.7316C111.605 51.047 111.19 52.3326 110.705 53.5837Z" fill="#FFC000"/>
<path d="M105.99 54.8929L109.359 56.6231C109.854 55.6355 110.303 54.6215 110.705 53.5837L107.102 52.3989C106.767 53.2489 106.395 54.0809 105.99 54.8929Z" fill="#FFC000"/>
<path d="M107.353 60.1184L110.706 62.1339C111.481 60.9357 112.193 59.6926 112.837 58.4092L109.359 56.6231C108.756 57.8292 108.085 58.9959 107.353 60.1184Z" fill="#FFC000"/>
<path d="M102.473 60.4189L105.324 62.9185C106.044 62.0201 106.721 61.0857 107.353 60.1184L104.104 58.1655C103.593 58.9413 103.048 59.6931 102.473 60.4189Z" fill="#FFC000"/>
<path d="M102.64 65.9045L105.475 68.6001C106.459 67.6168 107.391 66.5814 108.267 65.4983L105.324 62.9185C104.486 63.9643 103.589 64.9612 102.64 65.9045Z" fill="#FFC000"/>
<path d="M97.8087 65.1732L100.16 68.1458C101.021 67.4378 101.849 66.6898 102.64 65.9045L99.8926 63.2928C99.2263 63.9498 98.531 64.5773 97.8087 65.1732Z" fill="#FFC000"/>
<path d="M96.8577 70.5542L99.1314 73.7432C100.33 72.9625 101.484 72.1179 102.587 71.2141L100.16 68.1458C99.1082 69.01 98.0058 69.8145 96.8577 70.5542Z" fill="#FFC000"/>
<path d="M92.2085 68.8694L93.9569 72.2336C94.9523 71.7189 95.9202 71.1582 96.8577 70.5542L94.6545 67.464C93.8625 67.9676 93.0464 68.4368 92.2085 68.8694Z" fill="#FFC000"/>
<path d="M90.3285 73.8561L91.9642 77.4211C93.2651 76.9156 94.5323 76.3426 95.7616 75.7063L93.9569 72.2336C92.7842 72.8399 91.5732 73.3823 90.3285 73.8561Z" fill="#FFC000"/>
<path d="M86.2796 71.2009L87.1337 74.8996C88.2205 74.6016 89.2863 74.2529 90.3285 73.8561L88.7432 70.4009C87.937 70.7002 87.1153 70.9674 86.2796 71.2009Z" fill="#FFC000"/>
<path d="M83.1743 75.7424L84.0552 79.5668C85.3993 79.3508 86.7205 79.0662 88.0152 78.7169L87.1337 74.8996C85.842 75.2538 84.5207 75.5362 83.1743 75.7424Z" fill="#FFC000"/>
<path d="M79.812 72.2947V76.0936C80.9479 76.0296 82.0696 75.9117 83.1743 75.7424L82.3204 72.0353C81.4942 72.1544 80.6576 72.2413 79.812 72.2947Z" fill="#FFC000"/>
<path d="M77.9195 76.2114V80.0645C78.554 80.0625 79.1849 80.0455 79.812 80.0137V76.2114H77.9195Z" fill="#FFC000"/>
<path d="M42.8527 39.3677C42.9151 37.9753 43.058 36.6038 43.2767 35.2579L39.4031 34.7327C39.1741 36.1671 39.0227 37.6274 38.9532 39.1091L42.8527 39.3677Z" fill="#FFC000"/>
<path fill-rule="evenodd" clip-rule="evenodd" d="M42.8165 40.982H46.6015C46.6015 40.5251 46.6112 40.0704 46.6304 39.6181L42.8527 39.3677C42.8287 39.9028 42.8165 40.441 42.8165 40.982Z" fill="#FFC000"/>
<path d="M47.5783 33.1533L43.9527 32.0491C43.6795 33.1004 43.4534 34.1709 43.2767 35.2579L47.0296 35.7668C47.1764 34.8827 47.3598 34.0109 47.5783 33.1533Z" fill="#FFC000"/>
<path d="M45.1948 28.1969L41.4769 26.9742C40.9885 28.2551 40.5652 29.5682 40.2109 30.9094L43.9527 32.0491C44.2946 30.7336 44.7102 29.448 45.1948 28.1969Z" fill="#FFC000"/>
<path d="M49.9097 26.8878L46.5405 25.1575C46.0462 26.1451 45.5968 27.1591 45.1948 28.1969L48.7977 29.3817C49.1332 28.5317 49.5044 27.6998 49.9097 26.8878Z" fill="#FFC000"/>
<path d="M48.5471 21.6623L45.1942 19.6467C44.4187 20.8449 43.7066 22.0881 43.0627 23.3715L46.5405 25.1575C47.1442 23.9514 47.8147 22.7847 48.5471 21.6623Z" fill="#FFC000"/>
<path d="M53.4273 21.3618L50.5759 18.8621C49.8557 19.7605 49.1784 20.695 48.5471 21.6623L51.7958 23.6151C52.3071 22.8394 52.8516 22.0876 53.4273 21.3618Z" fill="#FFC000"/>
<path d="M53.2603 15.8761L50.425 13.1805C49.441 14.1638 48.5088 15.1993 47.633 16.2823L50.5759 18.8621C51.4142 17.8163 52.3106 16.8194 53.2603 15.8761Z" fill="#FFC000"/>
<path d="M58.0912 16.6074L55.74 13.6348C54.8784 14.3428 54.0509 15.0909 53.2603 15.8761L56.0072 18.4878C56.6735 17.8308 57.3689 17.2033 58.0912 16.6074Z" fill="#FFC000"/>
<path d="M59.0421 11.2264L56.7685 8.0374C55.5698 8.81814 54.4163 9.66277 53.313 10.5665L55.74 13.6348C56.7917 12.7706 57.8941 11.9661 59.0421 11.2264Z" fill="#FFC000"/>
<path d="M63.6914 12.9112L61.943 9.54699C60.9475 10.0617 59.9796 10.6224 59.0421 11.2264L61.2453 14.3167C62.0374 13.813 62.8534 13.3438 63.6914 12.9112Z" fill="#FFC000"/>
<path d="M65.5713 7.92448L63.9357 4.35956C62.6348 4.865 61.3676 5.43801 60.1383 6.07429L61.943 9.54699C63.1157 8.94069 64.3267 8.39832 65.5713 7.92448Z" fill="#FFC000"/>
<path d="M69.6202 10.5797L68.7662 6.88103C67.6794 7.179 66.6135 7.52771 65.5713 7.92448L67.1567 11.3798C67.9628 11.0805 68.7845 10.8133 69.6202 10.5797Z" fill="#FFC000"/>
<path d="M72.7256 6.03817L71.8447 2.21378C70.5006 2.42985 69.1794 2.71439 67.8847 3.06371L68.7662 6.88103C70.0579 6.52687 71.3792 6.2444 72.7256 6.03817Z" fill="#FFC000"/>
<path d="M76.0879 9.48589V5.687C74.9519 5.75106 73.8303 5.86895 72.7256 6.03817L73.5795 9.74529C74.4057 9.62627 75.2423 9.53937 76.0879 9.48589Z" fill="#FFC000"/>
<path d="M77.9804 5.56918V1.71616C77.3459 1.7181 76.715 1.73514 76.0879 1.76695V5.56918H77.9804Z" fill="#FFC000"/>
<path d="M42.8165 40.7985H46.9068M42.8165 40.7985C42.8165 41.3396 42.8287 41.8778 42.8527 42.4129M42.8165 40.7985H46.6015C46.6015 41.2555 46.6112 41.7102 46.6304 42.1624M78.1025 76.1502C77.4264 76.1502 76.7547 76.1312 76.0879 76.0936M38.9094 40.7985C38.9094 41.4264 38.9241 42.0508 38.9532 42.6714M78.1025 80.0646C78.0618 80.0646 78.0211 80.0645 77.9804 80.0644M78.1025 72.3582C77.4258 72.3582 76.754 72.3368 76.0879 72.2947M77.9804 80.2481V80.0644M76.0879 76.2114H77.9804V80.0644M76.0879 76.2114V76.0936M76.0879 76.2114V80.0136M76.0879 71.93V72.2947M76.0879 80.2481V80.0136M73.646 71.7465L73.5795 72.0353M71.8145 79.6976L71.8447 79.5668M69.6778 70.9514L69.6202 71.2008M67.7853 79.1472L67.8847 78.7169M67.2969 70.0952L67.1567 70.4008M63.8172 77.6793L63.9357 77.421M63.8172 68.6273L63.6914 68.8694M59.9711 76.0279L60.1383 75.7063M61.3752 67.2817L61.2453 67.4639M56.4914 74.1319L56.7685 73.7432M58.2618 64.9576L58.0912 65.1732M53.1337 71.4407L53.313 71.2141M56.1861 63.1227L56.0072 63.2928M50.2034 68.8108L50.425 68.6001M53.6221 60.2481L53.4273 60.4188M47.2731 65.8138L47.633 65.4983M52.0959 57.9851L51.7958 58.1655M44.7701 62.3888L45.1942 62.1338M50.0813 54.8047L49.9097 54.8928M42.8165 58.5355L43.0627 58.4091M48.9214 52.3582L48.7977 52.3989M40.924 54.9881L41.4769 54.8063M39.9473 50.9514L40.2109 50.8711M47.151 45.9973L47.0296 46.0138M39.0315 47.0982L39.4031 47.0479M46.9068 42.1441L46.6304 42.1624M38.6042 42.6946L38.9532 42.6714M42.8527 42.4129C42.9151 43.8053 43.058 45.1767 43.2767 46.5226M42.8527 42.4129L38.9532 42.6714M42.8527 42.4129L46.6304 42.1624M43.2767 46.5226L39.4031 47.0479M43.2767 46.5226C43.4534 47.6097 43.6795 48.6801 43.9527 49.7315M43.2767 46.5226L47.0296 46.0138M39.4031 47.0479C39.1741 45.6135 39.0227 44.1532 38.9532 42.6714M39.4031 47.0479C39.6101 48.3446 39.8804 49.6201 40.2109 50.8711M76.0879 76.0936V72.2947M76.0879 76.0936C74.9519 76.0295 73.8303 75.9116 72.7256 75.7424M76.0879 72.2947C75.2423 72.2412 74.4057 72.1543 73.5795 72.0353M46.6304 42.1624C46.6858 43.4683 46.8205 44.7537 47.0296 46.0138M43.9527 49.7315L47.5783 48.6273C47.3598 47.7696 47.1764 46.8979 47.0296 46.0138M43.9527 49.7315L40.2109 50.8711M43.9527 49.7315C44.2946 51.0469 44.7102 52.3326 45.1948 53.5837M47.0296 46.0138C47.3972 48.2286 47.9951 50.3655 48.7977 52.3989M45.1948 53.5837L41.4769 54.8063M45.1948 53.5837C45.5968 54.6214 46.0462 55.6354 46.5405 56.6231M45.1948 53.5837L48.7977 52.3989M41.4769 54.8063C40.9885 53.5254 40.5652 52.2124 40.2109 50.8711M41.4769 54.8063C41.9465 56.0382 42.4764 57.2404 43.0627 58.4091M49.9097 54.8928L46.5405 56.6231M49.9097 54.8928C49.5044 54.0808 49.1332 53.2489 48.7977 52.3989M49.9097 54.8928C50.4742 56.0241 51.1046 57.1167 51.7958 58.1655M46.5405 56.6231L43.0627 58.4091M46.5405 56.6231C47.1442 57.8292 47.8147 58.9959 48.5471 60.1183M48.5471 60.1183L45.1942 62.1338M48.5471 60.1183C49.1784 61.0856 49.8557 62.02 50.5759 62.9185M48.5471 60.1183L51.7958 58.1655M45.1942 62.1338C44.4187 60.9357 43.7066 59.6925 43.0627 58.4091M45.1942 62.1338C45.9486 63.2994 46.763 64.4223 47.633 65.4983M53.4273 60.4188L50.5759 62.9185M53.4273 60.4188C52.8516 59.693 52.3071 58.9412 51.7958 58.1655M53.4273 60.4188C54.2286 61.429 55.0904 62.3888 56.0072 63.2928M50.5759 62.9185L47.633 65.4983M50.5759 62.9185C51.4142 63.9642 52.3106 64.9612 53.2603 65.9044M53.2603 65.9044L50.425 68.6001M53.2603 65.9044L56.0072 63.2928M53.2603 65.9044C54.0509 66.6897 54.8784 67.4378 55.74 68.1457M50.425 68.6001C49.441 67.6167 48.5088 66.5813 47.633 65.4983M50.425 68.6001C51.3437 69.518 52.3075 70.3906 53.313 71.2141M56.0072 63.2928C56.6735 63.9498 57.3689 64.5773 58.0912 65.1732M58.0912 65.1732L55.74 68.1457M58.0912 65.1732C59.0927 65.9994 60.1459 66.7648 61.2453 67.4639M55.74 68.1457L53.313 71.2141M55.74 68.1457C56.7917 69.01 57.8941 69.8145 59.0421 70.5541M59.0421 70.5541L56.7685 73.7432M59.0421 70.5541C59.9796 71.1581 60.9475 71.7189 61.943 72.2336M59.0421 70.5541L61.2453 67.4639M56.7685 73.7432C55.5698 72.9624 54.4163 72.1178 53.313 71.2141M56.7685 73.7432C57.8557 74.4513 58.9802 75.1069 60.1383 75.7063M63.6914 68.8694L61.943 72.2336M63.6914 68.8694C62.8534 68.4367 62.0374 67.9676 61.2453 67.4639M63.6914 68.8694C64.8092 69.4466 65.966 69.9587 67.1567 70.4008M61.943 72.2336L60.1383 75.7063M61.943 72.2336C63.1157 72.8399 64.3267 73.3823 65.5713 73.8561M65.5713 73.8561L63.9357 77.421M65.5713 73.8561C66.6135 74.2529 67.6794 74.6016 68.7662 74.8995M65.5713 73.8561L67.1567 70.4008M63.9357 77.421C62.6348 76.9156 61.3676 76.3426 60.1383 75.7063M63.9357 77.421C65.2206 77.9203 66.5383 78.3536 67.8847 78.7169M69.6202 71.2008L68.7662 74.8995M69.6202 71.2008C68.7845 70.9673 67.9628 70.7001 67.1567 70.4008M69.6202 71.2008C70.9086 71.5609 72.2302 71.8409 73.5795 72.0353M68.7662 74.8995L67.8847 78.7169M68.7662 74.8995C70.0579 75.2537 71.3792 75.5362 72.7256 75.7424M72.7256 75.7424L71.8447 79.5668M72.7256 75.7424L73.5795 72.0353M71.8447 79.5668C70.5006 79.3507 69.1794 79.0662 67.8847 78.7169M71.8447 79.5668C73.236 79.7905 74.6517 79.9408 76.0879 80.0136M77.9804 80.0644C77.3459 80.0625 76.715 80.0454 76.0879 80.0136M113.083 40.982H108.993M113.083 40.982C113.083 40.441 113.071 39.9027 113.047 39.3676M113.083 40.982H109.298C109.298 40.525 109.289 40.0703 109.269 39.6181M77.7974 5.63031C78.4735 5.63031 79.1452 5.64937 79.812 5.68697M116.99 40.982C116.99 40.3542 116.976 39.7297 116.947 39.1091M77.7974 1.71594C77.8381 1.71594 77.8788 1.716 77.9195 1.71613M77.7974 9.42236C78.4741 9.42236 79.1458 9.44374 79.812 9.48586M77.9195 1.53246V1.71613M79.812 5.56915H77.9195V1.71613M79.812 5.56915V5.68697M79.812 5.56915V1.76692M79.812 9.8505V9.48586M79.812 1.53246V1.76692M82.2539 10.034L82.3204 9.74526M84.0854 2.08291L84.0552 2.21374M86.222 10.8291L86.2796 10.5797M88.1146 2.63337L88.0152 3.06368M88.6029 11.6854L88.7432 11.3797M92.0827 4.10126L91.9642 4.35953M92.0827 13.1532L92.2085 12.9111M95.9287 5.75264L95.7616 6.07426M94.5246 14.4988L94.6545 14.3166M99.4085 7.64866L99.1314 8.03736M97.6381 16.823L97.8087 16.6074M102.766 10.3398L102.587 10.5664M99.7137 18.6578L99.8926 18.4878M105.696 12.9698L105.475 13.1805M102.278 21.5325L102.473 21.3617M108.627 15.9667L108.267 16.2823M103.804 23.7955L104.104 23.6151M111.13 19.3918L110.706 19.6467M105.819 26.9759L105.99 26.8877M113.083 23.245L112.837 23.3714M106.979 29.4224L107.102 29.3817M114.976 26.7924L114.423 26.9742M115.953 30.8291L115.689 30.9094M108.749 35.7832L108.87 35.7668M116.868 34.6823L116.497 34.7327M108.993 39.6364L109.269 39.6181M117.296 39.086L116.947 39.1091M113.047 39.3676C112.985 37.9752 112.842 36.6038 112.623 35.2579M113.047 39.3676L116.947 39.1091M113.047 39.3676L109.269 39.6181M112.623 35.2579L116.497 34.7327M112.623 35.2579C112.447 34.1708 112.22 33.1004 111.947 32.049M112.623 35.2579L108.87 35.7668M116.497 34.7327C116.726 36.167 116.877 37.6273 116.947 39.1091M116.497 34.7327C116.29 33.436 116.019 32.1604 115.689 30.9094M79.812 5.68697V9.48586M79.812 5.68697C80.9479 5.75102 82.0696 5.86892 83.1743 6.03814M79.812 9.48586C80.6576 9.53934 81.4942 9.62623 82.3204 9.74526M109.269 39.6181C109.214 38.3122 109.079 37.0269 108.87 35.7668M111.947 32.049L108.322 33.1533C108.54 34.0109 108.724 34.8826 108.87 35.7668M111.947 32.049L115.689 30.9094M111.947 32.049C111.605 30.7336 111.19 29.448 110.705 28.1969M108.87 35.7668C108.503 33.5519 107.905 31.4151 107.102 29.3817M110.705 28.1969L114.423 26.9742M110.705 28.1969C110.303 27.1591 109.854 26.1451 109.359 25.1575M110.705 28.1969L107.102 29.3817M114.423 26.9742C114.911 28.2551 115.335 29.5682 115.689 30.9094M114.423 26.9742C113.953 25.7423 113.424 24.5402 112.837 23.3714M105.99 26.8877L109.359 25.1575M105.99 26.8877C106.395 27.6997 106.767 28.5317 107.102 29.3817M105.99 26.8877C105.426 25.7564 104.795 24.6639 104.104 23.6151M109.359 25.1575L112.837 23.3714M109.359 25.1575C108.756 23.9514 108.085 22.7847 107.353 21.6622M107.353 21.6622L110.706 19.6467M107.353 21.6622C106.721 20.6949 106.044 19.7605 105.324 18.8621M107.353 21.6622L104.104 23.6151M110.706 19.6467C111.481 20.8449 112.193 22.088 112.837 23.3714M110.706 19.6467C109.951 18.4812 109.137 17.3582 108.267 16.2823M102.473 21.3617L105.324 18.8621M102.473 21.3617C103.048 22.0875 103.593 22.8393 104.104 23.6151M102.473 21.3617C101.671 20.3516 100.809 19.3918 99.8926 18.4878M105.324 18.8621L108.267 16.2823M105.324 18.8621C104.486 17.8163 103.589 16.8194 102.64 15.8761M102.64 15.8761L105.475 13.1805M102.64 15.8761L99.8926 18.4878M102.64 15.8761C101.849 15.0908 101.021 14.3428 100.16 13.6348M105.475 13.1805C106.459 14.1638 107.391 15.1992 108.267 16.2823M105.475 13.1805C104.556 12.2625 103.592 11.39 102.587 10.5664M99.8926 18.4878C99.2263 17.8308 98.531 17.2033 97.8087 16.6074M97.8087 16.6074L100.16 13.6348M97.8087 16.6074C96.8072 15.7812 95.754 15.0157 94.6545 14.3166M100.16 13.6348L102.587 10.5664M100.16 13.6348C99.1082 12.7706 98.0058 11.9661 96.8577 11.2264M96.8577 11.2264L99.1314 8.03736M96.8577 11.2264C95.9202 10.6224 94.9523 10.0616 93.9569 9.54696M96.8577 11.2264L94.6545 14.3166M99.1314 8.03736C100.33 8.81811 101.484 9.66274 102.587 10.5664M99.1314 8.03736C98.0442 7.32924 96.9197 6.67368 95.7616 6.07426M92.2085 12.9111L93.9569 9.54696M92.2085 12.9111C93.0464 13.3438 93.8625 13.813 94.6545 14.3166M92.2085 12.9111C91.0907 12.334 89.9339 11.8218 88.7432 11.3797M93.9569 9.54696L95.7616 6.07426M93.9569 9.54696C92.7842 8.94066 91.5732 8.39828 90.3285 7.92444M90.3285 7.92444L91.9642 4.35953M90.3285 7.92444C89.2863 7.52768 88.2205 7.17896 87.1337 6.881M90.3285 7.92444L88.7432 11.3797M91.9642 4.35953C93.2651 4.86497 94.5323 5.43798 95.7616 6.07426M91.9642 4.35953C90.6793 3.86028 89.3616 3.42695 88.0152 3.06368M86.2796 10.5797L87.1337 6.881M86.2796 10.5797C87.1153 10.8132 87.937 11.0804 88.7432 11.3797M86.2796 10.5797C84.9913 10.2197 83.6697 9.93963 82.3204 9.74526M87.1337 6.881L88.0152 3.06368M87.1337 6.881C85.842 6.52684 84.5207 6.24437 83.1743 6.03814M83.1743 6.03814L84.0552 2.21374M83.1743 6.03814L82.3204 9.74526M84.0552 2.21374C85.3993 2.42982 86.7205 2.71436 88.0152 3.06368M84.0552 2.21374C82.6639 1.99008 81.2481 1.83977 79.812 1.76692M77.9195 1.71613C78.554 1.71807 79.1849 1.73511 79.812 1.76692M113.083 40.7986H108.993M113.083 40.7986C113.083 41.3396 113.071 41.8778 113.047 42.4129M113.083 40.7986H109.298C109.298 41.2556 109.289 41.7103 109.269 42.1625M77.7974 76.1503C78.4735 76.1503 79.1452 76.1312 79.812 76.0936M116.99 40.7986C116.99 41.4264 116.976 42.0508 116.947 42.6715M77.7974 80.0647C77.8381 80.0647 77.8788 80.0646 77.9195 80.0645M77.7974 72.3582C78.4741 72.3582 79.1458 72.3369 79.812 72.2947M77.9195 80.2481V80.0645M79.812 76.2114H77.9195V80.0645M79.812 76.2114V76.0936M79.812 76.2114V80.0137M79.812 71.9301V72.2947M79.812 80.2481V80.0137M82.2539 71.7466L82.3204 72.0353M84.0854 79.6977L84.0552 79.5668M86.222 70.9515L86.2796 71.2009M88.1146 79.1472L88.0152 78.7169M88.6029 70.0952L88.7432 70.4009M92.0827 77.6793L91.9642 77.4211M92.0827 68.6273L92.2085 68.8694M95.9287 76.028L95.7616 75.7063M94.5246 67.2818L94.6545 67.464M99.4085 74.1319L99.1314 73.7432M97.6381 64.9576L97.8087 65.1732M102.766 71.4408L102.587 71.2141M99.7137 63.1228L99.8926 63.2928M105.696 68.8108L105.475 68.6001M102.278 60.2481L102.473 60.4189M108.627 65.8139L108.267 65.4983M103.804 57.9851L104.104 58.1655M111.13 62.3888L110.706 62.1339M105.819 54.8047L105.99 54.8929M113.083 58.5356L112.837 58.4092M106.979 52.3582L107.102 52.3989M114.976 54.9882L114.423 54.8064M115.953 50.9515L115.689 50.8712M108.749 45.9974L108.87 46.0138M116.868 47.0983L116.497 47.0479M108.993 42.1442L109.269 42.1625M117.296 42.6946L116.947 42.6715M113.047 42.4129C112.985 43.8053 112.842 45.1768 112.623 46.5227M113.047 42.4129L116.947 42.6715M113.047 42.4129L109.269 42.1625M112.623 46.5227L116.497 47.0479M112.623 46.5227C112.447 47.6098 112.22 48.6802 111.947 49.7316M112.623 46.5227L108.87 46.0138M116.497 47.0479C116.726 45.6135 116.877 44.1533 116.947 42.6715M116.497 47.0479C116.29 48.3446 116.019 49.6202 115.689 50.8712M79.812 76.0936V72.2947M79.812 76.0936C80.9479 76.0296 82.0696 75.9117 83.1743 75.7424M79.812 72.2947C80.6576 72.2413 81.4942 72.1544 82.3204 72.0353M109.269 42.1625C109.214 43.4684 109.079 44.7537 108.87 46.0138M111.947 49.7316L108.322 48.6273C108.54 47.7697 108.724 46.898 108.87 46.0138M111.947 49.7316L115.689 50.8712M111.947 49.7316C111.605 51.047 111.19 52.3326 110.705 53.5837M108.87 46.0138C108.503 48.2287 107.905 50.3655 107.102 52.3989M110.705 53.5837L114.423 54.8064M110.705 53.5837C110.303 54.6215 109.854 55.6355 109.359 56.6231M110.705 53.5837L107.102 52.3989M114.423 54.8064C114.911 53.5255 115.335 52.2124 115.689 50.8712M114.423 54.8064C113.953 56.0383 113.424 57.2404 112.837 58.4092M105.99 54.8929L109.359 56.6231M105.99 54.8929C106.395 54.0809 106.767 53.2489 107.102 52.3989M105.99 54.8929C105.426 56.0241 104.795 57.1167 104.104 58.1655M109.359 56.6231L112.837 58.4092M109.359 56.6231C108.756 57.8292 108.085 58.9959 107.353 60.1183M107.353 60.1183L110.706 62.1339M107.353 60.1183C106.721 61.0857 106.044 62.0201 105.324 62.9185M107.353 60.1183L104.104 58.1655M110.706 62.1339C111.481 60.9357 112.193 59.6926 112.837 58.4092M110.706 62.1339C109.951 63.2994 109.137 64.4224 108.267 65.4983M102.473 60.4189L105.324 62.9185M102.473 60.4189C103.048 59.6931 103.593 58.9413 104.104 58.1655M102.473 60.4189C101.671 61.429 100.809 62.3888 99.8926 63.2928M105.324 62.9185L108.267 65.4983M105.324 62.9185C104.486 63.9643 103.589 64.9612 102.64 65.9045M102.64 65.9045L105.475 68.6001M102.64 65.9045L99.8926 63.2928M102.64 65.9045C101.849 66.6898 101.021 67.4378 100.16 68.1458M105.475 68.6001C106.459 67.6168 107.391 66.5814 108.267 65.4983M105.475 68.6001C104.556 69.5181 103.592 70.3906 102.587 71.2141M99.8926 63.2928C99.2263 63.9498 98.531 64.5773 97.8087 65.1732M97.8087 65.1732L100.16 68.1458M97.8087 65.1732C96.8072 65.9994 95.754 66.7649 94.6545 67.464M100.16 68.1458L102.587 71.2141M100.16 68.1458C99.1082 69.01 98.0058 69.8145 96.8577 70.5542M96.8577 70.5542L99.1314 73.7432M96.8577 70.5542C95.9202 71.1582 94.9523 71.719 93.9569 72.2336M96.8577 70.5542L94.6545 67.464M99.1314 73.7432C100.33 72.9625 101.484 72.1178 102.587 71.2141M99.1314 73.7432C98.0442 74.4513 96.9197 75.1069 95.7616 75.7063M92.2085 68.8694L93.9569 72.2336M92.2085 68.8694C93.0464 68.4368 93.8625 67.9676 94.6545 67.464M92.2085 68.8694C91.0907 69.4466 89.9339 69.9588 88.7432 70.4009M93.9569 72.2336L95.7616 75.7063M93.9569 72.2336C92.7842 72.8399 91.5732 73.3823 90.3285 73.8561M90.3285 73.8561L91.9642 77.4211M90.3285 73.8561C89.2863 74.2529 88.2205 74.6016 87.1337 74.8996M90.3285 73.8561L88.7432 70.4009M91.9642 77.4211C93.2651 76.9156 94.5323 76.3426 95.7616 75.7063M91.9642 77.4211C90.6793 77.9203 89.3616 78.3536 88.0152 78.7169M86.2796 71.2009L87.1337 74.8996M86.2796 71.2009C87.1153 70.9674 87.937 70.7002 88.7432 70.4009M86.2796 71.2009C84.9913 71.5609 83.6697 71.841 82.3204 72.0353M87.1337 74.8996L88.0152 78.7169M87.1337 74.8996C85.842 75.2538 84.5207 75.5362 83.1743 75.7424M83.1743 75.7424L84.0552 79.5668M83.1743 75.7424L82.3204 72.0353M84.0552 79.5668C85.3993 79.3508 86.7205 79.0662 88.0152 78.7169M84.0552 79.5668C82.6639 79.7905 81.2481 79.9408 79.812 80.0137M77.9195 80.0645C78.554 80.0625 79.1849 80.0455 79.812 80.0137M42.8165 40.982H46.9068M42.8165 40.982C42.8165 40.441 42.8287 39.9028 42.8527 39.3677M42.8165 40.982H46.6015C46.6015 40.5251 46.6112 40.0704 46.6304 39.6181M78.1025 5.63035C77.4264 5.63035 76.7547 5.6494 76.0879 5.687M38.9094 40.982C38.9094 40.3542 38.9241 39.7298 38.9532 39.1091M78.1025 1.71597C78.0618 1.71597 78.0211 1.71603 77.9804 1.71616M78.1025 9.42239C77.4258 9.42239 76.754 9.44377 76.0879 9.48589M77.9804 1.53249V1.71616M76.0879 5.56918H77.9804V1.71616M76.0879 5.56918V5.687M76.0879 5.56918V1.76695M76.0879 9.85053V9.48589M76.0879 1.53249V1.76695M73.646 10.034L73.5795 9.74529M71.8145 2.08294L71.8447 2.21378M69.6778 10.8291L69.6202 10.5797M67.7853 2.6334L67.8847 3.06371M67.2969 11.6854L67.1567 11.3798M63.8172 4.10129L63.9357 4.35956M63.8172 13.1533L63.6914 12.9112M59.9711 5.75267L60.1383 6.07429M61.3752 14.4988L61.2453 14.3167M56.4914 7.64869L56.7685 8.0374M58.2618 16.823L58.0912 16.6074M53.1337 10.3398L53.313 10.5665M56.1861 18.6579L56.0072 18.4878M50.2034 12.9698L50.425 13.1805M53.6221 21.5325L53.4273 21.3618M47.2731 15.9667L47.633 16.2823M52.0959 23.7955L51.7958 23.6151M44.7701 19.3918L45.1942 19.6467M50.0813 26.9759L49.9097 26.8878M42.8165 23.245L43.0627 23.3715M48.9214 29.4224L48.7977 29.3817M40.924 26.7924L41.4769 26.9742M39.9473 30.8291L40.2109 30.9094M47.151 35.7832L47.0296 35.7668M39.0315 34.6823L39.4031 34.7327M46.9068 39.6365L46.6304 39.6181M38.6042 39.086L38.9532 39.1091M42.8527 39.3677C42.9151 37.9753 43.058 36.6038 43.2767 35.2579M42.8527 39.3677L38.9532 39.1091M42.8527 39.3677L46.6304 39.6181M43.2767 35.2579L39.4031 34.7327M43.2767 35.2579C43.4534 34.1709 43.6795 33.1004 43.9527 32.0491M43.2767 35.2579L47.0296 35.7668M39.4031 34.7327C39.1741 36.1671 39.0227 37.6274 38.9532 39.1091M39.4031 34.7327C39.6101 33.436 39.8804 32.1605 40.2109 30.9094M76.0879 5.687V9.48589M76.0879 5.687C74.9519 5.75106 73.8303 5.86895 72.7256 6.03817M76.0879 9.48589C75.2423 9.53937 74.4057 9.62627 73.5795 9.74529M46.6304 39.6181C46.6858 38.3123 46.8205 37.0269 47.0296 35.7668M43.9527 32.0491L47.5783 33.1533C47.3598 34.0109 47.1764 34.8827 47.0296 35.7668M43.9527 32.0491L40.2109 30.9094M43.9527 32.0491C44.2946 30.7336 44.7102 29.448 45.1948 28.1969M47.0296 35.7668C47.3972 33.5519 47.9951 31.4151 48.7977 29.3817M45.1948 28.1969L41.4769 26.9742M45.1948 28.1969C45.5968 27.1591 46.0462 26.1451 46.5405 25.1575M45.1948 28.1969L48.7977 29.3817M41.4769 26.9742C40.9885 28.2551 40.5652 29.5682 40.2109 30.9094M41.4769 26.9742C41.9465 25.7423 42.4764 24.5402 43.0627 23.3715M49.9097 26.8878L46.5405 25.1575M49.9097 26.8878C49.5044 27.6998 49.1332 28.5317 48.7977 29.3817M49.9097 26.8878C50.4742 25.7565 51.1046 24.6639 51.7958 23.6151M46.5405 25.1575L43.0627 23.3715M46.5405 25.1575C47.1442 23.9514 47.8147 22.7847 48.5471 21.6623M48.5471 21.6623L45.1942 19.6467M48.5471 21.6623C49.1784 20.695 49.8557 19.7605 50.5759 18.8621M48.5471 21.6623L51.7958 23.6151M45.1942 19.6467C44.4187 20.8449 43.7066 22.0881 43.0627 23.3715M45.1942 19.6467C45.9486 18.4812 46.763 17.3583 47.633 16.2823M53.4273 21.3618L50.5759 18.8621M53.4273 21.3618C52.8516 22.0876 52.3071 22.8394 51.7958 23.6151M53.4273 21.3618C54.2286 20.3516 55.0904 19.3918 56.0072 18.4878M50.5759 18.8621L47.633 16.2823M50.5759 18.8621C51.4142 17.8163 52.3106 16.8194 53.2603 15.8761M53.2603 15.8761L50.425 13.1805M53.2603 15.8761L56.0072 18.4878M53.2603 15.8761C54.0509 15.0909 54.8784 14.3428 55.74 13.6348M50.425 13.1805C49.441 14.1638 48.5088 15.1993 47.633 16.2823M50.425 13.1805C51.3437 12.2625 52.3075 11.39 53.313 10.5665M56.0072 18.4878C56.6735 17.8308 57.3689 17.2033 58.0912 16.6074M58.0912 16.6074L55.74 13.6348M58.0912 16.6074C59.0927 15.7812 60.1459 15.0157 61.2453 14.3167M55.74 13.6348L53.313 10.5665M55.74 13.6348C56.7917 12.7706 57.8941 11.9661 59.0421 11.2264M59.0421 11.2264L56.7685 8.0374M59.0421 11.2264C59.9796 10.6224 60.9475 10.0617 61.943 9.54699M59.0421 11.2264L61.2453 14.3167M56.7685 8.0374C55.5698 8.81814 54.4163 9.66277 53.313 10.5665M56.7685 8.0374C57.8557 7.32927 58.9802 6.67371 60.1383 6.07429M63.6914 12.9112L61.943 9.54699M63.6914 12.9112C62.8534 13.3438 62.0374 13.813 61.2453 14.3167M63.6914 12.9112C64.8092 12.334 65.966 11.8218 67.1567 11.3798M61.943 9.54699L60.1383 6.07429M61.943 9.54699C63.1157 8.94069 64.3267 8.39832 65.5713 7.92448M65.5713 7.92448L63.9357 4.35956M65.5713 7.92448C66.6135 7.52771 67.6794 7.179 68.7662 6.88103M65.5713 7.92448L67.1567 11.3798M63.9357 4.35956C62.6348 4.865 61.3676 5.43801 60.1383 6.07429M63.9357 4.35956C65.2206 3.86031 66.5383 3.42698 67.8847 3.06371M69.6202 10.5797L68.7662 6.88103M69.6202 10.5797C68.7845 10.8133 67.9628 11.0805 67.1567 11.3798M69.6202 10.5797C70.9086 10.2197 72.2302 9.93966 73.5795 9.74529M68.7662 6.88103L67.8847 3.06371M68.7662 6.88103C70.0579 6.52687 71.3792 6.2444 72.7256 6.03817M72.7256 6.03817L71.8447 2.21378M72.7256 6.03817L73.5795 9.74529M71.8447 2.21378C70.5006 2.42985 69.1794 2.71439 67.8847 3.06371M71.8447 2.21378C73.236 1.99011 74.6517 1.8398 76.0879 1.76695M77.9804 1.71616C77.3459 1.7181 76.715 1.73514 76.0879 1.76695" stroke="#FFC000" stroke-width="0.122416"/>
<path d="M73.9915 20.1614C74.1273 20.1614 74.2398 20.1551 74.3289 20.1423V20.9189C74.1421 20.9529 73.9257 20.9699 73.6796 20.9699C73.5692 20.9699 73.4716 20.9635 73.3868 20.9508C73.3019 20.938 73.2064 20.9104 73.1003 20.868C72.9942 20.8213 72.9072 20.7598 72.8393 20.6834C72.7714 20.607 72.712 20.4967 72.6611 20.3524C72.6144 20.2081 72.5911 20.0383 72.5911 19.8431V18.6209H72.1073V17.8507H72.5911V16.9404H73.565V17.8507H74.2589V18.6209H73.565V19.6394C73.565 19.8474 73.6011 19.9874 73.6732 20.0596C73.7454 20.1275 73.8515 20.1614 73.9915 20.1614ZM76.0898 21.0017C75.6442 21.0017 75.2919 20.851 75.0331 20.5497C74.7742 20.2484 74.6448 19.8601 74.6448 19.3848C74.6448 18.918 74.7784 18.5318 75.0458 18.2263C75.3132 17.9207 75.6654 17.7679 76.1025 17.7679C76.3189 17.7679 76.512 17.8146 76.6818 17.908C76.8515 18.0013 76.9788 18.1287 77.0637 18.2899V17.8507H78.0313V20.9189H77.0637V20.4861C76.9788 20.6388 76.8473 20.764 76.669 20.8616C76.4951 20.955 76.302 21.0017 76.0898 21.0017ZM76.3699 20.1932C76.6033 20.1932 76.7836 20.1169 76.9109 19.9641C77.0383 19.8113 77.1019 19.6182 77.1019 19.3848C77.1019 19.1556 77.0383 18.9647 76.9109 18.8119C76.7836 18.6591 76.6033 18.5827 76.3699 18.5827C76.1492 18.5827 75.9709 18.657 75.8351 18.8055C75.7036 18.9541 75.6378 19.1472 75.6378 19.3848C75.6378 19.6225 75.7036 19.8177 75.8351 19.9704C75.9709 20.119 76.1492 20.1932 76.3699 20.1932ZM78.4898 20.9189L79.6101 19.3721L78.5089 17.8507H79.6738L80.2021 18.7419L80.7368 17.8507H81.9018L80.8005 19.3721L81.9209 20.9189H80.7559L80.2021 20.0023L79.6547 20.9189H78.4898ZM83.2938 17.4051C83.1793 17.5197 83.035 17.577 82.861 17.577C82.687 17.577 82.5427 17.5197 82.4281 17.4051C82.3178 17.2905 82.2626 17.1505 82.2626 16.985C82.2626 16.8152 82.3178 16.673 82.4281 16.5585C82.5427 16.4439 82.687 16.3866 82.861 16.3866C83.035 16.3866 83.1793 16.446 83.2938 16.5648C83.4084 16.6794 83.4657 16.8195 83.4657 16.985C83.4657 17.1505 83.4084 17.2905 83.2938 17.4051ZM82.3708 20.9189V17.8507H83.3448V20.9189H82.3708Z" fill="#FFC000"/>
<path d="M63.036 29.4706L60.4469 21.7584H62.3639L63.9615 27.201L65.559 21.7584H67.476L64.8869 29.4706H63.036ZM71.8143 29.4706L71.5498 28.5341H68.8175L68.5531 29.4706H66.6691L69.2802 21.7584H71.0761L73.6982 29.4706H71.8143ZM69.2141 27.1349H71.1532L70.1837 23.7085L69.2141 27.1349ZM74.5598 29.4706V21.7584H76.3887L79.066 26.7493V21.7584H80.7737V29.4706H78.9448L76.2676 24.4797V29.4706H74.5598ZM86.5159 21.7584H88.4881L84.665 29.4706H82.6819L84.1141 26.562L81.3818 21.7584H83.4531L85.0947 24.7992L86.5159 21.7584ZM92.5366 29.4706L92.2721 28.5341H89.5398L89.2754 29.4706H87.3914L90.0025 21.7584H91.7984L94.4206 29.4706H92.5366ZM89.9364 27.1349H91.8755L90.906 23.7085L89.9364 27.1349Z" fill="#FFC000"/>
<path d="M32.5811 51.6971H39.862V50.006H27.3999V50.0839C29.0938 50.6949 30.8221 51.2339 32.5811 51.6971Z" fill="#FFC000"/>
<path d="M19.5687 46.6238H42.2539V44.9327H38.8196H16.5715C17.5532 45.5233 18.5526 46.0874 19.5687 46.6238Z" fill="#FFC000"/>
<path d="M11.5281 41.5505H38.2028V39.8594H9.84511V40.2527C10.3984 40.6947 10.9595 41.1274 11.5281 41.5505Z" fill="#FFC000"/>
<path d="M5.89568 36.8155H41.6293V35.1244H38.8196H4.1782C4.73972 35.6991 5.31233 36.2629 5.89568 36.8155Z" fill="#FFC000"/>
<path d="M1.39529 32.0804H39.683V30.3893H0C0.455276 30.9613 0.920459 31.5251 1.39529 32.0804Z" fill="#FFC000"/>
<path d="M128.6 50.0839C126.906 50.6949 125.178 51.2339 123.419 51.6971H116.138V50.006H128.6V50.0839Z" fill="#FFC000"/>
<path d="M136.431 46.6238H113.746V44.9327H117.141H139.428C138.447 45.5233 137.447 46.0874 136.431 46.6238Z" fill="#FFC000"/>
<path d="M144.472 41.5505H117.797V39.8594H146.155V40.2526C145.602 40.6947 145.041 41.1274 144.472 41.5505Z" fill="#FFC000"/>
<path d="M150.104 36.8155H116.813V35.1244H151.822C151.26 35.6991 150.688 36.2629 150.104 36.8155Z" fill="#FFC000"/>
<path d="M154.605 32.0804H116.439V30.3893H156C155.545 30.9613 155.08 31.5251 154.605 32.0804Z" fill="#FFC000"/>
<path d="M39.683 32.0804H1.39529L4.1782 35.1244H38.8196L39.683 32.0804Z" fill="#FFC000"/>
<path d="M38.2028 41.5505H11.5281L16.5715 44.9327H38.8196L38.2028 41.5505Z" fill="#FFC000"/>
<path d="M144.472 41.5505H117.797L117.291 41.7245L117.141 44.9327H139.428L144.472 41.5505Z" fill="#FFC000"/>
<path d="M116.813 35.1244H151.822L154.605 32.0804H116.439L116.813 35.1244Z" fill="#FFC000"/>
<path d="M77.9884 51.8118L78.8108 54.3475H81.472L79.319 55.9146L80.1414 58.4503L77.9884 56.8832L75.8354 58.4503L76.6578 55.9146L74.5048 54.3475H77.166L77.9884 51.8118Z" fill="#FFC000"/>
<path fill-rule="evenodd" clip-rule="evenodd" d="M107.65 40.9818C107.65 57.3984 94.3663 70.7066 77.9803 70.7066C61.5942 70.7066 48.3107 57.3984 48.3107 40.9818C48.3107 24.5653 61.5942 11.257 77.9803 11.257C94.3663 11.257 107.65 24.5653 107.65 40.9818ZM105.772 34.8656C102.978 22.0639 91.5964 12.4803 77.9803 12.4803C64.3641 12.4803 52.9822 22.0639 50.1883 34.8656H105.772ZM105.772 47.098C102.978 59.8997 91.5964 69.4833 77.9803 69.4833C64.3641 69.4833 52.9822 59.8997 50.1883 47.098H105.772ZM69.0501 37.8898V36.204H76.9779V37.8898H74.0227V45.8748H72.0054V37.8898H69.0501ZM82.3605 43.5515L80.0274 36.204H77.7603L81.0926 45.8748H83.7226L87.0502 36.204H84.7878L82.45 43.5515H82.3605ZM56.3391 37.499L57.1615 40.0347H59.8227L57.6697 41.6019L58.4921 44.1376L56.3391 42.5704L54.1861 44.1376L55.0085 41.6019L52.8555 40.0347H55.5167L56.3391 37.499ZM100.54 40.0347L99.7173 37.499L98.8949 40.0347H96.2337L98.3867 41.6019L97.5643 44.1376L99.7173 42.5704L101.87 44.1376L101.048 41.6019L103.201 40.0347H100.54Z" fill="#FFC000"/>
<path d="M72.2921 58.9066H75.0578V58.295H70.4182V58.3231C71.0308 58.5441 71.6559 58.7391 72.2921 58.9066Z" fill="#FFC000"/>
<path d="M67.5859 57.0717H75.7904V56.4601H66.5019C66.8569 56.6737 67.2184 56.8777 67.5859 57.0717Z" fill="#FFC000"/>
<path d="M64.6778 55.2369H74.3253V54.6253H64.0691V54.7675C64.2692 54.9274 64.4722 55.0838 64.6778 55.2369Z" fill="#FFC000"/>
<path d="M62.6407 53.5243H76.8893V52.9127H62.0196C62.2227 53.1206 62.4297 53.3245 62.6407 53.5243Z" fill="#FFC000"/>
<path d="M61.0131 51.8118H77.3777V51.2002H60.5084C60.6731 51.4071 60.8413 51.611 61.0131 51.8118Z" fill="#FFC000"/>
<path d="M85.5582 58.3231C84.9455 58.5441 84.3204 58.7391 83.6842 58.9066H80.9185V58.295H85.5582V58.3231Z" fill="#FFC000"/>
<path d="M88.3904 57.0717H80.1859V56.4601H89.4744C89.1194 56.6737 88.7579 56.8777 88.3904 57.0717Z" fill="#FFC000"/>
<path d="M91.2985 55.2369H81.6511V54.6253H91.9072V54.7675C91.7071 54.9273 91.5041 55.0838 91.2985 55.2369Z" fill="#FFC000"/>
<path d="M93.3356 53.5243H79.087V52.9127H93.9567C93.7536 53.1206 93.5465 53.3245 93.3356 53.5243Z" fill="#FFC000"/>
<path d="M94.9632 51.8118H78.5986V51.2002H95.4678C95.3032 51.4071 95.1349 51.611 94.9632 51.8118Z" fill="#FFC000"/>
<path d="M58.3262 56.6891C58.4151 56.7903 58.4953 56.8692 58.5668 56.9258L58.1262 57.3144C58.0163 57.2264 57.898 57.1103 57.7714 56.9662C57.6986 56.8834 57.6414 56.806 57.5998 56.7339C57.5582 56.6617 57.5224 56.5654 57.4925 56.4448C57.4656 56.3216 57.4871 56.1884 57.5568 56.0452C57.6266 55.9021 57.7456 55.7563 57.9138 55.6079L58.9098 54.7295L58.5905 54.3662L59.0081 53.9979L59.3274 54.3612L59.9745 53.7904L60.415 54.2917L59.7679 54.8625L60.2003 55.3546L59.7826 55.7229L59.3502 55.2308L58.4691 56.008C58.2977 56.1591 58.2061 56.2835 58.1941 56.3811C58.1852 56.4761 58.2292 56.5787 58.3262 56.6891Z" fill="#FFC000"/>
<path d="M60.068 59.0947C59.7368 58.7978 59.5738 58.4626 59.5789 58.0892C59.5841 57.7158 59.7321 57.3663 60.0229 57.0407C60.3109 56.7182 60.6445 56.5377 61.0234 56.4994C61.4051 56.4581 61.757 56.5818 62.0792 56.8706C62.222 56.9986 62.3255 57.1462 62.3897 57.3133C62.4538 57.4804 62.4703 57.6458 62.439 57.8095L62.6958 57.522L63.1927 57.9674L61.293 60.0943L60.7962 59.6489L61.053 59.3613C60.8998 59.4103 60.7293 59.4081 60.5416 59.3549C60.3596 59.3013 60.2018 59.2146 60.068 59.0947ZM60.5364 58.7174C60.74 58.8999 60.9521 58.975 61.1726 58.9425C61.3961 58.9128 61.5948 58.8006 61.7688 58.6058C61.9427 58.4111 62.032 58.2008 62.0368 57.9749C62.0446 57.7518 61.9466 57.5489 61.743 57.3664C61.5516 57.1948 61.3425 57.1224 61.116 57.1494C60.8951 57.1761 60.6964 57.2883 60.5198 57.4861C60.3431 57.6839 60.2524 57.8957 60.2477 58.1216C60.2487 58.3472 60.3449 58.5458 60.5364 58.7174Z" fill="#FFC000"/>
<path d="M62.2039 60.8422L63.866 60.2024L63.7601 58.4524L64.4548 58.9001L64.4547 59.9994L65.4531 59.5434L66.1478 59.9911L64.5144 60.6203L64.6225 62.4008L63.9278 61.9531L63.929 60.8182L62.8986 61.2899L62.2039 60.8422Z" fill="#FFC000"/>
<path d="M67.8802 60.3288C67.7583 60.3811 67.631 60.3807 67.4984 60.3276C67.3658 60.2745 67.2733 60.187 67.2209 60.0649C67.1701 59.9391 67.1704 59.8117 67.2217 59.6829C67.2731 59.554 67.3598 59.4635 67.4817 59.4112C67.6051 59.3551 67.7331 59.3536 67.8657 59.4067C67.9983 59.4598 68.0901 59.5493 68.1409 59.6751C68.1933 59.7972 68.1938 59.9226 68.1424 60.0515C68.091 60.1803 68.0036 60.2728 67.8802 60.3288ZM65.9773 63.2324L67.0339 60.5834L67.6534 60.8314L66.5968 63.4804L65.9773 63.2324Z" fill="#FFC000"/>
<path d="M72.8066 65.5226C72.4537 65.4564 72.1838 65.3125 71.9969 65.0906C71.81 64.8688 71.7409 64.6275 71.7895 64.3668L72.4453 64.4897C72.4228 64.61 72.4566 64.718 72.5467 64.8138C72.6407 64.9103 72.772 64.9743 72.9405 65.0059C73.0648 65.0292 73.1687 65.0175 73.2521 64.9709C73.3355 64.9243 73.3866 64.8508 73.4053 64.7505C73.4353 64.5901 73.3834 64.4786 73.2498 64.4162L72.5649 64.0824C72.1808 63.8942 72.0265 63.5975 72.1022 63.1924C72.1456 62.9597 72.2822 62.784 72.512 62.6651C72.7425 62.5423 73.0161 62.5105 73.333 62.5699C73.69 62.6368 73.9477 62.7681 74.1063 62.9639C74.2688 63.1604 74.3258 63.389 74.2771 63.6498L73.6334 63.5291C73.6551 63.4128 73.6278 63.3143 73.5516 63.2336C73.4801 63.1496 73.3681 63.0933 73.2157 63.0648C73.0994 63.043 72.9979 63.053 72.9112 63.0949C72.8252 63.1328 72.7744 63.1938 72.7587 63.278C72.7302 63.4305 72.7917 63.5458 72.9432 63.624L73.575 63.9416C73.7571 64.0339 73.8955 64.1595 73.9904 64.3184C74.086 64.4733 74.1173 64.639 74.0844 64.8155C74.0334 65.0883 73.894 65.2904 73.666 65.4221C73.442 65.5545 73.1556 65.588 72.8066 65.5226Z" fill="#FFC000"/>
<path d="M78.7205 64.4555C78.7185 64.5289 78.7092 64.6512 78.6923 64.8222L76.5754 64.7654C76.5775 64.9899 76.6463 65.1653 76.7817 65.2914C76.9173 65.4134 77.1074 65.4777 77.3521 65.4843C77.6662 65.4927 77.8812 65.3903 77.9971 65.177L78.6701 65.1951C78.6182 65.459 78.4675 65.6734 78.2182 65.8381C77.9731 65.9989 77.6792 66.0747 77.3366 66.0655C76.8879 66.0535 76.5366 65.9094 76.2828 65.6331C76.0289 65.3569 75.9082 64.9883 75.9205 64.5274C75.9327 64.0705 76.0709 63.7109 76.3351 63.4485C76.6034 63.1822 76.9558 63.0549 77.3923 63.0666C77.8002 63.0776 78.1251 63.2128 78.3672 63.4724C78.6134 63.7281 78.7312 64.0557 78.7205 64.4555ZM76.589 64.2575L78.0696 64.2972C78.0714 64.0768 78.0107 63.9058 77.8874 63.7841C77.7682 63.6625 77.5944 63.5987 77.366 63.5925C77.1335 63.5863 76.9482 63.6446 76.8102 63.7674C76.6723 63.8903 76.5985 64.0536 76.589 64.2575Z" fill="#FFC000"/>
<path d="M81.5764 65.7687L81.0366 62.9676L81.6916 62.8409L81.7958 63.3819C81.8076 63.1843 81.8743 63.0238 81.996 62.9005C82.1169 62.7732 82.2614 62.6933 82.4297 62.6608C82.5378 62.6398 82.6255 62.6312 82.6927 62.6348L82.8085 63.2359C82.7389 63.2411 82.652 63.2537 82.5478 63.2739C82.3155 63.3188 82.1498 63.4402 82.0509 63.6381C81.9511 63.832 81.9317 64.0872 81.9927 64.4038L82.2314 65.6421L81.5764 65.7687Z" fill="#FFC000"/>
<path d="M86.089 64.6962L83.9732 62.4199L84.648 62.1805L86.0449 63.7635L86.136 61.6525L86.8108 61.4131L86.5966 64.5161L86.089 64.6962Z" fill="#FFC000"/>
<path d="M88.9785 59.7159C88.94 59.843 88.8579 59.9403 88.732 60.0077C88.6062 60.0752 88.4798 60.0897 88.3529 60.0512C88.224 60.0092 88.1269 59.9269 88.0616 59.8045C87.9962 59.6821 87.9827 59.5573 88.0212 59.4302C88.0578 59.2995 88.139 59.2004 88.2648 59.1329C88.3907 59.0655 88.518 59.0528 88.6469 59.0948C88.7738 59.1333 88.8699 59.2137 88.9353 59.3361C89.0007 59.4585 89.0151 59.5851 88.9785 59.7159ZM89.9726 63.0451L88.6286 60.5286L89.2165 60.2134L90.5605 62.7299L89.9726 63.0451Z" fill="#FFC000"/>
<path d="M93.6305 60.8702C93.2827 61.134 92.924 61.2344 92.5543 61.1715C92.1855 61.1029 91.8657 60.8895 91.5951 60.5313C91.3245 60.1731 91.2075 59.8084 91.2442 59.4374C91.2817 59.0607 91.4744 58.7404 91.8222 58.4767C92.1342 58.24 92.4448 58.13 92.7539 58.1466C93.0638 58.1575 93.3314 58.2849 93.5567 58.529L93.0252 58.932C92.7674 58.7126 92.4857 58.7188 92.1802 58.9505C91.9916 59.0935 91.8917 59.2691 91.8804 59.4775C91.8698 59.6801 91.9519 59.897 92.1266 60.1282C92.3013 60.3595 92.4886 60.4991 92.6886 60.5473C92.8893 60.5897 93.084 60.5394 93.2725 60.3964C93.5748 60.1671 93.6634 59.9054 93.5382 59.611L94.0697 59.208C94.238 59.485 94.2841 59.7727 94.208 60.0712C94.1351 60.3672 93.9426 60.6336 93.6305 60.8702Z" fill="#FFC000"/>
<path d="M96.8836 55.6963C96.9367 55.7471 97.0209 55.8362 97.1362 55.9636L95.6747 57.4956C95.8424 57.645 96.0184 57.7118 96.2026 57.6961C96.3838 57.6776 96.5589 57.5798 96.7279 57.4027C96.9447 57.1754 97.0131 56.9471 96.9329 56.7178L97.3975 56.2308C97.5582 56.4467 97.6159 56.7025 97.5707 56.9982C97.5254 57.2881 97.3845 57.557 97.1479 57.805C96.8382 58.1297 96.4959 58.2933 96.1211 58.2959C95.7463 58.2985 95.3924 58.1403 95.0593 57.8214C94.7291 57.5052 94.5555 57.161 94.5383 56.7887C94.5211 56.4107 94.6631 56.0637 94.9644 55.7479C95.246 55.4527 95.5641 55.3026 95.9187 55.2976C96.2731 55.2867 96.5947 55.4197 96.8836 55.6963ZM95.3077 57.1442L96.3299 56.0727C96.1679 55.9232 96.0005 55.8533 95.8277 55.8629C95.6578 55.8696 95.4939 55.9556 95.3362 56.1209C95.1757 56.2891 95.0947 56.4657 95.0931 56.6506C95.0916 56.8356 95.1631 57.0001 95.3077 57.1442Z" fill="#FFC000"/>
</svg>
