<svg width="18" height="24" viewBox="0 0 18 24" fill="none" xmlns="http://www.w3.org/2000/svg">
<g clip-path="url(#clip0_365_3099)">
<path d="M14.9999 0.857178H2.99993C2.54527 0.857178 2.10924 1.03779 1.78775 1.35928C1.46626 1.68077 1.28564 2.11681 1.28564 2.57146V21.4286C1.28564 21.8833 1.46626 22.3193 1.78775 22.6408C2.10924 22.9623 2.54527 23.1429 2.99993 23.1429H14.9999C15.4546 23.1429 15.8906 22.9623 16.2121 22.6408C16.5336 22.3193 16.7142 21.8833 16.7142 21.4286V2.57146C16.7142 2.34634 16.6699 2.12342 16.5837 1.91543C16.4976 1.70745 16.3713 1.51847 16.2121 1.35928C16.0529 1.20009 15.8639 1.07382 15.656 0.98767C15.448 0.901519 15.2251 0.857178 14.9999 0.857178Z" stroke="#111111" stroke-width="1.5" stroke-linecap="round" stroke-linejoin="round"/>
<path d="M8.14282 18.8572H9.85711" stroke="#111111" stroke-width="1.5" stroke-linecap="round" stroke-linejoin="round"/>
</g>
<defs>
<clipPath id="clip0_365_3099">
<rect width="18" height="24" fill="white"/>
</clipPath>
</defs>
</svg>
