<svg width="191" height="100" viewBox="0 0 191 100" fill="none" xmlns="http://www.w3.org/2000/svg">
<path d="M114.5 12.5004L114.123 12.8285L114.5 12.5004ZM190.32 96.8848C190.532 96.7082 190.561 96.3929 190.384 96.1806L187.506 92.7213C187.33 92.509 187.015 92.48 186.802 92.6567C186.59 92.8333 186.561 93.1485 186.738 93.3608L189.296 96.4358L186.221 98.994C186.009 99.1706 185.98 99.4859 186.156 99.6981C186.333 99.9104 186.648 99.9394 186.86 99.7627L190.32 96.8848ZM1.16817 12.9712C4.58959 11.7493 9.26153 11.2029 14.8117 11.1537C20.3536 11.1045 26.7328 11.5508 33.5486 12.291C47.1833 13.7718 62.5136 16.4226 76.3203 18.6104C90.0978 20.7936 102.398 22.5233 109.896 22.1304C111.776 22.0319 113.382 21.7993 114.647 21.3943C115.904 20.9918 116.89 20.3974 117.434 19.5259C117.993 18.6316 118.02 17.552 117.584 16.3376C117.153 15.135 116.253 13.7534 114.877 12.1722L114.123 12.8285C115.463 14.3693 116.272 15.6415 116.643 16.6754C117.01 17.6975 116.935 18.4373 116.586 18.9965C116.223 19.5784 115.498 20.0716 114.342 20.442C113.192 20.8099 111.682 21.0355 109.844 21.1318C102.474 21.5179 90.2906 19.8116 76.4768 17.6227C62.6923 15.4385 47.3233 12.7812 33.6566 11.2969C26.8216 10.5546 20.3995 10.1041 14.8028 10.1537C9.21439 10.2033 4.41041 10.7514 0.831833 12.0295L1.16817 12.9712ZM114.877 12.1722C109.421 5.90034 104.753 2.29436 100.959 0.875753C99.0558 0.163895 97.3455 -0.00707523 95.8595 0.34167C94.366 0.692179 93.1454 1.55711 92.2137 2.83001C90.3699 5.34926 89.6526 9.46538 90.0336 14.5068C90.4164 19.57 91.9128 25.6531 94.6 32.1904C105.349 58.3405 135.246 91.9792 189.954 96.9983L190.046 96.0025C135.754 91.0216 106.151 57.6602 95.525 31.8102C92.8684 25.3476 91.404 19.3682 91.0308 14.4314C90.656 9.47276 91.388 5.65138 93.0207 3.42063C93.8273 2.31852 94.8518 1.60533 96.088 1.31522C97.3317 1.02334 98.8358 1.14925 100.609 1.8124C104.169 3.1438 108.704 6.60035 114.123 12.8285L114.877 12.1722Z" fill="#FFC000"/>
</svg>
