<svg width="22" height="22" viewBox="0 0 22 22" fill="none" xmlns="http://www.w3.org/2000/svg">
<path d="M17.0279 0.522178C13.0349 -0.174059 8.88831 -0.174059 4.89529 0.522178C3.12914 0.870297 0.902269 2.81976 0.518325 4.35149C-0.172775 7.34531 -0.172775 10.4088 0.518325 13.4026C0.979058 14.9343 3.20593 16.8838 4.89529 17.2319C4.97208 17.2319 5.04886 17.3015 5.04886 17.3711V21.7574C5.04886 21.9663 5.35602 22.1055 5.5096 21.8967L7.81326 19.7383C7.81326 19.7383 9.65619 17.9977 9.96335 17.7193C9.96335 17.7193 10.0401 17.6496 10.1169 17.6496C12.4206 17.7193 14.801 17.5104 17.1047 17.1623C18.8709 16.8141 21.0977 14.8647 21.4817 13.333C22.1728 10.3391 22.1728 7.27568 21.4817 4.28186C21.0209 2.81976 18.7941 0.870297 17.0279 0.522178ZM17.1047 13.6115C16.7208 14.3077 16.26 14.8647 15.4921 15.2128C15.2618 15.2824 15.0314 15.352 14.801 15.4217C14.4939 15.352 14.2635 15.2824 14.0332 15.2128C11.5759 14.3077 9.27225 13.0545 7.42932 11.2442C6.43107 10.1999 5.58639 9.01628 4.89529 7.76305C4.58813 7.13644 4.28098 6.57945 4.05061 5.95283C3.82024 5.39584 4.20419 4.83885 4.58813 4.42111C4.97207 4.00337 5.43281 3.72487 5.97033 3.516C6.35428 3.30713 6.73822 3.44638 7.04538 3.72487C7.65969 4.42111 8.274 5.11735 8.73473 5.88321C9.04188 6.37057 8.96509 6.92757 8.42757 7.27568C8.27399 7.34531 8.19721 7.41493 8.04363 7.55418C7.96684 7.6238 7.81326 7.69343 7.73647 7.83267C7.58289 8.04154 7.58289 8.25042 7.65968 8.45929C8.27399 10.0606 9.42583 11.3139 11.192 12.0101C11.4991 12.1493 11.7295 12.219 12.1134 12.219C12.651 12.1494 12.8813 11.5924 13.2653 11.3139C13.6492 11.0354 14.1099 11.0354 14.5707 11.2442C14.9546 11.4531 15.3386 11.7316 15.7993 12.0101C16.1832 12.2886 16.5672 12.4975 16.9511 12.776C17.1815 12.9152 17.2583 13.2633 17.1047 13.6115ZM13.8796 8.38967C13.726 8.38967 13.8028 8.38967 13.8796 8.38967C13.5724 8.38967 13.4956 8.25042 13.4188 8.04155C13.4188 7.9023 13.4188 7.69343 13.3421 7.55418C13.2653 7.27569 13.1117 6.99719 12.8045 6.78832C12.651 6.71869 12.4974 6.64907 12.3438 6.57945C12.1134 6.50982 11.9599 6.50982 11.7295 6.50982C11.4991 6.4402 11.4223 6.30095 11.4223 6.09208C11.4223 5.95283 11.6527 5.81359 11.8063 5.81359C13.0349 5.88321 13.9564 6.50982 14.1099 7.83267C14.1099 7.9023 14.1099 8.04155 14.1099 8.11117C14.1099 8.25042 14.0332 8.38967 13.8796 8.38967ZM13.1117 5.32622C12.7277 5.18697 12.3438 5.04772 11.8831 4.9781C11.7295 4.9781 11.4991 4.90848 11.3456 4.90848C11.1152 4.90848 10.9616 4.76923 11.0384 4.56036C11.0384 4.35149 11.192 4.21224 11.4223 4.28186C12.1902 4.35149 12.8813 4.49073 13.5724 4.76923C14.9546 5.39584 15.7225 6.4402 15.9529 7.83267C15.9529 7.9023 15.9529 7.97192 15.9529 8.04155C15.9529 8.18079 15.9529 8.32004 15.9529 8.52891C15.9529 8.59854 15.9529 8.66816 15.9529 8.73779C15.8761 9.01628 15.3386 9.0859 15.2618 8.73779C15.2618 8.66816 15.185 8.52891 15.185 8.45929C15.185 7.83267 15.0314 7.20606 14.7243 6.64907C14.2635 6.02246 13.726 5.60471 13.1117 5.32622ZM17.2583 9.50365C17.0279 9.50365 16.8743 9.29478 16.8743 9.0859C16.8743 8.66816 16.7976 8.25042 16.7208 7.83267C16.4136 5.60471 14.4171 3.7945 12.0367 3.44638C11.6527 3.37675 11.2688 3.37675 10.9616 3.30713C10.7312 3.30713 10.4241 3.30713 10.3473 3.02863C10.2705 2.81976 10.5009 2.61089 10.7312 2.61089C10.808 2.61089 10.8848 2.61089 10.8848 2.61089C11.0384 2.61089 14.0332 2.68052 10.8848 2.61089C14.11 2.68052 16.7976 4.62998 17.3351 7.55418C17.4119 8.04155 17.4887 8.52891 17.4887 9.0859C17.6422 9.29478 17.4887 9.50365 17.2583 9.50365Z" fill="#111111"/>
</svg>
