<svg width="22" height="22" viewBox="0 0 22 22" fill="none" xmlns="http://www.w3.org/2000/svg">
<path d="M18.7805 3.20833C16.7108 1.14583 13.9512 0 11.0383 0C4.98258 0 0.0766539 4.88889 0.0766539 10.9236C0.0766539 12.8333 0.61324 14.7431 1.5331 16.3472L0 22L5.82579 20.4722C7.43554 21.3125 9.1986 21.7708 11.0383 21.7708C17.0941 21.7708 22 16.8819 22 10.8472C21.9233 8.02083 20.8502 5.27083 18.7805 3.20833ZM16.3275 14.8194C16.0976 15.4306 15.0244 16.0417 14.4878 16.1181C14.0279 16.1944 13.4146 16.1944 12.8014 16.0417C12.4181 15.8889 11.8815 15.7361 11.2683 15.4306C8.50871 14.2847 6.74565 11.5347 6.59234 11.3056C6.43903 11.1528 5.44251 9.85417 5.44251 8.47917C5.44251 7.10417 6.1324 6.49305 6.36237 6.1875C6.59233 5.88194 6.89895 5.88194 7.12892 5.88194C7.28223 5.88194 7.51219 5.88194 7.6655 5.88194C7.81881 5.88194 8.04878 5.80555 8.27874 6.34028C8.50871 6.875 9.04529 8.25 9.12195 8.32639C9.1986 8.47917 9.1986 8.63194 9.12195 8.78472C9.04529 8.9375 8.96864 9.09028 8.81533 9.24305C8.66202 9.39583 8.50871 9.625 8.43205 9.70139C8.27874 9.85417 8.12543 10.0069 8.27874 10.2361C8.43205 10.5417 8.96864 11.3819 9.81185 12.1458C10.885 13.0625 11.7282 13.3681 12.0348 13.5208C12.3415 13.6736 12.4948 13.5972 12.6481 13.4444C12.8014 13.2917 13.338 12.6806 13.4913 12.375C13.6446 12.0694 13.8746 12.1458 14.1045 12.2222C14.3345 12.2986 15.7143 12.9861 15.9442 13.1389C16.2509 13.2917 16.4042 13.3681 16.4808 13.4444C16.5575 13.6736 16.5575 14.2083 16.3275 14.8194Z" fill="#111111"/>
</svg>
