<svg width="408" height="288" viewBox="0 0 408 288" fill="none" xmlns="http://www.w3.org/2000/svg">
<path d="M8.07494 228.37C8.79917 224.564 12.1263 221.811 16.0004 221.811H53.5452C60.6492 221.811 66.5725 227.245 67.1828 234.323L68.0048 243.855C68.5949 250.699 68.4881 257.585 67.6859 264.407L66.1956 277.081C65.5652 282.443 61.021 286.484 55.6221 286.484H23.4038C16.2994 286.484 10.3759 281.049 9.76609 273.971L7.24196 244.671C6.77277 239.225 7.05305 233.74 8.07494 228.37V228.37Z" fill="black"/>
<path d="M67.184 228.596C67.7013 225.833 70.1128 223.832 72.923 223.832H95.6623C102.773 223.832 108.7 229.277 109.301 236.362L109.351 236.944C109.922 243.68 109.819 250.457 109.042 257.172L108.611 260.893C107.99 266.264 103.442 270.316 98.0355 270.316H81.7288C74.6173 270.316 68.6903 264.87 68.0895 257.784L66.5996 240.21C66.2707 236.33 66.4673 232.423 67.184 228.596V228.596Z" fill="black"/>
<path d="M297.856 230.111C298.373 227.349 300.785 225.347 303.595 225.347H326.334C333.445 225.347 339.372 230.793 339.973 237.878L340.023 238.46C340.594 245.196 340.491 251.973 339.714 258.688L339.283 262.409C338.662 267.78 334.114 271.832 328.707 271.832H312.4C305.289 271.832 299.362 266.386 298.761 259.3L297.271 241.726C296.942 237.846 297.139 233.939 297.856 230.111V230.111Z" fill="black"/>
<path d="M340.573 228.949C341.226 225.518 343.804 222.775 347.188 221.91L402.986 207.663V247.354C402.986 253.219 402.477 259.074 401.465 264.851L398.953 279.191C398.06 284.284 393.637 288 388.466 288H355.723C348.619 288 342.695 282.565 342.085 275.487L339.643 247.137C339.12 241.061 339.432 234.941 340.573 228.949V228.949Z" fill="black"/>
<g filter="url(#filter0_i_168_843)">
<path d="M162.588 0C160.086 0 157.958 1.81949 157.577 4.28437L153.556 30.3305C169.389 29.1147 186.354 28.3781 201.838 28.7998C218.67 28.3414 237.25 29.2517 254.226 30.6585L250.155 4.28437C249.774 1.81949 247.646 0 245.144 0H162.588Z" fill="#FFC000"/>
</g>
<path d="M254.226 30.6585C220.826 27.8908 186.976 27.7643 153.556 30.3305L153.768 28.9611C187.048 26.417 220.753 26.5428 254.014 29.2878L254.226 30.6585Z" fill="black"/>
<path d="M170.913 8.09272C170.913 6.69275 172.048 5.55786 173.448 5.55786H234.284C235.684 5.55786 236.819 6.69275 236.819 8.09272V20.7072C236.819 22.1072 235.684 23.2421 234.284 23.2421H173.448C172.048 23.2421 170.913 22.1072 170.913 20.7072V8.09272Z" fill="black"/>
<path d="M180.106 11.021V8.4231H190.428V11.021H186.856V20.2991H183.678V11.021H180.106Z" fill="#FFC000"/>
<path d="M195.677 20.2991H192.198L196.118 8.4231H200.525L204.445 20.2991H200.965L198.368 11.6936H198.275L195.677 20.2991ZM195.027 15.6137H201.569V18.026H195.027V15.6137Z" fill="#FFC000"/>
<path d="M211.494 8.4231L213.443 11.8792H213.535L215.507 8.4231H219.102L215.553 14.3611L219.241 20.2991H215.553L213.535 16.7734H213.443L211.425 20.2991H207.76L211.401 14.3611L207.876 8.4231H211.494Z" fill="#FFC000"/>
<path d="M226.166 8.4231V20.2991H222.942V8.4231H226.166Z" fill="#FFC000"/>
<path d="M64.4095 96.5099C59.6687 108.322 8.30927 103.597 8.30927 93.36C8.3091 87.0601 25.3962 80.5634 38.3348 78.3978C51.2734 76.2322 60.0637 79.579 64.4095 96.5099Z" fill="#FFC000"/>
<path opacity="0.1" d="M64.4095 96.5099C59.6687 108.322 8.30927 103.597 8.30927 93.36C19.3713 97.2974 49.3968 98.8723 64.4095 96.5099Z" fill="black"/>
<path d="M8.30927 93.36C8.30927 103.323 56.9524 108.065 63.9297 97.4243C64.2985 96.862 64.3202 96.1503 64.1412 95.5021C59.7075 79.4462 51.0125 76.2759 38.3348 78.3978C25.3962 80.5634 8.3091 87.0601 8.30927 93.36Z" stroke="#E6A500" stroke-width="0.304182"/>
<path d="M343.417 96.5099C348.158 108.322 399.517 103.597 399.517 93.36C399.518 87.0601 382.431 80.5634 369.492 78.3978C356.553 76.2322 347.763 79.579 343.417 96.5099Z" fill="#FFC000"/>
<path opacity="0.1" d="M343.417 96.5099C348.158 108.322 399.517 103.597 399.517 93.36C388.455 97.2974 358.43 98.8723 343.417 96.5099Z" fill="black"/>
<path d="M399.517 93.36C399.517 103.323 350.874 108.065 343.897 97.4243C343.528 96.862 343.507 96.1503 343.686 95.5021C348.119 79.4462 356.814 76.2759 369.492 78.3978C382.431 80.5634 399.518 87.0601 399.517 93.36Z" stroke="#E6A500" stroke-width="0.304182"/>
<path d="M34.6719 261.979C25.1408 261.373 24.4479 254.821 25.2929 251.621L62.0481 229.39L265.09 223.326L384.735 249.347C383.924 256.623 382.961 261.221 381.186 261.221H272.188C266.509 261.221 259.851 258.358 257.232 256.926H149.754C142.657 259.958 134.798 260.9 131.503 260.969C103.197 261.558 44.2029 262.585 34.6719 261.979Z" fill="#000007"/>
<path d="M63.8226 253.137C61.5919 253.945 29.0951 253.473 13.1255 253.137C10.0836 250.021 4 234.038 4 195.031C4 156.025 10.3371 137.684 12.365 133.137C17.1812 123.537 27.5741 110.046 50.8948 104.589C65.8504 80.5892 83.8479 39.1577 103.113 36.3787C121.279 33.4313 166.89 27.7892 204 28.7998C241.11 27.7892 286.721 33.4316 304.887 36.379C324.152 39.1579 342.15 80.5895 357.105 104.589C380.426 110.046 390.819 123.537 395.635 133.137C397.663 137.684 404 156.025 404 195.032C404 234.038 397.916 250.021 394.875 253.137C378.905 253.474 346.408 253.945 344.177 253.137C341.389 252.126 327.447 244.295 312.238 244.295L204 244.295H95.7617C80.5526 244.295 66.6109 252.126 63.8226 253.137Z" fill="#FFC000"/>
<path opacity="0.04" d="M63.8226 253.137C61.5919 253.945 29.0951 253.474 13.1255 253.137C10.0836 250.021 4 234.038 4 195.031C4 188.174 4.19588 181.955 4.52979 176.337C82.4277 176.337 4.01764 191.495 204 191.495C403.982 191.495 325.572 176.337 403.47 176.337C403.804 181.955 404 188.174 404 195.032C404 234.038 397.916 250.021 394.875 253.137C378.905 253.474 346.408 253.945 344.177 253.137C341.389 252.126 327.447 244.295 312.238 244.295L204 244.295H95.7617C80.5526 244.295 66.6109 252.126 63.8226 253.137Z" fill="black"/>
<g filter="url(#filter1_iii_168_843)">
<path d="M345.445 94.4843C279.285 83.6211 132.771 85.8947 66.1039 91.9579C74.2155 74.779 95.8124 41.2801 100.071 39.6632C163.442 24.2527 291.807 32.3874 308.436 39.6632C316.294 43.1015 337.333 77.3054 345.445 94.4843Z" fill="#21214D"/>
</g>
<path d="M344.521 93.7915C278.137 83.1547 133.762 85.3692 66.9929 91.3397C71.1107 82.8086 78.2676 70.6335 84.9821 60.2661C88.451 54.9099 91.7955 50.0459 94.5351 46.4238C95.9056 44.6119 97.1186 43.1187 98.1162 42.0323C98.6152 41.4888 99.0537 41.0543 99.4259 40.7348C99.7885 40.4234 100.056 40.2493 100.234 40.1751C131.847 32.4948 179.702 30.6752 221.769 31.6915C242.803 32.1997 262.374 33.4163 277.722 34.9598C285.396 35.7316 292.009 36.5845 297.218 37.4705C302.444 38.3593 306.209 39.2739 308.221 40.1541C309.114 40.5446 310.246 41.4004 311.577 42.6867C312.899 43.964 314.382 45.6311 315.977 47.6009C319.165 51.5397 322.774 56.6576 326.397 62.2137C333.387 72.9349 340.404 85.2485 344.521 93.7915Z" stroke="black" stroke-width="1.07165"/>
<path opacity="0.2" d="M75.9898 112.422C63.3156 99.0324 54.866 101.306 50.8948 104.59C69.6527 86.1482 326.687 84.8842 357.105 104.59C351.528 101.559 343.924 104.843 336.066 112.422C320.181 127.743 312.492 158.653 289.425 160.169H206.028H122.631C99.564 158.653 91.1592 128.447 75.9898 112.422Z" fill="white"/>
<g filter="url(#filter2_d_168_843)">
<path d="M202.275 126.437L205.824 140.515L205.974 140.518L210.795 126.603L216.674 126.724L208.614 146.021L201.499 145.874L196.395 126.316L202.275 126.437Z" fill="#161616"/>
</g>
<g filter="url(#filter3_d_168_843)">
<path d="M220.73 135.158C220.73 141.222 214.386 146.523 206.028 146.523C197.669 146.523 191.326 141.222 191.326 135.158C191.326 129.093 197.669 123.793 206.028 123.793C214.386 123.793 220.73 129.093 220.73 135.158Z" stroke="#161616" stroke-width="2.02788" shape-rendering="crispEdges"/>
</g>
<g filter="url(#filter4_i_168_843)">
<ellipse cx="32.6121" cy="20.412" rx="32.6121" ry="20.412" transform="matrix(0.921121 -0.389276 0.391509 0.920174 318.052 141.601)" fill="#7B7B7B"/>
</g>
<path d="M385.385 135.305C387.445 140.146 386.216 145.968 382.318 151.534C378.427 157.089 371.94 162.277 363.761 165.734C355.582 169.19 347.33 170.231 340.618 169.156C333.893 168.08 328.841 164.913 326.781 160.072C324.721 155.23 325.949 149.409 329.848 143.843C333.739 138.288 340.226 133.099 348.405 129.643C356.584 126.186 364.836 125.146 371.548 126.22C378.272 127.297 383.325 130.463 385.385 135.305Z" stroke="#202320" stroke-width="1.60159"/>
<path d="M370.142 163.428C382.973 155.886 389.967 144.029 386.122 134.993C381.709 124.62 364.682 121.895 348.091 128.906C344.433 130.452 341.102 132.342 338.178 134.461C340.078 133.344 342.106 132.322 344.246 131.418C360.836 124.406 377.863 127.132 382.277 137.505C385.717 145.591 380.478 155.938 370.142 163.428Z" fill="#202320"/>
<path d="M331.173 141.988L332.07 141.025L332.074 141.021C333.039 140.1 334.188 139.333 335.496 138.78C341.167 136.384 347.665 138.927 350.014 144.449C350.36 145.263 350.597 146.095 350.731 146.931C350.744 147.027 350.758 147.123 350.773 147.218C351.399 151.941 348.782 156.728 344.096 158.753C344.096 158.753 344.096 158.753 344.096 158.753C344.067 158.765 344.039 158.778 344.01 158.79L331.173 141.988ZM331.173 141.988C328.651 145.04 327.865 149.296 329.492 153.121C331.841 158.642 338.339 161.186 344.01 158.79L331.173 141.988ZM360.919 129.399C354.461 132.128 350.567 138.328 350.583 144.797C350.52 144.628 350.454 144.46 350.382 144.292C347.943 138.559 341.206 135.932 335.34 138.411C334.775 138.65 334.239 138.928 333.733 139.239L336.16 136.632L340.74 133.457L345.127 130.873L350.255 128.692L362.656 126.507L373.49 128.27V129.1C369.585 127.646 365.101 127.631 360.919 129.399ZM373.612 159.232C366.632 162.182 358.796 160.047 354.394 154.512C353.533 153.429 352.803 152.216 352.236 150.884C351.717 149.664 351.365 148.415 351.17 147.161C351.157 147.065 351.143 146.969 351.127 146.873C350.166 139.854 354.076 132.726 361.075 129.768C365.256 128.001 369.744 128.058 373.617 129.577C377.476 131.091 380.724 134.056 382.451 138.116C385.911 146.248 381.96 155.704 373.612 159.232ZM351.243 149.305C351.416 149.889 351.624 150.468 351.868 151.041C352.413 152.322 353.106 153.497 353.92 154.555L346.864 157.57C349.466 155.526 351.042 152.496 351.243 149.305Z" fill="#202320" stroke="#202320" stroke-width="0.400398"/>
<path d="M382.266 138.193C385.681 146.22 381.783 155.562 373.533 159.048C365.284 162.535 355.836 158.833 352.421 150.806C349.006 142.78 352.904 133.438 361.154 129.952C369.404 126.465 378.851 130.167 382.266 138.193Z" fill="#FFF1B2" stroke="#202320" stroke-width="0.800796"/>
<path d="M349.829 144.526C352.133 149.942 349.504 156.25 343.931 158.605C338.358 160.961 331.981 158.459 329.676 153.043C327.372 147.628 330.001 141.32 335.574 138.964C341.148 136.609 347.525 139.111 349.829 144.526Z" fill="#FFF1B2" stroke="#202320" stroke-width="0.800796"/>
<path opacity="0.5" d="M385.385 135.305C387.445 140.146 386.216 145.968 382.318 151.534C378.427 157.089 371.94 162.277 363.761 165.734C355.582 169.19 347.33 170.231 340.618 169.156C333.893 168.08 328.841 164.913 326.781 160.072C324.721 155.23 325.949 149.409 329.848 143.843C333.739 138.288 340.226 133.099 348.405 129.643C356.584 126.186 364.836 125.146 371.548 126.22C378.272 127.297 383.325 130.463 385.385 135.305Z" fill="url(#paint0_linear_168_843)" stroke="#161616" stroke-width="1.60159"/>
<g opacity="0.5" filter="url(#filter5_f_168_843)">
<ellipse cx="16.6011" cy="16.2107" rx="16.6011" ry="16.2107" transform="matrix(0.921121 -0.389277 0.391509 0.920174 345.705 136.046)" fill="#FFC000"/>
</g>
<g opacity="0.5" filter="url(#filter6_f_168_843)">
<ellipse cx="11.3396" cy="11.073" rx="11.3396" ry="11.073" transform="matrix(0.921121 -0.389277 0.391509 0.920174 324.972 143.01)" fill="#FFC000"/>
</g>
<g filter="url(#filter7_i_168_843)">
<ellipse cx="32.6121" cy="20.412" rx="32.6121" ry="20.412" transform="matrix(-0.921121 -0.389277 -0.391509 0.920174 89.9483 141.601)" fill="#7B7B7B"/>
</g>
<path d="M22.615 135.305C20.5551 140.146 21.7835 145.968 25.6821 151.534C29.5732 157.089 36.0602 162.277 44.2392 165.734C52.4181 169.19 60.6703 170.231 67.382 169.156C74.1067 168.08 79.1593 164.913 81.2192 160.072C83.2791 155.23 82.0507 149.409 78.1521 143.843C74.2611 138.288 67.774 133.099 59.5951 129.643C51.4162 126.186 43.164 125.146 36.4522 126.22C29.7275 127.297 24.6749 130.463 22.615 135.305Z" stroke="#202320" stroke-width="1.60159"/>
<path d="M37.8581 163.428C25.0266 155.886 18.0332 144.029 21.8775 134.993C26.2911 124.62 43.3182 121.895 59.9087 128.906C63.5669 130.452 66.8983 132.342 69.822 134.461C67.922 133.344 65.8941 132.322 63.7543 131.418C47.1639 124.406 30.1367 127.132 25.7231 137.505C22.2828 145.591 27.5222 155.938 37.8581 163.428Z" fill="#202320"/>
<path d="M76.8266 141.988L75.9303 141.025L75.9263 141.021C74.9614 140.1 73.8124 139.333 72.5042 138.78C66.833 136.384 60.3353 138.927 57.986 144.449C57.6399 145.263 57.4031 146.095 57.2688 146.931C57.2557 147.027 57.2417 147.123 57.2268 147.218C56.6011 151.94 59.2179 156.728 63.9035 158.753L76.8266 141.988ZM76.8266 141.988C79.3488 145.04 80.1351 149.296 78.5079 153.121C76.1587 158.642 69.6614 161.186 63.9905 158.79L76.8266 141.988ZM63.9043 158.753C63.9043 158.753 63.9043 158.753 63.9043 158.753L63.9043 158.753ZM63.9043 158.753C63.9327 158.765 63.9612 158.777 63.9897 158.79L63.9043 158.753ZM47.0809 129.399C53.5388 132.128 57.4334 138.328 57.4171 144.797C57.4795 144.628 57.5463 144.46 57.6176 144.292C60.0568 138.559 66.7939 135.932 72.6601 138.411C73.225 138.65 73.7615 138.928 74.2674 139.239L71.8403 136.632L67.2596 133.457L62.8728 130.873L57.7446 128.692L45.3443 126.507L34.5098 128.27V129.1C38.4146 127.646 42.8988 127.631 47.0809 129.399ZM54.0804 154.555L61.1355 157.57C58.5339 155.526 56.9579 152.496 56.7567 149.305C56.5837 149.889 56.3758 150.468 56.1321 151.041C55.5869 152.322 54.894 153.497 54.0804 154.555ZM34.3876 159.232C41.3682 162.182 49.2041 160.047 53.6056 154.512C54.467 153.429 55.1971 152.216 55.7637 150.884C56.2826 149.664 56.6348 148.415 56.8305 147.161C56.8433 147.065 56.8574 146.969 56.8728 146.873C57.8339 139.854 53.9245 132.726 46.925 129.768C42.7441 128.001 38.2563 128.058 34.3829 129.577C34.3828 129.577 34.3828 129.577 34.3827 129.577C30.5237 131.091 27.2761 134.056 25.5489 138.116C22.0889 146.248 26.0401 155.704 34.3876 159.232Z" fill="#202320" stroke="#202320" stroke-width="0.400398"/>
<path d="M25.7336 138.193C22.3185 146.22 26.2166 155.562 34.4665 159.048C42.7165 162.535 52.1641 158.833 55.5792 150.806C58.9943 142.78 55.0963 133.438 46.8463 129.952C38.5964 126.465 29.1487 130.167 25.7336 138.193Z" fill="#FFF1B2" stroke="#202320" stroke-width="0.800796"/>
<path d="M58.1709 144.526C55.8667 149.942 58.4955 156.25 64.0688 158.605C69.6421 160.961 76.0194 158.459 78.3235 153.043C80.6277 147.628 77.999 141.32 72.4256 138.964C66.8523 136.609 60.4751 139.111 58.1709 144.526Z" fill="#FFF1B2" stroke="#202320" stroke-width="0.800796"/>
<path opacity="0.5" d="M22.615 135.305C20.5551 140.146 21.7835 145.968 25.6821 151.534C29.5732 157.089 36.0602 162.277 44.2392 165.734C52.4181 169.19 60.6703 170.231 67.382 169.156C74.1067 168.08 79.1593 164.913 81.2192 160.072C83.2791 155.23 82.0507 149.409 78.1521 143.843C74.2611 138.288 67.774 133.099 59.5951 129.643C51.4162 126.186 43.164 125.146 36.4522 126.22C29.7275 127.297 24.6749 130.463 22.615 135.305Z" fill="url(#paint1_linear_168_843)" stroke="#161616" stroke-width="1.60159"/>
<g opacity="0.5" filter="url(#filter8_f_168_843)">
<ellipse cx="16.6011" cy="16.2107" rx="16.6011" ry="16.2107" transform="matrix(-0.921121 -0.389277 -0.391509 0.920174 62.2947 136.046)" fill="#FFC000"/>
</g>
<g opacity="0.5" filter="url(#filter9_f_168_843)">
<ellipse cx="11.3396" cy="11.073" rx="11.3396" ry="11.073" transform="matrix(-0.921121 -0.389277 -0.391509 0.920174 83.0275 143.01)" fill="#FFC000"/>
</g>
<path d="M22.2538 207.557C21.5915 202.87 25.2631 198.719 29.9935 198.878C58.1244 199.823 146.024 202.603 206.028 202.61C266.167 202.618 354.177 199.845 382.754 198.888C387.591 198.726 391.293 203.061 390.451 207.827L389.874 211.089C387.449 224.818 376.027 235.114 362.105 235.846C332.205 237.418 276.073 239.747 206.028 239.747C136.615 239.747 80.7568 237.46 50.5833 235.889C36.2663 235.143 24.6205 224.304 22.6144 210.109L22.2538 207.557Z" fill="#161616"/>
<path d="M27.5742 211.2C27.5742 211.2 136.319 215.233 206.028 215.242C276.132 215.251 385.496 211.2 385.496 211.2" stroke="white" stroke-width="3.04182" stroke-linecap="round" stroke-linejoin="round"/>
<rect x="141.896" y="175.412" width="124.208" height="24.8416" rx="2.02788" fill="white" stroke="black" stroke-width="1.01394"/>
<path d="M158.381 179.791L162.052 191.331H162.193L165.872 179.791H169.431L164.195 194.979H160.057L154.814 179.791H158.381Z" fill="black"/>
<path d="M178.124 194.979H174.682L179.926 179.791H184.064L189.3 194.979H185.859L182.054 183.262H181.936L178.124 194.979ZM177.909 189.009H186.037V191.516H177.909V189.009Z" fill="black"/>
<path d="M210.097 179.791V194.979H207.324L200.716 185.42H200.605V194.979H197.393V179.791H200.212L206.768 189.343H206.901V179.791H210.097Z" fill="black"/>
<path d="M218.126 179.791H221.723L225.186 186.332H225.335L228.798 179.791H232.395L226.855 189.61V194.979H223.666V189.61L218.126 179.791Z" fill="black"/>
<path d="M241.482 194.979H238.041L243.284 179.791H247.422L252.658 194.979H249.217L245.413 183.262H245.294L241.482 194.979ZM241.267 189.009H249.395V191.516H241.267V189.009Z" fill="black"/>
<path d="M63.8226 253.137C61.5919 253.945 29.0951 253.473 13.1255 253.137C10.0836 250.021 4 234.038 4 195.031C4 156.025 10.3371 137.684 12.365 133.137C17.1812 123.537 27.5741 110.046 50.8948 104.589C65.8504 80.5892 83.8479 39.1577 103.113 36.3787C121.279 33.4313 166.89 27.7892 204 28.7998C241.11 27.7892 286.721 33.4316 304.887 36.379C324.152 39.1579 342.15 80.5895 357.105 104.589C380.426 110.046 390.819 123.537 395.635 133.137C397.663 137.684 404 156.025 404 195.032C404 234.038 397.916 250.021 394.875 253.137C378.905 253.474 346.408 253.945 344.177 253.137C341.389 252.126 327.447 244.295 312.238 244.295L95.7617 244.295C80.5526 244.295 66.6109 252.126 63.8226 253.137Z" stroke="#E6A500" stroke-width="0.304182"/>
<path d="M75.9899 112.422C63.3156 99.0323 54.8661 101.306 50.8948 104.59C69.6527 86.1481 326.687 84.8842 357.105 104.59C351.528 101.559 343.924 104.843 336.066 112.422C320.181 127.743 312.492 158.653 289.425 160.169H122.631C99.564 158.653 91.1592 128.447 75.9899 112.422Z" stroke="#E6A500" stroke-width="0.304182"/>
<defs>
<filter id="filter0_i_168_843" x="153.556" y="0" width="103.818" height="33.8068" filterUnits="userSpaceOnUse" color-interpolation-filters="sRGB">
<feFlood flood-opacity="0" result="BackgroundImageFix"/>
<feBlend mode="normal" in="SourceGraphic" in2="BackgroundImageFix" result="shape"/>
<feColorMatrix in="SourceAlpha" type="matrix" values="0 0 0 0 0 0 0 0 0 0 0 0 0 0 0 0 0 0 127 0" result="hardAlpha"/>
<feOffset dx="5.06971" dy="3.5488"/>
<feGaussianBlur stdDeviation="1.57417"/>
<feComposite in2="hardAlpha" operator="arithmetic" k2="-1" k3="1"/>
<feColorMatrix type="matrix" values="0 0 0 0 1 0 0 0 0 1 0 0 0 0 1 0 0 0 0.4 0"/>
<feBlend mode="normal" in2="shape" result="effect1_innerShadow_168_843"/>
</filter>
<filter id="filter1_iii_168_843" x="66.1039" y="30.8978" width="279.341" height="63.5864" filterUnits="userSpaceOnUse" color-interpolation-filters="sRGB">
<feFlood flood-opacity="0" result="BackgroundImageFix"/>
<feBlend mode="normal" in="SourceGraphic" in2="BackgroundImageFix" result="shape"/>
<feColorMatrix in="SourceAlpha" type="matrix" values="0 0 0 0 0 0 0 0 0 0 0 0 0 0 0 0 0 0 127 0" result="hardAlpha"/>
<feOffset dx="76.0868" dy="4.28658"/>
<feComposite in2="hardAlpha" operator="arithmetic" k2="-1" k3="1"/>
<feColorMatrix type="matrix" values="0 0 0 0 0.439216 0 0 0 0 0.415686 0 0 0 0 0.611765 0 0 0 1 0"/>
<feBlend mode="normal" in2="shape" result="effect1_innerShadow_168_843"/>
<feColorMatrix in="SourceAlpha" type="matrix" values="0 0 0 0 0 0 0 0 0 0 0 0 0 0 0 0 0 0 127 0" result="hardAlpha"/>
<feOffset dx="15.003" dy="22.7123"/>
<feComposite in2="hardAlpha" operator="arithmetic" k2="-1" k3="1"/>
<feColorMatrix type="matrix" values="0 0 0 0 0.0509804 0 0 0 0 0.0509804 0 0 0 0 0.223529 0 0 0 1 0"/>
<feBlend mode="normal" in2="effect1_innerShadow_168_843" result="effect2_innerShadow_168_843"/>
<feColorMatrix in="SourceAlpha" type="matrix" values="0 0 0 0 0 0 0 0 0 0 0 0 0 0 0 0 0 0 127 0" result="hardAlpha"/>
<feOffset dy="-3.21494"/>
<feComposite in2="hardAlpha" operator="arithmetic" k2="-1" k3="1"/>
<feColorMatrix type="matrix" values="0 0 0 0 0 0 0 0 0 0 0 0 0 0 0 0 0 0 1 0"/>
<feBlend mode="normal" in2="effect2_innerShadow_168_843" result="effect3_innerShadow_168_843"/>
</filter>
<filter id="filter2_d_168_843" x="196.395" y="126.316" width="20.2788" height="20.7193" filterUnits="userSpaceOnUse" color-interpolation-filters="sRGB">
<feFlood flood-opacity="0" result="BackgroundImageFix"/>
<feColorMatrix in="SourceAlpha" type="matrix" values="0 0 0 0 0 0 0 0 0 0 0 0 0 0 0 0 0 0 127 0" result="hardAlpha"/>
<feOffset dy="1.01394"/>
<feComposite in2="hardAlpha" operator="out"/>
<feColorMatrix type="matrix" values="0 0 0 0 0 0 0 0 0 0 0 0 0 0 0 0 0 0 1 0"/>
<feBlend mode="normal" in2="BackgroundImageFix" result="effect1_dropShadow_168_843"/>
<feBlend mode="normal" in="SourceGraphic" in2="effect1_dropShadow_168_843" result="shape"/>
</filter>
<filter id="filter3_d_168_843" x="190.312" y="122.779" width="31.4322" height="25.7718" filterUnits="userSpaceOnUse" color-interpolation-filters="sRGB">
<feFlood flood-opacity="0" result="BackgroundImageFix"/>
<feColorMatrix in="SourceAlpha" type="matrix" values="0 0 0 0 0 0 0 0 0 0 0 0 0 0 0 0 0 0 127 0" result="hardAlpha"/>
<feOffset dy="1.01394"/>
<feComposite in2="hardAlpha" operator="out"/>
<feColorMatrix type="matrix" values="0 0 0 0 0 0 0 0 0 0 0 0 0 0 0 0 0 0 1 0"/>
<feBlend mode="normal" in2="BackgroundImageFix" result="effect1_dropShadow_168_843"/>
<feBlend mode="normal" in="SourceGraphic" in2="effect1_dropShadow_168_843" result="shape"/>
</filter>
<filter id="filter4_i_168_843" x="311.377" y="125.015" width="75.798" height="63.6839" filterUnits="userSpaceOnUse" color-interpolation-filters="sRGB">
<feFlood flood-opacity="0" result="BackgroundImageFix"/>
<feBlend mode="normal" in="SourceGraphic" in2="BackgroundImageFix" result="shape"/>
<feColorMatrix in="SourceAlpha" type="matrix" values="0 0 0 0 0 0 0 0 0 0 0 0 0 0 0 0 0 0 127 0" result="hardAlpha"/>
<feOffset dx="-13.6135" dy="31.231"/>
<feGaussianBlur stdDeviation="9.16911"/>
<feComposite in2="hardAlpha" operator="arithmetic" k2="-1" k3="1"/>
<feColorMatrix type="matrix" values="0 0 0 0 1 0 0 0 0 0.717647 0 0 0 0 0 0 0 0 1 0"/>
<feBlend mode="normal" in2="shape" result="effect1_innerShadow_168_843"/>
</filter>
<filter id="filter5_f_168_843" x="326.759" y="104.216" width="81.1691" height="80.5688" filterUnits="userSpaceOnUse" color-interpolation-filters="sRGB">
<feFlood flood-opacity="0" result="BackgroundImageFix"/>
<feBlend mode="normal" in="SourceGraphic" in2="BackgroundImageFix" result="shape"/>
<feGaussianBlur stdDeviation="12.0119" result="effect1_foregroundBlur_168_843"/>
</filter>
<filter id="filter6_f_168_843" x="304.417" y="113.654" width="70.6717" height="70.2619" filterUnits="userSpaceOnUse" color-interpolation-filters="sRGB">
<feFlood flood-opacity="0" result="BackgroundImageFix"/>
<feBlend mode="normal" in="SourceGraphic" in2="BackgroundImageFix" result="shape"/>
<feGaussianBlur stdDeviation="12.0119" result="effect1_foregroundBlur_168_843"/>
</filter>
<filter id="filter7_i_168_843" x="7.21136" y="125.015" width="75.798" height="63.6839" filterUnits="userSpaceOnUse" color-interpolation-filters="sRGB">
<feFlood flood-opacity="0" result="BackgroundImageFix"/>
<feBlend mode="normal" in="SourceGraphic" in2="BackgroundImageFix" result="shape"/>
<feColorMatrix in="SourceAlpha" type="matrix" values="0 0 0 0 0 0 0 0 0 0 0 0 0 0 0 0 0 0 127 0" result="hardAlpha"/>
<feOffset dx="-13.6135" dy="31.231"/>
<feGaussianBlur stdDeviation="9.16911"/>
<feComposite in2="hardAlpha" operator="arithmetic" k2="-1" k3="1"/>
<feColorMatrix type="matrix" values="0 0 0 0 1 0 0 0 0 0.717647 0 0 0 0 0 0 0 0 1 0"/>
<feBlend mode="normal" in2="shape" result="effect1_innerShadow_168_843"/>
</filter>
<filter id="filter8_f_168_843" x="0.071825" y="104.216" width="81.1692" height="80.5688" filterUnits="userSpaceOnUse" color-interpolation-filters="sRGB">
<feFlood flood-opacity="0" result="BackgroundImageFix"/>
<feBlend mode="normal" in="SourceGraphic" in2="BackgroundImageFix" result="shape"/>
<feGaussianBlur stdDeviation="12.0119" result="effect1_foregroundBlur_168_843"/>
</filter>
<filter id="filter9_f_168_843" x="32.9114" y="113.654" width="70.6717" height="70.2619" filterUnits="userSpaceOnUse" color-interpolation-filters="sRGB">
<feFlood flood-opacity="0" result="BackgroundImageFix"/>
<feBlend mode="normal" in="SourceGraphic" in2="BackgroundImageFix" result="shape"/>
<feGaussianBlur stdDeviation="12.0119" result="effect1_foregroundBlur_168_843"/>
</filter>
<linearGradient id="paint0_linear_168_843" x1="366.058" y1="124.708" x2="335.57" y2="170.494" gradientUnits="userSpaceOnUse">
<stop stop-color="white"/>
<stop offset="0.206545" stop-color="#FDFF9D"/>
<stop offset="0.861736" stop-color="#9DE2FF"/>
<stop offset="1" stop-color="white"/>
</linearGradient>
<linearGradient id="paint1_linear_168_843" x1="41.9424" y1="124.708" x2="72.4301" y2="170.494" gradientUnits="userSpaceOnUse">
<stop stop-color="white"/>
<stop offset="0.206545" stop-color="#FDFF9D"/>
<stop offset="0.861736" stop-color="#9DE2FF"/>
<stop offset="1" stop-color="white"/>
</linearGradient>
</defs>
</svg>
