<svg width="101" height="100" viewBox="0 0 101 100" fill="none" xmlns="http://www.w3.org/2000/svg">
<path fill-rule="evenodd" clip-rule="evenodd" d="M38.8586 35.1159H38.3572C24.5122 35.1159 13.2858 30.1295 13.2858 23.9731C13.2858 17.8222 24.5122 12.8302 38.3572 12.8302C52.2022 12.8302 63.4286 17.8222 63.4286 23.9731C63.4286 25.9843 62.2363 27.8731 60.1415 29.4943C51.0211 29.5723 43.0929 31.8176 38.8586 35.1215V35.1159Z" fill="white"/>
<path d="M38.9311 35.1159H38.3572C24.5122 35.1159 13.2858 30.1295 13.2858 23.973V57.4016C13.2858 63.5302 24.4286 68.5444 38.3572 68.5444C52.2858 68.5444 63.4286 63.5302 63.4286 57.4016V51.7744C62.5149 51.819 61.5845 51.8413 60.6429 51.8413C46.7979 51.8413 35.5715 46.8493 35.5715 40.6985C35.5715 38.6649 36.7972 36.765 38.9311 35.127V35.1159Z" fill="#FFC000"/>
<path d="M60.0858 18.4072C53.5756 14.3895 45.9975 12.4464 38.3573 12.8358C24.4844 12.8358 13.2858 17.85 13.2858 23.9786C13.2858 27.2658 16.5173 30.2186 21.643 32.3358" stroke="#111111" stroke-width="3" stroke-linecap="round" stroke-linejoin="round"/>
<path d="M21.6429 65.7642C16.5172 63.6471 13.2858 60.6942 13.2858 57.4071V23.9785" stroke="#111111" stroke-width="3" stroke-linecap="round" stroke-linejoin="round"/>
<path d="M21.6429 49.0501C16.5172 46.933 13.2858 43.9801 13.2858 40.693" stroke="#111111" stroke-width="3" stroke-linecap="round" stroke-linejoin="round"/>
<path d="M60.643 51.7857C74.488 51.7857 85.7145 46.7993 85.7145 40.6429C85.7145 34.4864 74.488 29.5 60.643 29.5C46.798 29.5 35.5716 34.4864 35.5716 40.6429C35.5716 46.7993 46.798 51.7857 60.643 51.7857Z" fill="white"/>
<path d="M60.643 51.7856C74.488 51.7856 85.7145 46.7991 85.7145 40.6427V74.0713C85.7145 80.1998 74.5716 85.2141 60.643 85.2141C46.7145 85.2141 35.5716 80.1998 35.5716 74.0713V40.6427C35.5716 46.7991 46.798 51.7856 60.643 51.7856Z" fill="#FFC000"/>
<path d="M60.643 51.7857C74.488 51.7857 85.7144 46.7993 85.7144 40.6429C85.7144 34.4864 74.488 29.5 60.643 29.5C46.798 29.5 35.5716 34.4864 35.5716 40.6429C35.5716 46.7993 46.798 51.7857 60.643 51.7857Z" stroke="#111111" stroke-width="3" stroke-linecap="round" stroke-linejoin="round"/>
<path d="M35.5716 40.6427V74.0713C35.5716 80.1998 46.7145 85.2141 60.643 85.2141C74.5716 85.2141 85.7144 80.1998 85.7144 74.0713V40.6427" stroke="#111111" stroke-width="3" stroke-linecap="round" stroke-linejoin="round"/>
<path d="M85.7144 57.3571C85.7144 63.4856 74.5716 68.4999 60.643 68.4999C46.7145 68.4999 35.5716 63.4856 35.5716 57.3571" stroke="#111111" stroke-width="3" stroke-linecap="round" stroke-linejoin="round"/>
</svg>
