<svg width="101" height="100" viewBox="0 0 101 100" fill="none" xmlns="http://www.w3.org/2000/svg">
<path d="M26.1686 34.3772L13.6315 27.6286V54.9315L44.1858 75.76C46.1145 77.0751 48.3997 77.768 50.7341 77.7456C53.0684 77.7231 55.3398 76.9863 57.2429 75.6343L87.0829 54.7943V25.04L71.62 33.4L60.0029 32.1543C55.7494 31.6991 51.4793 32.8507 48.0315 35.3829C47.952 35.3822 47.8753 35.3539 47.8143 35.3029C46.389 34.0861 44.7129 33.1987 42.9054 32.7039C41.0979 32.209 39.2035 32.1189 37.3572 32.44L26.1629 34.3772H26.1686Z" fill="#FFC000"/>
<path d="M13.6313 27.6287L26.1685 34.3715L37.3685 32.4401C39.2332 32.1174 41.1463 32.2141 42.969 32.7232C44.7916 33.2322 46.478 34.1408 47.9056 35.3829" stroke="#111111" stroke-width="3" stroke-linecap="round" stroke-linejoin="round"/>
<path d="M74.9685 63.0401L57.2428 75.6344C55.3397 76.9864 53.0682 77.7231 50.7339 77.7456C48.3996 77.7681 46.1144 77.0752 44.1856 75.7601L13.6313 54.9315" stroke="#111111" stroke-width="3" stroke-linecap="round" stroke-linejoin="round"/>
<path d="M87.0824 54.8L74.5396 63.3715L55.0767 47.6572L47.9167 52.8629C46.5153 53.8803 44.7738 54.3143 43.0588 54.0734C41.3439 53.8325 39.7893 52.9356 38.7224 51.5715C37.6599 50.2086 37.1669 48.4869 37.3469 46.7682C37.527 45.0494 38.3662 43.4674 39.6881 42.3543L47.1453 36.0858C48.9128 34.5979 50.9629 33.4826 53.1724 32.807C55.3818 32.1314 57.705 31.9094 60.0024 32.1543L71.6196 33.4L87.0824 25.04" stroke="#111111" stroke-width="3" stroke-linecap="round" stroke-linejoin="round"/>
<path d="M55.0767 47.6971C59.7624 51.8686 66.4024 49.7371 68.8709 46.3314" stroke="#111111" stroke-width="3" stroke-linecap="round" stroke-linejoin="round"/>
</svg>
