<svg width="101" height="100" viewBox="0 0 101 100" fill="none" xmlns="http://www.w3.org/2000/svg">
<path d="M27.6429 50.0001V34.9715C27.6875 32.0174 28.3146 29.1012 29.4883 26.3898C30.6619 23.6785 32.359 21.2254 34.4823 19.1711C36.6057 17.1168 39.1135 15.5016 41.8621 14.4182C44.6107 13.3347 47.5461 12.8043 50.5001 12.8572C53.454 12.8043 56.3894 13.3347 59.138 14.4182C61.8866 15.5016 64.3945 17.1168 66.5178 19.1711C68.6411 21.2254 70.3382 23.6785 71.5118 26.3898C72.6855 29.1012 73.3126 32.0174 73.3572 34.9715V50.0001" stroke="#111111" stroke-width="3" stroke-linecap="round" stroke-linejoin="round"/>
<path d="M19.0717 41.4287H24.786C25.5438 41.4287 26.2705 41.7297 26.8063 42.2655C27.3421 42.8014 27.6432 43.5281 27.6432 44.2859V61.4287C27.6432 62.1865 27.3421 62.9132 26.8063 63.449C26.2705 63.9848 25.5438 64.2859 24.786 64.2859H19.0717C17.5562 64.2859 16.1028 63.6838 15.0311 62.6122C13.9595 61.5405 13.3575 60.0871 13.3575 58.5716V47.143C13.3575 45.6275 13.9595 44.174 15.0311 43.1024C16.1028 42.0308 17.5562 41.4287 19.0717 41.4287Z" fill="#FFC000"/>
<path d="M81.9289 64.2859H76.2146C75.4568 64.2859 74.7301 63.9848 74.1943 63.449C73.6585 62.9132 73.3575 62.1865 73.3575 61.4287V44.2859C73.3575 43.5281 73.6585 42.8014 74.1943 42.2655C74.7301 41.7297 75.4568 41.4287 76.2146 41.4287H81.9289C83.4444 41.4287 84.8979 42.0308 85.9695 43.1024C87.0411 44.174 87.6432 45.6275 87.6432 47.143V58.5716C87.6432 60.0871 87.0411 61.5405 85.9695 62.6122C84.8979 63.6838 83.4444 64.2859 81.9289 64.2859Z" fill="#FFC000"/>
<path d="M61.9292 80.0001C64.9603 80.0001 67.8672 78.796 70.0105 76.6527C72.1537 74.5094 73.3578 71.6025 73.3578 68.5715V55.7144" stroke="#111111" stroke-width="3" stroke-linecap="round" stroke-linejoin="round"/>
<path d="M61.9291 80.0002C61.9291 81.8946 61.1766 83.7114 59.837 85.0509C58.4975 86.3905 56.6807 87.143 54.7862 87.143H46.2148C44.3204 87.143 42.5036 86.3905 41.1641 85.0509C39.8245 83.7114 39.072 81.8946 39.072 80.0002C39.072 78.1058 39.8245 76.2889 41.1641 74.9494C42.5036 73.6098 44.3204 72.8573 46.2148 72.8573H54.7862C56.6807 72.8573 58.4975 73.6098 59.837 74.9494C61.1766 76.2889 61.9291 78.1058 61.9291 80.0002Z" fill="#FFC000"/>
<path d="M19.0717 41.4287H24.786C25.5438 41.4287 26.2705 41.7297 26.8063 42.2655C27.3421 42.8014 27.6432 43.5281 27.6432 44.2859V61.4287C27.6432 62.1865 27.3421 62.9132 26.8063 63.449C26.2705 63.9848 25.5438 64.2859 24.786 64.2859H19.0717C17.5562 64.2859 16.1028 63.6838 15.0311 62.6122C13.9595 61.5405 13.3575 60.0871 13.3575 58.5716V47.143C13.3575 45.6275 13.9595 44.174 15.0311 43.1024C16.1028 42.0308 17.5562 41.4287 19.0717 41.4287Z" stroke="#111111" stroke-width="3" stroke-linecap="round" stroke-linejoin="round"/>
<path d="M81.9289 64.2859H76.2146C75.4568 64.2859 74.7301 63.9848 74.1943 63.449C73.6585 62.9132 73.3575 62.1865 73.3575 61.4287V44.2859C73.3575 43.5281 73.6585 42.8014 74.1943 42.2655C74.7301 41.7297 75.4568 41.4287 76.2146 41.4287H81.9289C83.4444 41.4287 84.8979 42.0308 85.9695 43.1024C87.0411 44.174 87.6432 45.6275 87.6432 47.143V58.5716C87.6432 60.0871 87.0411 61.5405 85.9695 62.6122C84.8979 63.6838 83.4444 64.2859 81.9289 64.2859Z" stroke="#111111" stroke-width="3" stroke-linecap="round" stroke-linejoin="round"/>
<path d="M61.9291 80.0002C61.9291 81.8946 61.1766 83.7114 59.837 85.0509C58.4975 86.3905 56.6807 87.143 54.7862 87.143H46.2148C44.3204 87.143 42.5036 86.3905 41.1641 85.0509C39.8245 83.7114 39.072 81.8946 39.072 80.0002C39.072 78.1058 39.8245 76.2889 41.1641 74.9494C42.5036 73.6098 44.3204 72.8573 46.2148 72.8573H54.7862C56.6807 72.8573 58.4975 73.6098 59.837 74.9494C61.1766 76.2889 61.9291 78.1058 61.9291 80.0002Z" stroke="#111111" stroke-width="3" stroke-linecap="round" stroke-linejoin="round"/>
</svg>
