<svg width="101" height="100" viewBox="0 0 101 100" fill="none" xmlns="http://www.w3.org/2000/svg">
<path d="M50.5 61.4286C56.9137 61.4286 63.0647 58.8808 67.5999 54.3456C72.135 49.8104 74.6829 43.6594 74.6829 37.2457C74.6829 30.832 72.135 24.681 67.5999 20.1459C63.0647 15.6107 56.9137 13.0629 50.5 13.0629C44.0863 13.0629 37.9353 15.6107 33.4001 20.1459C28.865 24.681 26.3171 30.832 26.3171 37.2457C26.3171 43.6594 28.865 49.8104 33.4001 54.3456C37.9353 58.8808 44.0863 61.4286 50.5 61.4286Z" fill="white"/>
<path d="M85.8146 87.1429C83.4156 79.6621 78.703 73.1364 72.3562 68.5065C66.0094 63.8767 58.3563 61.382 50.5003 61.382C42.6443 61.382 34.9912 63.8767 28.6444 68.5065C22.2976 73.1364 17.585 79.6621 15.186 87.1429H85.8146Z" fill="#FFC000"/>
<path d="M85.8146 87.1429C83.4156 79.6621 78.703 73.1364 72.3562 68.5065C66.0094 63.8767 58.3563 61.382 50.5003 61.382C42.6443 61.382 34.9912 63.8767 28.6444 68.5065C22.2976 73.1364 17.585 79.6621 15.186 87.1429H85.8146Z" stroke="#111111" stroke-width="3" stroke-linecap="round" stroke-linejoin="round"/>
<path d="M50.5 61.4286C56.9137 61.4286 63.0647 58.8808 67.5999 54.3456C72.135 49.8104 74.6829 43.6594 74.6829 37.2457C74.6829 30.832 72.135 24.681 67.5999 20.1459C63.0647 15.6107 56.9137 13.0629 50.5 13.0629C44.0863 13.0629 37.9353 15.6107 33.4001 20.1459C28.865 24.681 26.3171 30.832 26.3171 37.2457C26.3171 43.6594 28.865 49.8104 33.4001 54.3456C37.9353 58.8808 44.0863 61.4286 50.5 61.4286Z" stroke="#111111" stroke-width="3" stroke-linecap="round" stroke-linejoin="round"/>
<path d="M58.3973 46.6C58.3973 46.6 56.3859 50.5485 50.5002 50.5485C44.6145 50.5485 42.603 46.6057 42.603 46.6057" stroke="#111111" stroke-width="3" stroke-linecap="round" stroke-linejoin="round"/>
<path d="M74.2433 32.6401H74.0833C70.7442 32.6432 67.4427 31.9356 64.3983 30.5641C61.3539 29.1926 58.6363 27.1888 56.4262 24.6858C54.2154 27.1895 51.4969 29.1938 48.4514 30.5653C45.4059 31.9368 42.1033 32.644 38.7633 32.6401C34.8251 32.6483 30.948 31.6658 27.489 29.7829C29.1476 24.6858 32.4518 20.2838 36.883 17.2679C41.3142 14.2519 46.6215 12.7929 51.9717 13.1199C57.3219 13.4468 62.4121 15.5412 66.4431 19.0743C70.4741 22.6073 73.2178 27.3789 74.2433 32.6401Z" fill="#FFC000"/>
<path d="M74.2433 32.6401H74.0833C70.7442 32.6432 67.4427 31.9356 64.3983 30.5641C61.3539 29.1926 58.6363 27.1888 56.4262 24.6858C54.2154 27.1895 51.4969 29.1938 48.4514 30.5653C45.4059 31.9368 42.1033 32.644 38.7633 32.6401C34.8251 32.6483 30.948 31.6658 27.489 29.7829C29.1476 24.6858 32.4518 20.2838 36.883 17.2679C41.3142 14.2519 46.6215 12.7929 51.9717 13.1199C57.3219 13.4468 62.4121 15.5412 66.4431 19.0743C70.4741 22.6073 73.2178 27.3789 74.2433 32.6401Z" stroke="#111111" stroke-width="3" stroke-linecap="round" stroke-linejoin="round"/>
</svg>
