<svg width="101" height="100" viewBox="0 0 101 100" fill="none" xmlns="http://www.w3.org/2000/svg">
<path d="M55.7575 85.4857L52.3861 86.8C51.1702 87.2559 49.8305 87.2559 48.6146 86.8L45.2432 85.4857C36.7036 82.1379 29.3687 76.2985 24.1917 68.7267C19.0148 61.155 16.2353 52.201 16.2146 43.0286V27.1429C22.686 28.0652 29.2864 27.225 35.3203 24.7108C41.3543 22.1967 46.5984 18.1017 50.5003 12.8572C57.6432 23.2572 69.4718 28.1715 84.7861 27.1429V43.0286C84.7654 52.201 81.9859 61.155 76.8089 68.7267C71.632 76.2985 64.297 82.1379 55.7575 85.4857Z" fill="#FFC000"/>
<path d="M55.7575 85.4857L52.3861 86.8C51.1702 87.2559 49.8305 87.2559 48.6146 86.8L45.2432 85.4857C36.7036 82.1379 29.3687 76.2985 24.1917 68.7267C19.0148 61.155 16.2353 52.201 16.2146 43.0286V27.1429C22.686 28.0652 29.2864 27.225 35.3203 24.7108C41.3543 22.1967 46.5984 18.1017 50.5003 12.8572C57.6432 23.2572 69.4718 28.1715 84.7861 27.1429V43.0286C84.7653 52.201 81.9859 61.155 76.8089 68.7267C71.632 76.2985 64.297 82.1379 55.7575 85.4857Z" stroke="#111111" stroke-width="3" stroke-linecap="round" stroke-linejoin="round"/>
</svg>
