<svg width="101" height="100" viewBox="0 0 101 100" fill="none" xmlns="http://www.w3.org/2000/svg">
<path d="M84.7863 52.8569H64.7863C64.0286 52.8569 63.3019 53.158 62.766 53.6938C62.2302 54.2296 61.9292 54.9563 61.9292 55.7141V67.1426C61.9292 67.9004 62.2302 68.6271 62.766 69.163C63.3019 69.6988 64.0286 69.9998 64.7863 69.9998H84.7863C85.5441 69.9998 86.2708 69.6988 86.8066 69.163C87.3425 68.6271 87.6435 67.9004 87.6435 67.1426V55.7141C87.6435 54.9563 87.3425 54.2296 86.8066 53.6938C86.2708 53.158 85.5441 52.8569 84.7863 52.8569Z" fill="white"/>
<path fill-rule="evenodd" clip-rule="evenodd" d="M13.3573 38.5713L13.3573 81.4285C13.3573 82.944 13.9593 84.3974 15.031 85.4691C16.1026 86.5407 17.5561 87.1427 19.0716 87.1427H73.3573C74.8728 87.1427 76.3263 86.5407 77.3979 85.4691C78.4695 84.3974 79.0716 82.944 79.0716 81.4285V69.9999H64.7859C64.0281 69.9999 63.3014 69.6989 62.7656 69.1631C62.2297 68.6272 61.9287 67.9005 61.9287 67.1427V55.7142C61.9287 54.9564 62.2297 54.2297 62.7656 53.6939C63.3014 53.1581 64.0281 52.857 64.7859 52.857H79.0716V41.4285C79.0716 40.6781 78.9238 39.935 78.6366 39.2417C78.3494 38.5484 77.9285 37.9185 77.3979 37.3879C76.8673 36.8572 76.2374 36.4363 75.5441 36.1492C74.8508 35.862 74.1077 35.7142 73.3573 35.7142H67.643V21.4285H30.5002C28.2489 21.4285 26.0197 21.8719 23.9399 22.7334C21.86 23.5949 19.9702 24.8576 18.3783 26.4495C15.1634 29.6644 13.3573 34.0248 13.3573 38.5713Z" fill="#FFC000"/>
<path d="M84.7863 52.8569H64.7863C64.0286 52.8569 63.3019 53.158 62.766 53.6938C62.2302 54.2296 61.9292 54.9563 61.9292 55.7141V67.1426C61.9292 67.9004 62.2302 68.6271 62.766 69.163C63.3019 69.6988 64.0286 69.9998 64.7863 69.9998H84.7863C85.5441 69.9998 86.2708 69.6988 86.8066 69.163C87.3425 68.6271 87.6435 67.9004 87.6435 67.1426V55.7141C87.6435 54.9563 87.3425 54.2296 86.8066 53.6938C86.2708 53.158 85.5441 52.8569 84.7863 52.8569Z" stroke="#111111" stroke-width="3.33333" stroke-linecap="round" stroke-linejoin="round"/>
<path d="M79.0716 69.9999V81.4285C79.0716 82.1789 78.9238 82.9219 78.6366 83.6152C78.3494 84.3085 77.9285 84.9385 77.3979 85.4691C76.8673 85.9997 76.2373 86.4206 75.5441 86.7078C74.8508 86.9949 74.1077 87.1427 73.3573 87.1427H19.0716C17.5561 87.1427 16.1026 86.5407 15.031 85.4691C13.9593 84.3974 13.3573 82.944 13.3573 81.4285L13.3573 38.5713C13.3573 34.0248 15.1634 29.6644 18.3783 26.4495C21.5932 23.2346 25.9536 21.4285 30.5002 21.4285H67.643V35.7142" stroke="#111111" stroke-width="3.33333" stroke-linecap="round" stroke-linejoin="round"/>
<path d="M79.0715 52.857V41.4284C79.0715 40.678 78.9237 39.9349 78.6366 39.2416C78.3494 38.5483 77.9285 37.9184 77.3979 37.3878C76.8673 36.8572 76.2373 36.4363 75.544 36.1491C74.8507 35.8619 74.1077 35.7141 73.3573 35.7141H30.5001" stroke="#111111" stroke-width="3.33333" stroke-linecap="round" stroke-linejoin="round"/>
</svg>
