<svg width="101" height="100" viewBox="0 0 101 100" fill="none" xmlns="http://www.w3.org/2000/svg">
<path d="M64.7854 81.4285V71.4285H64.7168C60.5054 74.2306 55.5581 75.7219 50.4997 75.7142C45.2425 75.7142 40.3511 74.137 36.2825 71.4285H36.214V81.4285C36.214 82.944 36.816 84.3974 37.8877 85.4691C38.9593 86.5407 40.4127 87.1427 41.9283 87.1427H59.0711C60.5866 87.1427 62.0401 86.5407 63.1117 85.4691C64.1834 84.3974 64.7854 82.944 64.7854 81.4285Z" fill="#FFC000"/>
<path d="M50.5 75.7145C57.3199 75.7145 63.8604 73.0053 68.6828 68.1829C73.5051 63.3606 76.2143 56.82 76.2143 50.0002C76.2143 43.1803 73.5051 36.6398 68.6828 31.8174C63.8604 26.9951 57.3199 24.2859 50.5 24.2859C43.6802 24.2859 37.1396 26.9951 32.3173 31.8174C27.4949 36.6398 24.7857 43.1803 24.7857 50.0002C24.7857 56.82 27.4949 63.3606 32.3173 68.1829C37.1396 73.0053 43.6802 75.7145 50.5 75.7145Z" fill="white"/>
<path d="M64.7854 18.5715V28.5715H64.7168C60.5054 25.7693 55.5581 24.278 50.4997 24.2857C45.2425 24.2857 40.3511 25.8629 36.2825 28.5715H36.214V18.5715C36.214 17.0559 36.816 15.6025 37.8877 14.5309C38.9593 13.4592 40.4127 12.8572 41.9283 12.8572H59.0711C60.5866 12.8572 62.0401 13.4592 63.1117 14.5309C64.1834 15.6025 64.7854 17.0559 64.7854 18.5715Z" fill="#FFC000"/>
<path d="M50.5002 37.8572V50L57.6431 57.1429" stroke="#111111" stroke-width="3" stroke-linecap="round" stroke-linejoin="round"/>
<path d="M50.5 75.7145C57.3199 75.7145 63.8604 73.0053 68.6828 68.1829C73.5051 63.3606 76.2143 56.82 76.2143 50.0002C76.2143 43.1803 73.5051 36.6398 68.6828 31.8174C63.8604 26.9951 57.3199 24.2859 50.5 24.2859C43.6802 24.2859 37.1396 26.9951 32.3173 31.8174C27.4949 36.6398 24.7857 43.1803 24.7857 50.0002C24.7857 56.82 27.4949 63.3606 32.3173 68.1829C37.1396 73.0053 43.6802 75.7145 50.5 75.7145Z" stroke="#111111" stroke-width="3" stroke-linecap="round" stroke-linejoin="round"/>
<path d="M64.7854 28.5715V18.5715C64.7854 17.0559 64.1834 15.6025 63.1117 14.5309C62.0401 13.4592 60.5866 12.8572 59.0711 12.8572H41.9283C41.1778 12.8572 40.4348 13.005 39.7415 13.2922C39.0482 13.5793 38.4183 14.0002 37.8877 14.5309C37.357 15.0615 36.9361 15.6914 36.6489 16.3847C36.3618 17.078 36.214 17.8211 36.214 18.5715V28.5715" stroke="#111111" stroke-width="3" stroke-linecap="round" stroke-linejoin="round"/>
<path d="M64.7854 71.4285V81.4285C64.7854 82.944 64.1834 84.3974 63.1117 85.4691C62.0401 86.5407 60.5866 87.1427 59.0711 87.1427H41.9283C41.1778 87.1427 40.4348 86.9949 39.7415 86.7078C39.0482 86.4206 38.4183 85.9997 37.8877 85.4691C37.357 84.9385 36.9361 84.3085 36.6489 83.6152C36.3618 82.9219 36.214 82.1789 36.214 81.4285V71.4285" stroke="#111111" stroke-width="3" stroke-linecap="round" stroke-linejoin="round"/>
</svg>
