<svg width="352" height="615" viewBox="0 0 352 615" fill="none" xmlns="http://www.w3.org/2000/svg">
<path d="M165.321 182.899C169.163 179.855 177.472 171.557 179.97 162.714C197.1 157.909 233.09 146.375 240.006 138.685C240.397 138.251 240.527 137.851 240.417 137.484C242.168 138.685 240.006 150.7 243.609 152.622C227.759 170.644 187.254 180.656 165.321 182.899Z" fill="#CB2B2B"/>
<path d="M133.861 136.763C133.781 140.047 128.425 140.636 144.188 150.94C162.199 162.714 165.321 175.209 165.321 182.899C161.078 184.02 150.24 182.947 140.826 169.683C131.412 156.419 126.817 151.661 125.697 150.94C130.259 148.778 130.788 136.964 133.861 136.763Z" fill="#CB2B2B"/>
<path d="M7.30392 185.542C-2.30194 164.204 3.30148 160.712 7.30392 159.591C2.74115 189.627 49.5698 222.066 87.7531 159.591C89.274 165.518 91.1152 179.15 86.3122 186.263C88.1534 188.345 90.7309 193.904 86.3122 199.479C79.428 210.269 61.0968 231.232 42.8456 228.76C4.09103 207.299 17.6145 208.633 7.40457 185.766C7.37088 185.691 7.33737 185.616 7.30392 185.542Z" fill="#CB2B2B"/>
<path d="M342.549 291.269C344.47 293.752 347.16 299.871 342.549 304.485C350.042 309.098 344.23 324.349 340.388 331.397C335.745 316.659 312.963 292.038 258.978 311.453C258.52 311.036 258.021 310.495 257.537 309.85C255.229 306.772 253.249 301.314 257.537 295.594C256.096 295.674 253.647 294.969 255.376 291.509C255.431 291.399 255.482 291.288 255.53 291.177C285.294 273.427 325.928 283.833 342.549 291.269Z" fill="#CB2B2B"/>
<path d="M179.97 162.714C177.472 171.557 169.163 179.855 165.321 182.899C165.321 175.209 162.199 162.714 144.188 150.94C128.425 140.636 133.781 140.047 133.861 136.763C137.07 136.548 140.535 136.329 144.188 136.112C180.243 133.968 234.537 132.049 240.006 136.893C240.217 137.08 240.355 137.277 240.417 137.484C240.527 137.851 240.397 138.251 240.006 138.685C233.09 146.375 197.1 157.909 179.97 162.714Z" fill="#CB2B2B"/>
<path d="M140.826 169.683C150.24 182.947 161.078 184.02 165.321 182.899C187.254 180.656 227.759 170.644 243.609 152.622C250.512 154.302 264.578 159.841 276.096 170.163C309.614 163.996 371.367 217.5 342.549 291.269C325.928 283.833 285.294 273.427 255.53 291.177C255.482 291.288 255.431 291.399 255.376 291.509C253.647 294.969 256.096 295.674 257.537 295.594C253.249 301.314 255.229 306.772 257.537 309.85C258.021 310.495 258.52 311.036 258.978 311.453L260.86 378.731C263.707 379.996 264.243 382.558 264.021 383.78C179.873 454.329 116.411 431.598 95.1976 411.413C93.0844 407.376 94.3171 405.246 95.1976 404.685C77.715 363.163 75.1054 297.356 75.9859 269.643C75.2891 264.375 74.53 259.242 73.4003 254.745C72.2072 249.995 70.601 245.954 68.2185 243.211C67.2592 242.107 66.174 241.213 64.9392 240.568C56.1275 235.966 48.8575 232.089 42.8456 228.76C61.0968 231.232 79.428 210.269 86.3122 199.479C90.7309 193.904 88.1534 188.345 86.3122 186.263C91.1152 179.15 89.274 165.518 87.7531 159.591C49.5698 222.066 2.74115 189.627 7.30392 159.591C31.3987 157.188 82.5179 151.325 94.2371 147.096C105.956 142.866 120.093 147.897 125.697 150.94C126.817 151.661 131.412 156.419 140.826 169.683Z" fill="#CB2B2B"/>
<path d="M165.321 182.899C169.163 179.855 177.472 171.557 179.97 162.714C197.1 157.909 233.09 146.375 240.006 138.685C240.397 138.251 240.527 137.851 240.417 137.484M165.321 182.899C165.321 175.209 162.199 162.714 144.188 150.94C128.425 140.636 133.781 140.047 133.861 136.763M165.321 182.899C161.078 184.02 150.24 182.947 140.826 169.683C131.412 156.419 126.817 151.661 125.697 150.94M165.321 182.899C187.254 180.656 227.759 170.644 243.609 152.622M133.861 136.763C130.788 136.964 130.259 148.778 125.697 150.94M133.861 136.763C137.07 136.548 140.535 136.329 144.188 136.112C180.243 133.968 234.537 132.049 240.006 136.893C240.217 137.08 240.355 137.277 240.417 137.484M125.697 150.94C120.093 147.897 105.956 142.866 94.2371 147.096C82.5179 151.325 31.3987 157.188 7.30394 159.591M243.609 152.622C240.006 150.7 242.168 138.685 240.417 137.484M243.609 152.622C250.512 154.302 264.578 159.841 276.096 170.163M285.154 180.255C282.498 176.483 279.402 173.126 276.096 170.163M276.096 170.163C309.614 163.996 371.367 217.5 342.549 291.269M342.549 291.269C344.47 293.752 347.16 299.871 342.549 304.485M342.549 291.269C325.928 283.833 285.294 273.427 255.53 291.177M342.549 304.485C350.042 309.098 344.23 324.349 340.388 331.397C335.745 316.659 312.963 292.038 258.978 311.453M342.549 304.485C338.386 301.121 327.228 294.296 315.893 293.912M258.978 311.453C258.52 311.036 258.021 310.495 257.537 309.85M258.978 311.453L260.86 378.731C263.707 379.996 264.243 382.558 264.021 383.78C179.873 454.329 116.411 431.598 95.1977 411.413C93.0844 407.376 94.3171 405.246 95.1977 404.685C77.715 363.163 75.1054 297.356 75.9859 269.643C75.2891 264.375 74.53 259.242 73.4003 254.745M263.3 233.359C258.416 241.424 255.156 257.974 253.938 269.643M7.30394 159.591C3.30149 160.712 -2.30193 164.204 7.30394 185.542M7.30394 159.591C2.74115 189.627 49.5698 222.066 87.7531 159.591C89.274 165.518 91.1152 179.15 86.3122 186.263M7.30394 185.542C7.33739 185.616 7.37088 185.691 7.40457 185.766M7.30394 185.542C7.33774 185.617 7.37127 185.692 7.40457 185.766M86.3122 186.263C88.1533 188.345 90.7309 193.904 86.3122 199.479C79.428 210.269 61.0968 231.232 42.8457 228.76M86.3122 186.263C79.335 196.595 58.2151 213.079 42.8457 215.578M29.3974 209.09C13.4638 200.929 10.0315 191.648 7.40457 185.766M255.376 291.269C255.427 291.238 255.478 291.207 255.53 291.177M257.537 309.85C255.229 306.772 253.249 301.314 257.537 295.594C256.096 295.674 253.647 294.969 255.376 291.509C255.431 291.399 255.482 291.288 255.53 291.177M257.537 309.85C260.018 305.899 270.217 297.757 291.157 296.795M42.8457 228.76C48.8575 232.089 56.1275 235.966 64.9392 240.568C66.174 241.213 67.2592 242.107 68.2185 243.211C70.601 245.954 72.2073 249.995 73.4003 254.745M42.8457 228.76C4.09103 207.299 17.6145 208.633 7.40457 185.766M255.53 291.177C256.98 287.792 255.097 283.929 253.935 282.378C253.213 281.415 253.24 276.331 253.938 269.643M253.938 269.643C235.286 286.864 189.912 309.963 157.636 264.597M73.4003 254.745C76.6636 259.791 88.9537 267.24 112.008 256.667" stroke="black" stroke-width="0.524459"/>
<path d="M165.321 182.899C169.163 179.855 177.472 171.557 179.97 162.714C197.1 157.909 233.09 146.375 240.006 138.685C240.397 138.251 240.527 137.851 240.417 137.484C242.168 138.685 240.006 150.7 243.609 152.622C227.759 170.644 187.254 180.656 165.321 182.899Z" fill="#CB2B2B"/>
<path d="M165.321 182.899C169.163 179.855 177.472 171.557 179.97 162.714C197.1 157.909 233.09 146.375 240.006 138.685C240.397 138.251 240.527 137.851 240.417 137.484C242.168 138.685 240.006 150.7 243.609 152.622C227.759 170.644 187.254 180.656 165.321 182.899Z" fill="url(#paint0_linear_172_2080)" fill-opacity="0.4"/>
<path d="M133.861 136.763C133.781 140.047 128.425 140.636 144.188 150.94C162.199 162.714 165.321 175.209 165.321 182.899C161.078 184.02 150.239 182.947 140.826 169.683C131.412 156.419 126.817 151.661 125.696 150.94C130.259 148.778 130.787 136.964 133.861 136.763Z" fill="#CB2B2B"/>
<path d="M133.861 136.763C133.781 140.047 128.425 140.636 144.188 150.94C162.199 162.714 165.321 175.209 165.321 182.899C161.078 184.02 150.239 182.947 140.826 169.683C131.412 156.419 126.817 151.661 125.696 150.94C130.259 148.778 130.787 136.964 133.861 136.763Z" fill="url(#paint1_linear_172_2080)" fill-opacity="0.4"/>
<path d="M7.30383 185.542C-2.30206 164.204 3.30139 160.712 7.30383 159.591C2.74103 189.627 49.5697 222.066 87.753 159.591C89.2739 165.518 91.1151 179.15 86.3121 186.263C88.1532 188.345 90.7308 193.904 86.3121 199.479C79.4279 210.269 61.0967 231.232 42.8456 228.76C4.09091 207.299 17.6144 208.633 7.40445 185.766C7.37076 185.691 7.33728 185.616 7.30383 185.542Z" fill="#CB2B2B"/>
<path d="M7.30383 185.542C-2.30206 164.204 3.30139 160.712 7.30383 159.591C2.74103 189.627 49.5697 222.066 87.753 159.591C89.2739 165.518 91.1151 179.15 86.3121 186.263C88.1532 188.345 90.7308 193.904 86.3121 199.479C79.4279 210.269 61.0967 231.232 42.8456 228.76C4.09091 207.299 17.6144 208.633 7.40445 185.766C7.37076 185.691 7.33728 185.616 7.30383 185.542Z" fill="url(#paint2_linear_172_2080)" fill-opacity="0.4"/>
<path d="M179.97 162.714C177.472 171.557 169.163 179.855 165.321 182.899C165.321 175.209 162.199 162.714 144.188 150.94C128.425 140.636 133.781 140.047 133.861 136.763C137.07 136.548 140.535 136.329 144.188 136.112C180.243 133.968 234.536 132.049 240.006 136.893C240.217 137.08 240.355 137.277 240.417 137.484C240.527 137.851 240.397 138.251 240.006 138.685C233.09 146.375 197.1 157.909 179.97 162.714Z" fill="#CB2B2B"/>
<path d="M179.97 162.714C177.472 171.557 169.163 179.855 165.321 182.899C165.321 175.209 162.199 162.714 144.188 150.94C128.425 140.636 133.781 140.047 133.861 136.763C137.07 136.548 140.535 136.329 144.188 136.112C180.243 133.968 234.536 132.049 240.006 136.893C240.217 137.08 240.355 137.277 240.417 137.484C240.527 137.851 240.397 138.251 240.006 138.685C233.09 146.375 197.1 157.909 179.97 162.714Z" fill="url(#paint3_linear_172_2080)" fill-opacity="0.4"/>
<path d="M140.826 169.683C150.239 182.947 161.078 184.02 165.321 182.899C187.254 180.656 227.759 170.644 243.609 152.622C250.512 154.302 264.578 159.841 276.096 170.163C279.401 173.126 282.497 176.483 285.154 180.255L263.3 233.359C258.416 241.424 255.156 257.974 253.938 269.643C235.286 286.864 189.911 309.963 157.636 264.597L112.008 256.667C88.9536 267.24 76.6635 259.791 73.4002 254.745C72.2072 249.995 70.6009 245.954 68.2184 243.211C67.2591 242.107 66.1738 241.213 64.9391 240.568C56.1274 235.966 48.8574 232.089 42.8456 228.76C61.0967 231.232 79.4279 210.269 86.3121 199.479C90.7308 193.904 88.1532 188.345 86.3121 186.263C91.1151 179.15 89.2739 165.518 87.753 159.591C49.5697 222.066 2.74103 189.627 7.30383 159.591C31.3986 157.188 82.5178 151.325 94.237 147.096C105.956 142.866 120.093 147.897 125.696 150.94C126.817 151.661 131.412 156.419 140.826 169.683Z" fill="#CB2B2B"/>
<path d="M140.826 169.683C150.239 182.947 161.078 184.02 165.321 182.899C187.254 180.656 227.759 170.644 243.609 152.622C250.512 154.302 264.578 159.841 276.096 170.163C279.401 173.126 282.497 176.483 285.154 180.255L263.3 233.359C258.416 241.424 255.156 257.974 253.938 269.643C235.286 286.864 189.911 309.963 157.636 264.597L112.008 256.667C88.9536 267.24 76.6635 259.791 73.4002 254.745C72.2072 249.995 70.6009 245.954 68.2184 243.211C67.2591 242.107 66.1738 241.213 64.9391 240.568C56.1274 235.966 48.8574 232.089 42.8456 228.76C61.0967 231.232 79.4279 210.269 86.3121 199.479C90.7308 193.904 88.1532 188.345 86.3121 186.263C91.1151 179.15 89.2739 165.518 87.753 159.591C49.5697 222.066 2.74103 189.627 7.30383 159.591C31.3986 157.188 82.5178 151.325 94.237 147.096C105.956 142.866 120.093 147.897 125.696 150.94C126.817 151.661 131.412 156.419 140.826 169.683Z" fill="url(#paint4_linear_172_2080)" fill-opacity="0.4"/>
<path d="M7.30406 185.542C-2.30181 164.204 3.30161 160.712 7.30406 159.59C2.74127 189.627 49.5699 222.066 87.7532 159.59C89.2742 165.518 91.1153 179.15 86.3123 186.263C88.1535 188.345 90.731 193.904 86.3123 199.478C79.4281 210.269 61.0969 231.231 42.8458 228.76C4.09115 207.299 17.6146 208.633 7.40469 185.766C7.371 185.691 7.33751 185.616 7.30406 185.542Z" fill="#CB2B2B"/>
<path d="M7.30406 185.542C-2.30181 164.204 3.30161 160.712 7.30406 159.59C2.74127 189.627 49.5699 222.066 87.7532 159.59C89.2742 165.518 91.1153 179.15 86.3123 186.263C88.1535 188.345 90.731 193.904 86.3123 199.478C79.4281 210.269 61.0969 231.231 42.8458 228.76C4.09115 207.299 17.6146 208.633 7.40469 185.766C7.371 185.691 7.33751 185.616 7.30406 185.542Z" fill="url(#paint5_linear_172_2080)" fill-opacity="0.3"/>
<path d="M7.30406 185.542C-2.30181 164.204 3.30161 160.712 7.30406 159.59C2.74127 189.627 49.5699 222.066 87.7532 159.59C89.2742 165.518 91.1153 179.15 86.3123 186.263C88.1535 188.345 90.731 193.904 86.3123 199.478C79.4281 210.269 61.0969 231.231 42.8458 228.76C4.09115 207.299 17.6146 208.633 7.40469 185.766C7.371 185.691 7.33751 185.616 7.30406 185.542Z" fill="url(#paint6_linear_172_2080)" fill-opacity="0.3"/>
<path d="M165.321 182.899C169.163 179.855 177.472 171.557 179.97 162.714C197.1 157.909 233.09 146.375 240.006 138.685C240.397 138.251 240.527 137.851 240.417 137.484C242.168 138.685 240.006 150.7 243.609 152.622C227.759 170.644 187.254 180.656 165.321 182.899Z" fill="#CB2B2B"/>
<path d="M165.321 182.899C169.163 179.855 177.472 171.557 179.97 162.714C197.1 157.909 233.09 146.375 240.006 138.685C240.397 138.251 240.527 137.851 240.417 137.484C242.168 138.685 240.006 150.7 243.609 152.622C227.759 170.644 187.254 180.656 165.321 182.899Z" fill="url(#paint7_linear_172_2080)" fill-opacity="0.3"/>
<path d="M165.321 182.899C169.163 179.855 177.472 171.557 179.97 162.714C197.1 157.909 233.09 146.375 240.006 138.685C240.397 138.251 240.527 137.851 240.417 137.484C242.168 138.685 240.006 150.7 243.609 152.622C227.759 170.644 187.254 180.656 165.321 182.899Z" fill="url(#paint8_linear_172_2080)" fill-opacity="0.2"/>
<path d="M133.861 136.763C133.781 140.047 128.425 140.636 144.188 150.94C162.199 162.714 165.321 175.209 165.321 182.899C161.078 184.02 150.239 182.947 140.826 169.683C131.412 156.419 126.817 151.661 125.696 150.94C130.259 148.778 130.787 136.964 133.861 136.763Z" fill="#CB2B2B"/>
<path d="M133.861 136.763C133.781 140.047 128.425 140.636 144.188 150.94C162.199 162.714 165.321 175.209 165.321 182.899C161.078 184.02 150.239 182.947 140.826 169.683C131.412 156.419 126.817 151.661 125.696 150.94C130.259 148.778 130.787 136.964 133.861 136.763Z" fill="url(#paint9_linear_172_2080)" fill-opacity="0.3"/>
<path d="M133.861 136.763C133.781 140.047 128.425 140.636 144.188 150.94C162.199 162.714 165.321 175.209 165.321 182.899C161.078 184.02 150.239 182.947 140.826 169.683C131.412 156.419 126.817 151.661 125.696 150.94C130.259 148.778 130.787 136.964 133.861 136.763Z" fill="url(#paint10_linear_172_2080)" fill-opacity="0.2"/>
<path d="M179.97 162.714C177.472 171.557 169.163 179.855 165.321 182.899C165.321 175.209 162.199 162.714 144.188 150.94C128.425 140.636 133.781 140.047 133.861 136.763C137.07 136.548 140.535 136.329 144.188 136.112C180.243 133.968 234.536 132.049 240.006 136.893C240.217 137.08 240.355 137.277 240.417 137.484C240.527 137.851 240.397 138.251 240.006 138.685C233.09 146.375 197.1 157.909 179.97 162.714Z" fill="#CB2B2B"/>
<path d="M179.97 162.714C177.472 171.557 169.163 179.855 165.321 182.899C165.321 175.209 162.199 162.714 144.188 150.94C128.425 140.636 133.781 140.047 133.861 136.763C137.07 136.548 140.535 136.329 144.188 136.112C180.243 133.968 234.536 132.049 240.006 136.893C240.217 137.08 240.355 137.277 240.417 137.484C240.527 137.851 240.397 138.251 240.006 138.685C233.09 146.375 197.1 157.909 179.97 162.714Z" fill="url(#paint11_linear_172_2080)" fill-opacity="0.3"/>
<path d="M179.97 162.714C177.472 171.557 169.163 179.855 165.321 182.899C165.321 175.209 162.199 162.714 144.188 150.94C128.425 140.636 133.781 140.047 133.861 136.763C137.07 136.548 140.535 136.329 144.188 136.112C180.243 133.968 234.536 132.049 240.006 136.893C240.217 137.08 240.355 137.277 240.417 137.484C240.527 137.851 240.397 138.251 240.006 138.685C233.09 146.375 197.1 157.909 179.97 162.714Z" fill="url(#paint12_linear_172_2080)" fill-opacity="0.2"/>
<path d="M140.826 169.683C150.239 182.947 161.078 184.02 165.321 182.899C187.254 180.656 227.759 170.644 243.609 152.622C250.512 154.302 264.578 159.841 276.096 170.163C279.401 173.126 282.497 176.483 285.154 180.255L263.3 233.359C258.416 241.424 255.156 257.974 253.938 269.643C235.286 286.864 189.911 309.963 157.636 264.597L112.008 256.667C88.9536 267.24 76.6635 259.791 73.4002 254.745C72.2072 249.995 70.6009 245.954 68.2184 243.211C67.2591 242.107 66.1739 241.213 64.9391 240.568C56.1274 235.966 48.8575 232.089 42.8456 228.76C61.0967 231.232 79.4279 210.269 86.3121 199.479C90.7308 193.904 88.1532 188.345 86.3121 186.263C91.1151 179.15 89.274 165.518 87.753 159.591L94.237 147.096C105.956 142.866 120.093 147.897 125.696 150.94C126.817 151.661 131.412 156.419 140.826 169.683Z" fill="#CB2B2B"/>
<path d="M140.826 169.683C150.239 182.947 161.078 184.02 165.321 182.899C187.254 180.656 227.759 170.644 243.609 152.622C250.512 154.302 264.578 159.841 276.096 170.163C279.401 173.126 282.497 176.483 285.154 180.255L263.3 233.359C258.416 241.424 255.156 257.974 253.938 269.643C235.286 286.864 189.911 309.963 157.636 264.597L112.008 256.667C88.9536 267.24 76.6635 259.791 73.4002 254.745C72.2072 249.995 70.6009 245.954 68.2184 243.211C67.2591 242.107 66.1739 241.213 64.9391 240.568C56.1274 235.966 48.8575 232.089 42.8456 228.76C61.0967 231.232 79.4279 210.269 86.3121 199.479C90.7308 193.904 88.1532 188.345 86.3121 186.263C91.1151 179.15 89.274 165.518 87.753 159.591L94.237 147.096C105.956 142.866 120.093 147.897 125.696 150.94C126.817 151.661 131.412 156.419 140.826 169.683Z" fill="url(#paint13_linear_172_2080)" fill-opacity="0.3"/>
<path d="M140.826 169.683C150.239 182.947 161.078 184.02 165.321 182.899C187.254 180.656 227.759 170.644 243.609 152.622C250.512 154.302 264.578 159.841 276.096 170.163C279.401 173.126 282.497 176.483 285.154 180.255L263.3 233.359C258.416 241.424 255.156 257.974 253.938 269.643C235.286 286.864 189.911 309.963 157.636 264.597L112.008 256.667C88.9536 267.24 76.6635 259.791 73.4002 254.745C72.2072 249.995 70.6009 245.954 68.2184 243.211C67.2591 242.107 66.1739 241.213 64.9391 240.568C56.1274 235.966 48.8575 232.089 42.8456 228.76C61.0967 231.232 79.4279 210.269 86.3121 199.479C90.7308 193.904 88.1532 188.345 86.3121 186.263C91.1151 179.15 89.274 165.518 87.753 159.591L94.237 147.096C105.956 142.866 120.093 147.897 125.696 150.94C126.817 151.661 131.412 156.419 140.826 169.683Z" fill="url(#paint14_linear_172_2080)" fill-opacity="0.2"/>
<g opacity="0.2" filter="url(#filter0_f_172_2080)">
<path fill-rule="evenodd" clip-rule="evenodd" d="M86.5944 186.603C95.9825 182.556 104.302 179.792 109.321 179.792C108.299 180.84 107.262 181.901 106.214 182.972C91.0642 198.465 73.7554 216.165 69.2072 232.091C67.966 236.438 65.1332 238.467 61.5903 238.815C54.2642 234.971 48.0783 231.657 42.8455 228.76C61.0967 231.232 79.4279 210.269 86.3121 199.479C90.5086 194.184 88.3947 188.904 86.5944 186.603Z" fill="black"/>
</g>
<path d="M342.549 291.269C344.47 293.752 347.16 299.871 342.549 304.485C350.042 309.098 344.23 324.349 340.388 331.397C335.745 316.659 312.963 292.038 258.978 311.453C258.52 311.036 258.021 310.495 257.537 309.85C255.229 306.772 253.249 301.314 257.537 295.594C256.096 295.674 253.647 294.969 255.376 291.509C255.431 291.399 255.482 291.288 255.53 291.177C285.294 273.427 325.928 283.833 342.549 291.269Z" fill="#CB2B2B"/>
<path d="M342.549 291.269C344.47 293.752 347.16 299.871 342.549 304.485C350.042 309.098 344.23 324.349 340.388 331.397C335.745 316.659 312.963 292.038 258.978 311.453C258.52 311.036 258.021 310.495 257.537 309.85C255.229 306.772 253.249 301.314 257.537 295.594C256.096 295.674 253.647 294.969 255.376 291.509C255.431 291.399 255.482 291.288 255.53 291.177C285.294 273.427 325.928 283.833 342.549 291.269Z" fill="url(#paint15_linear_172_2080)" fill-opacity="0.3"/>
<path d="M342.549 291.269C344.47 293.752 347.16 299.871 342.549 304.485C350.042 309.098 344.23 324.349 340.388 331.397C335.745 316.659 312.963 292.038 258.978 311.453C258.52 311.036 258.021 310.495 257.537 309.85C255.229 306.772 253.249 301.314 257.537 295.594C256.096 295.674 253.647 294.969 255.376 291.509C255.431 291.399 255.482 291.288 255.53 291.177C285.294 273.427 325.928 283.833 342.549 291.269Z" fill="url(#paint16_linear_172_2080)" fill-opacity="0.3"/>
<path d="M342.549 291.269C344.47 293.752 347.16 299.871 342.549 304.485C350.042 309.098 344.23 324.349 340.388 331.397C335.745 316.659 312.963 292.038 258.978 311.453C258.52 311.036 258.021 310.495 257.537 309.85C255.229 306.772 253.249 301.314 257.537 295.594C256.096 295.674 253.647 294.969 255.376 291.509C255.431 291.399 255.482 291.288 255.53 291.177C285.294 273.427 325.928 283.833 342.549 291.269Z" fill="url(#paint17_linear_172_2080)" fill-opacity="0.3"/>
<path d="M285.154 180.255C282.498 176.483 279.402 173.126 276.096 170.163C309.614 163.996 371.367 217.5 342.549 291.269C325.928 283.833 285.294 273.427 255.53 291.177C256.98 287.792 255.097 283.929 253.935 282.378C253.213 281.415 253.24 276.331 253.938 269.643C255.156 257.975 258.416 241.424 263.3 233.359L285.154 180.255Z" fill="#CB2B2B"/>
<path d="M285.154 180.255C282.498 176.483 279.402 173.126 276.096 170.163C309.614 163.996 371.367 217.5 342.549 291.269C325.928 283.833 285.294 273.427 255.53 291.177C256.98 287.792 255.097 283.929 253.935 282.378C253.213 281.415 253.24 276.331 253.938 269.643C255.156 257.975 258.416 241.424 263.3 233.359L285.154 180.255Z" fill="url(#paint18_linear_172_2080)" fill-opacity="0.3"/>
<path d="M285.154 180.255C282.498 176.483 279.402 173.126 276.096 170.163C309.614 163.996 371.367 217.5 342.549 291.269C325.928 283.833 285.294 273.427 255.53 291.177C256.98 287.792 255.097 283.929 253.935 282.378C253.213 281.415 253.24 276.331 253.938 269.643C255.156 257.975 258.416 241.424 263.3 233.359L285.154 180.255Z" fill="url(#paint19_linear_172_2080)" fill-opacity="0.3"/>
<path d="M285.154 180.255C282.498 176.483 279.402 173.126 276.096 170.163C309.614 163.996 371.367 217.5 342.549 291.269C325.928 283.833 285.294 273.427 255.53 291.177C256.98 287.792 255.097 283.929 253.935 282.378C253.213 281.415 253.24 276.331 253.938 269.643C255.156 257.975 258.416 241.424 263.3 233.359L285.154 180.255Z" fill="url(#paint20_linear_172_2080)" fill-opacity="0.3"/>
<path d="M255.376 291.509C253.646 294.969 256.096 295.674 257.537 295.594C253.249 301.314 255.229 306.772 257.537 309.85C258.021 310.495 258.52 311.036 258.978 311.453L260.86 378.895C263.343 380.363 264.22 382.687 264.021 383.78C179.873 454.329 116.411 431.598 95.1976 411.413C93.0844 407.376 94.3171 405.246 95.1976 404.685C77.715 363.163 75.1054 297.356 75.9859 269.643C75.2891 264.375 74.53 259.242 73.4003 254.745C76.6636 259.791 88.9537 267.24 112.008 256.667L157.636 264.597C189.912 309.963 235.286 286.864 253.938 269.643C253.24 276.331 253.213 281.415 253.935 282.378C255.097 283.929 256.98 287.792 255.53 291.177C255.482 291.288 255.431 291.399 255.376 291.509Z" fill="url(#paint21_linear_172_2080)" fill-opacity="0.6"/>
<path d="M255.376 291.269C255.427 291.238 255.478 291.207 255.53 291.177M255.53 291.177C255.482 291.288 255.431 291.399 255.376 291.509C253.646 294.969 256.096 295.674 257.537 295.594C253.249 301.314 255.229 306.772 257.537 309.85C258.021 310.495 258.52 311.036 258.978 311.453L260.86 378.895C263.343 380.363 264.22 382.687 264.021 383.78C179.873 454.329 116.411 431.598 95.1976 411.413C93.0844 407.376 94.3171 405.246 95.1976 404.685C77.715 363.163 75.1054 297.356 75.9859 269.643C75.2891 264.375 74.5299 259.242 73.4003 254.745C76.6636 259.791 88.9537 267.24 112.008 256.667L157.636 264.597C189.912 309.963 235.286 286.864 253.938 269.643C253.24 276.331 253.213 281.415 253.935 282.378C255.097 283.929 256.98 287.792 255.53 291.177Z" stroke="black" stroke-width="0.524459"/>
<ellipse cx="1.28367" cy="1.65808" rx="1.28367" ry="1.65808" transform="matrix(-0.947099 0.320943 0.320602 0.947214 143.424 398.278)" fill="black"/>
<ellipse cx="1.28364" cy="1.65812" rx="1.28364" ry="1.65812" transform="matrix(-0.965888 0.258962 0.258676 0.965964 138.657 380.152)" fill="black"/>
<ellipse cx="1.28364" cy="1.65812" rx="1.28364" ry="1.65812" transform="matrix(-0.965888 0.258962 0.258676 0.965964 134.847 362.638)" fill="black"/>
<ellipse cx="1.2836" cy="1.65817" rx="1.2836" ry="1.65817" transform="matrix(-0.993787 0.111297 0.111167 0.993802 132.011 344.799)" fill="black"/>
<ellipse cx="1.28359" cy="1.65817" rx="1.28359" ry="1.65817" transform="matrix(-0.995213 0.0977263 0.097612 0.995225 129.973 327.08)" fill="black"/>
<ellipse cx="1.28359" cy="1.65818" rx="1.28359" ry="1.65818" transform="matrix(-1 0 0 1 129.29 309.33)" fill="black"/>
<ellipse cx="1.28368" cy="1.65806" rx="1.28368" ry="1.65806" transform="matrix(-0.934017 -0.357229 -0.35686 0.934158 157.133 188.998)" fill="black"/>
<ellipse cx="1.28368" cy="1.65806" rx="1.28368" ry="1.65806" transform="matrix(-0.934017 -0.357229 -0.35686 0.934158 149.839 201.16)" fill="black"/>
<path d="M165.321 182.899C169.163 179.855 177.472 171.557 179.97 162.714C197.1 157.909 233.09 146.375 240.006 138.685C240.397 138.251 240.527 137.851 240.417 137.484C240.355 137.277 240.217 137.08 240.006 136.893C234.536 132.049 180.243 133.968 144.188 136.112C140.535 136.329 137.07 136.548 133.861 136.763C133.781 140.047 128.425 140.636 144.188 150.94C162.199 162.714 165.321 175.209 165.321 182.899Z" fill="black" fill-opacity="0.7"/>
<path d="M133.861 136.763C133.781 140.047 128.425 140.636 144.188 150.94C162.199 162.714 165.321 175.209 165.321 182.899C169.163 179.855 177.472 171.557 179.97 162.714C197.1 157.909 233.09 146.375 240.006 138.685C240.397 138.251 240.527 137.851 240.417 137.484C240.355 137.277 240.217 137.08 240.006 136.893C234.536 132.049 180.243 133.968 144.188 136.112C140.535 136.329 137.07 136.548 133.861 136.763ZM133.861 136.763C130.787 136.964 130.259 148.778 125.696 150.94" stroke="black" stroke-width="0.524459"/>
<path d="M165.321 182.899C169.163 179.855 177.472 171.557 179.97 162.714C197.1 157.909 233.09 146.375 240.006 138.685C240.397 138.251 240.527 137.851 240.417 137.484M165.321 182.899C165.321 175.209 162.199 162.714 144.188 150.94C128.425 140.636 133.781 140.047 133.861 136.763M165.321 182.899C161.078 184.02 150.24 182.947 140.826 169.683C131.412 156.419 126.817 151.661 125.697 150.94M165.321 182.899C187.254 180.656 227.759 170.644 243.609 152.622M165.321 182.899C138.899 203.828 109.741 312.232 157.636 431.576M133.861 136.763C130.788 136.964 130.259 148.778 125.697 150.94M133.861 136.763C137.07 136.548 140.535 136.329 144.188 136.112C180.243 133.968 234.537 132.049 240.006 136.893C240.217 137.08 240.355 137.277 240.417 137.484M125.697 150.94C120.093 147.897 105.956 142.866 94.2371 147.096C82.5179 151.325 31.3987 157.188 7.30394 159.591M243.609 152.622C240.006 150.7 242.168 138.685 240.417 137.484M243.609 152.622C250.512 154.302 264.578 159.841 276.096 170.163M285.154 180.255C282.498 176.483 279.402 173.126 276.096 170.163M276.096 170.163C309.614 163.996 371.367 217.5 342.549 291.269M342.549 291.269C344.47 293.752 347.16 299.871 342.549 304.485M342.549 291.269C325.928 283.833 285.294 273.427 255.53 291.177M342.549 304.485C350.042 309.098 344.23 324.349 340.388 331.397C335.745 316.659 312.963 292.038 258.978 311.453M342.549 304.485C338.386 301.121 327.228 294.296 315.893 293.912M258.978 311.453C258.52 311.036 258.021 310.495 257.537 309.85M258.978 311.453L260.86 378.733C263.444 380.187 264.227 382.646 264.021 383.78C222.729 418.399 186.418 430.556 157.636 431.576M263.3 233.359C258.416 241.424 255.156 257.974 253.938 269.643M7.30394 159.591C3.30149 160.712 -2.30193 164.204 7.30394 185.542M7.30394 159.591C2.74115 189.627 49.5698 222.066 87.7531 159.591C89.274 165.518 91.1152 179.15 86.3122 186.263M7.30394 185.542C7.33739 185.616 7.37088 185.691 7.40457 185.766M7.30394 185.542C7.33774 185.617 7.37127 185.692 7.40457 185.766M86.3122 186.263C88.1533 188.345 90.7309 193.904 86.3122 199.479C79.428 210.269 61.0968 231.232 42.8457 228.76M86.3122 186.263C79.335 196.595 58.2151 213.079 42.8457 215.578M29.3974 209.09C13.4638 200.929 10.0315 191.648 7.40457 185.766M255.376 291.269C255.427 291.238 255.478 291.207 255.53 291.177M257.537 309.85C255.229 306.772 253.249 301.314 257.537 295.594C256.096 295.674 253.647 294.969 255.376 291.509C255.431 291.399 255.482 291.288 255.53 291.177M257.537 309.85C260.018 305.899 270.217 297.757 291.157 296.795M42.8457 228.76C48.8575 232.089 56.1275 235.966 64.9392 240.568C66.174 241.213 67.2592 242.107 68.2185 243.211C70.601 245.954 72.2073 249.995 73.4003 254.745M42.8457 228.76C4.09103 207.299 17.6145 208.633 7.40457 185.766M255.53 291.177C256.98 287.792 255.097 283.929 253.935 282.378C253.213 281.415 253.24 276.331 253.938 269.643M253.938 269.643C235.286 286.864 189.912 309.963 157.636 264.597M73.4003 254.745C74.53 259.242 75.2891 264.375 75.9859 269.643C75.1054 297.356 77.715 363.163 95.1977 404.685C94.3171 405.246 93.0844 407.376 95.1977 411.413C106.001 421.693 127.764 432.633 157.636 431.576M73.4003 254.745C76.6636 259.791 88.9537 267.24 112.008 256.667" stroke="black" stroke-width="0.530931"/>
<g filter="url(#filter1_ii_172_2080)">
<path d="M223.196 109C219.354 128.223 231.361 141.809 237.845 145.894L205.905 164.396L165.321 182.899L135.062 147.095C138.824 143.812 145.148 134.793 144.188 130.756C144.629 132.101 148.202 136.454 150.672 138.926C157.396 145.654 184.429 142.53 190.296 137.964C191.016 137.404 195.051 134.793 205.425 128.834C215.799 122.874 219.674 110.491 220.314 105.045C220.224 106.802 221.299 108.635 222.941 108.962C223.024 108.979 223.109 108.991 223.196 109Z" fill="#FCE4CB"/>
</g>
<path d="M223.196 109C219.354 128.223 231.361 141.809 237.845 145.894L205.905 164.396L165.321 182.899L135.062 147.095C138.824 143.812 145.148 134.793 144.188 130.756C144.629 132.101 148.202 136.454 150.672 138.926C157.396 145.654 184.429 142.53 190.296 137.964C191.016 137.404 195.051 134.793 205.425 128.834C215.799 122.874 219.674 110.491 220.314 105.045C220.224 106.802 221.299 108.635 222.941 108.962C223.024 108.979 223.109 108.991 223.196 109Z" stroke="black" stroke-width="0.524459"/>
<g opacity="0.6" filter="url(#filter2_f_172_2080)">
<path d="M210.468 133.639C217 132.101 220.715 116.018 221.755 108.169V102.882L185.013 124.749L145.149 123.307C144.988 126.351 144.572 133.735 144.188 138.926C143.53 147.816 172.285 148.777 183.092 146.375C193.065 144.157 202.303 135.562 210.468 133.639Z" fill="#B46A52"/>
</g>
<g filter="url(#filter3_ii_172_2080)">
<path d="M140.345 113.695C136.599 120.567 142.987 125.71 144.188 130.756C144.629 132.102 148.202 136.454 150.672 138.926C157.396 145.654 184.429 142.53 190.296 137.965C191.016 137.404 195.051 134.793 205.425 128.834C215.799 122.875 219.674 110.492 220.314 105.045C220.154 108.169 223.676 111.533 227.518 106.247C227.518 102.882 228.383 100.047 236.644 98.317C239.126 96.7151 242.6 91.8773 236.644 85.3414C249.849 68.6173 214.07 33.2033 190.536 30.3153C170.171 27.8163 150.769 50.2593 152.833 55.5456C157.636 67.8484 151.952 77.9726 148.51 81.4968C145.694 84.3803 144.668 105.766 140.345 113.695Z" fill="#FCE4CB"/>
</g>
<path d="M236.644 85.3414C242.6 91.8773 239.126 96.7151 236.644 98.317C228.383 100.047 227.518 102.882 227.518 106.247C223.676 111.533 220.154 108.169 220.314 105.045C219.674 110.492 215.799 122.875 205.425 128.834C195.051 134.793 191.016 137.404 190.296 137.965C184.429 142.53 157.396 145.654 150.672 138.926C148.202 136.454 144.629 132.102 144.188 130.756C142.987 125.71 136.599 120.567 140.345 113.695C144.668 105.766 145.694 84.3803 148.51 81.4968C151.952 77.9726 157.636 67.8484 152.833 55.5456C150.769 50.2593 170.171 27.8163 190.536 30.3153C214.07 33.2033 249.849 68.6173 236.644 85.3414ZM236.644 85.3414C230.688 78.8056 224.236 85.3414 221.755 89.4263M224.877 98.7976C225.677 98.2369 227.23 96.8753 227.038 95.9141C226.798 94.7127 227.518 87.0474 232.802 89.4263C237.605 91.589 235.844 94.7127 233.282 97.3559" stroke="black" stroke-width="0.524459"/>
<g opacity="0.6" filter="url(#filter4_f_172_2080)">
<path d="M201.633 85.6117C203.384 84.3223 206.012 84.3581 207.106 84.5372C205.191 85.3431 201.25 87.546 200.812 89.9101C187.896 94.8531 183.937 85.8804 183.572 80.7761C186.308 86.6863 199.444 87.2236 201.633 85.6117Z" fill="#EDA790"/>
</g>
<g opacity="0.6" filter="url(#filter5_f_172_2080)">
<path d="M162.48 78.1099C163.572 77.7861 164.833 78.2884 165.327 78.5801C164.248 78.6311 161.925 79.0093 161.261 80.1142C154.083 80.2117 153.89 74.9818 154.691 72.3546C154.88 75.8233 161.115 78.5146 162.48 78.1099Z" fill="#EDA790"/>
</g>
<g opacity="0.5" filter="url(#filter6_f_172_2080)">
<path d="M222.917 67.8684C221.997 68.189 219.959 69.2676 219.163 71.0174C218.169 73.2046 159.156 66.7202 154.514 63.2348C155.595 75.1262 204.455 83.9311 220.404 76.4507C220.534 86.6229 218.442 107.16 214.792 109.851C214.312 110.411 214.024 111.196 216.713 109.851C220.404 108.004 235.203 71.0174 224.397 73.3269C223.72 71.2872 221.787 69.3079 222.917 67.8684Z" fill="#EDA790"/>
</g>
<g opacity="0.6" filter="url(#filter7_f_172_2080)">
<path d="M170.604 136.042C167.667 135.195 148.624 143.304 159.159 115.735C146.429 138.821 142.676 115.009 143.316 113.37C143.329 113.347 143.343 113.325 143.356 113.302C143.341 113.317 143.328 113.34 143.316 113.37C141.212 116.988 142.587 123.496 149.029 132.763C156.932 141.682 174.15 141.682 170.604 136.042Z" fill="#EDA790"/>
</g>
<g opacity="0.8" filter="url(#filter8_f_172_2080)">
<path d="M154.086 100.575C150.291 107.133 155.783 113.869 156.614 112.38C162.364 102.071 161.961 97.9449 161.095 92.1608C158.587 92.0982 155.214 96.3414 154.086 100.575Z" fill="#EDA790"/>
</g>
<g opacity="0.7" filter="url(#filter9_f_172_2080)">
<path d="M179.142 86.9855C178.942 87.4178 178.635 88.5018 179.007 89.3789L178.607 89.7878L177.392 93.8421C175.616 93.8009 161.845 89.4375 161.185 86.1392C158.753 88.1662 161.009 94.1028 170.59 96.2168C171.314 95.4242 175.938 95.9418 177.593 96.2364C179.511 95.7573 181.292 94.1795 180.802 90.2246C179.813 89.7652 179.283 87.8737 179.142 86.9855Z" fill="#EDA790"/>
</g>
<path d="M236.618 85.3413C254.293 73.8074 243.022 54.5843 235.177 46.4145L201.557 27.4316L197.234 34.1597C201.637 35.201 210.106 38.8694 208.761 45.213C207.416 51.5566 210.923 56.6668 212.844 58.6692C210.154 52.71 214.925 48.9775 217.647 47.8562C210.73 56.5066 216.846 66.3584 220.769 70.2031C219.04 58.8614 222.77 54.9047 224.851 54.344C218.607 64.9167 222.37 75.97 225.572 78.8535C224.803 72.1254 229.734 65.4774 232.296 62.9944C231.655 69.2419 226.078 81.4966 221.755 89.4262C227.229 83.3009 231.686 81.2738 236.618 85.3413Z" fill="#C48D4B" stroke="black" stroke-width="0.524459"/>
<path d="M181.891 104.233C178.234 105.174 174.646 105.117 171.325 104.472C168.972 104.016 166.754 103.265 164.739 102.366C163.285 101.716 161.937 100.989 160.721 100.239C159.667 99.5891 158.713 98.922 157.876 98.2737C158.713 98.922 160.905 99.1085 161.959 99.7586C163.174 100.508 163.626 101.272 165.081 101.921C167.095 102.821 169.693 102.186 172.045 102.642C175.366 103.286 178.234 105.174 181.891 104.233Z" fill="#A5544D"/>
<path d="M158.423 100.239C158.262 99.4389 158.059 98.7565 157.876 98.2737C158.713 98.922 159.667 99.5891 160.721 100.239C161.937 100.989 163.285 101.716 164.739 102.366C166.754 103.265 168.972 104.016 171.325 104.472C174.646 105.117 178.234 105.174 181.891 104.233C181.874 104.248 181.858 104.262 181.841 104.276C180.42 105.491 179.124 106.6 171.719 106.41C164.412 106.223 158.562 101.973 158.423 100.239Z" fill="white"/>
<path d="M166.281 111.773C169.736 113.732 174.687 111.644 179.012 108.709C181.903 106.747 184.514 104.407 186.214 102.642C183.092 106.727 173.966 116.579 168.683 117.3C165.218 117.772 152.353 111.292 154.754 108.409C155.987 106.93 156.974 104.712 157.634 102.847C158.295 100.982 157.912 99.4856 157.876 98.2737C158.059 98.7565 158.262 99.4389 158.423 100.239C158.494 101.686 158.587 105.176 158.026 106.841C157.945 107.081 157.926 107.344 158.033 107.573C158.446 108.466 158.8 108.574 159.83 108.888C160.631 109.132 161.843 109.502 163.813 110.464C164.53 110.814 165.347 111.243 166.281 111.773Z" fill="url(#paint22_radial_172_2080)"/>
<path fill-rule="evenodd" clip-rule="evenodd" d="M179.012 108.709C181.903 106.747 184.514 104.407 186.214 102.642C184.77 103.342 183.325 103.865 181.891 104.233C181.874 104.248 181.858 104.262 181.841 104.276C180.42 105.491 179.124 106.6 171.719 106.41C164.412 106.223 158.562 101.973 158.423 100.239C158.494 101.686 158.587 105.176 158.026 106.841C157.945 107.081 157.926 107.344 158.033 107.573C158.446 108.466 158.8 108.574 159.83 108.888C160.631 109.132 161.843 109.502 163.813 110.464C169.733 107.754 176.232 108.441 178.326 108.662C178.738 108.705 178.98 108.731 179.012 108.709Z" fill="#491E1E"/>
<path d="M179.012 108.709C174.687 111.644 169.736 113.732 166.281 111.773C165.347 111.243 164.53 110.814 163.813 110.464C169.733 107.754 176.232 108.441 178.326 108.662C178.738 108.705 178.98 108.731 179.012 108.709Z" fill="#A5544D"/>
<path d="M186.214 102.642C183.092 106.727 173.966 116.579 168.683 117.3C165.218 117.772 152.353 111.292 154.754 108.409C155.987 106.93 156.974 104.712 157.634 102.847C158.295 100.982 157.912 99.4856 157.876 98.2737M186.214 102.642C184.77 103.342 183.325 103.865 181.891 104.233M186.214 102.642C184.514 104.407 181.903 106.747 179.012 108.709M186.214 102.642C186.214 102.373 186.251 102.179 186.306 102.039M186.214 102.642C186.214 103.057 186.299 103.357 186.412 103.572M157.876 98.2737C157.677 98.1195 157.432 97.9487 157.169 97.7713C156.413 97.2615 156.674 96.0996 157.491 95.6954C158.976 94.9606 160.811 93.5297 162.199 90.8679M157.876 98.2737C158.059 98.7565 158.262 99.4389 158.423 100.239M157.876 98.2737C158.713 98.922 159.667 99.5891 160.721 100.239C161.937 100.989 163.285 101.716 164.739 102.366C166.754 103.265 168.972 104.016 171.325 104.472C174.646 105.117 178.234 105.174 181.891 104.233M157.876 98.2737C158.713 98.922 160.905 99.1085 161.959 99.7586C163.174 100.508 163.626 101.272 165.081 101.921C167.095 102.821 169.693 102.186 172.045 102.642C175.366 103.286 178.234 105.174 181.891 104.233M158.423 100.239C158.562 101.973 164.412 106.223 171.719 106.41C179.124 106.6 180.42 105.491 181.841 104.276C181.858 104.262 181.874 104.248 181.891 104.233M158.423 100.239C158.494 101.686 158.587 105.176 158.026 106.841C157.945 107.081 157.926 107.344 158.033 107.573C158.446 108.466 158.8 108.574 159.83 108.888C160.631 109.132 161.843 109.502 163.813 110.464M179.012 108.709C174.687 111.644 169.736 113.732 166.281 111.773C165.347 111.243 164.53 110.814 163.813 110.464M179.012 108.709C178.98 108.731 178.738 108.705 178.326 108.662C176.232 108.441 169.733 107.754 163.813 110.464" stroke="black" stroke-width="0.262229"/>
<path d="M162.417 88.9458C163.601 90.918 165.506 91.776 166.521 91.3487C168.986 90.31 171.225 90.9669 172.765 91.8976C173.504 92.3448 174.082 92.8552 174.445 93.271C174.958 93.8575 175.443 94.1963 175.886 94.3387C178.533 95.1881 179.727 89.047 176.847 86.7832L163.461 80.8684C164.974 79.4281 167.074 77.7428 168.759 75.5979L163.461 80.8684C162.379 81.8978 161.596 82.802 161.478 83.6595C161.173 85.8708 161.639 87.6492 162.417 88.9458Z" fill="#FCE4CB"/>
<path d="M176.847 86.7832C179.727 89.047 178.533 95.1881 175.886 94.3387C175.443 94.1963 174.958 93.8575 174.445 93.271C174.082 92.8552 173.504 92.3448 172.765 91.8976C171.225 90.9669 168.986 90.31 166.521 91.3487C165.506 91.776 163.601 90.918 162.417 88.9458C161.639 87.6492 161.173 85.8708 161.478 83.6595C161.875 80.776 169.787 77.3639 171.324 70.4436" stroke="black" stroke-width="0.262229"/>
<path d="M154.754 71.4047C157.075 74.6887 162.871 79.6226 167.481 73.0868C166.137 65.5897 157.155 65.3975 154.754 71.4047Z" fill="white"/>
<g filter="url(#filter10_i_172_2080)">
<path d="M159.568 75.642C161.513 76.5562 163.716 76.6776 165.801 74.948C166.107 74.3965 166.281 73.762 166.281 73.0868C166.281 70.9635 164.561 69.2422 162.439 69.2422C160.316 69.2422 158.596 70.9635 158.596 73.0868C158.596 74.0677 158.963 74.9628 159.568 75.642Z" fill="#529ED6"/>
</g>
<path d="M154.754 71.4047C157.075 74.6887 162.871 79.6226 167.481 73.0868C166.137 65.5897 157.155 65.3975 154.754 71.4047Z" stroke="black" stroke-width="0.314675"/>
<g filter="url(#filter11_d_172_2080)">
<ellipse cx="1.44088" cy="1.44173" rx="1.44088" ry="1.44173" transform="matrix(-1 0 0 1 164.425 71.5437)" fill="black"/>
</g>
<ellipse cx="0.960718" cy="1.44154" rx="0.960718" ry="1.44154" transform="matrix(-0.876958 0.480567 0.48013 0.877198 162.231 69.9219)" fill="white"/>
<path d="M185.492 80.0553C187.814 83.3392 198.172 88.9163 202.783 82.3804C202.303 74.0481 192.697 66.3588 185.492 80.0553Z" fill="white"/>
<g filter="url(#filter12_i_172_2080)">
<path d="M193.874 85.0572C195.061 85.3438 196.269 85.4761 197.43 85.3829C199.415 84.7922 200.862 82.9532 200.862 80.776C200.862 78.1218 198.711 75.9702 196.059 75.9702C193.406 75.9702 191.256 78.1218 191.256 80.776C191.256 82.6431 192.32 84.2616 193.874 85.0572Z" fill="#529ED6"/>
</g>
<g filter="url(#filter13_d_172_2080)">
<ellipse cx="1.92117" cy="1.92231" rx="1.92117" ry="1.92231" transform="matrix(-1 0 0 1 198.46 78.8538)" fill="black"/>
</g>
<ellipse cx="0.960718" cy="1.44154" rx="0.960718" ry="1.44154" transform="matrix(-0.876958 0.480567 0.48013 0.877198 195.155 77.4121)" fill="white"/>
<path d="M185.492 80.0553C187.814 83.3392 198.172 88.9163 202.783 82.3804C202.303 74.0481 192.697 66.3588 185.492 80.0553Z" stroke="black" stroke-width="0.419567"/>
<path d="M165.32 182.899C169.163 179.855 177.472 171.557 179.969 162.714C197.1 157.909 233.09 146.375 240.006 138.685C240.397 138.251 240.527 137.851 240.417 137.484C242.168 138.685 240.006 150.7 243.608 152.622C228.808 169.451 192.507 179.296 169.906 182.351C168.305 182.568 166.772 182.75 165.32 182.899Z" fill="#CB2B2B"/>
<path d="M133.861 136.763C133.781 140.047 128.425 140.636 144.188 150.94C162.199 162.714 165.32 175.209 165.32 182.899C163.556 183.365 160.651 183.452 157.183 182.44C152.31 181.019 146.325 177.431 140.826 169.683C131.412 156.419 126.817 151.661 125.696 150.94C130.259 148.778 130.787 136.964 133.861 136.763Z" fill="#CB2B2B"/>
<path d="M179.969 162.714L179.717 162.643L179.757 162.502L179.899 162.462L179.969 162.714ZM240.006 138.685L239.811 138.51L240.006 138.685ZM144.188 150.94L144.331 150.721L144.188 150.94ZM140.826 169.683L140.612 169.834L140.826 169.683ZM125.696 150.94L125.554 151.161L125.157 150.905L125.584 150.703L125.696 150.94ZM243.608 152.622L243.732 152.391L244.024 152.547L243.805 152.795L243.608 152.622ZM157.183 182.44L157.256 182.188L157.183 182.44ZM169.906 182.351L169.871 182.091L169.906 182.351ZM165.158 182.693C167.064 181.183 170.088 178.361 172.945 174.816C175.804 171.27 178.482 167.017 179.717 162.643L180.222 162.786C178.96 167.255 176.234 171.572 173.353 175.146C170.471 178.721 167.419 181.57 165.483 183.104L165.158 182.693ZM179.899 162.462C188.459 160.06 201.732 155.977 213.727 151.535C219.725 149.314 225.399 147.005 230.002 144.772C234.618 142.534 238.12 140.39 239.811 138.51L240.201 138.861C238.434 140.825 234.844 143.007 230.231 145.244C225.606 147.487 219.915 149.803 213.909 152.027C201.897 156.476 188.61 160.563 180.04 162.967L179.899 162.462ZM134.123 136.769C134.102 137.651 133.722 138.368 133.468 139.011C133.211 139.663 133.05 140.297 133.332 141.135C133.621 141.994 134.387 143.1 136.089 144.645C137.788 146.188 140.395 148.148 144.331 150.721L144.044 151.16C140.099 148.58 137.465 146.603 135.737 145.034C134.013 143.468 133.167 142.289 132.835 141.303C132.496 140.295 132.703 139.522 132.98 138.819C133.261 138.106 133.581 137.517 133.599 136.757L134.123 136.769ZM144.331 150.721C162.415 162.542 165.583 175.119 165.583 182.899H165.058C165.058 175.299 161.982 162.886 144.044 151.16L144.331 150.721ZM140.612 169.834C135.908 163.206 132.41 158.707 129.95 155.776C128.72 154.311 127.751 153.239 127.021 152.491C126.286 151.736 125.807 151.323 125.554 151.161L125.838 150.72C126.146 150.917 126.661 151.369 127.397 152.125C128.138 152.885 129.116 153.967 130.352 155.439C132.823 158.384 136.33 162.895 141.039 169.531L140.612 169.834ZM125.584 150.703C126.646 150.2 127.501 149.118 128.232 147.719C128.961 146.326 129.545 144.659 130.088 143.033C130.629 141.418 131.132 139.835 131.693 138.647C131.974 138.052 132.278 137.539 132.622 137.164C132.967 136.788 133.369 136.533 133.844 136.501L133.878 137.025C133.585 137.044 133.299 137.202 133.008 137.519C132.717 137.837 132.439 138.296 132.167 138.871C131.623 140.023 131.132 141.565 130.586 143.199C130.043 144.822 129.447 146.527 128.697 147.962C127.95 149.393 127.028 150.599 125.809 151.177L125.584 150.703ZM239.811 138.51C240.172 138.109 240.239 137.802 240.166 137.559L240.668 137.409C240.815 137.9 240.623 138.392 240.201 138.861L239.811 138.51ZM240.166 137.559C240.122 137.412 240.018 137.255 239.832 137.09L240.18 136.697C240.415 136.906 240.588 137.142 240.668 137.409L240.166 137.559ZM240.566 137.268C240.869 137.476 241.045 137.88 241.163 138.335C241.284 138.805 241.359 139.399 241.409 140.066C241.509 141.397 241.517 143.09 241.58 144.773C241.645 146.468 241.766 148.166 242.092 149.555C242.42 150.959 242.939 151.968 243.732 152.391L243.485 152.853C242.477 152.316 241.915 151.102 241.581 149.675C241.243 148.233 241.121 146.491 241.056 144.793C240.991 143.081 240.986 141.425 240.886 140.106C240.837 139.448 240.765 138.891 240.655 138.466C240.542 138.027 240.403 137.792 240.269 137.7L240.566 137.268ZM165.387 183.152C163.57 183.632 160.616 183.715 157.109 182.692L157.256 182.188C160.687 183.189 163.542 183.097 165.253 182.645L165.387 183.152ZM157.109 182.692C152.175 181.253 146.142 177.627 140.612 169.834L141.039 169.531C146.507 177.235 152.445 180.785 157.256 182.188L157.109 182.692ZM165.294 182.638C166.742 182.49 168.272 182.308 169.871 182.091L169.941 182.611C168.337 182.828 166.802 183.011 165.347 183.159L165.294 182.638ZM169.871 182.091C181.155 180.566 195.863 177.345 209.593 172.405C223.333 167.462 236.056 160.812 243.411 152.449L243.805 152.795C236.36 161.261 223.532 167.948 209.771 172.899C196.001 177.852 181.257 181.081 169.941 182.611L169.871 182.091ZM143.033 136.443C139.81 136.638 136.742 136.833 133.879 137.025L133.844 136.501C136.708 136.31 139.777 136.114 143.002 135.92L143.033 136.443Z" fill="black"/>
<g opacity="0.2">
<path d="M165.32 182.899C169.163 179.855 177.472 171.557 179.969 162.714C197.1 157.908 233.09 146.375 240.006 138.685C240.397 138.251 240.527 137.851 240.417 137.484C242.168 138.685 240.006 150.7 243.608 152.622C227.759 170.644 187.254 180.656 165.32 182.899Z" fill="black"/>
<path d="M133.861 136.763C133.781 140.047 128.425 140.636 144.188 150.94C162.199 162.714 165.32 175.209 165.32 182.899C161.078 184.02 150.239 182.947 140.826 169.683C131.412 156.419 126.817 151.661 125.696 150.94C130.259 148.777 130.787 136.964 133.861 136.763Z" fill="black"/>
</g>
<g filter="url(#filter14_i_172_2080)">
<path d="M123.054 582.499C127.857 577.309 125.055 572.327 123.054 570.485L85.8315 559.912C84.6788 564.718 62.0205 579.776 50.9555 586.824C48.3814 583.337 46.1499 580.031 44.5262 577.453C39.5312 584.181 38.6926 589.948 39.243 595.234C40.4437 606.768 67.1 611.284 74.0643 608.21C80.7249 605.27 93.1065 600.507 98.3816 600.73C99.5731 600.78 100.402 601.085 100.721 601.722C102.45 605.182 105.764 606.528 107.205 606.768L117.771 606.047C119.649 604.518 121.066 602.691 122.107 600.73C125.648 594.061 124.848 585.841 123.054 582.499Z" fill="#CB2B2B"/>
</g>
<path d="M98.3816 600.73C99.5731 600.78 100.402 601.085 100.721 601.722C102.45 605.182 105.764 606.528 107.205 606.768L117.771 606.047C119.649 604.518 121.066 602.691 122.107 600.73M98.3816 600.73C93.1065 600.507 80.7249 605.27 74.0643 608.21C67.1 611.284 40.4437 606.768 39.243 595.234C38.6927 589.948 39.5312 584.181 44.5262 577.453C46.1499 580.031 48.3814 583.337 50.9555 586.824C62.0205 579.776 84.6788 564.718 85.8315 559.912L123.054 570.485C125.055 572.327 127.857 577.309 123.054 582.499C124.848 585.841 125.648 594.061 122.107 600.73M98.3816 600.73C105.149 600.399 119.37 599.935 122.107 600.73" stroke="black" stroke-width="0.524459"/>
<path d="M107.204 606.768L117.77 606.047C119.648 604.518 121.065 602.691 122.106 600.729C119.369 599.935 105.149 600.399 98.3807 600.729C99.5722 600.78 100.401 601.085 100.72 601.722C102.449 605.182 105.763 606.528 107.204 606.768Z" fill="black" fill-opacity="0.3" stroke="black" stroke-width="0.524459"/>
<path d="M39.2438 595.234C40.4445 606.768 67.1008 611.284 74.0651 608.21C67.3374 606.948 57.9001 596.23 50.9563 586.824C48.3822 583.337 46.1507 580.031 44.527 577.453C39.532 584.181 38.6934 589.948 39.2438 595.234Z" fill="black" fill-opacity="0.3" stroke="black" stroke-width="0.524459"/>
<g filter="url(#filter15_i_172_2080)">
<path d="M225.117 576.251C212.871 579.15 190.001 581.377 180.45 572.022C179.249 579.856 166.521 582.018 173.966 600.761V611.574L186.213 612.295L187.654 607.54C189.652 609.205 191.821 611.246 194.138 613.736C208.067 613.736 237.797 616.043 237.605 607.008C235.797 604.542 233.45 601.018 231.252 597.156C227.025 589.731 223.348 581.057 225.117 576.251Z" fill="#CB2B2B"/>
</g>
<path d="M173.966 600.761C166.521 582.018 179.249 579.856 180.45 572.022C190.001 581.377 212.871 579.15 225.117 576.251C223.348 581.057 227.025 589.731 231.252 597.156M173.966 600.761V611.574L186.213 612.295L187.654 607.54M173.966 600.761C176.367 600.44 183.764 602.587 194.138 613.736M194.138 613.736C208.067 613.736 237.797 616.043 237.605 607.008C235.797 604.542 233.45 601.018 231.252 597.156M194.138 613.736C195.867 613.736 204.301 606.528 207.106 602.683C210.789 597.637 218.681 587.449 220.795 587.064C222.908 586.68 228.647 593.632 231.252 597.156" stroke="black" stroke-width="0.524459"/>
<path d="M173.966 611.574V600.761C175.825 600.513 180.68 601.744 187.593 607.489L186.213 612.295L173.966 611.574Z" fill="black" fill-opacity="0.3"/>
<path d="M237.605 607.008C237.797 616.043 208.067 613.736 194.138 613.736C195.867 613.736 204.3 606.528 207.106 602.683C210.788 597.637 218.681 587.449 220.794 587.064C222.908 586.68 228.646 593.632 231.251 597.157C233.45 601.018 235.797 604.542 237.605 607.008Z" fill="black" fill-opacity="0.3"/>
<path d="M173.966 611.574V600.761C175.825 600.513 180.68 601.744 187.593 607.489L186.213 612.295L173.966 611.574Z" stroke="black" stroke-width="0.524459"/>
<path d="M237.605 607.008C237.797 616.043 208.067 613.736 194.138 613.736C195.867 613.736 204.3 606.528 207.106 602.683C210.788 597.637 218.681 587.449 220.794 587.064C222.908 586.68 228.646 593.632 231.251 597.157C233.45 601.018 235.797 604.542 237.605 607.008Z" stroke="black" stroke-width="0.524459"/>
<g filter="url(#filter16_i_172_2080)">
<path d="M264.021 383.78C179.874 454.329 116.411 431.598 95.198 411.413C103.603 428.474 85.8321 519.543 86.7927 545.735C87.0329 549.339 87.0329 557.509 85.1117 561.353C83.1905 565.198 109.607 569.043 123.055 570.484C134.342 573.368 150.912 462.835 160.518 468.121C170.124 473.408 174.686 544.293 178.769 566.88C182.035 584.95 210.228 579.776 225.117 576.251C224.349 523.388 284.433 438.085 264.021 383.78Z" fill="#484848"/>
</g>
<path d="M264.021 383.78C179.874 454.329 116.411 431.598 95.198 411.413C103.603 428.474 85.8321 519.543 86.7927 545.735C87.0329 549.339 87.0329 557.509 85.1117 561.353C83.1905 565.198 109.607 569.043 123.055 570.484C134.342 573.368 150.912 462.835 160.518 468.121C170.124 473.408 174.686 544.293 178.769 566.88C182.035 584.95 210.228 579.776 225.117 576.251C224.349 523.388 284.433 438.085 264.021 383.78Z" stroke="black" stroke-width="0.524459"/>
<path d="M95.1976 411.413C93.0843 407.376 94.317 405.246 95.1976 404.685C116.411 424.869 172.255 448.998 256.403 378.449C263.895 377.872 264.341 382.018 264.021 383.78C179.873 454.329 116.411 431.598 95.1976 411.413Z" fill="url(#paint23_radial_172_2080)" stroke="black" stroke-width="0.524459"/>
<path d="M165.346 430.251L164.51 425.666C164.37 424.899 163.689 424.35 162.909 424.376L148.374 424.863C147.468 424.893 146.775 425.68 146.86 426.582L147.268 430.944C147.345 431.764 148.04 432.385 148.863 432.371L163.826 432.106C164.796 432.089 165.52 431.206 165.346 430.251Z" fill="#FFB700" stroke="black" stroke-width="0.524459"/>
<path d="M168.202 69.9629C200.285 83.9958 217.752 75.8099 222.475 69.9629C226.397 72.526 236.163 78.0366 243.848 79.5745C244.311 77.9074 245.17 75.2124 246.109 73.0867C246.794 71.5354 247.522 70.2873 248.171 69.9629C248.491 71.8852 250.332 75.1531 255.135 72.8464C261.139 69.9629 266.902 60.3513 265.942 52.9024C261.779 52.9024 252.438 49.3538 250.325 47.6237C248.212 45.8936 243.688 35.922 241.446 29.5944C232.081 24.2279 212.053 11.1402 206.865 1.72087C195.819 2.44173 172.236 3.30677 166.281 1C164.439 4.12375 160.949 11.4285 161.718 15.6576C162.486 19.8867 161.398 25.7498 160.757 28.1526C160.373 29.5944 161.285 32.3817 163.399 33.9196L163.159 35.121C162.518 35.0409 161.526 35.0249 161.718 35.6016C161.91 36.1783 160.677 38.8855 160.037 40.1671C159.556 41.1282 159.495 41.8491 160.757 42.3297C148.99 55.3053 132.9 54.5225 168.202 69.9629Z" fill="#1B1B1B"/>
<path d="M222.475 69.9629C217.752 75.8099 200.285 83.9958 168.202 69.9629C132.9 54.5225 148.99 55.3053 160.757 42.3297M222.475 69.9629C208.45 61.3125 175.486 47.9364 160.757 42.3297M222.475 69.9629C226.397 72.526 236.163 78.0366 243.848 79.5745C244.311 77.9074 245.17 75.2124 246.109 73.0867M160.757 42.3297C159.495 41.8491 159.556 41.1282 160.037 40.1671C160.677 38.8855 161.91 36.1783 161.718 35.6016C161.526 35.0249 162.518 35.0409 163.159 35.121M248.171 69.9629C248.491 71.8852 250.332 75.1531 255.135 72.8464C261.139 69.9629 266.902 60.3513 265.942 52.9024M248.171 69.9629C247.522 70.2873 246.794 71.5354 246.109 73.0867M248.171 69.9629C240.806 64.6765 224.972 53.6233 220.554 51.7009M248.171 69.9629C253.55 70.7318 262.259 58.9096 265.942 52.9024M265.942 52.9024C261.779 52.9024 252.438 49.3538 250.325 47.6237C248.212 45.8936 243.688 35.922 241.446 29.5944M241.446 29.5944C232.081 24.2279 212.053 11.1402 206.865 1.72087M241.446 29.5944C236.323 36.0021 224.972 49.3942 220.554 51.7009M206.865 1.72087C195.819 2.44173 172.236 3.30677 166.281 1M206.865 1.72087C201.902 7.72809 191.928 20.4634 191.736 23.3469C191.544 26.2303 185.572 30.8216 182.611 32.7568M166.281 1C164.439 4.12376 160.949 11.4285 161.718 15.6576C162.486 19.8867 161.398 25.7498 160.757 28.1526C160.373 29.5944 161.285 32.3817 163.399 33.9196M166.281 1C166.761 8.92953 163.879 19.7425 162.438 24.0677C161.958 25.5095 162.678 26.7109 165.56 28.6332M163.399 33.9196L163.159 35.121M163.399 33.9196L165.56 28.6332M163.159 35.121C182.13 37.4939 226.798 63.7154 246.109 73.0867M220.554 51.7009C216.842 50.0864 197.735 39.0335 182.611 32.7568M165.56 28.6332C168.79 27.7661 175.226 29.6921 182.611 32.7568" stroke="black" stroke-width="0.524459"/>
<g opacity="0.5" filter="url(#filter17_f_172_2080)">
<ellipse cx="11.0516" cy="7.49415" rx="11.0516" ry="7.49415" transform="matrix(-0.976132 0.217177 0.216932 0.976187 198.395 12.5056)" fill="black"/>
</g>
<g opacity="0.15" filter="url(#filter18_f_172_2080)">
<ellipse cx="8.3952" cy="5.69285" rx="8.3952" ry="5.69285" transform="matrix(-0.976132 0.217177 0.216932 0.976187 196.192 14.8408)" fill="black"/>
</g>
<path d="M181.751 23.8863C182.056 25.2562 183.153 26.329 184.711 26.9459C186.268 27.5625 188.272 27.7167 190.351 27.2541C192.43 26.7915 194.18 25.8023 195.329 24.5836C196.479 23.3642 197.019 21.9271 196.714 20.5572C196.41 19.1873 195.312 18.1145 193.754 17.4976C192.197 16.881 190.194 16.7268 188.114 17.1894C186.035 17.652 184.286 18.6412 183.136 19.8599C181.987 21.0793 181.447 22.5164 181.751 23.8863Z" fill="#FFB700" stroke="black" stroke-width="0.262229"/>
<ellipse opacity="0.1" cx="7.79554" cy="5.28621" rx="7.79554" ry="5.28621" transform="matrix(-0.976132 0.217177 0.216932 0.976187 195.695 15.3684)" fill="black"/>
<path d="M183.749 22.8275C183.988 23.8994 184.89 24.7363 186.194 25.2093C187.496 25.6816 189.181 25.7826 190.936 25.3919C192.692 25.0012 194.175 24.1955 195.155 23.2156C196.135 22.2343 196.599 21.0937 196.36 20.0217C196.122 18.9498 195.22 18.1129 193.916 17.6399C192.614 17.1676 190.929 17.0666 189.173 17.4573C187.417 17.848 185.934 18.6537 184.955 19.6336C183.974 20.6148 183.511 21.7555 183.749 22.8275Z" fill="white" stroke="black" stroke-width="0.262229"/>
<path d="M201.822 25.2692L203.503 24.0677L199.701 22.8338L194.218 21.0544V22.8014L192.855 23.7751L191.256 24.9185L196.779 26.7109L198.379 25.5675L198.94 25.7497L200.303 24.7761L201.822 25.2692Z" fill="#FFB700"/>
<path d="M194.218 22.8014L200.303 24.7761M194.218 22.8014L192.855 23.7751M194.218 22.8014V21.0544L199.701 22.8338L203.503 24.0677L201.822 25.2692L200.303 24.7761M192.855 23.7751L198.379 25.5675M192.855 23.7751L191.256 24.9185L196.779 26.7109L198.379 25.5675M198.379 25.5675L198.94 25.7497L200.303 24.7761" stroke="black" stroke-width="0.262229"/>
<path d="M179.066 18.0694L178.65 16.6377L181.354 17.6455L185.255 19.0989L184.475 20.0851L184.813 21.2453L185.209 22.6078L180.811 20.9687L180.414 19.6062L179.944 19.4311L179.607 18.2708L179.066 18.0694Z" fill="#FFB700"/>
<path d="M184.475 20.0851L179.607 18.2708M184.475 20.0851L184.813 21.2453M184.475 20.0851L185.255 19.0989L181.354 17.6455L178.65 16.6377L179.066 18.0694L179.607 18.2708M184.813 21.2453L180.414 19.6062M184.813 21.2453L185.209 22.6078L180.811 20.9687L180.414 19.6062M180.414 19.6062L179.944 19.4311L179.607 18.2708" stroke="black" stroke-width="0.262229"/>
<path d="M189.815 24.0676L186.213 22.8661V22.6258C186.693 22.7059 187.894 22.6258 188.854 21.6647C189.815 20.7035 190.695 19.5021 191.015 19.0215L189.815 18.7812C189.301 18.7077 188.233 18.6882 187.764 19.1311C188.201 18.6263 188.983 17.8201 189.334 17.8201C189.719 17.8201 193.017 18.7812 194.618 19.2618L194.137 20.9438C193.897 20.3831 193.129 19.2618 191.976 19.2618C191.015 20.3831 189.094 22.722 189.094 23.1064C189.094 23.4909 189.575 23.9074 189.815 24.0676Z" fill="#CB2B2B"/>
<g filter="url(#filter19_ii_172_2080)">
<path d="M7.3029 159.591C2.74011 189.627 49.5688 222.066 87.7521 159.591C99.5009 140.368 111.286 103.603 116.81 89.4264C122.814 89.4264 132.948 90.7239 141.785 75.7299C143.626 72.6061 150.094 66.2145 155.473 65.6378C155.94 65.5877 156.452 65.2321 156.89 64.6839C149.687 60.9892 146.87 58.5184 146.693 56.332C142.264 57.1251 136.96 59.8511 132.42 66.3586C132.419 64.196 135.253 58.4771 146.588 52.9024C150.11 55.1451 157.394 57.9966 158.355 51.4607C159.316 44.9248 151.391 43.1307 147.308 43.0506C151.151 41.0482 157.683 35.986 153.072 31.757C149.95 28.8938 145.707 29.9949 144.907 31.757C145.467 28.7134 144.091 23.7314 134.1 28.1527C124.11 32.574 117.61 35.6017 115.609 36.5628C118.491 33.2789 123.39 26.2304 119.932 24.3081C116.474 22.3858 112.562 25.4876 110.942 27.7581C108.916 30.596 105.667 37.2837 104.322 38.2449C102.641 39.4463 87.9922 47.3758 86.7915 62.2737C68.3002 74.3683 28.0036 102.786 14.7475 119.703C1.49135 136.619 4.26105 153.343 7.3029 159.591Z" fill="#FCE4CB"/>
</g>
<path d="M86.7915 62.2737C68.3002 74.3683 28.0036 102.786 14.7475 119.703C1.49135 136.619 4.26104 153.343 7.3029 159.591C2.74011 189.627 49.5688 222.066 87.7521 159.591C99.5009 140.368 111.286 103.603 116.81 89.4264M86.7915 62.2737C86.2312 64.5164 88.6166 69.3382 102.641 70.6838C100.912 80.4876 111.367 87.2638 116.81 89.4264M86.7915 62.2737C87.9922 47.3758 102.641 39.4463 104.322 38.2449C105.667 37.2837 108.916 30.596 110.942 27.7581C112.562 25.4876 116.474 22.3858 119.932 24.3081C123.39 26.2304 118.491 33.2789 115.609 36.5628C117.61 35.6017 124.11 32.574 134.1 28.1527C144.091 23.7314 145.467 28.7134 144.907 31.757M116.81 89.4264C122.814 89.4264 132.948 90.7239 141.785 75.7299C143.626 72.6061 150.094 66.2145 155.473 65.6378C155.94 65.5877 156.452 65.2321 156.89 64.6839C149.687 60.9892 146.87 58.5184 146.693 56.332C142.264 57.1251 136.96 59.8511 132.42 66.3586C132.419 64.196 135.253 58.4771 146.588 52.9024C150.11 55.1451 157.394 57.9966 158.355 51.4607C159.316 44.9248 151.391 43.1307 147.308 43.0506M147.308 43.0506C151.151 41.0482 157.683 35.986 153.072 31.757C149.95 28.8938 145.707 29.9949 144.907 31.757M147.308 43.0506C142.506 45.5533 131.891 49.4422 129.778 52.9024M144.907 31.757C143.706 34.4002 124.783 41.0803 122.093 45.6938" stroke="black" stroke-width="0.524459"/>
<path d="M141.785 75.7298C143.626 72.606 150.094 66.2143 155.473 65.6376C155.94 65.5876 156.452 65.232 156.89 64.6838C149.687 60.9891 146.87 58.5183 146.693 56.3319C142.264 57.125 136.96 59.8509 132.42 66.3585C132.419 64.9877 133.558 62.188 137.278 58.9018C139.427 57.0037 142.438 54.9433 146.588 52.9023C150.11 55.145 157.394 57.9964 158.355 51.4606C159.316 44.9247 151.391 43.1306 147.308 43.0505C151.151 41.048 157.683 35.9859 153.072 31.7569C149.95 28.8937 145.707 29.9948 144.907 31.7569C145.467 28.7132 144.091 23.7313 134.1 28.1526C124.11 32.5739 117.61 35.6016 115.609 36.5627C118.491 33.2788 123.39 26.2303 119.932 24.308C116.474 22.3857 112.63 25.3926 110.942 27.7578C108.916 30.5958 105.667 37.2836 104.322 38.2447C102.734 39.3799 89.5695 46.5209 87.1087 59.8707L80.9327 62.3853C79.3051 63.048 78.7772 65.0927 79.8807 66.4605L90.7168 79.8923C92.7338 82.3925 95.0748 84.613 97.678 86.4953L113.716 98.092C115.208 99.1701 117.316 98.4174 117.788 96.6387L119.692 89.4545C125.75 89.4573 134.24 88.5312 141.785 75.7298Z" fill="#F5F5F5"/>
<path d="M147.308 43.0505C151.391 43.1306 159.316 44.9247 158.355 51.4606C157.394 57.9964 150.11 55.145 146.588 52.9023C142.438 54.9433 139.427 57.0037 137.278 58.9018C133.558 62.188 132.419 64.9877 132.42 66.3585C136.96 59.8509 142.264 57.125 146.693 56.3319C146.87 58.5183 149.687 60.9891 156.89 64.6838C156.452 65.232 155.94 65.5876 155.473 65.6376C150.094 66.2143 143.626 72.606 141.785 75.7298C134.24 88.5312 125.75 89.4573 119.692 89.4545M147.308 43.0505C151.151 41.048 157.683 35.9859 153.072 31.7569C149.95 28.8937 145.707 29.9948 144.907 31.7569M147.308 43.0505C142.506 45.5532 131.891 49.4421 129.778 52.9023C129 54.1761 131.379 57.6 134.442 58.6779M144.907 31.7569C145.467 28.7132 144.091 23.7313 134.1 28.1526C124.11 32.5739 117.61 35.6016 115.609 36.5627M144.907 31.7569C143.706 34.4001 124.783 41.0802 122.093 45.6937C120.803 47.906 124.628 50.4035 127.745 51.9625M115.609 36.5627C118.491 33.2788 123.39 26.2303 119.932 24.308C116.474 22.3857 112.63 25.3926 110.942 27.7578C108.916 30.5958 105.667 37.2836 104.322 38.2447C102.734 39.3799 89.5696 46.5209 87.1087 59.8707M115.609 36.5627C115.091 37.1536 114.434 37.9802 113.031 39.9206C111.809 41.6093 116.289 45.3288 119.45 46.1971M119.692 89.4545C118.654 89.454 117.688 89.4262 116.81 89.4262C111.367 87.2636 100.912 80.4875 102.641 70.6837C88.6166 69.3381 86.2312 64.5163 86.7915 62.2736C86.8578 61.4514 86.965 60.6505 87.1087 59.8707M119.692 89.4545L117.788 96.6387C117.316 98.4174 115.208 99.1701 113.716 98.092L97.678 86.4953C95.0748 84.613 92.7338 82.3925 90.7168 79.8923L79.8807 66.4605C78.7772 65.0927 79.3051 63.048 80.9327 62.3853L87.1087 59.8707" stroke="black" stroke-width="0.524459"/>
<path d="M129.985 61.8135C127.117 58.2259 123.12 53.0864 117.83 48.9751" stroke="black" stroke-width="0.530931"/>
<path d="M128.364 66.2732C124.448 64.9217 114.669 63.9217 106.89 70.7328M105.269 68.7057C109.456 64.2461 115.885 52.8942 108.105 43.1641" stroke="black" stroke-width="0.530931"/>
<g filter="url(#filter20_ii_172_2080)">
<path d="M340.388 331.397C335.745 316.66 312.963 292.038 258.978 311.453C254.255 313.776 243.224 319.864 236.884 325.63C230.544 331.397 212.309 328.193 203.984 325.871C201.295 319.527 192.937 316.019 189.335 315.298C182.611 313.952 179.489 310.492 179.489 307.849C178.529 302.467 174.206 301.85 173.245 302.322C158.596 309.531 167.242 320.104 171.564 325.63C175.023 330.052 161.478 330.676 154.274 330.436C139.145 332.599 145.869 344.619 148.991 344.619C139.131 347.757 143.236 357.097 147.858 358.55C141.018 362.075 144.967 368.887 148.75 370.074C147.721 371.243 147.442 372.653 147.31 373.448C147.069 374.89 147.886 378.59 153.073 381.858C161.238 385.462 162.33 382.178 162.035 380.176C173.032 385.263 188.232 381.82 192.457 379.455C199.181 375.691 221.131 370.132 255.135 378.013C289.14 385.895 319.095 366.88 329.821 356.387C342.789 352.783 341.448 334.761 340.388 331.397Z" fill="#FCE4CB"/>
</g>
<path d="M158.356 378.013C159.508 378.862 160.742 379.578 162.035 380.176M162.035 380.176C173.032 385.263 188.232 381.82 192.457 379.455C199.181 375.691 221.131 370.132 255.135 378.013C289.14 385.895 319.095 366.88 329.821 356.387C342.789 352.783 341.448 334.761 340.388 331.397C335.745 316.66 312.963 292.038 258.978 311.453C254.255 313.776 243.224 319.864 236.884 325.63C230.544 331.397 212.309 328.193 203.984 325.871C201.295 319.527 192.937 316.019 189.335 315.298C182.611 313.952 179.489 310.492 179.489 307.849C178.529 302.467 174.206 301.85 173.245 302.322C158.596 309.531 167.242 320.104 171.564 325.63C175.023 330.052 161.478 330.676 154.274 330.436C139.145 332.599 145.869 344.619 148.991 344.619M162.035 380.176C162.33 382.178 161.238 385.462 153.073 381.858C147.886 378.59 147.069 374.89 147.31 373.448C147.442 372.653 147.721 371.243 148.75 370.074M153.073 368.162C150.92 368.334 149.587 369.124 148.75 370.074M148.75 370.074C144.967 368.887 141.018 362.075 147.858 358.55M153.553 356.868C151.134 357.237 149.267 357.824 147.858 358.55M147.858 358.55C143.236 357.097 139.131 347.757 148.991 344.619M154.754 343.652C152.45 343.783 150.546 344.124 148.991 344.619" stroke="black" stroke-width="0.524459"/>
<g filter="url(#filter21_d_172_2080)">
<g filter="url(#filter22_ii_172_2080)">
<path d="M157.867 270.01L143.302 272.249L159.861 380.185C160.478 384.207 164.238 386.967 168.26 386.349C172.282 385.731 175.043 381.969 174.426 377.947L157.867 270.01Z" fill="#91582D"/>
</g>
<path d="M157.867 270.01L143.302 272.249L159.861 380.185C160.478 384.207 164.238 386.967 168.26 386.349C172.282 385.731 175.043 381.969 174.426 377.947L157.867 270.01Z" stroke="black" stroke-width="0.530931"/>
<rect x="-1.30516" y="1.73929" width="146.822" height="90.7067" transform="matrix(-0.989963 0.141313 0.141027 0.990008 204.59 201.874)" fill="#FFB700" stroke="black" stroke-width="3.0748"/>
<path d="M78.376 253.678L77.2983 246.377L106.305 242.087L107.383 249.388L97.3444 250.872L101.193 276.947L92.2632 278.268L88.4142 252.193L78.376 253.678Z" fill="black"/>
<path d="M121.852 273.891L112.074 275.337L118.164 240.333L130.548 238.501L146.491 270.247L136.714 271.693L125.843 248.589L125.582 248.627L121.852 273.891ZM118.083 260.994L136.465 258.275L137.465 265.054L119.084 267.773L118.083 260.994Z" fill="black"/>
<path d="M157.244 234.552L164.154 243.455L164.414 243.417L168.521 232.884L178.625 231.39L171.115 249.553L183.942 264.707L173.578 266.24L166.445 257.171L166.184 257.209L161.976 267.956L151.677 269.48L159.447 251.278L147.076 236.056L157.244 234.552Z" fill="black"/>
<path d="M194.345 229.065L199.272 262.44L190.211 263.78L185.285 230.405L194.345 229.065Z" fill="black"/>
<path d="M82.3337 289.062L202.77 271.248L203.232 274.377L82.7955 292.191L82.3337 289.062Z" fill="black"/>
<rect x="-1.30516" y="1.73929" width="146.822" height="90.7067" transform="matrix(-0.989963 0.141313 0.141027 0.990008 204.589 201.874)" stroke="black" stroke-width="3.0748"/>
</g>
<path d="M147.309 373.448C147.069 374.89 147.886 378.59 153.073 381.858C157.407 383.771 159.748 383.744 160.947 382.997C160.526 382.247 160.231 381.409 160.092 380.509L159.864 379.023C160.565 379.448 161.29 379.832 162.034 380.176C165.714 381.878 169.863 382.625 173.915 382.777C181.974 383.08 189.646 381.029 192.457 379.455C195.587 377.703 202.018 375.561 211.428 374.568L222.077 378.438C223.517 378.961 225.071 378.021 225.277 376.502L228.113 355.575C228.515 352.606 228.513 349.596 228.108 346.627L225.334 326.335C225.11 324.697 223.339 323.77 221.866 324.519L214.791 328.12C210.626 327.515 206.756 326.644 203.984 325.871C201.294 319.527 192.937 316.019 189.335 315.298C182.611 313.952 179.489 310.492 179.489 307.849C178.528 302.467 176.287 301.163 173.245 302.322C157.538 308.311 167.241 320.104 171.564 325.63C175.022 330.052 161.478 330.676 154.274 330.436C139.144 332.599 145.868 344.619 148.99 344.619C139.13 347.757 143.236 357.097 147.858 358.55C141.018 362.075 144.967 368.887 148.75 370.074C147.72 371.243 147.442 372.653 147.309 373.448Z" fill="#F5F5F5"/>
<path d="M153.073 368.162C150.92 368.334 149.587 369.124 148.75 370.074M148.75 370.074C147.72 371.243 147.442 372.653 147.309 373.448C147.069 374.89 147.886 378.59 153.073 381.858C157.407 383.771 159.748 383.744 160.947 382.997C160.526 382.247 160.231 381.409 160.092 380.509L159.864 379.023M148.75 370.074C144.967 368.887 141.018 362.075 147.858 358.55M153.553 356.868C151.133 357.237 149.267 357.824 147.858 358.55M147.858 358.55C143.236 357.097 139.13 347.757 148.99 344.619M154.754 343.652C152.45 343.783 150.546 344.124 148.99 344.619M148.99 344.619C145.868 344.619 139.144 332.599 154.274 330.436C161.478 330.676 175.022 330.052 171.564 325.63C167.241 320.104 157.538 308.311 173.245 302.322C176.287 301.163 178.528 302.467 179.489 307.849C179.489 310.492 182.611 313.952 189.335 315.298C192.937 316.019 201.294 319.527 203.984 325.871C206.756 326.644 210.626 327.515 214.791 328.12M214.791 328.12L221.866 324.519C223.339 323.77 225.11 324.697 225.334 326.335L228.108 346.627C228.513 349.596 228.515 352.606 228.113 355.575L225.277 376.502C225.071 378.021 223.517 378.961 222.077 378.438L211.428 374.568M214.791 328.12C216.151 341.733 217.384 370.082 211.428 374.568M211.428 374.568C202.018 375.561 195.587 377.703 192.457 379.455C189.646 381.029 181.974 383.08 173.915 382.777C169.863 382.625 165.714 381.878 162.034 380.176C161.29 379.832 160.565 379.448 159.864 379.023M159.864 379.023C158.919 378.449 157.538 377.638 157.133 376.422M153.073 367.097C151.77 365.746 150.041 362.07 153.553 358.178M154.754 344.619C152.89 347.517 150.65 350.475 153.553 355.34M154.754 331.42C153.826 333.312 152.527 338.069 154.754 341.961" stroke="black" stroke-width="0.530931"/>
<defs>
<filter id="filter0_f_172_2080" x="35.7664" y="172.713" width="80.6334" height="73.1816" filterUnits="userSpaceOnUse" color-interpolation-filters="sRGB">
<feFlood flood-opacity="0" result="BackgroundImageFix"/>
<feBlend mode="normal" in="SourceGraphic" in2="BackgroundImageFix" result="shape"/>
<feGaussianBlur stdDeviation="3.53954" result="effect1_foregroundBlur_172_2080"/>
</filter>
<filter id="filter1_ii_172_2080" x="123.157" y="102.917" width="121.488" height="82.4007" filterUnits="userSpaceOnUse" color-interpolation-filters="sRGB">
<feFlood flood-opacity="0" result="BackgroundImageFix"/>
<feBlend mode="normal" in="SourceGraphic" in2="BackgroundImageFix" result="shape"/>
<feColorMatrix in="SourceAlpha" type="matrix" values="0 0 0 0 0 0 0 0 0 0 0 0 0 0 0 0 0 0 127 0" result="hardAlpha"/>
<feOffset dx="-11.5381" dy="-2.09783"/>
<feGaussianBlur stdDeviation="8.39134"/>
<feComposite in2="hardAlpha" operator="arithmetic" k2="-1" k3="1"/>
<feColorMatrix type="matrix" values="0 0 0 0 0.929412 0 0 0 0 0.654902 0 0 0 0 0.564706 0 0 0 0.6 0"/>
<feBlend mode="normal" in2="shape" result="effect1_innerShadow_172_2080"/>
<feColorMatrix in="SourceAlpha" type="matrix" values="0 0 0 0 0 0 0 0 0 0 0 0 0 0 0 0 0 0 127 0" result="hardAlpha"/>
<feOffset dx="6.2935" dy="2.09783"/>
<feGaussianBlur stdDeviation="8.39134"/>
<feComposite in2="hardAlpha" operator="arithmetic" k2="-1" k3="1"/>
<feColorMatrix type="matrix" values="0 0 0 0 0.929412 0 0 0 0 0.654902 0 0 0 0 0.564706 0 0 0 0.6 0"/>
<feBlend mode="normal" in2="effect1_innerShadow_172_2080" result="effect2_innerShadow_172_2080"/>
</filter>
<filter id="filter2_f_172_2080" x="135.786" y="94.491" width="94.3612" height="61.4062" filterUnits="userSpaceOnUse" color-interpolation-filters="sRGB">
<feFlood flood-opacity="0" result="BackgroundImageFix"/>
<feBlend mode="normal" in="SourceGraphic" in2="BackgroundImageFix" result="shape"/>
<feGaussianBlur stdDeviation="4.19567" result="effect1_foregroundBlur_172_2080"/>
</filter>
<filter id="filter3_ii_172_2080" x="135.248" y="27.7618" width="121.73" height="117.411" filterUnits="userSpaceOnUse" color-interpolation-filters="sRGB">
<feFlood flood-opacity="0" result="BackgroundImageFix"/>
<feBlend mode="normal" in="SourceGraphic" in2="BackgroundImageFix" result="shape"/>
<feColorMatrix in="SourceAlpha" type="matrix" values="0 0 0 0 0 0 0 0 0 0 0 0 0 0 0 0 0 0 127 0" result="hardAlpha"/>
<feOffset dx="-3.67121" dy="-2.09783"/>
<feGaussianBlur stdDeviation="8.39134"/>
<feComposite in2="hardAlpha" operator="arithmetic" k2="-1" k3="1"/>
<feColorMatrix type="matrix" values="0 0 0 0 0.929412 0 0 0 0 0.654902 0 0 0 0 0.564706 0 0 0 0.5 0"/>
<feBlend mode="normal" in2="shape" result="effect1_innerShadow_172_2080"/>
<feColorMatrix in="SourceAlpha" type="matrix" values="0 0 0 0 0 0 0 0 0 0 0 0 0 0 0 0 0 0 127 0" result="hardAlpha"/>
<feOffset dx="16.7827" dy="2.09783"/>
<feGaussianBlur stdDeviation="8.39134"/>
<feComposite in2="hardAlpha" operator="arithmetic" k2="-1" k3="1"/>
<feColorMatrix type="matrix" values="0 0 0 0 0.929412 0 0 0 0 0.654902 0 0 0 0 0.564706 0 0 0 0.5 0"/>
<feBlend mode="normal" in2="effect1_innerShadow_172_2080" result="effect2_innerShadow_172_2080"/>
</filter>
<filter id="filter4_f_172_2080" x="175.18" y="72.3848" width="40.3171" height="27.3554" filterUnits="userSpaceOnUse" color-interpolation-filters="sRGB">
<feFlood flood-opacity="0" result="BackgroundImageFix"/>
<feBlend mode="normal" in="SourceGraphic" in2="BackgroundImageFix" result="shape"/>
<feGaussianBlur stdDeviation="4.19567" result="effect1_foregroundBlur_172_2080"/>
</filter>
<filter id="filter5_f_172_2080" x="148.635" y="66.6207" width="22.426" height="19.2288" filterUnits="userSpaceOnUse" color-interpolation-filters="sRGB">
<feFlood flood-opacity="0" result="BackgroundImageFix"/>
<feBlend mode="normal" in="SourceGraphic" in2="BackgroundImageFix" result="shape"/>
<feGaussianBlur stdDeviation="2.86702" result="effect1_foregroundBlur_172_2080"/>
</filter>
<filter id="filter6_f_172_2080" x="146.123" y="54.8435" width="90.547" height="64.1416" filterUnits="userSpaceOnUse" color-interpolation-filters="sRGB">
<feFlood flood-opacity="0" result="BackgroundImageFix"/>
<feBlend mode="normal" in="SourceGraphic" in2="BackgroundImageFix" result="shape"/>
<feGaussianBlur stdDeviation="4.19567" result="effect1_foregroundBlur_172_2080"/>
</filter>
<filter id="filter7_f_172_2080" x="135.057" y="105.958" width="43.3664" height="41.3187" filterUnits="userSpaceOnUse" color-interpolation-filters="sRGB">
<feFlood flood-opacity="0" result="BackgroundImageFix"/>
<feBlend mode="normal" in="SourceGraphic" in2="BackgroundImageFix" result="shape"/>
<feGaussianBlur stdDeviation="3.67227" result="effect1_foregroundBlur_172_2080"/>
</filter>
<filter id="filter8_f_172_2080" x="145.421" y="84.8177" width="23.5192" height="35.1133" filterUnits="userSpaceOnUse" color-interpolation-filters="sRGB">
<feFlood flood-opacity="0" result="BackgroundImageFix"/>
<feBlend mode="normal" in="SourceGraphic" in2="BackgroundImageFix" result="shape"/>
<feGaussianBlur stdDeviation="3.67121" result="effect1_foregroundBlur_172_2080"/>
</filter>
<filter id="filter9_f_172_2080" x="152.938" y="78.7967" width="35.2886" height="24.782" filterUnits="userSpaceOnUse" color-interpolation-filters="sRGB">
<feFlood flood-opacity="0" result="BackgroundImageFix"/>
<feBlend mode="normal" in="SourceGraphic" in2="BackgroundImageFix" result="shape"/>
<feGaussianBlur stdDeviation="3.67121" result="effect1_foregroundBlur_172_2080"/>
</filter>
<filter id="filter10_i_172_2080" x="158.596" y="69.2422" width="7.68469" height="7.05615" filterUnits="userSpaceOnUse" color-interpolation-filters="sRGB">
<feFlood flood-opacity="0" result="BackgroundImageFix"/>
<feBlend mode="normal" in="SourceGraphic" in2="BackgroundImageFix" result="shape"/>
<feColorMatrix in="SourceAlpha" type="matrix" values="0 0 0 0 0 0 0 0 0 0 0 0 0 0 0 0 0 0 127 0" result="hardAlpha"/>
<feOffset/>
<feGaussianBlur stdDeviation="2.62229"/>
<feComposite in2="hardAlpha" operator="arithmetic" k2="-1" k3="1"/>
<feColorMatrix type="matrix" values="0 0 0 0 0.0313726 0 0 0 0 0.235294 0 0 0 0 0.54902 0 0 0 1 0"/>
<feBlend mode="normal" in2="shape" result="effect1_innerShadow_172_2080"/>
</filter>
<filter id="filter11_d_172_2080" x="159.774" y="69.7739" width="6.42125" height="6.42308" filterUnits="userSpaceOnUse" color-interpolation-filters="sRGB">
<feFlood flood-opacity="0" result="BackgroundImageFix"/>
<feColorMatrix in="SourceAlpha" type="matrix" values="0 0 0 0 0 0 0 0 0 0 0 0 0 0 0 0 0 0 127 0" result="hardAlpha"/>
<feOffset/>
<feGaussianBlur stdDeviation="0.884884"/>
<feComposite in2="hardAlpha" operator="out"/>
<feColorMatrix type="matrix" values="0 0 0 0 1 0 0 0 0 1 0 0 0 0 1 0 0 0 0.6 0"/>
<feBlend mode="normal" in2="BackgroundImageFix" result="effect1_dropShadow_172_2080"/>
<feBlend mode="normal" in="SourceGraphic" in2="effect1_dropShadow_172_2080" result="shape"/>
</filter>
<filter id="filter12_i_172_2080" x="191.256" y="75.9702" width="9.60583" height="9.44214" filterUnits="userSpaceOnUse" color-interpolation-filters="sRGB">
<feFlood flood-opacity="0" result="BackgroundImageFix"/>
<feBlend mode="normal" in="SourceGraphic" in2="BackgroundImageFix" result="shape"/>
<feColorMatrix in="SourceAlpha" type="matrix" values="0 0 0 0 0 0 0 0 0 0 0 0 0 0 0 0 0 0 127 0" result="hardAlpha"/>
<feOffset/>
<feGaussianBlur stdDeviation="2.62229"/>
<feComposite in2="hardAlpha" operator="arithmetic" k2="-1" k3="1"/>
<feColorMatrix type="matrix" values="0 0 0 0 0.0313726 0 0 0 0 0.235294 0 0 0 0 0.54902 0 0 0 1 0"/>
<feBlend mode="normal" in2="shape" result="effect1_innerShadow_172_2080"/>
</filter>
<filter id="filter13_d_172_2080" x="192.848" y="77.084" width="7.38194" height="7.38426" filterUnits="userSpaceOnUse" color-interpolation-filters="sRGB">
<feFlood flood-opacity="0" result="BackgroundImageFix"/>
<feColorMatrix in="SourceAlpha" type="matrix" values="0 0 0 0 0 0 0 0 0 0 0 0 0 0 0 0 0 0 127 0" result="hardAlpha"/>
<feOffset/>
<feGaussianBlur stdDeviation="0.884884"/>
<feComposite in2="hardAlpha" operator="out"/>
<feColorMatrix type="matrix" values="0 0 0 0 1 0 0 0 0 1 0 0 0 0 1 0 0 0 0.6 0"/>
<feBlend mode="normal" in2="BackgroundImageFix" result="effect1_dropShadow_172_2080"/>
<feBlend mode="normal" in="SourceGraphic" in2="effect1_dropShadow_172_2080" result="shape"/>
</filter>
<filter id="filter14_i_172_2080" x="31.7551" y="559.585" width="94.2133" height="51.5957" filterUnits="userSpaceOnUse" color-interpolation-filters="sRGB">
<feFlood flood-opacity="0" result="BackgroundImageFix"/>
<feBlend mode="normal" in="SourceGraphic" in2="BackgroundImageFix" result="shape"/>
<feColorMatrix in="SourceAlpha" type="matrix" values="0 0 0 0 0 0 0 0 0 0 0 0 0 0 0 0 0 0 127 0" result="hardAlpha"/>
<feOffset dx="-7.07907" dy="1.76977"/>
<feGaussianBlur stdDeviation="7.07907"/>
<feComposite in2="hardAlpha" operator="arithmetic" k2="-1" k3="1"/>
<feColorMatrix type="matrix" values="0 0 0 0 1 0 0 0 0 1 0 0 0 0 1 0 0 0 0.4 0"/>
<feBlend mode="normal" in2="shape" result="effect1_innerShadow_172_2080"/>
</filter>
<filter id="filter15_i_172_2080" x="164.302" y="571.478" width="73.5659" height="42.7847" filterUnits="userSpaceOnUse" color-interpolation-filters="sRGB">
<feFlood flood-opacity="0" result="BackgroundImageFix"/>
<feBlend mode="normal" in="SourceGraphic" in2="BackgroundImageFix" result="shape"/>
<feColorMatrix in="SourceAlpha" type="matrix" values="0 0 0 0 0 0 0 0 0 0 0 0 0 0 0 0 0 0 127 0" result="hardAlpha"/>
<feOffset dx="-7.07907"/>
<feGaussianBlur stdDeviation="7.07907"/>
<feComposite in2="hardAlpha" operator="arithmetic" k2="-1" k3="1"/>
<feColorMatrix type="matrix" values="0 0 0 0 1 0 0 0 0 1 0 0 0 0 1 0 0 0 0.4 0"/>
<feBlend mode="normal" in2="shape" result="effect1_innerShadow_172_2080"/>
</filter>
<filter id="filter16_i_172_2080" x="84.7501" y="383.341" width="189.96" height="196.664" filterUnits="userSpaceOnUse" color-interpolation-filters="sRGB">
<feFlood flood-opacity="0" result="BackgroundImageFix"/>
<feBlend mode="normal" in="SourceGraphic" in2="BackgroundImageFix" result="shape"/>
<feColorMatrix in="SourceAlpha" type="matrix" values="0 0 0 0 0 0 0 0 0 0 0 0 0 0 0 0 0 0 127 0" result="hardAlpha"/>
<feOffset dx="6.19419"/>
<feGaussianBlur stdDeviation="3.09709"/>
<feComposite in2="hardAlpha" operator="arithmetic" k2="-1" k3="1"/>
<feColorMatrix type="matrix" values="0 0 0 0 0 0 0 0 0 0 0 0 0 0 0 0 0 0 0.2 0"/>
<feBlend mode="normal" in2="shape" result="effect1_innerShadow_172_2080"/>
</filter>
<filter id="filter17_f_172_2080" x="174.126" y="10.3244" width="30.2135" height="23.7942" filterUnits="userSpaceOnUse" color-interpolation-filters="sRGB">
<feFlood flood-opacity="0" result="BackgroundImageFix"/>
<feBlend mode="normal" in="SourceGraphic" in2="BackgroundImageFix" result="shape"/>
<feGaussianBlur stdDeviation="2.09783" result="effect1_foregroundBlur_172_2080"/>
</filter>
<filter id="filter18_f_172_2080" x="178.846" y="14.2733" width="20.7727" height="15.8961" filterUnits="userSpaceOnUse" color-interpolation-filters="sRGB">
<feFlood flood-opacity="0" result="BackgroundImageFix"/>
<feBlend mode="normal" in="SourceGraphic" in2="BackgroundImageFix" result="shape"/>
<feGaussianBlur stdDeviation="1.04892" result="effect1_foregroundBlur_172_2080"/>
</filter>
<filter id="filter19_ii_172_2080" x="-12.2636" y="21.3463" width="187.744" height="176.306" filterUnits="userSpaceOnUse" color-interpolation-filters="sRGB">
<feFlood flood-opacity="0" result="BackgroundImageFix"/>
<feBlend mode="normal" in="SourceGraphic" in2="BackgroundImageFix" result="shape"/>
<feColorMatrix in="SourceAlpha" type="matrix" values="0 0 0 0 0 0 0 0 0 0 0 0 0 0 0 0 0 0 127 0" result="hardAlpha"/>
<feOffset dx="-16.7827" dy="-2.09783"/>
<feGaussianBlur stdDeviation="8.39134"/>
<feComposite in2="hardAlpha" operator="arithmetic" k2="-1" k3="1"/>
<feColorMatrix type="matrix" values="0 0 0 0 0.929412 0 0 0 0 0.654902 0 0 0 0 0.564706 0 0 0 0.6 0"/>
<feBlend mode="normal" in2="shape" result="effect1_innerShadow_172_2080"/>
<feColorMatrix in="SourceAlpha" type="matrix" values="0 0 0 0 0 0 0 0 0 0 0 0 0 0 0 0 0 0 127 0" result="hardAlpha"/>
<feOffset dx="16.7827" dy="2.09783"/>
<feGaussianBlur stdDeviation="8.39134"/>
<feComposite in2="hardAlpha" operator="arithmetic" k2="-1" k3="1"/>
<feColorMatrix type="matrix" values="0 0 0 0 0.929412 0 0 0 0 0.654902 0 0 0 0 0.564706 0 0 0 0.6 0"/>
<feBlend mode="normal" in2="effect1_innerShadow_172_2080" result="effect2_innerShadow_172_2080"/>
</filter>
<filter id="filter20_ii_172_2080" x="125.893" y="289.345" width="232.177" height="106.975" filterUnits="userSpaceOnUse" color-interpolation-filters="sRGB">
<feFlood flood-opacity="0" result="BackgroundImageFix"/>
<feBlend mode="normal" in="SourceGraphic" in2="BackgroundImageFix" result="shape"/>
<feColorMatrix in="SourceAlpha" type="matrix" values="0 0 0 0 0 0 0 0 0 0 0 0 0 0 0 0 0 0 127 0" result="hardAlpha"/>
<feOffset dx="-16.7827" dy="-12.587"/>
<feGaussianBlur stdDeviation="8.39134"/>
<feComposite in2="hardAlpha" operator="arithmetic" k2="-1" k3="1"/>
<feColorMatrix type="matrix" values="0 0 0 0 0.929412 0 0 0 0 0.654902 0 0 0 0 0.564706 0 0 0 0.6 0"/>
<feBlend mode="normal" in2="shape" result="effect1_innerShadow_172_2080"/>
<feColorMatrix in="SourceAlpha" type="matrix" values="0 0 0 0 0 0 0 0 0 0 0 0 0 0 0 0 0 0 127 0" result="hardAlpha"/>
<feOffset dx="16.7827" dy="12.587"/>
<feGaussianBlur stdDeviation="8.39134"/>
<feComposite in2="hardAlpha" operator="arithmetic" k2="-1" k3="1"/>
<feColorMatrix type="matrix" values="0 0 0 0 0.929412 0 0 0 0 0.654902 0 0 0 0 0.564706 0 0 0 0.6 0"/>
<feBlend mode="normal" in2="effect1_innerShadow_172_2080" result="effect2_innerShadow_172_2080"/>
</filter>
<filter id="filter21_d_172_2080" x="52.8454" y="198.133" width="184.625" height="208.036" filterUnits="userSpaceOnUse" color-interpolation-filters="sRGB">
<feFlood flood-opacity="0" result="BackgroundImageFix"/>
<feColorMatrix in="SourceAlpha" type="matrix" values="0 0 0 0 0 0 0 0 0 0 0 0 0 0 0 0 0 0 127 0" result="hardAlpha"/>
<feOffset dx="5.3093" dy="7.96396"/>
<feGaussianBlur stdDeviation="5.75175"/>
<feComposite in2="hardAlpha" operator="out"/>
<feColorMatrix type="matrix" values="0 0 0 0 0 0 0 0 0 0 0 0 0 0 0 0 0 0 0.25 0"/>
<feBlend mode="normal" in2="BackgroundImageFix" result="effect1_dropShadow_172_2080"/>
<feBlend mode="normal" in="SourceGraphic" in2="effect1_dropShadow_172_2080" result="shape"/>
</filter>
<filter id="filter22_ii_172_2080" x="141.229" y="269.708" width="35.3177" height="116.993" filterUnits="userSpaceOnUse" color-interpolation-filters="sRGB">
<feFlood flood-opacity="0" result="BackgroundImageFix"/>
<feBlend mode="normal" in="SourceGraphic" in2="BackgroundImageFix" result="shape"/>
<feColorMatrix in="SourceAlpha" type="matrix" values="0 0 0 0 0 0 0 0 0 0 0 0 0 0 0 0 0 0 127 0" result="hardAlpha"/>
<feOffset dx="1.76977"/>
<feGaussianBlur stdDeviation="2.21221"/>
<feComposite in2="hardAlpha" operator="arithmetic" k2="-1" k3="1"/>
<feColorMatrix type="matrix" values="0 0 0 0 0 0 0 0 0 0 0 0 0 0 0 0 0 0 0.5 0"/>
<feBlend mode="normal" in2="shape" result="effect1_innerShadow_172_2080"/>
<feColorMatrix in="SourceAlpha" type="matrix" values="0 0 0 0 0 0 0 0 0 0 0 0 0 0 0 0 0 0 127 0" result="hardAlpha"/>
<feOffset dx="-1.76977"/>
<feGaussianBlur stdDeviation="2.21221"/>
<feComposite in2="hardAlpha" operator="arithmetic" k2="-1" k3="1"/>
<feColorMatrix type="matrix" values="0 0 0 0 0 0 0 0 0 0 0 0 0 0 0 0 0 0 0.5 0"/>
<feBlend mode="normal" in2="effect1_innerShadow_172_2080" result="effect2_innerShadow_172_2080"/>
</filter>
<linearGradient id="paint0_linear_172_2080" x1="255.997" y1="272.634" x2="239.373" y2="252.778" gradientUnits="userSpaceOnUse">
<stop/>
<stop offset="1" stop-opacity="0"/>
</linearGradient>
<linearGradient id="paint1_linear_172_2080" x1="255.997" y1="272.634" x2="239.373" y2="252.778" gradientUnits="userSpaceOnUse">
<stop/>
<stop offset="1" stop-opacity="0"/>
</linearGradient>
<linearGradient id="paint2_linear_172_2080" x1="255.997" y1="272.634" x2="239.373" y2="252.778" gradientUnits="userSpaceOnUse">
<stop/>
<stop offset="1" stop-opacity="0"/>
</linearGradient>
<linearGradient id="paint3_linear_172_2080" x1="255.997" y1="272.634" x2="239.373" y2="252.778" gradientUnits="userSpaceOnUse">
<stop/>
<stop offset="1" stop-opacity="0"/>
</linearGradient>
<linearGradient id="paint4_linear_172_2080" x1="255.997" y1="272.634" x2="239.373" y2="252.778" gradientUnits="userSpaceOnUse">
<stop/>
<stop offset="1" stop-opacity="0"/>
</linearGradient>
<linearGradient id="paint5_linear_172_2080" x1="129.058" y1="191.619" x2="59.8437" y2="205.929" gradientUnits="userSpaceOnUse">
<stop/>
<stop offset="1" stop-opacity="0"/>
</linearGradient>
<linearGradient id="paint6_linear_172_2080" x1="47.8093" y1="228.767" x2="47.7328" y2="208.982" gradientUnits="userSpaceOnUse">
<stop/>
<stop offset="1" stop-opacity="0"/>
</linearGradient>
<linearGradient id="paint7_linear_172_2080" x1="35.9825" y1="187.495" x2="95.9531" y2="200.859" gradientUnits="userSpaceOnUse">
<stop offset="0.00281864"/>
<stop offset="1" stop-opacity="0"/>
</linearGradient>
<linearGradient id="paint8_linear_172_2080" x1="266.937" y1="269.39" x2="254.769" y2="236.556" gradientUnits="userSpaceOnUse">
<stop offset="0.00281864"/>
<stop offset="1" stop-opacity="0"/>
</linearGradient>
<linearGradient id="paint9_linear_172_2080" x1="35.9825" y1="187.495" x2="95.9531" y2="200.859" gradientUnits="userSpaceOnUse">
<stop offset="0.00281864"/>
<stop offset="1" stop-opacity="0"/>
</linearGradient>
<linearGradient id="paint10_linear_172_2080" x1="266.937" y1="269.39" x2="254.769" y2="236.556" gradientUnits="userSpaceOnUse">
<stop offset="0.00281864"/>
<stop offset="1" stop-opacity="0"/>
</linearGradient>
<linearGradient id="paint11_linear_172_2080" x1="35.9825" y1="187.495" x2="95.9531" y2="200.859" gradientUnits="userSpaceOnUse">
<stop offset="0.00281864"/>
<stop offset="1" stop-opacity="0"/>
</linearGradient>
<linearGradient id="paint12_linear_172_2080" x1="266.937" y1="269.39" x2="254.769" y2="236.556" gradientUnits="userSpaceOnUse">
<stop offset="0.00281864"/>
<stop offset="1" stop-opacity="0"/>
</linearGradient>
<linearGradient id="paint13_linear_172_2080" x1="35.9825" y1="187.495" x2="95.9531" y2="200.859" gradientUnits="userSpaceOnUse">
<stop offset="0.00281864"/>
<stop offset="1" stop-opacity="0"/>
</linearGradient>
<linearGradient id="paint14_linear_172_2080" x1="266.937" y1="269.39" x2="254.769" y2="236.556" gradientUnits="userSpaceOnUse">
<stop offset="0.00281864"/>
<stop offset="1" stop-opacity="0"/>
</linearGradient>
<linearGradient id="paint15_linear_172_2080" x1="386.467" y1="257.633" x2="305.428" y2="267.757" gradientUnits="userSpaceOnUse">
<stop/>
<stop offset="1" stop-opacity="0"/>
</linearGradient>
<linearGradient id="paint16_linear_172_2080" x1="246.273" y1="290.067" x2="282.756" y2="260.897" gradientUnits="userSpaceOnUse">
<stop/>
<stop offset="1" stop-opacity="0"/>
</linearGradient>
<linearGradient id="paint17_linear_172_2080" x1="301.378" y1="331.015" x2="301.378" y2="283.58" gradientUnits="userSpaceOnUse">
<stop/>
<stop offset="1" stop-opacity="0"/>
</linearGradient>
<linearGradient id="paint18_linear_172_2080" x1="386.467" y1="257.633" x2="305.428" y2="267.757" gradientUnits="userSpaceOnUse">
<stop/>
<stop offset="1" stop-opacity="0"/>
</linearGradient>
<linearGradient id="paint19_linear_172_2080" x1="246.273" y1="290.067" x2="282.756" y2="260.897" gradientUnits="userSpaceOnUse">
<stop/>
<stop offset="1" stop-opacity="0"/>
</linearGradient>
<linearGradient id="paint20_linear_172_2080" x1="301.378" y1="331.015" x2="301.378" y2="283.58" gradientUnits="userSpaceOnUse">
<stop/>
<stop offset="1" stop-opacity="0"/>
</linearGradient>
<linearGradient id="paint21_linear_172_2080" x1="281.524" y1="337.907" x2="185.494" y2="329.403" gradientUnits="userSpaceOnUse">
<stop/>
<stop offset="1" stop-opacity="0"/>
</linearGradient>
<radialGradient id="paint22_radial_172_2080" cx="0" cy="0" r="1" gradientUnits="userSpaceOnUse" gradientTransform="translate(164.426 106.005) rotate(101.882) scale(7.8717 19.4875)">
<stop stop-color="#FFC3B5"/>
<stop offset="1" stop-color="#DE8673"/>
</radialGradient>
<radialGradient id="paint23_radial_172_2080" cx="0" cy="0" r="1" gradientUnits="userSpaceOnUse" gradientTransform="translate(162.4 427.911) rotate(63.4485) scale(10.8774 511.058)">
<stop stop-color="#252525"/>
<stop offset="1" stop-color="#1B1B1B"/>
</radialGradient>
</defs>
</svg>
